<svg width="442" height="93" viewBox="0 0 442 93" fill="none" xmlns="http://www.w3.org/2000/svg">
<path d="M21.528 67.448C21.96 67.144 22.272 67.008 22.464 67.04H22.488C22.536 67.04 22.592 67.056 22.656 67.088C22.736 67.12 22.808 67.176 22.872 67.256C22.936 67.32 23.008 67.408 23.088 67.52C23.296 67.824 23.368 68.032 23.304 68.144V68.168C23.256 68.28 23.184 68.856 23.088 69.896C23.024 70.904 22.96 71.44 22.896 71.504C22.848 71.6 22.824 71.856 22.824 72.272C22.84 72.608 22.8 72.928 22.704 73.232C22.608 73.52 22.52 74.048 22.44 74.816C22.36 75.568 22.264 76.272 22.152 76.928C22.008 77.936 21.896 78.848 21.816 79.664C21.736 80.48 21.68 81.208 21.648 81.848C21.632 82.536 21.6 82.96 21.552 83.12C21.536 83.216 21.504 83.296 21.456 83.36C21.408 83.424 21.352 83.48 21.288 83.528C21.16 83.624 21.064 83.672 21 83.672C20.936 83.672 20.832 83.616 20.688 83.504H20.664C20.456 83.36 20.32 83.176 20.256 82.952C20.208 82.728 20.2 82.384 20.232 81.92C20.248 81.84 20.264 81.688 20.28 81.464C20.296 81.256 20.32 80.984 20.352 80.648C20.384 80.312 20.416 79.904 20.448 79.424C20.464 79.2 20.48 78.992 20.496 78.8C20.528 78.592 20.552 78.424 20.568 78.296C20.584 78.152 20.6 78.024 20.616 77.912C20.632 77.8 20.64 77.72 20.64 77.672C20.656 77.608 20.672 77.568 20.688 77.552C20.768 77.408 20.896 76.336 21.072 74.336C21.088 74.128 21.112 73.928 21.144 73.736C21.176 73.528 21.208 73.344 21.24 73.184C21.272 73.008 21.312 72.848 21.36 72.704C21.44 72.416 21.504 72.008 21.552 71.48C21.616 70.936 21.648 70.472 21.648 70.088C21.648 69.88 21.64 69.728 21.624 69.632C21.608 69.504 21.576 69.424 21.528 69.392L21.504 69.368C21.456 69.368 21.392 69.392 21.312 69.44C21.232 69.472 21.136 69.528 21.024 69.608C20.912 69.688 20.768 69.792 20.592 69.92C20.432 70.016 20.288 70.104 20.16 70.184C19.456 70.52 18.968 70.448 18.696 69.968C18.584 69.76 18.568 69.6 18.648 69.488C18.744 69.36 19.008 69.16 19.44 68.888C20 68.616 20.376 68.384 20.568 68.192C20.824 67.984 21.144 67.736 21.528 67.448Z" fill="black"/>
<rect x="1" y="52" width="40" height="40" stroke="#7A7A7A"/>
<path d="M57.42 71.024C58.316 69.2 59.156 68.096 59.94 67.712C60.308 67.52 60.812 67.424 61.452 67.424C61.66 67.424 61.852 67.44 62.028 67.472C62.204 67.488 62.356 67.52 62.484 67.568C62.612 67.6 62.724 67.648 62.82 67.712C62.884 67.744 62.948 67.784 63.012 67.832C63.076 67.88 63.14 67.936 63.204 68C63.284 68.064 63.356 68.136 63.42 68.216C63.5 68.296 63.58 68.384 63.66 68.48C63.74 68.576 63.82 68.68 63.9 68.792C64.092 69.08 64.252 69.344 64.38 69.584C64.524 69.808 64.62 70.016 64.668 70.208C64.7 70.304 64.828 70.688 65.052 71.36C65.18 71.744 65.244 72.52 65.244 73.688C65.244 74.84 65.18 75.584 65.052 75.92C64.892 76.272 64.812 76.568 64.812 76.808C64.812 77.144 64.692 77.744 64.452 78.608C64.324 79.04 64.196 79.432 64.068 79.784C63.94 80.12 63.804 80.424 63.66 80.696C63.436 81.144 63.172 81.552 62.868 81.92C62.58 82.288 62.252 82.616 61.884 82.904C61.164 83.48 60.5 83.736 59.892 83.672C59.252 83.592 58.636 83.352 58.044 82.952C57.468 82.552 57.036 82.064 56.748 81.488C56.62 81.232 56.508 80.992 56.412 80.768C56.316 80.544 56.236 80.344 56.172 80.168C56.06 79.784 55.98 79.344 55.932 78.848C55.884 78.352 55.86 77.712 55.86 76.928C55.86 75.584 55.932 74.624 56.076 74.048C56.236 73.472 56.684 72.464 57.42 71.024ZM63.036 69.992C62.732 69.464 62.388 69.104 62.004 68.912C61.572 68.656 61.188 68.72 60.852 69.104C60.676 69.328 60.508 69.44 60.348 69.44C60.316 69.44 60.276 69.448 60.228 69.464C60.18 69.464 60.132 69.48 60.084 69.512C60.052 69.528 60.012 69.552 59.964 69.584C59.916 69.6 59.868 69.632 59.82 69.68C59.788 69.712 59.748 69.752 59.7 69.8C59.508 70.04 59.132 70.688 58.572 71.744C58.012 72.816 57.7 73.544 57.636 73.928C57.604 73.992 57.572 74.072 57.54 74.168C57.524 74.248 57.5 74.36 57.468 74.504C57.404 74.776 57.348 74.96 57.3 75.056C57.172 75.52 57.14 76.32 57.204 77.456C57.284 78.576 57.428 79.416 57.636 79.976C57.892 80.808 58.292 81.424 58.836 81.824C59.38 82.208 59.956 82.304 60.564 82.112C60.98 81.968 61.452 81.536 61.98 80.816C62.524 80.096 62.812 79.512 62.844 79.064C62.844 78.856 62.908 78.648 63.036 78.44C63.164 78.216 63.228 77.936 63.228 77.6C63.228 77.296 63.316 76.968 63.492 76.616C63.636 76.28 63.732 75.52 63.78 74.336C63.828 73.136 63.788 72.272 63.66 71.744C63.548 71.104 63.34 70.52 63.036 69.992Z" fill="black"/>
<rect x="41" y="52" width="40" height="40" stroke="#7A7A7A"/>
<path d="M96.608 66.488C96.816 66.376 97.216 66.288 97.808 66.224C98.544 66.128 99.824 66.088 101.648 66.104H104.312L104.576 66.416C104.736 66.656 104.784 66.856 104.72 67.016C104.688 67.128 104.608 67.296 104.48 67.52C104.352 67.728 104.176 68 103.952 68.336C103.488 68.992 103.04 69.56 102.608 70.04C102.048 70.68 101.624 71.176 101.336 71.528C101.064 71.88 100.928 72.088 100.928 72.152C100.928 72.248 101.088 72.312 101.408 72.344C102.016 72.456 102.832 72.856 103.856 73.544C104.24 73.8 104.56 74.064 104.816 74.336C105.088 74.608 105.288 74.88 105.416 75.152C105.688 75.696 105.824 76.496 105.824 77.552C105.84 78.336 105.792 78.944 105.68 79.376C105.632 79.6 105.552 79.856 105.44 80.144C105.328 80.432 105.184 80.76 105.008 81.128C104.56 82.024 103.872 82.72 102.944 83.216C102.864 83.248 102.792 83.28 102.728 83.312C102.68 83.344 102.624 83.368 102.56 83.384C102.496 83.416 102.44 83.44 102.392 83.456C102.344 83.488 102.296 83.512 102.248 83.528C102.2 83.544 102.152 83.552 102.104 83.552C102.056 83.568 102.016 83.576 101.984 83.576C101.744 83.608 101.136 83.632 100.16 83.648C99.232 83.68 98.648 83.68 98.408 83.648C98.28 83.632 98.144 83.6 98 83.552C97.856 83.504 97.696 83.44 97.52 83.36C96.912 83.088 96.448 82.76 96.128 82.376C95.824 82.008 95.608 81.496 95.48 80.84C95.352 80.264 95.32 79.864 95.384 79.64C95.464 79.416 95.656 79.304 95.96 79.304C96.264 79.304 96.472 79.432 96.584 79.688C96.712 79.944 96.776 80.208 96.776 80.48C96.776 81.344 97.328 81.944 98.432 82.28C98.96 82.472 99.656 82.528 100.52 82.448C101.4 82.368 102.112 82.184 102.656 81.896C102.912 81.752 103.184 81.472 103.472 81.056C103.776 80.656 104.016 80.224 104.192 79.76C104.384 79.248 104.48 78.576 104.48 77.744C104.48 76.624 104.288 75.816 103.904 75.32C103.776 75.16 103.536 74.952 103.184 74.696C102.848 74.424 102.64 74.288 102.56 74.288C102.512 74.288 102.432 74.264 102.32 74.216C102.224 74.168 102.096 74.088 101.936 73.976C101.728 73.832 101.528 73.744 101.336 73.712C101.16 73.68 100.744 73.672 100.088 73.688C99.704 73.704 99.384 73.704 99.128 73.688C98.888 73.672 98.712 73.648 98.6 73.616C98.504 73.568 98.432 73.504 98.384 73.424C98.336 73.344 98.312 73.232 98.312 73.088C98.312 72.848 98.736 72.296 99.584 71.432C101.424 69.496 102.472 68.296 102.728 67.832C102.792 67.72 102.792 67.6 102.728 67.472C102.68 67.328 102.184 67.288 101.24 67.352C98.888 67.448 97.504 67.56 97.088 67.688C96.96 67.72 96.84 67.72 96.728 67.688C96.68 67.672 96.64 67.648 96.608 67.616C96.576 67.584 96.544 67.552 96.512 67.52C96.48 67.488 96.448 67.456 96.416 67.424C96.32 67.312 96.272 67.192 96.272 67.064C96.272 67.016 96.272 66.976 96.272 66.944C96.288 66.896 96.304 66.856 96.32 66.824C96.336 66.776 96.352 66.736 96.368 66.704C96.384 66.672 96.4 66.648 96.416 66.632C96.448 66.6 96.48 66.576 96.512 66.56C96.544 66.528 96.576 66.504 96.608 66.488Z" fill="black"/>
<rect x="81" y="52" width="40" height="40" stroke="#7A7A7A"/>
<path d="M140.108 73.76C140.332 73.68 140.836 73.64 141.62 73.64C142.42 73.64 142.932 73.68 143.156 73.76C143.332 73.808 143.572 73.864 143.876 73.928C144.132 73.96 144.452 74.152 144.836 74.504C145.22 74.84 145.508 75.192 145.7 75.56C145.748 75.672 145.788 75.784 145.82 75.896C145.868 75.992 145.892 76.088 145.892 76.184C145.908 76.392 145.9 76.792 145.868 77.384C145.852 78.28 145.788 78.96 145.676 79.424C145.58 79.76 145.404 80.2 145.148 80.744C144.892 81.304 144.644 81.768 144.404 82.136C144.228 82.376 143.956 82.64 143.588 82.928C143.396 83.056 143.204 83.168 143.012 83.264C142.836 83.376 142.668 83.464 142.508 83.528C142.38 83.592 142.252 83.632 142.124 83.648C142.012 83.664 141.892 83.672 141.764 83.672C141.556 83.656 141.036 83.568 140.204 83.408C139.836 83.328 139.348 83.008 138.74 82.448C138.148 81.888 137.668 81.304 137.3 80.696C136.836 79.912 136.428 78.936 136.076 77.768C135.916 77.32 135.844 76.32 135.86 74.768C135.876 73.712 135.9 73.008 135.932 72.656C135.964 72.288 136.036 71.88 136.148 71.432C136.628 69.656 137.276 68.2 138.092 67.064C138.3 66.76 138.708 66.312 139.316 65.72C139.924 65.128 140.292 64.832 140.42 64.832C140.516 64.832 140.604 64.784 140.684 64.688C140.796 64.56 141.148 64.496 141.74 64.496C142.332 64.496 142.772 64.552 143.06 64.664C143.444 64.824 143.764 64.984 144.02 65.144C144.292 65.304 144.516 65.464 144.692 65.624C145.188 66.152 145.372 66.864 145.244 67.76C145.18 68.144 145.148 68.408 145.148 68.552V68.576C145.132 68.736 145.028 68.856 144.836 68.936C144.724 68.984 144.612 69 144.5 68.984C144.404 68.952 144.3 68.888 144.188 68.792C144.044 68.664 143.956 68.528 143.924 68.384C143.892 68.256 143.876 67.984 143.876 67.568C143.876 67.264 143.86 67.024 143.828 66.848C143.796 66.656 143.756 66.528 143.708 66.464C143.58 66.336 143.348 66.2 143.012 66.056C142.676 65.912 142.348 65.816 142.028 65.768C141.708 65.72 141.364 65.792 140.996 65.984C140.66 66.192 140.308 66.48 139.94 66.848C139.588 67.216 139.228 67.68 138.86 68.24C138.78 68.336 138.708 68.432 138.644 68.528C138.596 68.624 138.556 68.696 138.524 68.744C138.492 68.792 138.476 68.824 138.476 68.84C138.46 68.904 138.404 69.04 138.308 69.248C137.86 70.272 137.572 71.064 137.444 71.624C137.316 72.168 137.236 72.928 137.204 73.904C137.156 74.672 137.14 75.168 137.156 75.392L137.204 75.656C137.284 75.656 137.42 75.512 137.612 75.224C138.012 74.6 138.572 74.184 139.292 73.976C139.356 73.96 139.428 73.944 139.508 73.928C139.588 73.912 139.676 73.888 139.772 73.856C139.884 73.824 139.996 73.792 140.108 73.76ZM144.62 76.832C144.556 76.16 144.236 75.64 143.66 75.272C143.612 75.24 143.54 75.216 143.444 75.2C143.348 75.168 143.22 75.144 143.06 75.128C142.916 75.112 142.74 75.096 142.532 75.08C142.324 75.064 142.092 75.056 141.836 75.056C141.212 75.04 140.756 75.04 140.468 75.056C140.308 75.056 140.164 75.072 140.036 75.104C139.924 75.12 139.82 75.144 139.724 75.176C139.644 75.208 139.556 75.248 139.46 75.296C139.364 75.344 139.276 75.408 139.196 75.488C138.732 75.84 138.428 76.296 138.284 76.856C138.172 77.192 137.996 77.456 137.756 77.648C137.724 77.696 137.684 77.736 137.636 77.768C137.604 77.8 137.58 77.832 137.564 77.864C137.548 77.88 137.54 77.896 137.54 77.912C137.524 77.928 137.516 77.976 137.516 78.056C137.532 78.12 137.556 78.2 137.588 78.296C137.62 78.424 137.668 78.568 137.732 78.728C137.796 78.872 137.876 79.032 137.972 79.208C138.148 79.576 138.348 79.928 138.572 80.264C138.812 80.616 139.036 80.92 139.244 81.176C139.644 81.592 140.012 81.888 140.348 82.064C140.46 82.112 140.58 82.152 140.708 82.184C140.836 82.232 140.972 82.264 141.116 82.28C141.26 82.312 141.412 82.328 141.572 82.328C142.004 82.36 142.348 82.28 142.604 82.088C142.716 82.008 142.844 81.88 142.988 81.704C143.132 81.544 143.292 81.344 143.468 81.104C143.82 80.608 144.036 80.208 144.116 79.904C144.532 78.528 144.7 77.504 144.62 76.832Z" fill="black"/>
<rect x="121" y="52" width="40" height="40" stroke="#7A7A7A"/>
<path d="M173.84 76.64C173.792 76.624 173.744 76.6 173.696 76.568C173.648 76.52 173.6 76.456 173.552 76.376C173.36 76.152 173.312 75.928 173.408 75.704C173.44 75.64 173.488 75.568 173.552 75.488C173.632 75.408 173.72 75.328 173.816 75.248C173.928 75.152 174.056 75.048 174.2 74.936C176.568 73.336 178.376 71.536 179.624 69.536C179.832 69.2 180.048 68.896 180.272 68.624C180.544 68.32 180.896 67.84 181.328 67.184C181.792 66.464 182.096 66.032 182.24 65.888C182.368 65.712 182.544 65.64 182.768 65.672C183.008 65.688 183.192 65.792 183.32 65.984C183.4 66.128 183.432 66.248 183.416 66.344C183.416 66.424 183.32 66.6 183.128 66.872C182.52 67.784 181.968 68.56 181.472 69.2C181.088 69.728 180.784 70.152 180.56 70.472C180.304 70.856 180.008 71.256 179.672 71.672C179.352 72.088 178.992 72.52 178.592 72.968C178.384 73.208 178.192 73.416 178.016 73.592C177.856 73.768 177.704 73.928 177.56 74.072C177.416 74.2 177.288 74.312 177.176 74.408C177.08 74.488 176.992 74.552 176.912 74.6C176.704 74.696 176.592 74.776 176.576 74.84C176.656 74.92 177.832 74.952 180.104 74.936L183.632 74.912L183.656 70.688C183.672 68.672 183.696 67.448 183.728 67.016C183.744 66.6 183.816 66.336 183.944 66.224C184.088 66.08 184.256 66.032 184.448 66.08C184.656 66.112 184.808 66.2 184.904 66.344C184.968 66.488 185.008 67.928 185.024 70.664L185.096 74.72L185.384 74.96C185.48 75.04 185.6 75.096 185.744 75.128C185.888 75.16 186.064 75.184 186.272 75.2C186.48 75.2 186.656 75.192 186.8 75.176C186.96 75.144 187.08 75.096 187.16 75.032C187.176 75.016 187.192 75.008 187.208 75.008C187.24 74.992 187.28 74.976 187.328 74.96C187.392 74.944 187.448 74.928 187.496 74.912C187.56 74.896 187.616 74.88 187.664 74.864C187.728 74.848 187.768 74.84 187.784 74.84C187.928 74.84 188.048 74.872 188.144 74.936C188.256 75 188.336 75.096 188.384 75.224C188.48 75.384 188.528 75.504 188.528 75.584C188.528 75.664 188.48 75.76 188.384 75.872C188.112 76.32 187.416 76.488 186.296 76.376C185.704 76.312 185.344 76.328 185.216 76.424C185.104 76.52 185.048 77.528 185.048 79.448C185.048 80.28 185.064 80.992 185.096 81.584C185.096 81.872 185.104 82.096 185.12 82.256C185.136 82.432 185.152 82.536 185.168 82.568C185.328 82.84 185.272 83.12 185 83.408C184.872 83.552 184.744 83.632 184.616 83.648C184.488 83.68 184.36 83.656 184.232 83.576C184.168 83.544 184.112 83.504 184.064 83.456C184.016 83.408 183.976 83.352 183.944 83.288C183.896 83.16 183.848 82.936 183.8 82.616C183.768 82.296 183.744 81.904 183.728 81.44C183.728 80.976 183.728 80.312 183.728 79.448L183.68 76.328H180.536C178.232 76.328 176.176 76.432 174.368 76.64C174.288 76.656 174.216 76.664 174.152 76.664C174.088 76.664 174.024 76.664 173.96 76.664C173.912 76.664 173.872 76.656 173.84 76.64Z" fill="black"/>
<rect x="161" y="52" width="40" height="40" stroke="#7A7A7A"/>
<path d="M219.204 66.608C219.348 66.608 219.436 66.56 219.468 66.464C219.516 66.384 219.764 66.344 220.212 66.344C220.404 66.344 220.556 66.352 220.668 66.368C220.7 66.384 220.732 66.4 220.764 66.416C220.796 66.416 220.828 66.424 220.86 66.44C220.892 66.44 220.916 66.448 220.932 66.464C221.012 66.512 221.108 66.592 221.22 66.704C221.46 66.944 221.732 67.12 222.036 67.232C222.116 67.248 222.268 67.288 222.492 67.352C222.572 67.368 222.644 67.384 222.708 67.4C222.772 67.416 222.82 67.432 222.852 67.448C222.9 67.464 222.94 67.472 222.972 67.472C223.084 67.52 223.196 67.576 223.308 67.64C223.42 67.688 223.532 67.76 223.644 67.856C223.756 67.936 223.876 68.032 224.004 68.144C224.356 68.464 224.596 68.784 224.724 69.104C224.98 69.712 225.02 70.4 224.844 71.168C224.684 71.92 224.34 72.584 223.812 73.16C223.396 73.592 223.188 73.856 223.188 73.952C223.188 74 223.22 74.048 223.284 74.096C223.348 74.144 223.436 74.192 223.548 74.24C223.692 74.304 223.836 74.376 223.98 74.456C224.124 74.536 224.268 74.624 224.412 74.72C224.476 74.752 224.532 74.792 224.58 74.84C224.628 74.872 224.676 74.904 224.724 74.936C224.772 74.968 224.82 75 224.868 75.032C224.916 75.064 224.964 75.104 225.012 75.152C225.06 75.184 225.1 75.216 225.132 75.248C225.18 75.28 225.228 75.32 225.276 75.368C225.356 75.432 225.428 75.496 225.492 75.56C225.556 75.624 225.612 75.688 225.66 75.752C225.708 75.8 225.748 75.84 225.78 75.872C226.292 76.784 226.468 77.768 226.308 78.824C226.164 79.88 225.684 80.896 224.868 81.872C224.74 82.048 224.612 82.192 224.484 82.304C224.372 82.432 224.26 82.536 224.148 82.616C223.924 82.776 223.588 82.968 223.14 83.192C222.612 83.432 222.244 83.568 222.036 83.6C221.956 83.616 221.852 83.624 221.724 83.624C221.596 83.64 221.436 83.648 221.244 83.648C221.068 83.664 220.852 83.672 220.596 83.672C218.628 83.672 217.068 83.16 215.916 82.136C215.756 82.008 215.612 81.872 215.484 81.728C215.372 81.6 215.276 81.472 215.196 81.344C215.116 81.216 215.052 81.096 215.004 80.984C214.876 80.632 214.836 80.104 214.884 79.4C214.884 79.144 214.892 78.92 214.908 78.728C214.94 78.52 214.972 78.352 215.004 78.224C215.052 78.096 215.116 77.936 215.196 77.744C215.276 77.536 215.38 77.296 215.508 77.024C215.572 76.864 215.644 76.712 215.724 76.568C215.804 76.408 215.884 76.264 215.964 76.136C216.06 75.992 216.148 75.864 216.228 75.752C216.324 75.624 216.412 75.504 216.492 75.392C216.588 75.28 216.684 75.176 216.78 75.08C216.876 74.984 216.972 74.896 217.068 74.816C217.18 74.72 217.284 74.632 217.38 74.552C217.492 74.472 217.604 74.4 217.716 74.336C217.956 74.208 218.124 74.104 218.22 74.024C218.332 73.944 218.38 73.88 218.364 73.832C218.348 73.72 218.14 73.568 217.74 73.376C217.324 73.152 216.988 72.912 216.732 72.656C216.492 72.4 216.324 72.128 216.228 71.84C216.132 71.536 216.108 71.072 216.156 70.448C216.236 69.376 216.604 68.528 217.26 67.904C217.436 67.76 217.66 67.576 217.932 67.352C218.22 67.128 218.492 66.944 218.748 66.8C218.86 66.736 218.956 66.688 219.036 66.656C219.116 66.624 219.172 66.608 219.204 66.608ZM221.052 68.48C220.396 68.48 220.044 68.448 219.996 68.384C219.804 68.128 219.548 68.04 219.228 68.12C219.068 68.168 218.9 68.248 218.724 68.36C218.564 68.472 218.396 68.632 218.22 68.84C218.044 69.032 217.9 69.24 217.788 69.464C217.676 69.672 217.588 69.888 217.524 70.112C217.444 70.496 217.404 70.752 217.404 70.88C217.404 70.944 217.412 71.024 217.428 71.12C217.46 71.2 217.508 71.296 217.572 71.408C217.604 71.504 217.652 71.6 217.716 71.696C217.78 71.776 217.852 71.848 217.932 71.912C218.076 72.04 218.356 72.192 218.772 72.368C219.38 72.688 219.772 72.848 219.948 72.848C220.14 72.848 220.364 72.904 220.62 73.016C220.764 73.064 220.916 73.088 221.076 73.088C221.236 73.088 221.42 73.064 221.628 73.016C222.028 72.936 222.34 72.784 222.564 72.56C222.612 72.528 222.652 72.488 222.684 72.44C222.732 72.392 222.772 72.344 222.804 72.296C222.852 72.248 222.892 72.2 222.924 72.152C222.972 72.088 223.012 72.032 223.044 71.984C223.092 71.92 223.14 71.856 223.188 71.792C223.38 71.472 223.476 71.232 223.476 71.072C223.476 70.864 223.524 70.696 223.62 70.568C223.7 70.408 223.684 70.184 223.572 69.896C223.492 69.64 223.38 69.424 223.236 69.248C223.108 69.056 222.948 68.904 222.756 68.792C222.564 68.68 222.324 68.6 222.036 68.552C221.748 68.504 221.42 68.48 221.052 68.48ZM221.484 74.936C221.356 75 221.18 74.984 220.956 74.888C220.396 74.632 219.7 74.744 218.868 75.224C218.484 75.432 218.172 75.64 217.932 75.848C217.692 76.04 217.484 76.256 217.308 76.496C217.132 76.736 216.956 77.04 216.78 77.408C216.62 77.728 216.492 78.064 216.396 78.416C216.316 78.752 216.268 79.096 216.252 79.448L216.156 80.528L216.804 81.152C217.028 81.36 217.22 81.52 217.38 81.632C217.54 81.76 217.668 81.832 217.764 81.848C217.796 81.848 217.828 81.848 217.86 81.848C217.892 81.864 217.932 81.872 217.98 81.872C218.076 81.904 218.172 81.936 218.268 81.968C218.316 81.984 218.372 82 218.436 82.016C218.516 82.032 218.596 82.056 218.676 82.088C218.836 82.12 218.972 82.152 219.084 82.184C219.484 82.296 219.852 82.368 220.188 82.4C220.54 82.432 220.852 82.432 221.124 82.4C221.668 82.336 222.364 82.096 223.212 81.68C223.292 81.632 223.428 81.496 223.62 81.272C223.812 81.064 224.004 80.824 224.196 80.552C224.388 80.28 224.54 80.048 224.652 79.856C224.812 79.552 224.9 79.024 224.916 78.272C224.916 77.856 224.892 77.512 224.844 77.24C224.796 76.968 224.716 76.76 224.604 76.616C224.54 76.52 224.42 76.408 224.244 76.28C224.084 76.152 223.868 76.008 223.596 75.848C223.34 75.688 223.036 75.512 222.684 75.32C222.028 74.968 221.628 74.84 221.484 74.936Z" fill="black"/>
<rect x="201" y="52" width="40" height="40" stroke="#7A7A7A"/>
<path d="M256.028 67.448C256.46 67.144 256.772 67.008 256.964 67.04H256.988C257.036 67.04 257.092 67.056 257.156 67.088C257.236 67.12 257.308 67.176 257.372 67.256C257.436 67.32 257.508 67.408 257.588 67.52C257.796 67.824 257.868 68.032 257.804 68.144V68.168C257.756 68.28 257.684 68.856 257.588 69.896C257.524 70.904 257.46 71.44 257.396 71.504C257.348 71.6 257.324 71.856 257.324 72.272C257.34 72.608 257.3 72.928 257.204 73.232C257.108 73.52 257.02 74.048 256.94 74.816C256.86 75.568 256.764 76.272 256.652 76.928C256.508 77.936 256.396 78.848 256.316 79.664C256.236 80.48 256.18 81.208 256.148 81.848C256.132 82.536 256.1 82.96 256.052 83.12C256.036 83.216 256.004 83.296 255.956 83.36C255.908 83.424 255.852 83.48 255.788 83.528C255.66 83.624 255.564 83.672 255.5 83.672C255.436 83.672 255.332 83.616 255.188 83.504H255.164C254.956 83.36 254.82 83.176 254.756 82.952C254.708 82.728 254.7 82.384 254.732 81.92C254.748 81.84 254.764 81.688 254.78 81.464C254.796 81.256 254.82 80.984 254.852 80.648C254.884 80.312 254.916 79.904 254.948 79.424C254.964 79.2 254.98 78.992 254.996 78.8C255.028 78.592 255.052 78.424 255.068 78.296C255.084 78.152 255.1 78.024 255.116 77.912C255.132 77.8 255.14 77.72 255.14 77.672C255.156 77.608 255.172 77.568 255.188 77.552C255.268 77.408 255.396 76.336 255.572 74.336C255.588 74.128 255.612 73.928 255.644 73.736C255.676 73.528 255.708 73.344 255.74 73.184C255.772 73.008 255.812 72.848 255.86 72.704C255.94 72.416 256.004 72.008 256.052 71.48C256.116 70.936 256.148 70.472 256.148 70.088C256.148 69.88 256.14 69.728 256.124 69.632C256.108 69.504 256.076 69.424 256.028 69.392L256.004 69.368C255.956 69.368 255.892 69.392 255.812 69.44C255.732 69.472 255.636 69.528 255.524 69.608C255.412 69.688 255.268 69.792 255.092 69.92C254.932 70.016 254.788 70.104 254.66 70.184C253.956 70.52 253.468 70.448 253.196 69.968C253.084 69.76 253.068 69.6 253.148 69.488C253.244 69.36 253.508 69.16 253.94 68.888C254.5 68.616 254.876 68.384 255.068 68.192C255.324 67.984 255.644 67.736 256.028 67.448ZM263.038 73.76C263.262 73.68 263.766 73.64 264.55 73.64C265.35 73.64 265.862 73.68 266.086 73.76C266.262 73.808 266.502 73.864 266.806 73.928C267.062 73.96 267.382 74.152 267.766 74.504C268.15 74.84 268.438 75.192 268.63 75.56C268.678 75.672 268.718 75.784 268.75 75.896C268.798 75.992 268.822 76.088 268.822 76.184C268.838 76.392 268.83 76.792 268.798 77.384C268.782 78.28 268.718 78.96 268.606 79.424C268.51 79.76 268.334 80.2 268.078 80.744C267.822 81.304 267.574 81.768 267.334 82.136C267.158 82.376 266.886 82.64 266.518 82.928C266.326 83.056 266.134 83.168 265.942 83.264C265.766 83.376 265.598 83.464 265.438 83.528C265.31 83.592 265.182 83.632 265.054 83.648C264.942 83.664 264.822 83.672 264.694 83.672C264.486 83.656 263.966 83.568 263.134 83.408C262.766 83.328 262.278 83.008 261.67 82.448C261.078 81.888 260.598 81.304 260.23 80.696C259.766 79.912 259.358 78.936 259.006 77.768C258.846 77.32 258.774 76.32 258.79 74.768C258.806 73.712 258.83 73.008 258.862 72.656C258.894 72.288 258.966 71.88 259.078 71.432C259.558 69.656 260.206 68.2 261.022 67.064C261.23 66.76 261.638 66.312 262.246 65.72C262.854 65.128 263.222 64.832 263.35 64.832C263.446 64.832 263.534 64.784 263.614 64.688C263.726 64.56 264.078 64.496 264.67 64.496C265.262 64.496 265.702 64.552 265.99 64.664C266.374 64.824 266.694 64.984 266.95 65.144C267.222 65.304 267.446 65.464 267.622 65.624C268.118 66.152 268.302 66.864 268.174 67.76C268.11 68.144 268.078 68.408 268.078 68.552V68.576C268.062 68.736 267.958 68.856 267.766 68.936C267.654 68.984 267.542 69 267.43 68.984C267.334 68.952 267.23 68.888 267.118 68.792C266.974 68.664 266.886 68.528 266.854 68.384C266.822 68.256 266.806 67.984 266.806 67.568C266.806 67.264 266.79 67.024 266.758 66.848C266.726 66.656 266.686 66.528 266.638 66.464C266.51 66.336 266.278 66.2 265.942 66.056C265.606 65.912 265.278 65.816 264.958 65.768C264.638 65.72 264.294 65.792 263.926 65.984C263.59 66.192 263.238 66.48 262.87 66.848C262.518 67.216 262.158 67.68 261.79 68.24C261.71 68.336 261.638 68.432 261.574 68.528C261.526 68.624 261.486 68.696 261.454 68.744C261.422 68.792 261.406 68.824 261.406 68.84C261.39 68.904 261.334 69.04 261.238 69.248C260.79 70.272 260.502 71.064 260.374 71.624C260.246 72.168 260.166 72.928 260.134 73.904C260.086 74.672 260.07 75.168 260.086 75.392L260.134 75.656C260.214 75.656 260.35 75.512 260.542 75.224C260.942 74.6 261.502 74.184 262.222 73.976C262.286 73.96 262.358 73.944 262.438 73.928C262.518 73.912 262.606 73.888 262.702 73.856C262.814 73.824 262.926 73.792 263.038 73.76ZM267.55 76.832C267.486 76.16 267.166 75.64 266.59 75.272C266.542 75.24 266.47 75.216 266.374 75.2C266.278 75.168 266.15 75.144 265.99 75.128C265.846 75.112 265.67 75.096 265.462 75.08C265.254 75.064 265.022 75.056 264.766 75.056C264.142 75.04 263.686 75.04 263.398 75.056C263.238 75.056 263.094 75.072 262.966 75.104C262.854 75.12 262.75 75.144 262.654 75.176C262.574 75.208 262.486 75.248 262.39 75.296C262.294 75.344 262.206 75.408 262.126 75.488C261.662 75.84 261.358 76.296 261.214 76.856C261.102 77.192 260.926 77.456 260.686 77.648C260.654 77.696 260.614 77.736 260.566 77.768C260.534 77.8 260.51 77.832 260.494 77.864C260.478 77.88 260.47 77.896 260.47 77.912C260.454 77.928 260.446 77.976 260.446 78.056C260.462 78.12 260.486 78.2 260.518 78.296C260.55 78.424 260.598 78.568 260.662 78.728C260.726 78.872 260.806 79.032 260.902 79.208C261.078 79.576 261.278 79.928 261.502 80.264C261.742 80.616 261.966 80.92 262.174 81.176C262.574 81.592 262.942 81.888 263.278 82.064C263.39 82.112 263.51 82.152 263.638 82.184C263.766 82.232 263.902 82.264 264.046 82.28C264.19 82.312 264.342 82.328 264.502 82.328C264.934 82.36 265.278 82.28 265.534 82.088C265.646 82.008 265.774 81.88 265.918 81.704C266.062 81.544 266.222 81.344 266.398 81.104C266.75 80.608 266.966 80.208 267.046 79.904C267.462 78.528 267.63 77.504 267.55 76.832Z" fill="black"/>
<rect x="241" y="52" width="40" height="40" stroke="#7A7A7A"/>
<path d="M296.028 67.448C296.46 67.144 296.772 67.008 296.964 67.04H296.988C297.036 67.04 297.092 67.056 297.156 67.088C297.236 67.12 297.308 67.176 297.372 67.256C297.436 67.32 297.508 67.408 297.588 67.52C297.796 67.824 297.868 68.032 297.804 68.144V68.168C297.756 68.28 297.684 68.856 297.588 69.896C297.524 70.904 297.46 71.44 297.396 71.504C297.348 71.6 297.324 71.856 297.324 72.272C297.34 72.608 297.3 72.928 297.204 73.232C297.108 73.52 297.02 74.048 296.94 74.816C296.86 75.568 296.764 76.272 296.652 76.928C296.508 77.936 296.396 78.848 296.316 79.664C296.236 80.48 296.18 81.208 296.148 81.848C296.132 82.536 296.1 82.96 296.052 83.12C296.036 83.216 296.004 83.296 295.956 83.36C295.908 83.424 295.852 83.48 295.788 83.528C295.66 83.624 295.564 83.672 295.5 83.672C295.436 83.672 295.332 83.616 295.188 83.504H295.164C294.956 83.36 294.82 83.176 294.756 82.952C294.708 82.728 294.7 82.384 294.732 81.92C294.748 81.84 294.764 81.688 294.78 81.464C294.796 81.256 294.82 80.984 294.852 80.648C294.884 80.312 294.916 79.904 294.948 79.424C294.964 79.2 294.98 78.992 294.996 78.8C295.028 78.592 295.052 78.424 295.068 78.296C295.084 78.152 295.1 78.024 295.116 77.912C295.132 77.8 295.14 77.72 295.14 77.672C295.156 77.608 295.172 77.568 295.188 77.552C295.268 77.408 295.396 76.336 295.572 74.336C295.588 74.128 295.612 73.928 295.644 73.736C295.676 73.528 295.708 73.344 295.74 73.184C295.772 73.008 295.812 72.848 295.86 72.704C295.94 72.416 296.004 72.008 296.052 71.48C296.116 70.936 296.148 70.472 296.148 70.088C296.148 69.88 296.14 69.728 296.124 69.632C296.108 69.504 296.076 69.424 296.028 69.392L296.004 69.368C295.956 69.368 295.892 69.392 295.812 69.44C295.732 69.472 295.636 69.528 295.524 69.608C295.412 69.688 295.268 69.792 295.092 69.92C294.932 70.016 294.788 70.104 294.66 70.184C293.956 70.52 293.468 70.448 293.196 69.968C293.084 69.76 293.068 69.6 293.148 69.488C293.244 69.36 293.508 69.16 293.94 68.888C294.5 68.616 294.876 68.384 295.068 68.192C295.324 67.984 295.644 67.736 296.028 67.448ZM300.35 71.024C301.246 69.2 302.086 68.096 302.87 67.712C303.238 67.52 303.742 67.424 304.382 67.424C304.59 67.424 304.782 67.44 304.958 67.472C305.134 67.488 305.286 67.52 305.414 67.568C305.542 67.6 305.654 67.648 305.75 67.712C305.814 67.744 305.878 67.784 305.942 67.832C306.006 67.88 306.07 67.936 306.134 68C306.214 68.064 306.286 68.136 306.35 68.216C306.43 68.296 306.51 68.384 306.59 68.48C306.67 68.576 306.75 68.68 306.83 68.792C307.022 69.08 307.182 69.344 307.31 69.584C307.454 69.808 307.55 70.016 307.598 70.208C307.63 70.304 307.758 70.688 307.982 71.36C308.11 71.744 308.174 72.52 308.174 73.688C308.174 74.84 308.11 75.584 307.982 75.92C307.822 76.272 307.742 76.568 307.742 76.808C307.742 77.144 307.622 77.744 307.382 78.608C307.254 79.04 307.126 79.432 306.998 79.784C306.87 80.12 306.734 80.424 306.59 80.696C306.366 81.144 306.102 81.552 305.798 81.92C305.51 82.288 305.182 82.616 304.814 82.904C304.094 83.48 303.43 83.736 302.822 83.672C302.182 83.592 301.566 83.352 300.974 82.952C300.398 82.552 299.966 82.064 299.678 81.488C299.55 81.232 299.438 80.992 299.342 80.768C299.246 80.544 299.166 80.344 299.102 80.168C298.99 79.784 298.91 79.344 298.862 78.848C298.814 78.352 298.79 77.712 298.79 76.928C298.79 75.584 298.862 74.624 299.006 74.048C299.166 73.472 299.614 72.464 300.35 71.024ZM305.966 69.992C305.662 69.464 305.318 69.104 304.934 68.912C304.502 68.656 304.118 68.72 303.782 69.104C303.606 69.328 303.438 69.44 303.278 69.44C303.246 69.44 303.206 69.448 303.158 69.464C303.11 69.464 303.062 69.48 303.014 69.512C302.982 69.528 302.942 69.552 302.894 69.584C302.846 69.6 302.798 69.632 302.75 69.68C302.718 69.712 302.678 69.752 302.63 69.8C302.438 70.04 302.062 70.688 301.502 71.744C300.942 72.816 300.63 73.544 300.566 73.928C300.534 73.992 300.502 74.072 300.47 74.168C300.454 74.248 300.43 74.36 300.398 74.504C300.334 74.776 300.278 74.96 300.23 75.056C300.102 75.52 300.07 76.32 300.134 77.456C300.214 78.576 300.358 79.416 300.566 79.976C300.822 80.808 301.222 81.424 301.766 81.824C302.31 82.208 302.886 82.304 303.494 82.112C303.91 81.968 304.382 81.536 304.91 80.816C305.454 80.096 305.742 79.512 305.774 79.064C305.774 78.856 305.838 78.648 305.966 78.44C306.094 78.216 306.158 77.936 306.158 77.6C306.158 77.296 306.246 76.968 306.422 76.616C306.566 76.28 306.662 75.52 306.71 74.336C306.758 73.136 306.718 72.272 306.59 71.744C306.478 71.104 306.27 70.52 305.966 69.992Z" fill="black"/>
<rect x="281" y="52" width="40" height="40" stroke="#7A7A7A"/>
<path d="M332.064 68.984C332.336 68.552 332.688 68.16 333.12 67.808C333.552 67.44 334.056 67.12 334.632 66.848C335.48 66.432 336.192 66.272 336.768 66.368C337.344 66.448 337.912 66.8 338.472 67.424C338.712 67.696 338.904 67.952 339.048 68.192C339.208 68.432 339.32 68.656 339.384 68.864C339.528 69.28 339.6 70.024 339.6 71.096C339.6 71.976 339.576 72.552 339.528 72.824C339.496 73.096 339.416 73.36 339.288 73.616C339.096 73.984 338.84 74.384 338.52 74.816C338.44 74.928 338.36 75.032 338.28 75.128C338.2 75.224 338.12 75.312 338.04 75.392C337.976 75.472 337.912 75.544 337.848 75.608C337.784 75.672 337.72 75.728 337.656 75.776C337.272 76.112 336.608 76.584 335.664 77.192C335.2 77.496 334.816 77.736 334.512 77.912C334.208 78.088 333.984 78.2 333.84 78.248C333.728 78.296 333.624 78.344 333.528 78.392C333.432 78.424 333.344 78.456 333.264 78.488C333.2 78.52 333.144 78.552 333.096 78.584C333.064 78.6 332.992 78.624 332.88 78.656C332.784 78.672 332.656 78.696 332.496 78.728C332.144 78.808 331.912 78.96 331.8 79.184C331.768 79.264 331.736 79.368 331.704 79.496C331.688 79.608 331.672 79.752 331.656 79.928C331.656 80.088 331.656 80.272 331.656 80.48C331.656 81.2 331.688 81.616 331.752 81.728C331.816 81.84 332.192 81.856 332.88 81.776C333.616 81.68 335.096 81.632 337.32 81.632L340.776 81.584L340.92 81.872C340.968 81.952 340.992 82.04 340.992 82.136C340.992 82.232 340.976 82.328 340.944 82.424C340.928 82.488 340.896 82.544 340.848 82.592C340.816 82.656 340.768 82.704 340.704 82.736C340.656 82.784 340.6 82.824 340.536 82.856C340.408 82.92 339.032 82.984 336.408 83.048C334.504 83.064 333.288 83.104 332.76 83.168C332.504 83.2 332.256 83.24 332.016 83.288C331.792 83.352 331.576 83.44 331.368 83.552C330.984 83.744 330.704 83.72 330.528 83.48C330.48 83.432 330.44 83.184 330.408 82.736C330.392 82.288 330.376 81.656 330.36 80.84C330.36 80.28 330.36 79.808 330.36 79.424C330.36 79.024 330.368 78.704 330.384 78.464C330.416 78.224 330.44 78.072 330.456 78.008C330.552 77.72 330.672 77.536 330.816 77.456C330.96 77.376 331.2 77.352 331.536 77.384C332.16 77.464 333.056 77.184 334.224 76.544C336.112 75.456 337.328 74.376 337.872 73.304C338.048 72.952 338.16 72.664 338.208 72.44C338.224 72.392 338.232 72.328 338.232 72.248C338.248 72.168 338.256 72.072 338.256 71.96C338.272 71.848 338.28 71.72 338.28 71.576C338.28 71.432 338.28 71.272 338.28 71.096C338.28 70.168 338.168 69.496 337.944 69.08C337.8 68.712 337.6 68.392 337.344 68.12C337.264 68.04 337.184 67.968 337.104 67.904C337.024 67.84 336.944 67.784 336.864 67.736C336.784 67.688 336.712 67.656 336.648 67.64C336.504 67.608 336.32 67.616 336.096 67.664C335.872 67.712 335.608 67.808 335.304 67.952C334.696 68.24 334.2 68.584 333.816 68.984C333.48 69.304 333.264 69.56 333.168 69.752C333.088 69.944 333.08 70.144 333.144 70.352C333.192 70.48 333.224 70.6 333.24 70.712C333.256 70.824 333.248 70.928 333.216 71.024C333.2 71.104 333.16 71.176 333.096 71.24C332.808 71.528 332.456 71.472 332.04 71.072C331.512 70.544 331.52 69.848 332.064 68.984ZM343.264 71.024C344.16 69.2 345 68.096 345.784 67.712C346.152 67.52 346.656 67.424 347.296 67.424C347.504 67.424 347.696 67.44 347.872 67.472C348.048 67.488 348.2 67.52 348.328 67.568C348.456 67.6 348.568 67.648 348.664 67.712C348.728 67.744 348.792 67.784 348.856 67.832C348.92 67.88 348.984 67.936 349.048 68C349.128 68.064 349.2 68.136 349.264 68.216C349.344 68.296 349.424 68.384 349.504 68.48C349.584 68.576 349.664 68.68 349.744 68.792C349.936 69.08 350.096 69.344 350.224 69.584C350.368 69.808 350.464 70.016 350.512 70.208C350.544 70.304 350.672 70.688 350.896 71.36C351.024 71.744 351.088 72.52 351.088 73.688C351.088 74.84 351.024 75.584 350.896 75.92C350.736 76.272 350.656 76.568 350.656 76.808C350.656 77.144 350.536 77.744 350.296 78.608C350.168 79.04 350.04 79.432 349.912 79.784C349.784 80.12 349.648 80.424 349.504 80.696C349.28 81.144 349.016 81.552 348.712 81.92C348.424 82.288 348.096 82.616 347.728 82.904C347.008 83.48 346.344 83.736 345.736 83.672C345.096 83.592 344.48 83.352 343.888 82.952C343.312 82.552 342.88 82.064 342.592 81.488C342.464 81.232 342.352 80.992 342.256 80.768C342.16 80.544 342.08 80.344 342.016 80.168C341.904 79.784 341.824 79.344 341.776 78.848C341.728 78.352 341.704 77.712 341.704 76.928C341.704 75.584 341.776 74.624 341.92 74.048C342.08 73.472 342.528 72.464 343.264 71.024ZM348.88 69.992C348.576 69.464 348.232 69.104 347.848 68.912C347.416 68.656 347.032 68.72 346.696 69.104C346.52 69.328 346.352 69.44 346.192 69.44C346.16 69.44 346.12 69.448 346.072 69.464C346.024 69.464 345.976 69.48 345.928 69.512C345.896 69.528 345.856 69.552 345.808 69.584C345.76 69.6 345.712 69.632 345.664 69.68C345.632 69.712 345.592 69.752 345.544 69.8C345.352 70.04 344.976 70.688 344.416 71.744C343.856 72.816 343.544 73.544 343.48 73.928C343.448 73.992 343.416 74.072 343.384 74.168C343.368 74.248 343.344 74.36 343.312 74.504C343.248 74.776 343.192 74.96 343.144 75.056C343.016 75.52 342.984 76.32 343.048 77.456C343.128 78.576 343.272 79.416 343.48 79.976C343.736 80.808 344.136 81.424 344.68 81.824C345.224 82.208 345.8 82.304 346.408 82.112C346.824 81.968 347.296 81.536 347.824 80.816C348.368 80.096 348.656 79.512 348.688 79.064C348.688 78.856 348.752 78.648 348.88 78.44C349.008 78.216 349.072 77.936 349.072 77.6C349.072 77.296 349.16 76.968 349.336 76.616C349.48 76.28 349.576 75.52 349.624 74.336C349.672 73.136 349.632 72.272 349.504 71.744C349.392 71.104 349.184 70.52 348.88 69.992Z" fill="black"/>
<rect x="321" y="52" width="40" height="40" stroke="#7A7A7A"/>
<path d="M376.028 67.448C376.46 67.144 376.772 67.008 376.964 67.04H376.988C377.036 67.04 377.092 67.056 377.156 67.088C377.236 67.12 377.308 67.176 377.372 67.256C377.436 67.32 377.508 67.408 377.588 67.52C377.796 67.824 377.868 68.032 377.804 68.144V68.168C377.756 68.28 377.684 68.856 377.588 69.896C377.524 70.904 377.46 71.44 377.396 71.504C377.348 71.6 377.324 71.856 377.324 72.272C377.34 72.608 377.3 72.928 377.204 73.232C377.108 73.52 377.02 74.048 376.94 74.816C376.86 75.568 376.764 76.272 376.652 76.928C376.508 77.936 376.396 78.848 376.316 79.664C376.236 80.48 376.18 81.208 376.148 81.848C376.132 82.536 376.1 82.96 376.052 83.12C376.036 83.216 376.004 83.296 375.956 83.36C375.908 83.424 375.852 83.48 375.788 83.528C375.66 83.624 375.564 83.672 375.5 83.672C375.436 83.672 375.332 83.616 375.188 83.504H375.164C374.956 83.36 374.82 83.176 374.756 82.952C374.708 82.728 374.7 82.384 374.732 81.92C374.748 81.84 374.764 81.688 374.78 81.464C374.796 81.256 374.82 80.984 374.852 80.648C374.884 80.312 374.916 79.904 374.948 79.424C374.964 79.2 374.98 78.992 374.996 78.8C375.028 78.592 375.052 78.424 375.068 78.296C375.084 78.152 375.1 78.024 375.116 77.912C375.132 77.8 375.14 77.72 375.14 77.672C375.156 77.608 375.172 77.568 375.188 77.552C375.268 77.408 375.396 76.336 375.572 74.336C375.588 74.128 375.612 73.928 375.644 73.736C375.676 73.528 375.708 73.344 375.74 73.184C375.772 73.008 375.812 72.848 375.86 72.704C375.94 72.416 376.004 72.008 376.052 71.48C376.116 70.936 376.148 70.472 376.148 70.088C376.148 69.88 376.14 69.728 376.124 69.632C376.108 69.504 376.076 69.424 376.028 69.392L376.004 69.368C375.956 69.368 375.892 69.392 375.812 69.44C375.732 69.472 375.636 69.528 375.524 69.608C375.412 69.688 375.268 69.792 375.092 69.92C374.932 70.016 374.788 70.104 374.66 70.184C373.956 70.52 373.468 70.448 373.196 69.968C373.084 69.76 373.068 69.6 373.148 69.488C373.244 69.36 373.508 69.16 373.94 68.888C374.5 68.616 374.876 68.384 375.068 68.192C375.324 67.984 375.644 67.736 376.028 67.448ZM382.438 66.464C382.534 66.432 382.646 66.408 382.774 66.392C382.902 66.36 383.054 66.344 383.23 66.344C383.886 66.296 384.806 66.288 385.99 66.32H388.006L388.414 66.704C388.494 66.8 388.558 66.88 388.606 66.944C388.654 67.008 388.686 67.064 388.702 67.112C388.734 67.176 388.718 67.28 388.654 67.424C388.558 67.6 388.414 67.728 388.222 67.808C388.03 67.872 387.846 67.856 387.67 67.76C387.494 67.664 386.75 67.616 385.438 67.616H383.542L383.11 68.096C382.838 68.368 382.606 68.48 382.414 68.432C382.254 68.4 382.134 68.4 382.054 68.432C382.022 68.448 381.99 68.488 381.958 68.552C381.926 68.6 381.894 68.672 381.862 68.768C381.798 68.976 381.758 69.248 381.742 69.584C381.742 69.904 381.742 70.392 381.742 71.048C381.742 71.784 381.758 72.344 381.79 72.728C381.838 73.112 381.902 73.328 381.982 73.376C382.062 73.424 382.27 73.368 382.606 73.208C382.766 73.128 382.982 73.064 383.254 73.016C383.542 72.968 383.894 72.936 384.31 72.92C385.126 72.872 385.694 72.904 386.014 73.016C386.494 73.16 386.966 73.52 387.43 74.096C387.59 74.272 387.734 74.464 387.862 74.672C387.99 74.88 388.11 75.104 388.222 75.344C388.334 75.568 388.422 75.8 388.486 76.04C388.662 76.568 388.758 77.264 388.774 78.128C388.79 78.976 388.71 79.648 388.534 80.144C388.47 80.336 388.398 80.52 388.318 80.696C388.254 80.872 388.182 81.04 388.102 81.2C388.038 81.36 387.966 81.512 387.886 81.656C387.806 81.8 387.726 81.928 387.646 82.04C387.582 82.168 387.51 82.28 387.43 82.376C387.35 82.472 387.27 82.56 387.19 82.64C386.854 83.024 386.502 83.28 386.134 83.408C385.766 83.552 385.254 83.632 384.598 83.648C383.926 83.696 383.326 83.672 382.798 83.576C382.27 83.496 381.814 83.352 381.43 83.144C380.982 82.856 380.486 82.44 379.942 81.896C379.766 81.72 379.614 81.552 379.486 81.392C379.358 81.248 379.254 81.12 379.174 81.008C379.11 80.896 379.07 80.808 379.054 80.744V80.72L378.982 80.48C378.918 80.304 378.878 80.16 378.862 80.048C378.75 79.664 378.758 79.376 378.886 79.184C379.014 79.008 379.174 78.912 379.366 78.896C379.462 78.88 379.55 78.888 379.63 78.92C379.726 78.952 379.814 79.008 379.894 79.088C379.99 79.184 380.07 79.408 380.134 79.76C380.166 79.936 380.222 80.104 380.302 80.264C380.382 80.44 380.486 80.608 380.614 80.768C380.758 80.928 380.926 81.08 381.118 81.224C381.662 81.688 382.342 82.048 383.158 82.304C383.414 82.384 383.63 82.44 383.806 82.472C383.998 82.52 384.15 82.552 384.262 82.568C384.47 82.568 384.774 82.496 385.174 82.352C385.638 82.192 385.998 81.968 386.254 81.68C386.526 81.408 386.774 81 386.998 80.456C387.078 80.248 387.142 80.064 387.19 79.904C387.254 79.728 387.294 79.576 387.31 79.448C387.358 79.192 387.382 78.744 387.382 78.104C387.382 77.448 387.358 77.008 387.31 76.784C387.278 76.56 387.174 76.24 386.998 75.824C386.854 75.584 386.71 75.368 386.566 75.176C386.438 74.968 386.294 74.784 386.134 74.624C385.942 74.464 385.774 74.368 385.63 74.336C385.486 74.288 385.206 74.264 384.79 74.264C383.718 74.264 382.782 74.496 381.982 74.96C381.614 75.168 381.35 75.272 381.19 75.272C381.046 75.256 380.878 75.128 380.686 74.888L380.374 74.504V71.168C380.39 69.584 380.406 68.608 380.422 68.24C380.438 68.048 380.462 67.872 380.494 67.712C380.542 67.552 380.598 67.4 380.662 67.256C380.806 66.968 380.91 66.808 380.974 66.776C380.99 66.76 381.022 66.752 381.07 66.752C381.118 66.736 381.174 66.728 381.238 66.728C381.318 66.728 381.406 66.728 381.502 66.728C381.678 66.744 381.83 66.744 381.958 66.728C382.086 66.696 382.182 66.64 382.246 66.56C382.294 66.528 382.358 66.496 382.438 66.464Z" fill="black"/>
<rect x="361" y="52" width="40" height="40" stroke="#7A7A7A"/>
<path d="M411.564 68.984C411.836 68.552 412.188 68.16 412.62 67.808C413.052 67.44 413.556 67.12 414.132 66.848C414.98 66.432 415.692 66.272 416.268 66.368C416.844 66.448 417.412 66.8 417.972 67.424C418.212 67.696 418.404 67.952 418.548 68.192C418.708 68.432 418.82 68.656 418.884 68.864C419.028 69.28 419.1 70.024 419.1 71.096C419.1 71.976 419.076 72.552 419.028 72.824C418.996 73.096 418.916 73.36 418.788 73.616C418.596 73.984 418.34 74.384 418.02 74.816C417.94 74.928 417.86 75.032 417.78 75.128C417.7 75.224 417.62 75.312 417.54 75.392C417.476 75.472 417.412 75.544 417.348 75.608C417.284 75.672 417.22 75.728 417.156 75.776C416.772 76.112 416.108 76.584 415.164 77.192C414.7 77.496 414.316 77.736 414.012 77.912C413.708 78.088 413.484 78.2 413.34 78.248C413.228 78.296 413.124 78.344 413.028 78.392C412.932 78.424 412.844 78.456 412.764 78.488C412.7 78.52 412.644 78.552 412.596 78.584C412.564 78.6 412.492 78.624 412.38 78.656C412.284 78.672 412.156 78.696 411.996 78.728C411.644 78.808 411.412 78.96 411.3 79.184C411.268 79.264 411.236 79.368 411.204 79.496C411.188 79.608 411.172 79.752 411.156 79.928C411.156 80.088 411.156 80.272 411.156 80.48C411.156 81.2 411.188 81.616 411.252 81.728C411.316 81.84 411.692 81.856 412.38 81.776C413.116 81.68 414.596 81.632 416.82 81.632L420.276 81.584L420.42 81.872C420.468 81.952 420.492 82.04 420.492 82.136C420.492 82.232 420.476 82.328 420.444 82.424C420.428 82.488 420.396 82.544 420.348 82.592C420.316 82.656 420.268 82.704 420.204 82.736C420.156 82.784 420.1 82.824 420.036 82.856C419.908 82.92 418.532 82.984 415.908 83.048C414.004 83.064 412.788 83.104 412.26 83.168C412.004 83.2 411.756 83.24 411.516 83.288C411.292 83.352 411.076 83.44 410.868 83.552C410.484 83.744 410.204 83.72 410.028 83.48C409.98 83.432 409.94 83.184 409.908 82.736C409.892 82.288 409.876 81.656 409.86 80.84C409.86 80.28 409.86 79.808 409.86 79.424C409.86 79.024 409.868 78.704 409.884 78.464C409.916 78.224 409.94 78.072 409.956 78.008C410.052 77.72 410.172 77.536 410.316 77.456C410.46 77.376 410.7 77.352 411.036 77.384C411.66 77.464 412.556 77.184 413.724 76.544C415.612 75.456 416.828 74.376 417.372 73.304C417.548 72.952 417.66 72.664 417.708 72.44C417.724 72.392 417.732 72.328 417.732 72.248C417.748 72.168 417.756 72.072 417.756 71.96C417.772 71.848 417.78 71.72 417.78 71.576C417.78 71.432 417.78 71.272 417.78 71.096C417.78 70.168 417.668 69.496 417.444 69.08C417.3 68.712 417.1 68.392 416.844 68.12C416.764 68.04 416.684 67.968 416.604 67.904C416.524 67.84 416.444 67.784 416.364 67.736C416.284 67.688 416.212 67.656 416.148 67.64C416.004 67.608 415.82 67.616 415.596 67.664C415.372 67.712 415.108 67.808 414.804 67.952C414.196 68.24 413.7 68.584 413.316 68.984C412.98 69.304 412.764 69.56 412.668 69.752C412.588 69.944 412.58 70.144 412.644 70.352C412.692 70.48 412.724 70.6 412.74 70.712C412.756 70.824 412.748 70.928 412.716 71.024C412.7 71.104 412.66 71.176 412.596 71.24C412.308 71.528 411.956 71.472 411.54 71.072C411.012 70.544 411.02 69.848 411.564 68.984ZM422.908 68.984C423.18 68.552 423.532 68.16 423.964 67.808C424.396 67.44 424.9 67.12 425.476 66.848C426.324 66.432 427.036 66.272 427.612 66.368C428.188 66.448 428.756 66.8 429.316 67.424C429.556 67.696 429.748 67.952 429.892 68.192C430.052 68.432 430.164 68.656 430.228 68.864C430.372 69.28 430.444 70.024 430.444 71.096C430.444 71.976 430.42 72.552 430.372 72.824C430.34 73.096 430.26 73.36 430.132 73.616C429.94 73.984 429.684 74.384 429.364 74.816C429.284 74.928 429.204 75.032 429.124 75.128C429.044 75.224 428.964 75.312 428.884 75.392C428.82 75.472 428.756 75.544 428.692 75.608C428.628 75.672 428.564 75.728 428.5 75.776C428.116 76.112 427.452 76.584 426.508 77.192C426.044 77.496 425.66 77.736 425.356 77.912C425.052 78.088 424.828 78.2 424.684 78.248C424.572 78.296 424.468 78.344 424.372 78.392C424.276 78.424 424.188 78.456 424.108 78.488C424.044 78.52 423.988 78.552 423.94 78.584C423.908 78.6 423.836 78.624 423.724 78.656C423.628 78.672 423.5 78.696 423.34 78.728C422.988 78.808 422.756 78.96 422.644 79.184C422.612 79.264 422.58 79.368 422.548 79.496C422.532 79.608 422.516 79.752 422.5 79.928C422.5 80.088 422.5 80.272 422.5 80.48C422.5 81.2 422.532 81.616 422.596 81.728C422.66 81.84 423.036 81.856 423.724 81.776C424.46 81.68 425.94 81.632 428.164 81.632L431.62 81.584L431.764 81.872C431.812 81.952 431.836 82.04 431.836 82.136C431.836 82.232 431.82 82.328 431.788 82.424C431.772 82.488 431.74 82.544 431.692 82.592C431.66 82.656 431.612 82.704 431.548 82.736C431.5 82.784 431.444 82.824 431.38 82.856C431.252 82.92 429.876 82.984 427.252 83.048C425.348 83.064 424.132 83.104 423.604 83.168C423.348 83.2 423.1 83.24 422.86 83.288C422.636 83.352 422.42 83.44 422.212 83.552C421.828 83.744 421.548 83.72 421.372 83.48C421.324 83.432 421.284 83.184 421.252 82.736C421.236 82.288 421.22 81.656 421.204 80.84C421.204 80.28 421.204 79.808 421.204 79.424C421.204 79.024 421.212 78.704 421.228 78.464C421.26 78.224 421.284 78.072 421.3 78.008C421.396 77.72 421.516 77.536 421.66 77.456C421.804 77.376 422.044 77.352 422.38 77.384C423.004 77.464 423.9 77.184 425.068 76.544C426.956 75.456 428.172 74.376 428.716 73.304C428.892 72.952 429.004 72.664 429.052 72.44C429.068 72.392 429.076 72.328 429.076 72.248C429.092 72.168 429.1 72.072 429.1 71.96C429.116 71.848 429.124 71.72 429.124 71.576C429.124 71.432 429.124 71.272 429.124 71.096C429.124 70.168 429.012 69.496 428.788 69.08C428.644 68.712 428.444 68.392 428.188 68.12C428.108 68.04 428.028 67.968 427.948 67.904C427.868 67.84 427.788 67.784 427.708 67.736C427.628 67.688 427.556 67.656 427.492 67.64C427.348 67.608 427.164 67.616 426.94 67.664C426.716 67.712 426.452 67.808 426.148 67.952C425.54 68.24 425.044 68.584 424.66 68.984C424.324 69.304 424.108 69.56 424.012 69.752C423.932 69.944 423.924 70.144 423.988 70.352C424.036 70.48 424.068 70.6 424.084 70.712C424.1 70.824 424.092 70.928 424.06 71.024C424.044 71.104 424.004 71.176 423.94 71.24C423.652 71.528 423.3 71.472 422.884 71.072C422.356 70.544 422.364 69.848 422.908 68.984Z" fill="black"/>
<rect x="401" y="52" width="40" height="40" stroke="#7A7A7A"/>
<path d="M5.704 14.272C5.96 14.192 6.512 14.144 7.36 14.128C7.52 14.128 7.656 14.128 7.768 14.128C7.896 14.128 8.008 14.136 8.104 14.152C8.216 14.152 8.304 14.16 8.368 14.176C8.448 14.176 8.512 14.176 8.56 14.176C8.656 14.208 8.776 14.256 8.92 14.32C9.064 14.368 9.224 14.432 9.4 14.512C10.28 14.944 10.872 15.576 11.176 16.408C11.336 16.824 11.408 17.232 11.392 17.632C11.376 18.032 11.272 18.432 11.08 18.832L10.744 19.432V22.504C10.744 24.552 10.704 25.736 10.624 26.056C10.56 26.28 10.488 26.624 10.408 27.088C10.344 27.488 10.224 27.896 10.048 28.312C9.872 28.728 9.648 29.144 9.376 29.56C9.104 29.992 8.784 30.432 8.416 30.88C8.336 30.96 8.256 31.04 8.176 31.12C8.096 31.2 8.008 31.272 7.912 31.336C7.816 31.416 7.712 31.488 7.6 31.552C7.504 31.616 7.392 31.672 7.264 31.72C7.152 31.784 7.032 31.848 6.904 31.912C6.264 32.168 5.792 32.224 5.488 32.08C5.28 31.984 5.088 31.936 4.912 31.936C4.512 31.92 4.024 31.64 3.448 31.096C3.16 30.824 2.896 30.52 2.656 30.184C2.416 29.864 2.2 29.52 2.008 29.152C1.752 28.64 1.592 28.28 1.528 28.072C1.48 27.864 1.448 27.504 1.432 26.992L1.36 25.912V25.888L1.792 25.456C1.888 25.36 1.976 25.28 2.056 25.216C2.136 25.168 2.208 25.128 2.272 25.096C2.336 25.08 2.392 25.072 2.44 25.072C2.504 25.072 2.56 25.08 2.608 25.096C2.672 25.112 2.728 25.136 2.776 25.168C2.824 25.216 2.872 25.272 2.92 25.336C3.032 25.512 3.088 25.632 3.088 25.696C3.088 25.76 3.032 25.872 2.92 26.032C2.568 26.656 2.64 27.488 3.136 28.528C3.6 29.488 4.176 30.152 4.864 30.52C5.568 30.904 6.216 30.904 6.808 30.52C6.888 30.488 6.96 30.44 7.024 30.376C7.104 30.328 7.176 30.272 7.24 30.208C7.304 30.144 7.368 30.072 7.432 29.992C7.512 29.928 7.592 29.848 7.672 29.752C7.752 29.672 7.824 29.584 7.888 29.488C8.064 29.248 8.224 29.008 8.368 28.768C8.512 28.544 8.632 28.312 8.728 28.072C9.048 27.272 9.224 26.712 9.256 26.392C9.304 26.088 9.352 25.144 9.4 23.56C9.4 22.968 9.392 22.472 9.376 22.072C9.376 21.672 9.368 21.36 9.352 21.136C9.352 20.896 9.336 20.76 9.304 20.728C9.288 20.712 9.256 20.704 9.208 20.704C9.176 20.688 9.128 20.688 9.064 20.704C9.016 20.72 8.952 20.744 8.872 20.776C8.792 20.792 8.696 20.824 8.584 20.872C8.52 20.904 8.472 20.928 8.44 20.944C8.28 21.008 8.128 21.064 7.984 21.112C7.856 21.16 7.744 21.192 7.648 21.208C7.6 21.208 7.528 21.216 7.432 21.232C7.352 21.232 7.256 21.232 7.144 21.232C7.032 21.232 6.896 21.232 6.736 21.232C6.592 21.232 6.432 21.224 6.256 21.208C5.904 21.192 5.616 21.176 5.392 21.16C5.168 21.144 4.992 21.128 4.864 21.112C4.752 21.08 4.624 21.04 4.48 20.992C4.336 20.928 4.176 20.848 4 20.752C3.296 20.416 2.792 20.04 2.488 19.624C2.344 19.416 2.232 19.184 2.152 18.928C2.088 18.656 2.056 18.36 2.056 18.04C2.056 17.384 2.24 16.776 2.608 16.216C2.704 16.056 2.832 15.896 2.992 15.736C3.152 15.576 3.344 15.416 3.568 15.256C4 14.952 4.432 14.72 4.864 14.56C4.912 14.528 5 14.496 5.128 14.464C5.272 14.416 5.392 14.384 5.488 14.368C5.584 14.336 5.656 14.304 5.704 14.272ZM6.328 15.592C6.248 15.624 6.152 15.648 6.04 15.664C5.928 15.68 5.8 15.688 5.656 15.688C5.352 15.704 4.984 15.856 4.552 16.144C4.136 16.432 3.824 16.736 3.616 17.056C2.992 18.144 3.304 18.984 4.552 19.576C4.824 19.704 5.072 19.784 5.296 19.816C5.408 19.832 5.56 19.848 5.752 19.864C5.96 19.864 6.216 19.864 6.52 19.864C6.68 19.864 6.824 19.864 6.952 19.864C7.08 19.864 7.184 19.864 7.264 19.864C7.36 19.864 7.44 19.856 7.504 19.84C7.584 19.84 7.656 19.832 7.72 19.816C7.8 19.8 7.872 19.784 7.936 19.768C8.064 19.72 8.248 19.616 8.488 19.456H8.512C8.608 19.408 8.688 19.368 8.752 19.336C8.816 19.288 8.864 19.248 8.896 19.216C8.976 19.168 9.056 19.088 9.136 18.976C9.168 18.912 9.192 18.864 9.208 18.832C9.24 18.784 9.256 18.744 9.256 18.712C9.272 18.664 9.272 18.52 9.256 18.28C9.24 18.04 9.216 17.832 9.184 17.656C9.168 17.464 9.12 17.152 9.04 16.72C9.008 16.512 8.976 16.344 8.944 16.216C8.912 16.072 8.88 15.976 8.848 15.928C8.832 15.864 8.8 15.808 8.752 15.76C8.72 15.712 8.664 15.672 8.584 15.64C8.536 15.608 8.456 15.584 8.344 15.568C8.248 15.552 8.128 15.536 7.984 15.52C7.84 15.504 7.672 15.496 7.48 15.496C6.904 15.48 6.52 15.512 6.328 15.592ZM13.9418 16.408C14.3098 15.976 14.8218 15.6 15.4778 15.28L16.4618 14.8H18.4538H20.3978L20.9258 15.328C21.3578 15.68 21.6378 16.064 21.7658 16.48C21.8938 16.88 21.9818 17.608 22.0298 18.664C22.0458 19.224 22.0538 19.64 22.0538 19.912C22.0698 20.168 22.1018 20.384 22.1498 20.56C22.1658 20.64 22.1898 20.728 22.2218 20.824C22.2538 20.904 22.2938 20.984 22.3418 21.064C22.4858 21.352 22.8218 21.752 23.3498 22.264C23.5258 22.44 23.6778 22.584 23.8058 22.696C23.9338 22.824 24.0378 22.912 24.1178 22.96C24.2138 23.024 24.2858 23.056 24.3338 23.056C24.3818 23.056 24.4298 23.072 24.4778 23.104C24.5418 23.136 24.5978 23.176 24.6458 23.224C24.7098 23.288 24.7738 23.336 24.8378 23.368C24.9178 23.4 25.0058 23.416 25.1018 23.416C25.1498 23.416 25.1978 23.424 25.2458 23.44C25.2938 23.456 25.3418 23.48 25.3898 23.512C25.4538 23.544 25.5098 23.584 25.5578 23.632C25.6218 23.68 25.6778 23.736 25.7258 23.8C25.8218 23.88 25.8858 23.944 25.9178 23.992C25.9658 24.056 25.9978 24.104 26.0138 24.136C26.0138 24.2 25.9658 24.32 25.8698 24.496C25.6298 24.832 25.1658 24.872 24.4778 24.616C24.1418 24.488 23.7978 24.304 23.4458 24.064C23.1098 23.84 22.7658 23.552 22.4138 23.2L21.5978 22.408L20.9738 23.104C20.2698 23.872 19.7178 24.424 19.3178 24.76C18.9338 25.112 18.5578 25.352 18.1898 25.48C17.8218 25.608 17.3658 25.672 16.8218 25.672C16.0858 25.672 15.5178 25.6 15.1178 25.456C14.7338 25.328 14.2698 25.04 13.7258 24.592C13.2938 24.224 12.9178 23.808 12.5978 23.344L12.1178 22.648V21.232C12.1658 20.272 12.2378 19.672 12.3338 19.432C12.4938 19.176 12.5738 18.984 12.5738 18.856C12.5738 18.664 12.7338 18.28 13.0538 17.704C13.3738 17.128 13.6698 16.696 13.9418 16.408ZM20.6138 19.048C20.6618 18.088 20.6698 17.504 20.6378 17.296C20.6218 17.088 20.5418 16.888 20.3978 16.696L20.1098 16.24L18.3098 16.216C17.5098 16.216 16.9818 16.232 16.7258 16.264C16.4698 16.296 16.2138 16.376 15.9578 16.504C15.8778 16.536 15.7978 16.576 15.7178 16.624C15.6538 16.656 15.5818 16.696 15.5018 16.744C15.4218 16.792 15.3418 16.848 15.2618 16.912C15.1978 16.96 15.1338 17.016 15.0698 17.08C15.0058 17.144 14.9338 17.216 14.8538 17.296C14.6938 17.504 14.5178 17.784 14.3258 18.136C14.1338 18.472 13.9418 18.888 13.7498 19.384C13.5898 19.72 13.4938 20.272 13.4618 21.04L13.3898 22.264L13.9418 22.936C14.3418 23.416 14.7258 23.76 15.0938 23.968C15.4778 24.192 15.9418 24.328 16.4858 24.376C16.9018 24.408 17.1898 24.416 17.3498 24.4C17.4298 24.384 17.5178 24.36 17.6138 24.328C17.7258 24.296 17.8458 24.248 17.9738 24.184C18.1018 24.104 18.2458 24 18.4058 23.872C18.5658 23.76 18.7418 23.616 18.9338 23.44C19.2858 23.104 19.6058 22.744 19.8938 22.36C19.9898 22.232 20.0698 22.112 20.1338 22C20.2138 21.872 20.2778 21.76 20.3258 21.664C20.3738 21.568 20.4058 21.48 20.4218 21.4C20.5178 21.112 20.5818 20.328 20.6138 19.048ZM30.4388 15.52C30.7908 15.36 31.3588 15.28 32.1428 15.28C32.9268 15.264 33.4228 15.312 33.6308 15.424C33.7268 15.472 33.8228 15.536 33.9188 15.616C34.0148 15.68 34.1108 15.76 34.2068 15.856C34.4148 16.032 34.6068 16.224 34.7828 16.432C34.9588 16.64 35.1348 16.872 35.3108 17.128C35.4868 17.368 35.6308 17.608 35.7428 17.848C35.7588 17.88 35.7748 17.92 35.7908 17.968C35.8228 18.016 35.8468 18.064 35.8628 18.112C35.8788 18.16 35.8948 18.216 35.9108 18.28C35.9268 18.328 35.9428 18.384 35.9588 18.448C35.9748 18.512 35.9908 18.576 36.0068 18.64C36.0228 18.704 36.0308 18.768 36.0308 18.832C36.0468 18.896 36.0548 18.968 36.0548 19.048C36.0708 19.128 36.0788 19.2 36.0788 19.264C36.1428 19.888 36.1268 20.4 36.0308 20.8C35.6628 22.128 34.5908 23.272 32.8148 24.232C32.5588 24.376 32.2548 24.496 31.9028 24.592C31.5668 24.704 31.1828 24.8 30.7508 24.88C29.9028 25.024 29.2788 25.032 28.8788 24.904C28.5108 24.76 28.2868 24.792 28.2068 25C28.1268 25.32 28.0868 26.448 28.0868 28.384C28.0868 30.208 28.0468 31.296 27.9668 31.648C27.9348 31.824 27.8628 31.952 27.7508 32.032C27.6388 32.112 27.4948 32.152 27.3188 32.152C27.0148 32.152 26.8388 31.864 26.7908 31.288C26.7268 30.68 26.7268 28.976 26.7908 26.176C26.8228 24.928 26.8468 23.696 26.8628 22.48C26.8948 21.28 26.9188 20.096 26.9348 18.928C26.9348 17.472 26.9748 16.616 27.0548 16.36C27.1668 16.136 27.3268 16 27.5348 15.952C27.6468 15.936 27.7508 15.944 27.8468 15.976C27.9588 16.008 28.0628 16.072 28.1588 16.168L28.4948 16.48H28.5188L29.1908 16.12C29.7348 15.8 30.1508 15.6 30.4388 15.52ZM34.4948 18.4C34.4948 18.304 34.4148 18.144 34.2548 17.92C34.0948 17.68 33.8468 17.376 33.5108 17.008C33.3508 16.832 33.1988 16.72 33.0548 16.672C32.9268 16.624 32.6548 16.6 32.2388 16.6C32.1588 16.6 32.0708 16.6 31.9748 16.6C31.8948 16.6 31.8148 16.608 31.7348 16.624C31.6548 16.624 31.5748 16.632 31.4948 16.648C31.4148 16.664 31.3348 16.68 31.2548 16.696C31.1748 16.712 31.0948 16.728 31.0148 16.744C30.9348 16.76 30.8548 16.784 30.7748 16.816C30.6948 16.848 30.6148 16.88 30.5348 16.912C30.4228 16.944 30.3188 16.984 30.2228 17.032C30.1428 17.064 30.0628 17.104 29.9828 17.152C29.9028 17.2 29.8308 17.248 29.7668 17.296C29.7188 17.344 29.6708 17.392 29.6228 17.44C29.4468 17.648 29.3428 17.92 29.3108 18.256C29.2948 18.512 29.2228 18.688 29.0948 18.784C28.7268 19.008 28.5108 19.208 28.4468 19.384C28.4308 19.448 28.4148 19.552 28.3988 19.696C28.3828 19.824 28.3668 19.992 28.3508 20.2C28.3348 20.408 28.3268 20.664 28.3268 20.968C28.3268 21.88 28.3588 22.464 28.4228 22.72C28.5028 22.992 28.6948 23.208 28.9988 23.368C29.2228 23.48 29.5268 23.552 29.9108 23.584C30.1188 23.584 30.3028 23.576 30.4628 23.56C30.6228 23.544 30.7588 23.512 30.8708 23.464C30.9828 23.4 31.2468 23.304 31.6628 23.176C32.1908 23.016 32.6868 22.768 33.1508 22.432C33.3748 22.272 33.5748 22.104 33.7508 21.928C33.9428 21.736 34.1108 21.536 34.2548 21.328C34.4148 21.088 34.5268 20.904 34.5908 20.776C34.6548 20.632 34.6948 20.488 34.7108 20.344C34.7268 20.312 34.7348 20.272 34.7348 20.224C34.7348 20.176 34.7348 20.128 34.7348 20.08C34.7508 20.016 34.7588 19.952 34.7588 19.888C34.7588 19.808 34.7588 19.728 34.7588 19.648C34.7588 19.056 34.7108 18.728 34.6148 18.664C34.5348 18.6 34.4948 18.512 34.4948 18.4ZM50.4237 13.024C50.5837 12.944 51.0157 12.904 51.7197 12.904C52.4237 12.904 52.8397 12.976 52.9677 13.12C53.0957 13.232 53.1677 13.392 53.1837 13.6C53.1997 13.792 53.1517 13.928 53.0397 14.008C52.9117 14.088 52.3037 14.176 51.2157 14.272C50.1277 14.368 48.9197 14.44 47.5917 14.488C46.7437 14.504 46.0957 14.504 45.6477 14.488C45.2157 14.472 44.9197 14.44 44.7597 14.392C44.6157 14.344 44.4797 14.256 44.3517 14.128C44.1917 13.984 44.1597 13.784 44.2557 13.528L44.3997 13.144H47.3037C49.2877 13.144 50.3277 13.104 50.4237 13.024ZM47.7597 18.496C47.9997 18.496 48.3517 18.488 48.8157 18.472C51.4397 18.424 52.9757 18.408 53.4237 18.424C53.8877 18.424 54.1837 18.488 54.3117 18.616C54.3277 18.632 54.3517 18.656 54.3837 18.688C54.5277 18.832 54.6157 19 54.6477 19.192C54.6957 19.384 54.6717 19.544 54.5757 19.672C54.5277 19.752 52.9677 19.792 49.8957 19.792C46.8237 19.792 45.1997 19.848 45.0237 19.96C44.6717 20.168 44.3677 20.04 44.1117 19.576C44.0477 19.464 44.0317 19.376 44.0637 19.312C44.0957 19.232 44.1917 19.104 44.3517 18.928L44.7357 18.568L47.7597 18.496ZM65.7467 9.448C66.1788 9.144 66.4908 9.008 66.6828 9.04H66.7068C66.7548 9.04 66.8108 9.056 66.8748 9.088C66.9548 9.12 67.0268 9.176 67.0908 9.256C67.1548 9.32 67.2268 9.408 67.3068 9.52C67.5148 9.824 67.5868 10.032 67.5228 10.144V10.168C67.4748 10.28 67.4028 10.856 67.3068 11.896C67.2428 12.904 67.1788 13.44 67.1148 13.504C67.0668 13.6 67.0428 13.856 67.0428 14.272C67.0588 14.608 67.0188 14.928 66.9228 15.232C66.8268 15.52 66.7388 16.048 66.6588 16.816C66.5788 17.568 66.4828 18.272 66.3708 18.928C66.2268 19.936 66.1148 20.848 66.0348 21.664C65.9548 22.48 65.8988 23.208 65.8668 23.848C65.8508 24.536 65.8188 24.96 65.7708 25.12C65.7548 25.216 65.7228 25.296 65.6748 25.36C65.6268 25.424 65.5708 25.48 65.5068 25.528C65.3788 25.624 65.2828 25.672 65.2188 25.672C65.1548 25.672 65.0508 25.616 64.9068 25.504H64.8828C64.6748 25.36 64.5388 25.176 64.4748 24.952C64.4268 24.728 64.4188 24.384 64.4508 23.92C64.4668 23.84 64.4828 23.688 64.4988 23.464C64.5148 23.256 64.5388 22.984 64.5708 22.648C64.6028 22.312 64.6348 21.904 64.6668 21.424C64.6828 21.2 64.6988 20.992 64.7148 20.8C64.7468 20.592 64.7708 20.424 64.7868 20.296C64.8028 20.152 64.8188 20.024 64.8348 19.912C64.8508 19.8 64.8588 19.72 64.8588 19.672C64.8748 19.608 64.8908 19.568 64.9068 19.552C64.9868 19.408 65.1148 18.336 65.2908 16.336C65.3068 16.128 65.3308 15.928 65.3628 15.736C65.3948 15.528 65.4268 15.344 65.4588 15.184C65.4908 15.008 65.5308 14.848 65.5788 14.704C65.6588 14.416 65.7228 14.008 65.7708 13.48C65.8348 12.936 65.8668 12.472 65.8668 12.088C65.8668 11.88 65.8588 11.728 65.8428 11.632C65.8268 11.504 65.7948 11.424 65.7467 11.392L65.7228 11.368C65.6748 11.368 65.6108 11.392 65.5308 11.44C65.4508 11.472 65.3548 11.528 65.2428 11.608C65.1308 11.688 64.9868 11.792 64.8108 11.92C64.6508 12.016 64.5068 12.104 64.3788 12.184C63.6748 12.52 63.1868 12.448 62.9148 11.968C62.8028 11.76 62.7868 11.6 62.8668 11.488C62.9628 11.36 63.2268 11.16 63.6588 10.888C64.2188 10.616 64.5948 10.384 64.7868 10.192C65.0428 9.984 65.3628 9.736 65.7467 9.448Z" fill="black"/>
</svg>
