<svg width="442" height="42" viewBox="0 0 442 42" fill="none" xmlns="http://www.w3.org/2000/svg">
<rect width="440" height="40" transform="translate(1 1)" fill="#FFCCC9"/>
<path d="M17.42 20.024C18.316 18.2 19.156 17.096 19.94 16.712C20.308 16.52 20.812 16.424 21.452 16.424C21.66 16.424 21.852 16.44 22.028 16.472C22.204 16.488 22.356 16.52 22.484 16.568C22.612 16.6 22.724 16.648 22.82 16.712C22.884 16.744 22.948 16.784 23.012 16.832C23.076 16.88 23.14 16.936 23.204 17C23.284 17.064 23.356 17.136 23.42 17.216C23.5 17.296 23.58 17.384 23.66 17.48C23.74 17.576 23.82 17.68 23.9 17.792C24.092 18.08 24.252 18.344 24.38 18.584C24.524 18.808 24.62 19.016 24.668 19.208C24.7 19.304 24.828 19.688 25.052 20.36C25.18 20.744 25.244 21.52 25.244 22.688C25.244 23.84 25.18 24.584 25.052 24.92C24.892 25.272 24.812 25.568 24.812 25.808C24.812 26.144 24.692 26.744 24.452 27.608C24.324 28.04 24.196 28.432 24.068 28.784C23.94 29.12 23.804 29.424 23.66 29.696C23.436 30.144 23.172 30.552 22.868 30.92C22.58 31.288 22.252 31.616 21.884 31.904C21.164 32.48 20.5 32.736 19.892 32.672C19.252 32.592 18.636 32.352 18.044 31.952C17.468 31.552 17.036 31.064 16.748 30.488C16.62 30.232 16.508 29.992 16.412 29.768C16.316 29.544 16.236 29.344 16.172 29.168C16.06 28.784 15.98 28.344 15.932 27.848C15.884 27.352 15.86 26.712 15.86 25.928C15.86 24.584 15.932 23.624 16.076 23.048C16.236 22.472 16.684 21.464 17.42 20.024ZM23.036 18.992C22.732 18.464 22.388 18.104 22.004 17.912C21.572 17.656 21.188 17.72 20.852 18.104C20.676 18.328 20.508 18.44 20.348 18.44C20.316 18.44 20.276 18.448 20.228 18.464C20.18 18.464 20.132 18.48 20.084 18.512C20.052 18.528 20.012 18.552 19.964 18.584C19.916 18.6 19.868 18.632 19.82 18.68C19.788 18.712 19.748 18.752 19.7 18.8C19.508 19.04 19.132 19.688 18.572 20.744C18.012 21.816 17.7 22.544 17.636 22.928C17.604 22.992 17.572 23.072 17.54 23.168C17.524 23.248 17.5 23.36 17.468 23.504C17.404 23.776 17.348 23.96 17.3 24.056C17.172 24.52 17.14 25.32 17.204 26.456C17.284 27.576 17.428 28.416 17.636 28.976C17.892 29.808 18.292 30.424 18.836 30.824C19.38 31.208 19.956 31.304 20.564 31.112C20.98 30.968 21.452 30.536 21.98 29.816C22.524 29.096 22.812 28.512 22.844 28.064C22.844 27.856 22.908 27.648 23.036 27.44C23.164 27.216 23.228 26.936 23.228 26.6C23.228 26.296 23.316 25.968 23.492 25.616C23.636 25.28 23.732 24.52 23.78 23.336C23.828 22.136 23.788 21.272 23.66 20.744C23.548 20.104 23.34 19.52 23.036 18.992Z" fill="black"/>
<rect x="1" y="1" width="40" height="40" stroke="#FF9696"/>
<path d="M61.528 16.448C61.96 16.144 62.272 16.008 62.464 16.04H62.488C62.536 16.04 62.592 16.056 62.656 16.088C62.736 16.12 62.808 16.176 62.872 16.256C62.936 16.32 63.008 16.408 63.088 16.52C63.296 16.824 63.368 17.032 63.304 17.144V17.168C63.256 17.28 63.184 17.856 63.088 18.896C63.024 19.904 62.96 20.44 62.896 20.504C62.848 20.6 62.824 20.856 62.824 21.272C62.84 21.608 62.8 21.928 62.704 22.232C62.608 22.52 62.52 23.048 62.44 23.816C62.36 24.568 62.264 25.272 62.152 25.928C62.008 26.936 61.896 27.848 61.816 28.664C61.736 29.48 61.68 30.208 61.648 30.848C61.632 31.536 61.6 31.96 61.552 32.12C61.536 32.216 61.504 32.296 61.456 32.36C61.408 32.424 61.352 32.48 61.288 32.528C61.16 32.624 61.064 32.672 61 32.672C60.936 32.672 60.832 32.616 60.688 32.504H60.664C60.456 32.36 60.32 32.176 60.256 31.952C60.208 31.728 60.2 31.384 60.232 30.92C60.248 30.84 60.264 30.688 60.28 30.464C60.296 30.256 60.32 29.984 60.352 29.648C60.384 29.312 60.416 28.904 60.448 28.424C60.464 28.2 60.48 27.992 60.496 27.8C60.528 27.592 60.552 27.424 60.568 27.296C60.584 27.152 60.6 27.024 60.616 26.912C60.632 26.8 60.64 26.72 60.64 26.672C60.656 26.608 60.672 26.568 60.688 26.552C60.768 26.408 60.896 25.336 61.072 23.336C61.088 23.128 61.112 22.928 61.144 22.736C61.176 22.528 61.208 22.344 61.24 22.184C61.272 22.008 61.312 21.848 61.36 21.704C61.44 21.416 61.504 21.008 61.552 20.48C61.616 19.936 61.648 19.472 61.648 19.088C61.648 18.88 61.64 18.728 61.624 18.632C61.608 18.504 61.576 18.424 61.528 18.392L61.504 18.368C61.456 18.368 61.392 18.392 61.312 18.44C61.232 18.472 61.136 18.528 61.024 18.608C60.912 18.688 60.768 18.792 60.592 18.92C60.432 19.016 60.288 19.104 60.16 19.184C59.456 19.52 58.968 19.448 58.696 18.968C58.584 18.76 58.568 18.6 58.648 18.488C58.744 18.36 59.008 18.16 59.44 17.888C60 17.616 60.376 17.384 60.568 17.192C60.824 16.984 61.144 16.736 61.528 16.448Z" fill="black"/>
<rect x="41" y="1" width="40" height="40" stroke="#FF9696"/>
<path d="M96.608 15.488C96.816 15.376 97.216 15.288 97.808 15.224C98.544 15.128 99.824 15.088 101.648 15.104H104.312L104.576 15.416C104.736 15.656 104.784 15.856 104.72 16.016C104.688 16.128 104.608 16.296 104.48 16.52C104.352 16.728 104.176 17 103.952 17.336C103.488 17.992 103.04 18.56 102.608 19.04C102.048 19.68 101.624 20.176 101.336 20.528C101.064 20.88 100.928 21.088 100.928 21.152C100.928 21.248 101.088 21.312 101.408 21.344C102.016 21.456 102.832 21.856 103.856 22.544C104.24 22.8 104.56 23.064 104.816 23.336C105.088 23.608 105.288 23.88 105.416 24.152C105.688 24.696 105.824 25.496 105.824 26.552C105.84 27.336 105.792 27.944 105.68 28.376C105.632 28.6 105.552 28.856 105.44 29.144C105.328 29.432 105.184 29.76 105.008 30.128C104.56 31.024 103.872 31.72 102.944 32.216C102.864 32.248 102.792 32.28 102.728 32.312C102.68 32.344 102.624 32.368 102.56 32.384C102.496 32.416 102.44 32.44 102.392 32.456C102.344 32.488 102.296 32.512 102.248 32.528C102.2 32.544 102.152 32.552 102.104 32.552C102.056 32.568 102.016 32.576 101.984 32.576C101.744 32.608 101.136 32.632 100.16 32.648C99.232 32.68 98.648 32.68 98.408 32.648C98.28 32.632 98.144 32.6 98 32.552C97.856 32.504 97.696 32.44 97.52 32.36C96.912 32.088 96.448 31.76 96.128 31.376C95.824 31.008 95.608 30.496 95.48 29.84C95.352 29.264 95.32 28.864 95.384 28.64C95.464 28.416 95.656 28.304 95.96 28.304C96.264 28.304 96.472 28.432 96.584 28.688C96.712 28.944 96.776 29.208 96.776 29.48C96.776 30.344 97.328 30.944 98.432 31.28C98.96 31.472 99.656 31.528 100.52 31.448C101.4 31.368 102.112 31.184 102.656 30.896C102.912 30.752 103.184 30.472 103.472 30.056C103.776 29.656 104.016 29.224 104.192 28.76C104.384 28.248 104.48 27.576 104.48 26.744C104.48 25.624 104.288 24.816 103.904 24.32C103.776 24.16 103.536 23.952 103.184 23.696C102.848 23.424 102.64 23.288 102.56 23.288C102.512 23.288 102.432 23.264 102.32 23.216C102.224 23.168 102.096 23.088 101.936 22.976C101.728 22.832 101.528 22.744 101.336 22.712C101.16 22.68 100.744 22.672 100.088 22.688C99.704 22.704 99.384 22.704 99.128 22.688C98.888 22.672 98.712 22.648 98.6 22.616C98.504 22.568 98.432 22.504 98.384 22.424C98.336 22.344 98.312 22.232 98.312 22.088C98.312 21.848 98.736 21.296 99.584 20.432C101.424 18.496 102.472 17.296 102.728 16.832C102.792 16.72 102.792 16.6 102.728 16.472C102.68 16.328 102.184 16.288 101.24 16.352C98.888 16.448 97.504 16.56 97.088 16.688C96.96 16.72 96.84 16.72 96.728 16.688C96.68 16.672 96.64 16.648 96.608 16.616C96.576 16.584 96.544 16.552 96.512 16.52C96.48 16.488 96.448 16.456 96.416 16.424C96.32 16.312 96.272 16.192 96.272 16.064C96.272 16.016 96.272 15.976 96.272 15.944C96.288 15.896 96.304 15.856 96.32 15.824C96.336 15.776 96.352 15.736 96.368 15.704C96.384 15.672 96.4 15.648 96.416 15.632C96.448 15.6 96.48 15.576 96.512 15.56C96.544 15.528 96.576 15.504 96.608 15.488Z" fill="black"/>
<rect x="81" y="1" width="40" height="40" stroke="#FF9696"/>
<path d="M133.84 25.64C133.792 25.624 133.744 25.6 133.696 25.568C133.648 25.52 133.6 25.456 133.552 25.376C133.36 25.152 133.312 24.928 133.408 24.704C133.44 24.64 133.488 24.568 133.552 24.488C133.632 24.408 133.72 24.328 133.816 24.248C133.928 24.152 134.056 24.048 134.2 23.936C136.568 22.336 138.376 20.536 139.624 18.536C139.832 18.2 140.048 17.896 140.272 17.624C140.544 17.32 140.896 16.84 141.328 16.184C141.792 15.464 142.096 15.032 142.24 14.888C142.368 14.712 142.544 14.64 142.768 14.672C143.008 14.688 143.192 14.792 143.32 14.984C143.4 15.128 143.432 15.248 143.416 15.344C143.416 15.424 143.32 15.6 143.128 15.872C142.52 16.784 141.968 17.56 141.472 18.2C141.088 18.728 140.784 19.152 140.56 19.472C140.304 19.856 140.008 20.256 139.672 20.672C139.352 21.088 138.992 21.52 138.592 21.968C138.384 22.208 138.192 22.416 138.016 22.592C137.856 22.768 137.704 22.928 137.56 23.072C137.416 23.2 137.288 23.312 137.176 23.408C137.08 23.488 136.992 23.552 136.912 23.6C136.704 23.696 136.592 23.776 136.576 23.84C136.656 23.92 137.832 23.952 140.104 23.936L143.632 23.912L143.656 19.688C143.672 17.672 143.696 16.448 143.728 16.016C143.744 15.6 143.816 15.336 143.944 15.224C144.088 15.08 144.256 15.032 144.448 15.08C144.656 15.112 144.808 15.2 144.904 15.344C144.968 15.488 145.008 16.928 145.024 19.664L145.096 23.72L145.384 23.96C145.48 24.04 145.6 24.096 145.744 24.128C145.888 24.16 146.064 24.184 146.272 24.2C146.48 24.2 146.656 24.192 146.8 24.176C146.96 24.144 147.08 24.096 147.16 24.032C147.176 24.016 147.192 24.008 147.208 24.008C147.24 23.992 147.28 23.976 147.328 23.96C147.392 23.944 147.448 23.928 147.496 23.912C147.56 23.896 147.616 23.88 147.664 23.864C147.728 23.848 147.768 23.84 147.784 23.84C147.928 23.84 148.048 23.872 148.144 23.936C148.256 24 148.336 24.096 148.384 24.224C148.48 24.384 148.528 24.504 148.528 24.584C148.528 24.664 148.48 24.76 148.384 24.872C148.112 25.32 147.416 25.488 146.296 25.376C145.704 25.312 145.344 25.328 145.216 25.424C145.104 25.52 145.048 26.528 145.048 28.448C145.048 29.28 145.064 29.992 145.096 30.584C145.096 30.872 145.104 31.096 145.12 31.256C145.136 31.432 145.152 31.536 145.168 31.568C145.328 31.84 145.272 32.12 145 32.408C144.872 32.552 144.744 32.632 144.616 32.648C144.488 32.68 144.36 32.656 144.232 32.576C144.168 32.544 144.112 32.504 144.064 32.456C144.016 32.408 143.976 32.352 143.944 32.288C143.896 32.16 143.848 31.936 143.8 31.616C143.768 31.296 143.744 30.904 143.728 30.44C143.728 29.976 143.728 29.312 143.728 28.448L143.68 25.328H140.536C138.232 25.328 136.176 25.432 134.368 25.64C134.288 25.656 134.216 25.664 134.152 25.664C134.088 25.664 134.024 25.664 133.96 25.664C133.912 25.664 133.872 25.656 133.84 25.64Z" fill="black"/>
<rect x="121" y="1" width="40" height="40" stroke="#FF9696"/>
<path d="M180.108 22.76C180.332 22.68 180.836 22.64 181.62 22.64C182.42 22.64 182.932 22.68 183.156 22.76C183.332 22.808 183.572 22.864 183.876 22.928C184.132 22.96 184.452 23.152 184.836 23.504C185.22 23.84 185.508 24.192 185.7 24.56C185.748 24.672 185.788 24.784 185.82 24.896C185.868 24.992 185.892 25.088 185.892 25.184C185.908 25.392 185.9 25.792 185.868 26.384C185.852 27.28 185.788 27.96 185.676 28.424C185.58 28.76 185.404 29.2 185.148 29.744C184.892 30.304 184.644 30.768 184.404 31.136C184.228 31.376 183.956 31.64 183.588 31.928C183.396 32.056 183.204 32.168 183.012 32.264C182.836 32.376 182.668 32.464 182.508 32.528C182.38 32.592 182.252 32.632 182.124 32.648C182.012 32.664 181.892 32.672 181.764 32.672C181.556 32.656 181.036 32.568 180.204 32.408C179.836 32.328 179.348 32.008 178.74 31.448C178.148 30.888 177.668 30.304 177.3 29.696C176.836 28.912 176.428 27.936 176.076 26.768C175.916 26.32 175.844 25.32 175.86 23.768C175.876 22.712 175.9 22.008 175.932 21.656C175.964 21.288 176.036 20.88 176.148 20.432C176.628 18.656 177.276 17.2 178.092 16.064C178.3 15.76 178.708 15.312 179.316 14.72C179.924 14.128 180.292 13.832 180.42 13.832C180.516 13.832 180.604 13.784 180.684 13.688C180.796 13.56 181.148 13.496 181.74 13.496C182.332 13.496 182.772 13.552 183.06 13.664C183.444 13.824 183.764 13.984 184.02 14.144C184.292 14.304 184.516 14.464 184.692 14.624C185.188 15.152 185.372 15.864 185.244 16.76C185.18 17.144 185.148 17.408 185.148 17.552V17.576C185.132 17.736 185.028 17.856 184.836 17.936C184.724 17.984 184.612 18 184.5 17.984C184.404 17.952 184.3 17.888 184.188 17.792C184.044 17.664 183.956 17.528 183.924 17.384C183.892 17.256 183.876 16.984 183.876 16.568C183.876 16.264 183.86 16.024 183.828 15.848C183.796 15.656 183.756 15.528 183.708 15.464C183.58 15.336 183.348 15.2 183.012 15.056C182.676 14.912 182.348 14.816 182.028 14.768C181.708 14.72 181.364 14.792 180.996 14.984C180.66 15.192 180.308 15.48 179.94 15.848C179.588 16.216 179.228 16.68 178.86 17.24C178.78 17.336 178.708 17.432 178.644 17.528C178.596 17.624 178.556 17.696 178.524 17.744C178.492 17.792 178.476 17.824 178.476 17.84C178.46 17.904 178.404 18.04 178.308 18.248C177.86 19.272 177.572 20.064 177.444 20.624C177.316 21.168 177.236 21.928 177.204 22.904C177.156 23.672 177.14 24.168 177.156 24.392L177.204 24.656C177.284 24.656 177.42 24.512 177.612 24.224C178.012 23.6 178.572 23.184 179.292 22.976C179.356 22.96 179.428 22.944 179.508 22.928C179.588 22.912 179.676 22.888 179.772 22.856C179.884 22.824 179.996 22.792 180.108 22.76ZM184.62 25.832C184.556 25.16 184.236 24.64 183.66 24.272C183.612 24.24 183.54 24.216 183.444 24.2C183.348 24.168 183.22 24.144 183.06 24.128C182.916 24.112 182.74 24.096 182.532 24.08C182.324 24.064 182.092 24.056 181.836 24.056C181.212 24.04 180.756 24.04 180.468 24.056C180.308 24.056 180.164 24.072 180.036 24.104C179.924 24.12 179.82 24.144 179.724 24.176C179.644 24.208 179.556 24.248 179.46 24.296C179.364 24.344 179.276 24.408 179.196 24.488C178.732 24.84 178.428 25.296 178.284 25.856C178.172 26.192 177.996 26.456 177.756 26.648C177.724 26.696 177.684 26.736 177.636 26.768C177.604 26.8 177.58 26.832 177.564 26.864C177.548 26.88 177.54 26.896 177.54 26.912C177.524 26.928 177.516 26.976 177.516 27.056C177.532 27.12 177.556 27.2 177.588 27.296C177.62 27.424 177.668 27.568 177.732 27.728C177.796 27.872 177.876 28.032 177.972 28.208C178.148 28.576 178.348 28.928 178.572 29.264C178.812 29.616 179.036 29.92 179.244 30.176C179.644 30.592 180.012 30.888 180.348 31.064C180.46 31.112 180.58 31.152 180.708 31.184C180.836 31.232 180.972 31.264 181.116 31.28C181.26 31.312 181.412 31.328 181.572 31.328C182.004 31.36 182.348 31.28 182.604 31.088C182.716 31.008 182.844 30.88 182.988 30.704C183.132 30.544 183.292 30.344 183.468 30.104C183.82 29.608 184.036 29.208 184.116 28.904C184.532 27.528 184.7 26.504 184.62 25.832Z" fill="black"/>
<rect x="161" y="1" width="40" height="40" stroke="#FF9696"/>
<path d="M219.204 15.608C219.348 15.608 219.436 15.56 219.468 15.464C219.516 15.384 219.764 15.344 220.212 15.344C220.404 15.344 220.556 15.352 220.668 15.368C220.7 15.384 220.732 15.4 220.764 15.416C220.796 15.416 220.828 15.424 220.86 15.44C220.892 15.44 220.916 15.448 220.932 15.464C221.012 15.512 221.108 15.592 221.22 15.704C221.46 15.944 221.732 16.12 222.036 16.232C222.116 16.248 222.268 16.288 222.492 16.352C222.572 16.368 222.644 16.384 222.708 16.4C222.772 16.416 222.82 16.432 222.852 16.448C222.9 16.464 222.94 16.472 222.972 16.472C223.084 16.52 223.196 16.576 223.308 16.64C223.42 16.688 223.532 16.76 223.644 16.856C223.756 16.936 223.876 17.032 224.004 17.144C224.356 17.464 224.596 17.784 224.724 18.104C224.98 18.712 225.02 19.4 224.844 20.168C224.684 20.92 224.34 21.584 223.812 22.16C223.396 22.592 223.188 22.856 223.188 22.952C223.188 23 223.22 23.048 223.284 23.096C223.348 23.144 223.436 23.192 223.548 23.24C223.692 23.304 223.836 23.376 223.98 23.456C224.124 23.536 224.268 23.624 224.412 23.72C224.476 23.752 224.532 23.792 224.58 23.84C224.628 23.872 224.676 23.904 224.724 23.936C224.772 23.968 224.82 24 224.868 24.032C224.916 24.064 224.964 24.104 225.012 24.152C225.06 24.184 225.1 24.216 225.132 24.248C225.18 24.28 225.228 24.32 225.276 24.368C225.356 24.432 225.428 24.496 225.492 24.56C225.556 24.624 225.612 24.688 225.66 24.752C225.708 24.8 225.748 24.84 225.78 24.872C226.292 25.784 226.468 26.768 226.308 27.824C226.164 28.88 225.684 29.896 224.868 30.872C224.74 31.048 224.612 31.192 224.484 31.304C224.372 31.432 224.26 31.536 224.148 31.616C223.924 31.776 223.588 31.968 223.14 32.192C222.612 32.432 222.244 32.568 222.036 32.6C221.956 32.616 221.852 32.624 221.724 32.624C221.596 32.64 221.436 32.648 221.244 32.648C221.068 32.664 220.852 32.672 220.596 32.672C218.628 32.672 217.068 32.16 215.916 31.136C215.756 31.008 215.612 30.872 215.484 30.728C215.372 30.6 215.276 30.472 215.196 30.344C215.116 30.216 215.052 30.096 215.004 29.984C214.876 29.632 214.836 29.104 214.884 28.4C214.884 28.144 214.892 27.92 214.908 27.728C214.94 27.52 214.972 27.352 215.004 27.224C215.052 27.096 215.116 26.936 215.196 26.744C215.276 26.536 215.38 26.296 215.508 26.024C215.572 25.864 215.644 25.712 215.724 25.568C215.804 25.408 215.884 25.264 215.964 25.136C216.06 24.992 216.148 24.864 216.228 24.752C216.324 24.624 216.412 24.504 216.492 24.392C216.588 24.28 216.684 24.176 216.78 24.08C216.876 23.984 216.972 23.896 217.068 23.816C217.18 23.72 217.284 23.632 217.38 23.552C217.492 23.472 217.604 23.4 217.716 23.336C217.956 23.208 218.124 23.104 218.22 23.024C218.332 22.944 218.38 22.88 218.364 22.832C218.348 22.72 218.14 22.568 217.74 22.376C217.324 22.152 216.988 21.912 216.732 21.656C216.492 21.4 216.324 21.128 216.228 20.84C216.132 20.536 216.108 20.072 216.156 19.448C216.236 18.376 216.604 17.528 217.26 16.904C217.436 16.76 217.66 16.576 217.932 16.352C218.22 16.128 218.492 15.944 218.748 15.8C218.86 15.736 218.956 15.688 219.036 15.656C219.116 15.624 219.172 15.608 219.204 15.608ZM221.052 17.48C220.396 17.48 220.044 17.448 219.996 17.384C219.804 17.128 219.548 17.04 219.228 17.12C219.068 17.168 218.9 17.248 218.724 17.36C218.564 17.472 218.396 17.632 218.22 17.84C218.044 18.032 217.9 18.24 217.788 18.464C217.676 18.672 217.588 18.888 217.524 19.112C217.444 19.496 217.404 19.752 217.404 19.88C217.404 19.944 217.412 20.024 217.428 20.12C217.46 20.2 217.508 20.296 217.572 20.408C217.604 20.504 217.652 20.6 217.716 20.696C217.78 20.776 217.852 20.848 217.932 20.912C218.076 21.04 218.356 21.192 218.772 21.368C219.38 21.688 219.772 21.848 219.948 21.848C220.14 21.848 220.364 21.904 220.62 22.016C220.764 22.064 220.916 22.088 221.076 22.088C221.236 22.088 221.42 22.064 221.628 22.016C222.028 21.936 222.34 21.784 222.564 21.56C222.612 21.528 222.652 21.488 222.684 21.44C222.732 21.392 222.772 21.344 222.804 21.296C222.852 21.248 222.892 21.2 222.924 21.152C222.972 21.088 223.012 21.032 223.044 20.984C223.092 20.92 223.14 20.856 223.188 20.792C223.38 20.472 223.476 20.232 223.476 20.072C223.476 19.864 223.524 19.696 223.62 19.568C223.7 19.408 223.684 19.184 223.572 18.896C223.492 18.64 223.38 18.424 223.236 18.248C223.108 18.056 222.948 17.904 222.756 17.792C222.564 17.68 222.324 17.6 222.036 17.552C221.748 17.504 221.42 17.48 221.052 17.48ZM221.484 23.936C221.356 24 221.18 23.984 220.956 23.888C220.396 23.632 219.7 23.744 218.868 24.224C218.484 24.432 218.172 24.64 217.932 24.848C217.692 25.04 217.484 25.256 217.308 25.496C217.132 25.736 216.956 26.04 216.78 26.408C216.62 26.728 216.492 27.064 216.396 27.416C216.316 27.752 216.268 28.096 216.252 28.448L216.156 29.528L216.804 30.152C217.028 30.36 217.22 30.52 217.38 30.632C217.54 30.76 217.668 30.832 217.764 30.848C217.796 30.848 217.828 30.848 217.86 30.848C217.892 30.864 217.932 30.872 217.98 30.872C218.076 30.904 218.172 30.936 218.268 30.968C218.316 30.984 218.372 31 218.436 31.016C218.516 31.032 218.596 31.056 218.676 31.088C218.836 31.12 218.972 31.152 219.084 31.184C219.484 31.296 219.852 31.368 220.188 31.4C220.54 31.432 220.852 31.432 221.124 31.4C221.668 31.336 222.364 31.096 223.212 30.68C223.292 30.632 223.428 30.496 223.62 30.272C223.812 30.064 224.004 29.824 224.196 29.552C224.388 29.28 224.54 29.048 224.652 28.856C224.812 28.552 224.9 28.024 224.916 27.272C224.916 26.856 224.892 26.512 224.844 26.24C224.796 25.968 224.716 25.76 224.604 25.616C224.54 25.52 224.42 25.408 224.244 25.28C224.084 25.152 223.868 25.008 223.596 24.848C223.34 24.688 223.036 24.512 222.684 24.32C222.028 23.968 221.628 23.84 221.484 23.936Z" fill="black"/>
<rect x="201" y="1" width="40" height="40" stroke="#FF9696"/>
<path d="M256.028 16.448C256.46 16.144 256.772 16.008 256.964 16.04H256.988C257.036 16.04 257.092 16.056 257.156 16.088C257.236 16.12 257.308 16.176 257.372 16.256C257.436 16.32 257.508 16.408 257.588 16.52C257.796 16.824 257.868 17.032 257.804 17.144V17.168C257.756 17.28 257.684 17.856 257.588 18.896C257.524 19.904 257.46 20.44 257.396 20.504C257.348 20.6 257.324 20.856 257.324 21.272C257.34 21.608 257.3 21.928 257.204 22.232C257.108 22.52 257.02 23.048 256.94 23.816C256.86 24.568 256.764 25.272 256.652 25.928C256.508 26.936 256.396 27.848 256.316 28.664C256.236 29.48 256.18 30.208 256.148 30.848C256.132 31.536 256.1 31.96 256.052 32.12C256.036 32.216 256.004 32.296 255.956 32.36C255.908 32.424 255.852 32.48 255.788 32.528C255.66 32.624 255.564 32.672 255.5 32.672C255.436 32.672 255.332 32.616 255.188 32.504H255.164C254.956 32.36 254.82 32.176 254.756 31.952C254.708 31.728 254.7 31.384 254.732 30.92C254.748 30.84 254.764 30.688 254.78 30.464C254.796 30.256 254.82 29.984 254.852 29.648C254.884 29.312 254.916 28.904 254.948 28.424C254.964 28.2 254.98 27.992 254.996 27.8C255.028 27.592 255.052 27.424 255.068 27.296C255.084 27.152 255.1 27.024 255.116 26.912C255.132 26.8 255.14 26.72 255.14 26.672C255.156 26.608 255.172 26.568 255.188 26.552C255.268 26.408 255.396 25.336 255.572 23.336C255.588 23.128 255.612 22.928 255.644 22.736C255.676 22.528 255.708 22.344 255.74 22.184C255.772 22.008 255.812 21.848 255.86 21.704C255.94 21.416 256.004 21.008 256.052 20.48C256.116 19.936 256.148 19.472 256.148 19.088C256.148 18.88 256.14 18.728 256.124 18.632C256.108 18.504 256.076 18.424 256.028 18.392L256.004 18.368C255.956 18.368 255.892 18.392 255.812 18.44C255.732 18.472 255.636 18.528 255.524 18.608C255.412 18.688 255.268 18.792 255.092 18.92C254.932 19.016 254.788 19.104 254.66 19.184C253.956 19.52 253.468 19.448 253.196 18.968C253.084 18.76 253.068 18.6 253.148 18.488C253.244 18.36 253.508 18.16 253.94 17.888C254.5 17.616 254.876 17.384 255.068 17.192C255.324 16.984 255.644 16.736 256.028 16.448ZM260.35 20.024C261.246 18.2 262.086 17.096 262.87 16.712C263.238 16.52 263.742 16.424 264.382 16.424C264.59 16.424 264.782 16.44 264.958 16.472C265.134 16.488 265.286 16.52 265.414 16.568C265.542 16.6 265.654 16.648 265.75 16.712C265.814 16.744 265.878 16.784 265.942 16.832C266.006 16.88 266.07 16.936 266.134 17C266.214 17.064 266.286 17.136 266.35 17.216C266.43 17.296 266.51 17.384 266.59 17.48C266.67 17.576 266.75 17.68 266.83 17.792C267.022 18.08 267.182 18.344 267.31 18.584C267.454 18.808 267.55 19.016 267.598 19.208C267.63 19.304 267.758 19.688 267.982 20.36C268.11 20.744 268.174 21.52 268.174 22.688C268.174 23.84 268.11 24.584 267.982 24.92C267.822 25.272 267.742 25.568 267.742 25.808C267.742 26.144 267.622 26.744 267.382 27.608C267.254 28.04 267.126 28.432 266.998 28.784C266.87 29.12 266.734 29.424 266.59 29.696C266.366 30.144 266.102 30.552 265.798 30.92C265.51 31.288 265.182 31.616 264.814 31.904C264.094 32.48 263.43 32.736 262.822 32.672C262.182 32.592 261.566 32.352 260.974 31.952C260.398 31.552 259.966 31.064 259.678 30.488C259.55 30.232 259.438 29.992 259.342 29.768C259.246 29.544 259.166 29.344 259.102 29.168C258.99 28.784 258.91 28.344 258.862 27.848C258.814 27.352 258.79 26.712 258.79 25.928C258.79 24.584 258.862 23.624 259.006 23.048C259.166 22.472 259.614 21.464 260.35 20.024ZM265.966 18.992C265.662 18.464 265.318 18.104 264.934 17.912C264.502 17.656 264.118 17.72 263.782 18.104C263.606 18.328 263.438 18.44 263.278 18.44C263.246 18.44 263.206 18.448 263.158 18.464C263.11 18.464 263.062 18.48 263.014 18.512C262.982 18.528 262.942 18.552 262.894 18.584C262.846 18.6 262.798 18.632 262.75 18.68C262.718 18.712 262.678 18.752 262.63 18.8C262.438 19.04 262.062 19.688 261.502 20.744C260.942 21.816 260.63 22.544 260.566 22.928C260.534 22.992 260.502 23.072 260.47 23.168C260.454 23.248 260.43 23.36 260.398 23.504C260.334 23.776 260.278 23.96 260.23 24.056C260.102 24.52 260.07 25.32 260.134 26.456C260.214 27.576 260.358 28.416 260.566 28.976C260.822 29.808 261.222 30.424 261.766 30.824C262.31 31.208 262.886 31.304 263.494 31.112C263.91 30.968 264.382 30.536 264.91 29.816C265.454 29.096 265.742 28.512 265.774 28.064C265.774 27.856 265.838 27.648 265.966 27.44C266.094 27.216 266.158 26.936 266.158 26.6C266.158 26.296 266.246 25.968 266.422 25.616C266.566 25.28 266.662 24.52 266.71 23.336C266.758 22.136 266.718 21.272 266.59 20.744C266.478 20.104 266.27 19.52 265.966 18.992Z" fill="black"/>
<rect x="241" y="1" width="40" height="40" stroke="#FF9696"/>
<path d="M296.028 16.448C296.46 16.144 296.772 16.008 296.964 16.04H296.988C297.036 16.04 297.092 16.056 297.156 16.088C297.236 16.12 297.308 16.176 297.372 16.256C297.436 16.32 297.508 16.408 297.588 16.52C297.796 16.824 297.868 17.032 297.804 17.144V17.168C297.756 17.28 297.684 17.856 297.588 18.896C297.524 19.904 297.46 20.44 297.396 20.504C297.348 20.6 297.324 20.856 297.324 21.272C297.34 21.608 297.3 21.928 297.204 22.232C297.108 22.52 297.02 23.048 296.94 23.816C296.86 24.568 296.764 25.272 296.652 25.928C296.508 26.936 296.396 27.848 296.316 28.664C296.236 29.48 296.18 30.208 296.148 30.848C296.132 31.536 296.1 31.96 296.052 32.12C296.036 32.216 296.004 32.296 295.956 32.36C295.908 32.424 295.852 32.48 295.788 32.528C295.66 32.624 295.564 32.672 295.5 32.672C295.436 32.672 295.332 32.616 295.188 32.504H295.164C294.956 32.36 294.82 32.176 294.756 31.952C294.708 31.728 294.7 31.384 294.732 30.92C294.748 30.84 294.764 30.688 294.78 30.464C294.796 30.256 294.82 29.984 294.852 29.648C294.884 29.312 294.916 28.904 294.948 28.424C294.964 28.2 294.98 27.992 294.996 27.8C295.028 27.592 295.052 27.424 295.068 27.296C295.084 27.152 295.1 27.024 295.116 26.912C295.132 26.8 295.14 26.72 295.14 26.672C295.156 26.608 295.172 26.568 295.188 26.552C295.268 26.408 295.396 25.336 295.572 23.336C295.588 23.128 295.612 22.928 295.644 22.736C295.676 22.528 295.708 22.344 295.74 22.184C295.772 22.008 295.812 21.848 295.86 21.704C295.94 21.416 296.004 21.008 296.052 20.48C296.116 19.936 296.148 19.472 296.148 19.088C296.148 18.88 296.14 18.728 296.124 18.632C296.108 18.504 296.076 18.424 296.028 18.392L296.004 18.368C295.956 18.368 295.892 18.392 295.812 18.44C295.732 18.472 295.636 18.528 295.524 18.608C295.412 18.688 295.268 18.792 295.092 18.92C294.932 19.016 294.788 19.104 294.66 19.184C293.956 19.52 293.468 19.448 293.196 18.968C293.084 18.76 293.068 18.6 293.148 18.488C293.244 18.36 293.508 18.16 293.94 17.888C294.5 17.616 294.876 17.384 295.068 17.192C295.324 16.984 295.644 16.736 296.028 16.448ZM302.438 15.464C302.534 15.432 302.646 15.408 302.774 15.392C302.902 15.36 303.054 15.344 303.23 15.344C303.886 15.296 304.806 15.288 305.99 15.32H308.006L308.414 15.704C308.494 15.8 308.558 15.88 308.606 15.944C308.654 16.008 308.686 16.064 308.702 16.112C308.734 16.176 308.718 16.28 308.654 16.424C308.558 16.6 308.414 16.728 308.222 16.808C308.03 16.872 307.846 16.856 307.67 16.76C307.494 16.664 306.75 16.616 305.438 16.616H303.542L303.11 17.096C302.838 17.368 302.606 17.48 302.414 17.432C302.254 17.4 302.134 17.4 302.054 17.432C302.022 17.448 301.99 17.488 301.958 17.552C301.926 17.6 301.894 17.672 301.862 17.768C301.798 17.976 301.758 18.248 301.742 18.584C301.742 18.904 301.742 19.392 301.742 20.048C301.742 20.784 301.758 21.344 301.79 21.728C301.838 22.112 301.902 22.328 301.982 22.376C302.062 22.424 302.27 22.368 302.606 22.208C302.766 22.128 302.982 22.064 303.254 22.016C303.542 21.968 303.894 21.936 304.31 21.92C305.126 21.872 305.694 21.904 306.014 22.016C306.494 22.16 306.966 22.52 307.43 23.096C307.59 23.272 307.734 23.464 307.862 23.672C307.99 23.88 308.11 24.104 308.222 24.344C308.334 24.568 308.422 24.8 308.486 25.04C308.662 25.568 308.758 26.264 308.774 27.128C308.79 27.976 308.71 28.648 308.534 29.144C308.47 29.336 308.398 29.52 308.318 29.696C308.254 29.872 308.182 30.04 308.102 30.2C308.038 30.36 307.966 30.512 307.886 30.656C307.806 30.8 307.726 30.928 307.646 31.04C307.582 31.168 307.51 31.28 307.43 31.376C307.35 31.472 307.27 31.56 307.19 31.64C306.854 32.024 306.502 32.28 306.134 32.408C305.766 32.552 305.254 32.632 304.598 32.648C303.926 32.696 303.326 32.672 302.798 32.576C302.27 32.496 301.814 32.352 301.43 32.144C300.982 31.856 300.486 31.44 299.942 30.896C299.766 30.72 299.614 30.552 299.486 30.392C299.358 30.248 299.254 30.12 299.174 30.008C299.11 29.896 299.07 29.808 299.054 29.744V29.72L298.982 29.48C298.918 29.304 298.878 29.16 298.862 29.048C298.75 28.664 298.758 28.376 298.886 28.184C299.014 28.008 299.174 27.912 299.366 27.896C299.462 27.88 299.55 27.888 299.63 27.92C299.726 27.952 299.814 28.008 299.894 28.088C299.99 28.184 300.07 28.408 300.134 28.76C300.166 28.936 300.222 29.104 300.302 29.264C300.382 29.44 300.486 29.608 300.614 29.768C300.758 29.928 300.926 30.08 301.118 30.224C301.662 30.688 302.342 31.048 303.158 31.304C303.414 31.384 303.63 31.44 303.806 31.472C303.998 31.52 304.15 31.552 304.262 31.568C304.47 31.568 304.774 31.496 305.174 31.352C305.638 31.192 305.998 30.968 306.254 30.68C306.526 30.408 306.774 30 306.998 29.456C307.078 29.248 307.142 29.064 307.19 28.904C307.254 28.728 307.294 28.576 307.31 28.448C307.358 28.192 307.382 27.744 307.382 27.104C307.382 26.448 307.358 26.008 307.31 25.784C307.278 25.56 307.174 25.24 306.998 24.824C306.854 24.584 306.71 24.368 306.566 24.176C306.438 23.968 306.294 23.784 306.134 23.624C305.942 23.464 305.774 23.368 305.63 23.336C305.486 23.288 305.206 23.264 304.79 23.264C303.718 23.264 302.782 23.496 301.982 23.96C301.614 24.168 301.35 24.272 301.19 24.272C301.046 24.256 300.878 24.128 300.686 23.888L300.374 23.504V20.168C300.39 18.584 300.406 17.608 300.422 17.24C300.438 17.048 300.462 16.872 300.494 16.712C300.542 16.552 300.598 16.4 300.662 16.256C300.806 15.968 300.91 15.808 300.974 15.776C300.99 15.76 301.022 15.752 301.07 15.752C301.118 15.736 301.174 15.728 301.238 15.728C301.318 15.728 301.406 15.728 301.502 15.728C301.678 15.744 301.83 15.744 301.958 15.728C302.086 15.696 302.182 15.64 302.246 15.56C302.294 15.528 302.358 15.496 302.438 15.464Z" fill="black"/>
<rect x="281" y="1" width="40" height="40" stroke="#FF9696"/>
<path d="M336.028 16.448C336.46 16.144 336.772 16.008 336.964 16.04H336.988C337.036 16.04 337.092 16.056 337.156 16.088C337.236 16.12 337.308 16.176 337.372 16.256C337.436 16.32 337.508 16.408 337.588 16.52C337.796 16.824 337.868 17.032 337.804 17.144V17.168C337.756 17.28 337.684 17.856 337.588 18.896C337.524 19.904 337.46 20.44 337.396 20.504C337.348 20.6 337.324 20.856 337.324 21.272C337.34 21.608 337.3 21.928 337.204 22.232C337.108 22.52 337.02 23.048 336.94 23.816C336.86 24.568 336.764 25.272 336.652 25.928C336.508 26.936 336.396 27.848 336.316 28.664C336.236 29.48 336.18 30.208 336.148 30.848C336.132 31.536 336.1 31.96 336.052 32.12C336.036 32.216 336.004 32.296 335.956 32.36C335.908 32.424 335.852 32.48 335.788 32.528C335.66 32.624 335.564 32.672 335.5 32.672C335.436 32.672 335.332 32.616 335.188 32.504H335.164C334.956 32.36 334.82 32.176 334.756 31.952C334.708 31.728 334.7 31.384 334.732 30.92C334.748 30.84 334.764 30.688 334.78 30.464C334.796 30.256 334.82 29.984 334.852 29.648C334.884 29.312 334.916 28.904 334.948 28.424C334.964 28.2 334.98 27.992 334.996 27.8C335.028 27.592 335.052 27.424 335.068 27.296C335.084 27.152 335.1 27.024 335.116 26.912C335.132 26.8 335.14 26.72 335.14 26.672C335.156 26.608 335.172 26.568 335.188 26.552C335.268 26.408 335.396 25.336 335.572 23.336C335.588 23.128 335.612 22.928 335.644 22.736C335.676 22.528 335.708 22.344 335.74 22.184C335.772 22.008 335.812 21.848 335.86 21.704C335.94 21.416 336.004 21.008 336.052 20.48C336.116 19.936 336.148 19.472 336.148 19.088C336.148 18.88 336.14 18.728 336.124 18.632C336.108 18.504 336.076 18.424 336.028 18.392L336.004 18.368C335.956 18.368 335.892 18.392 335.812 18.44C335.732 18.472 335.636 18.528 335.524 18.608C335.412 18.688 335.268 18.792 335.092 18.92C334.932 19.016 334.788 19.104 334.66 19.184C333.956 19.52 333.468 19.448 333.196 18.968C333.084 18.76 333.068 18.6 333.148 18.488C333.244 18.36 333.508 18.16 333.94 17.888C334.5 17.616 334.876 17.384 335.068 17.192C335.324 16.984 335.644 16.736 336.028 16.448ZM343.038 22.76C343.262 22.68 343.766 22.64 344.55 22.64C345.35 22.64 345.862 22.68 346.086 22.76C346.262 22.808 346.502 22.864 346.806 22.928C347.062 22.96 347.382 23.152 347.766 23.504C348.15 23.84 348.438 24.192 348.63 24.56C348.678 24.672 348.718 24.784 348.75 24.896C348.798 24.992 348.822 25.088 348.822 25.184C348.838 25.392 348.83 25.792 348.798 26.384C348.782 27.28 348.718 27.96 348.606 28.424C348.51 28.76 348.334 29.2 348.078 29.744C347.822 30.304 347.574 30.768 347.334 31.136C347.158 31.376 346.886 31.64 346.518 31.928C346.326 32.056 346.134 32.168 345.942 32.264C345.766 32.376 345.598 32.464 345.438 32.528C345.31 32.592 345.182 32.632 345.054 32.648C344.942 32.664 344.822 32.672 344.694 32.672C344.486 32.656 343.966 32.568 343.134 32.408C342.766 32.328 342.278 32.008 341.67 31.448C341.078 30.888 340.598 30.304 340.23 29.696C339.766 28.912 339.358 27.936 339.006 26.768C338.846 26.32 338.774 25.32 338.79 23.768C338.806 22.712 338.83 22.008 338.862 21.656C338.894 21.288 338.966 20.88 339.078 20.432C339.558 18.656 340.206 17.2 341.022 16.064C341.23 15.76 341.638 15.312 342.246 14.72C342.854 14.128 343.222 13.832 343.35 13.832C343.446 13.832 343.534 13.784 343.614 13.688C343.726 13.56 344.078 13.496 344.67 13.496C345.262 13.496 345.702 13.552 345.99 13.664C346.374 13.824 346.694 13.984 346.95 14.144C347.222 14.304 347.446 14.464 347.622 14.624C348.118 15.152 348.302 15.864 348.174 16.76C348.11 17.144 348.078 17.408 348.078 17.552V17.576C348.062 17.736 347.958 17.856 347.766 17.936C347.654 17.984 347.542 18 347.43 17.984C347.334 17.952 347.23 17.888 347.118 17.792C346.974 17.664 346.886 17.528 346.854 17.384C346.822 17.256 346.806 16.984 346.806 16.568C346.806 16.264 346.79 16.024 346.758 15.848C346.726 15.656 346.686 15.528 346.638 15.464C346.51 15.336 346.278 15.2 345.942 15.056C345.606 14.912 345.278 14.816 344.958 14.768C344.638 14.72 344.294 14.792 343.926 14.984C343.59 15.192 343.238 15.48 342.87 15.848C342.518 16.216 342.158 16.68 341.79 17.24C341.71 17.336 341.638 17.432 341.574 17.528C341.526 17.624 341.486 17.696 341.454 17.744C341.422 17.792 341.406 17.824 341.406 17.84C341.39 17.904 341.334 18.04 341.238 18.248C340.79 19.272 340.502 20.064 340.374 20.624C340.246 21.168 340.166 21.928 340.134 22.904C340.086 23.672 340.07 24.168 340.086 24.392L340.134 24.656C340.214 24.656 340.35 24.512 340.542 24.224C340.942 23.6 341.502 23.184 342.222 22.976C342.286 22.96 342.358 22.944 342.438 22.928C342.518 22.912 342.606 22.888 342.702 22.856C342.814 22.824 342.926 22.792 343.038 22.76ZM347.55 25.832C347.486 25.16 347.166 24.64 346.59 24.272C346.542 24.24 346.47 24.216 346.374 24.2C346.278 24.168 346.15 24.144 345.99 24.128C345.846 24.112 345.67 24.096 345.462 24.08C345.254 24.064 345.022 24.056 344.766 24.056C344.142 24.04 343.686 24.04 343.398 24.056C343.238 24.056 343.094 24.072 342.966 24.104C342.854 24.12 342.75 24.144 342.654 24.176C342.574 24.208 342.486 24.248 342.39 24.296C342.294 24.344 342.206 24.408 342.126 24.488C341.662 24.84 341.358 25.296 341.214 25.856C341.102 26.192 340.926 26.456 340.686 26.648C340.654 26.696 340.614 26.736 340.566 26.768C340.534 26.8 340.51 26.832 340.494 26.864C340.478 26.88 340.47 26.896 340.47 26.912C340.454 26.928 340.446 26.976 340.446 27.056C340.462 27.12 340.486 27.2 340.518 27.296C340.55 27.424 340.598 27.568 340.662 27.728C340.726 27.872 340.806 28.032 340.902 28.208C341.078 28.576 341.278 28.928 341.502 29.264C341.742 29.616 341.966 29.92 342.174 30.176C342.574 30.592 342.942 30.888 343.278 31.064C343.39 31.112 343.51 31.152 343.638 31.184C343.766 31.232 343.902 31.264 344.046 31.28C344.19 31.312 344.342 31.328 344.502 31.328C344.934 31.36 345.278 31.28 345.534 31.088C345.646 31.008 345.774 30.88 345.918 30.704C346.062 30.544 346.222 30.344 346.398 30.104C346.75 29.608 346.966 29.208 347.046 28.904C347.462 27.528 347.63 26.504 347.55 25.832Z" fill="black"/>
<rect x="321" y="1" width="40" height="40" stroke="#FF9696"/>
<path d="M372.064 17.984C372.336 17.552 372.688 17.16 373.12 16.808C373.552 16.44 374.056 16.12 374.632 15.848C375.48 15.432 376.192 15.272 376.768 15.368C377.344 15.448 377.912 15.8 378.472 16.424C378.712 16.696 378.904 16.952 379.048 17.192C379.208 17.432 379.32 17.656 379.384 17.864C379.528 18.28 379.6 19.024 379.6 20.096C379.6 20.976 379.576 21.552 379.528 21.824C379.496 22.096 379.416 22.36 379.288 22.616C379.096 22.984 378.84 23.384 378.52 23.816C378.44 23.928 378.36 24.032 378.28 24.128C378.2 24.224 378.12 24.312 378.04 24.392C377.976 24.472 377.912 24.544 377.848 24.608C377.784 24.672 377.72 24.728 377.656 24.776C377.272 25.112 376.608 25.584 375.664 26.192C375.2 26.496 374.816 26.736 374.512 26.912C374.208 27.088 373.984 27.2 373.84 27.248C373.728 27.296 373.624 27.344 373.528 27.392C373.432 27.424 373.344 27.456 373.264 27.488C373.2 27.52 373.144 27.552 373.096 27.584C373.064 27.6 372.992 27.624 372.88 27.656C372.784 27.672 372.656 27.696 372.496 27.728C372.144 27.808 371.912 27.96 371.8 28.184C371.768 28.264 371.736 28.368 371.704 28.496C371.688 28.608 371.672 28.752 371.656 28.928C371.656 29.088 371.656 29.272 371.656 29.48C371.656 30.2 371.688 30.616 371.752 30.728C371.816 30.84 372.192 30.856 372.88 30.776C373.616 30.68 375.096 30.632 377.32 30.632L380.776 30.584L380.92 30.872C380.968 30.952 380.992 31.04 380.992 31.136C380.992 31.232 380.976 31.328 380.944 31.424C380.928 31.488 380.896 31.544 380.848 31.592C380.816 31.656 380.768 31.704 380.704 31.736C380.656 31.784 380.6 31.824 380.536 31.856C380.408 31.92 379.032 31.984 376.408 32.048C374.504 32.064 373.288 32.104 372.76 32.168C372.504 32.2 372.256 32.24 372.016 32.288C371.792 32.352 371.576 32.44 371.368 32.552C370.984 32.744 370.704 32.72 370.528 32.48C370.48 32.432 370.44 32.184 370.408 31.736C370.392 31.288 370.376 30.656 370.36 29.84C370.36 29.28 370.36 28.808 370.36 28.424C370.36 28.024 370.368 27.704 370.384 27.464C370.416 27.224 370.44 27.072 370.456 27.008C370.552 26.72 370.672 26.536 370.816 26.456C370.96 26.376 371.2 26.352 371.536 26.384C372.16 26.464 373.056 26.184 374.224 25.544C376.112 24.456 377.328 23.376 377.872 22.304C378.048 21.952 378.16 21.664 378.208 21.44C378.224 21.392 378.232 21.328 378.232 21.248C378.248 21.168 378.256 21.072 378.256 20.96C378.272 20.848 378.28 20.72 378.28 20.576C378.28 20.432 378.28 20.272 378.28 20.096C378.28 19.168 378.168 18.496 377.944 18.08C377.8 17.712 377.6 17.392 377.344 17.12C377.264 17.04 377.184 16.968 377.104 16.904C377.024 16.84 376.944 16.784 376.864 16.736C376.784 16.688 376.712 16.656 376.648 16.64C376.504 16.608 376.32 16.616 376.096 16.664C375.872 16.712 375.608 16.808 375.304 16.952C374.696 17.24 374.2 17.584 373.816 17.984C373.48 18.304 373.264 18.56 373.168 18.752C373.088 18.944 373.08 19.144 373.144 19.352C373.192 19.48 373.224 19.6 373.24 19.712C373.256 19.824 373.248 19.928 373.216 20.024C373.2 20.104 373.16 20.176 373.096 20.24C372.808 20.528 372.456 20.472 372.04 20.072C371.512 19.544 371.52 18.848 372.064 17.984ZM383.264 20.024C384.16 18.2 385 17.096 385.784 16.712C386.152 16.52 386.656 16.424 387.296 16.424C387.504 16.424 387.696 16.44 387.872 16.472C388.048 16.488 388.2 16.52 388.328 16.568C388.456 16.6 388.568 16.648 388.664 16.712C388.728 16.744 388.792 16.784 388.856 16.832C388.92 16.88 388.984 16.936 389.048 17C389.128 17.064 389.2 17.136 389.264 17.216C389.344 17.296 389.424 17.384 389.504 17.48C389.584 17.576 389.664 17.68 389.744 17.792C389.936 18.08 390.096 18.344 390.224 18.584C390.368 18.808 390.464 19.016 390.512 19.208C390.544 19.304 390.672 19.688 390.896 20.36C391.024 20.744 391.088 21.52 391.088 22.688C391.088 23.84 391.024 24.584 390.896 24.92C390.736 25.272 390.656 25.568 390.656 25.808C390.656 26.144 390.536 26.744 390.296 27.608C390.168 28.04 390.04 28.432 389.912 28.784C389.784 29.12 389.648 29.424 389.504 29.696C389.28 30.144 389.016 30.552 388.712 30.92C388.424 31.288 388.096 31.616 387.728 31.904C387.008 32.48 386.344 32.736 385.736 32.672C385.096 32.592 384.48 32.352 383.888 31.952C383.312 31.552 382.88 31.064 382.592 30.488C382.464 30.232 382.352 29.992 382.256 29.768C382.16 29.544 382.08 29.344 382.016 29.168C381.904 28.784 381.824 28.344 381.776 27.848C381.728 27.352 381.704 26.712 381.704 25.928C381.704 24.584 381.776 23.624 381.92 23.048C382.08 22.472 382.528 21.464 383.264 20.024ZM388.88 18.992C388.576 18.464 388.232 18.104 387.848 17.912C387.416 17.656 387.032 17.72 386.696 18.104C386.52 18.328 386.352 18.44 386.192 18.44C386.16 18.44 386.12 18.448 386.072 18.464C386.024 18.464 385.976 18.48 385.928 18.512C385.896 18.528 385.856 18.552 385.808 18.584C385.76 18.6 385.712 18.632 385.664 18.68C385.632 18.712 385.592 18.752 385.544 18.8C385.352 19.04 384.976 19.688 384.416 20.744C383.856 21.816 383.544 22.544 383.48 22.928C383.448 22.992 383.416 23.072 383.384 23.168C383.368 23.248 383.344 23.36 383.312 23.504C383.248 23.776 383.192 23.96 383.144 24.056C383.016 24.52 382.984 25.32 383.048 26.456C383.128 27.576 383.272 28.416 383.48 28.976C383.736 29.808 384.136 30.424 384.68 30.824C385.224 31.208 385.8 31.304 386.408 31.112C386.824 30.968 387.296 30.536 387.824 29.816C388.368 29.096 388.656 28.512 388.688 28.064C388.688 27.856 388.752 27.648 388.88 27.44C389.008 27.216 389.072 26.936 389.072 26.6C389.072 26.296 389.16 25.968 389.336 25.616C389.48 25.28 389.576 24.52 389.624 23.336C389.672 22.136 389.632 21.272 389.504 20.744C389.392 20.104 389.184 19.52 388.88 18.992Z" fill="black"/>
<rect x="361" y="1" width="40" height="40" stroke="#FF9696"/>
<path d="M411.564 17.984C411.836 17.552 412.188 17.16 412.62 16.808C413.052 16.44 413.556 16.12 414.132 15.848C414.98 15.432 415.692 15.272 416.268 15.368C416.844 15.448 417.412 15.8 417.972 16.424C418.212 16.696 418.404 16.952 418.548 17.192C418.708 17.432 418.82 17.656 418.884 17.864C419.028 18.28 419.1 19.024 419.1 20.096C419.1 20.976 419.076 21.552 419.028 21.824C418.996 22.096 418.916 22.36 418.788 22.616C418.596 22.984 418.34 23.384 418.02 23.816C417.94 23.928 417.86 24.032 417.78 24.128C417.7 24.224 417.62 24.312 417.54 24.392C417.476 24.472 417.412 24.544 417.348 24.608C417.284 24.672 417.22 24.728 417.156 24.776C416.772 25.112 416.108 25.584 415.164 26.192C414.7 26.496 414.316 26.736 414.012 26.912C413.708 27.088 413.484 27.2 413.34 27.248C413.228 27.296 413.124 27.344 413.028 27.392C412.932 27.424 412.844 27.456 412.764 27.488C412.7 27.52 412.644 27.552 412.596 27.584C412.564 27.6 412.492 27.624 412.38 27.656C412.284 27.672 412.156 27.696 411.996 27.728C411.644 27.808 411.412 27.96 411.3 28.184C411.268 28.264 411.236 28.368 411.204 28.496C411.188 28.608 411.172 28.752 411.156 28.928C411.156 29.088 411.156 29.272 411.156 29.48C411.156 30.2 411.188 30.616 411.252 30.728C411.316 30.84 411.692 30.856 412.38 30.776C413.116 30.68 414.596 30.632 416.82 30.632L420.276 30.584L420.42 30.872C420.468 30.952 420.492 31.04 420.492 31.136C420.492 31.232 420.476 31.328 420.444 31.424C420.428 31.488 420.396 31.544 420.348 31.592C420.316 31.656 420.268 31.704 420.204 31.736C420.156 31.784 420.1 31.824 420.036 31.856C419.908 31.92 418.532 31.984 415.908 32.048C414.004 32.064 412.788 32.104 412.26 32.168C412.004 32.2 411.756 32.24 411.516 32.288C411.292 32.352 411.076 32.44 410.868 32.552C410.484 32.744 410.204 32.72 410.028 32.48C409.98 32.432 409.94 32.184 409.908 31.736C409.892 31.288 409.876 30.656 409.86 29.84C409.86 29.28 409.86 28.808 409.86 28.424C409.86 28.024 409.868 27.704 409.884 27.464C409.916 27.224 409.94 27.072 409.956 27.008C410.052 26.72 410.172 26.536 410.316 26.456C410.46 26.376 410.7 26.352 411.036 26.384C411.66 26.464 412.556 26.184 413.724 25.544C415.612 24.456 416.828 23.376 417.372 22.304C417.548 21.952 417.66 21.664 417.708 21.44C417.724 21.392 417.732 21.328 417.732 21.248C417.748 21.168 417.756 21.072 417.756 20.96C417.772 20.848 417.78 20.72 417.78 20.576C417.78 20.432 417.78 20.272 417.78 20.096C417.78 19.168 417.668 18.496 417.444 18.08C417.3 17.712 417.1 17.392 416.844 17.12C416.764 17.04 416.684 16.968 416.604 16.904C416.524 16.84 416.444 16.784 416.364 16.736C416.284 16.688 416.212 16.656 416.148 16.64C416.004 16.608 415.82 16.616 415.596 16.664C415.372 16.712 415.108 16.808 414.804 16.952C414.196 17.24 413.7 17.584 413.316 17.984C412.98 18.304 412.764 18.56 412.668 18.752C412.588 18.944 412.58 19.144 412.644 19.352C412.692 19.48 412.724 19.6 412.74 19.712C412.756 19.824 412.748 19.928 412.716 20.024C412.7 20.104 412.66 20.176 412.596 20.24C412.308 20.528 411.956 20.472 411.54 20.072C411.012 19.544 411.02 18.848 411.564 17.984ZM422.908 17.984C423.18 17.552 423.532 17.16 423.964 16.808C424.396 16.44 424.9 16.12 425.476 15.848C426.324 15.432 427.036 15.272 427.612 15.368C428.188 15.448 428.756 15.8 429.316 16.424C429.556 16.696 429.748 16.952 429.892 17.192C430.052 17.432 430.164 17.656 430.228 17.864C430.372 18.28 430.444 19.024 430.444 20.096C430.444 20.976 430.42 21.552 430.372 21.824C430.34 22.096 430.26 22.36 430.132 22.616C429.94 22.984 429.684 23.384 429.364 23.816C429.284 23.928 429.204 24.032 429.124 24.128C429.044 24.224 428.964 24.312 428.884 24.392C428.82 24.472 428.756 24.544 428.692 24.608C428.628 24.672 428.564 24.728 428.5 24.776C428.116 25.112 427.452 25.584 426.508 26.192C426.044 26.496 425.66 26.736 425.356 26.912C425.052 27.088 424.828 27.2 424.684 27.248C424.572 27.296 424.468 27.344 424.372 27.392C424.276 27.424 424.188 27.456 424.108 27.488C424.044 27.52 423.988 27.552 423.94 27.584C423.908 27.6 423.836 27.624 423.724 27.656C423.628 27.672 423.5 27.696 423.34 27.728C422.988 27.808 422.756 27.96 422.644 28.184C422.612 28.264 422.58 28.368 422.548 28.496C422.532 28.608 422.516 28.752 422.5 28.928C422.5 29.088 422.5 29.272 422.5 29.48C422.5 30.2 422.532 30.616 422.596 30.728C422.66 30.84 423.036 30.856 423.724 30.776C424.46 30.68 425.94 30.632 428.164 30.632L431.62 30.584L431.764 30.872C431.812 30.952 431.836 31.04 431.836 31.136C431.836 31.232 431.82 31.328 431.788 31.424C431.772 31.488 431.74 31.544 431.692 31.592C431.66 31.656 431.612 31.704 431.548 31.736C431.5 31.784 431.444 31.824 431.38 31.856C431.252 31.92 429.876 31.984 427.252 32.048C425.348 32.064 424.132 32.104 423.604 32.168C423.348 32.2 423.1 32.24 422.86 32.288C422.636 32.352 422.42 32.44 422.212 32.552C421.828 32.744 421.548 32.72 421.372 32.48C421.324 32.432 421.284 32.184 421.252 31.736C421.236 31.288 421.22 30.656 421.204 29.84C421.204 29.28 421.204 28.808 421.204 28.424C421.204 28.024 421.212 27.704 421.228 27.464C421.26 27.224 421.284 27.072 421.3 27.008C421.396 26.72 421.516 26.536 421.66 26.456C421.804 26.376 422.044 26.352 422.38 26.384C423.004 26.464 423.9 26.184 425.068 25.544C426.956 24.456 428.172 23.376 428.716 22.304C428.892 21.952 429.004 21.664 429.052 21.44C429.068 21.392 429.076 21.328 429.076 21.248C429.092 21.168 429.1 21.072 429.1 20.96C429.116 20.848 429.124 20.72 429.124 20.576C429.124 20.432 429.124 20.272 429.124 20.096C429.124 19.168 429.012 18.496 428.788 18.08C428.644 17.712 428.444 17.392 428.188 17.12C428.108 17.04 428.028 16.968 427.948 16.904C427.868 16.84 427.788 16.784 427.708 16.736C427.628 16.688 427.556 16.656 427.492 16.64C427.348 16.608 427.164 16.616 426.94 16.664C426.716 16.712 426.452 16.808 426.148 16.952C425.54 17.24 425.044 17.584 424.66 17.984C424.324 18.304 424.108 18.56 424.012 18.752C423.932 18.944 423.924 19.144 423.988 19.352C424.036 19.48 424.068 19.6 424.084 19.712C424.1 19.824 424.092 19.928 424.06 20.024C424.044 20.104 424.004 20.176 423.94 20.24C423.652 20.528 423.3 20.472 422.884 20.072C422.356 19.544 422.364 18.848 422.908 17.984Z" fill="black"/>
<rect x="401" y="1" width="40" height="40" stroke="#FF9696"/>
</svg>
