<svg width="442" height="93" viewBox="0 0 442 93" fill="none" xmlns="http://www.w3.org/2000/svg">
<path d="M17.42 71.024C18.316 69.2 19.156 68.096 19.94 67.712C20.308 67.52 20.812 67.424 21.452 67.424C21.66 67.424 21.852 67.44 22.028 67.472C22.204 67.488 22.356 67.52 22.484 67.568C22.612 67.6 22.724 67.648 22.82 67.712C22.884 67.744 22.948 67.784 23.012 67.832C23.076 67.88 23.14 67.936 23.204 68C23.284 68.064 23.356 68.136 23.42 68.216C23.5 68.296 23.58 68.384 23.66 68.48C23.74 68.576 23.82 68.68 23.9 68.792C24.092 69.08 24.252 69.344 24.38 69.584C24.524 69.808 24.62 70.016 24.668 70.208C24.7 70.304 24.828 70.688 25.052 71.36C25.18 71.744 25.244 72.52 25.244 73.688C25.244 74.84 25.18 75.584 25.052 75.92C24.892 76.272 24.812 76.568 24.812 76.808C24.812 77.144 24.692 77.744 24.452 78.608C24.324 79.04 24.196 79.432 24.068 79.784C23.94 80.12 23.804 80.424 23.66 80.696C23.436 81.144 23.172 81.552 22.868 81.92C22.58 82.288 22.252 82.616 21.884 82.904C21.164 83.48 20.5 83.736 19.892 83.672C19.252 83.592 18.636 83.352 18.044 82.952C17.468 82.552 17.036 82.064 16.748 81.488C16.62 81.232 16.508 80.992 16.412 80.768C16.316 80.544 16.236 80.344 16.172 80.168C16.06 79.784 15.98 79.344 15.932 78.848C15.884 78.352 15.86 77.712 15.86 76.928C15.86 75.584 15.932 74.624 16.076 74.048C16.236 73.472 16.684 72.464 17.42 71.024ZM23.036 69.992C22.732 69.464 22.388 69.104 22.004 68.912C21.572 68.656 21.188 68.72 20.852 69.104C20.676 69.328 20.508 69.44 20.348 69.44C20.316 69.44 20.276 69.448 20.228 69.464C20.18 69.464 20.132 69.48 20.084 69.512C20.052 69.528 20.012 69.552 19.964 69.584C19.916 69.6 19.868 69.632 19.82 69.68C19.788 69.712 19.748 69.752 19.7 69.8C19.508 70.04 19.132 70.688 18.572 71.744C18.012 72.816 17.7 73.544 17.636 73.928C17.604 73.992 17.572 74.072 17.54 74.168C17.524 74.248 17.5 74.36 17.468 74.504C17.404 74.776 17.348 74.96 17.3 75.056C17.172 75.52 17.14 76.32 17.204 77.456C17.284 78.576 17.428 79.416 17.636 79.976C17.892 80.808 18.292 81.424 18.836 81.824C19.38 82.208 19.956 82.304 20.564 82.112C20.98 81.968 21.452 81.536 21.98 80.816C22.524 80.096 22.812 79.512 22.844 79.064C22.844 78.856 22.908 78.648 23.036 78.44C23.164 78.216 23.228 77.936 23.228 77.6C23.228 77.296 23.316 76.968 23.492 76.616C23.636 76.28 23.732 75.52 23.78 74.336C23.828 73.136 23.788 72.272 23.66 71.744C23.548 71.104 23.34 70.52 23.036 69.992Z" fill="black"/>
<rect x="1" y="52" width="40" height="40" stroke="#7A7A7A"/>
<path d="M53.84 76.64C53.792 76.624 53.744 76.6 53.696 76.568C53.648 76.52 53.6 76.456 53.552 76.376C53.36 76.152 53.312 75.928 53.408 75.704C53.44 75.64 53.488 75.568 53.552 75.488C53.632 75.408 53.72 75.328 53.816 75.248C53.928 75.152 54.056 75.048 54.2 74.936C56.568 73.336 58.376 71.536 59.624 69.536C59.832 69.2 60.048 68.896 60.272 68.624C60.544 68.32 60.896 67.84 61.328 67.184C61.792 66.464 62.096 66.032 62.24 65.888C62.368 65.712 62.544 65.64 62.768 65.672C63.008 65.688 63.192 65.792 63.32 65.984C63.4 66.128 63.432 66.248 63.416 66.344C63.416 66.424 63.32 66.6 63.128 66.872C62.52 67.784 61.968 68.56 61.472 69.2C61.088 69.728 60.784 70.152 60.56 70.472C60.304 70.856 60.008 71.256 59.672 71.672C59.352 72.088 58.992 72.52 58.592 72.968C58.384 73.208 58.192 73.416 58.016 73.592C57.856 73.768 57.704 73.928 57.56 74.072C57.416 74.2 57.288 74.312 57.176 74.408C57.08 74.488 56.992 74.552 56.912 74.6C56.704 74.696 56.592 74.776 56.576 74.84C56.656 74.92 57.832 74.952 60.104 74.936L63.632 74.912L63.656 70.688C63.672 68.672 63.696 67.448 63.728 67.016C63.744 66.6 63.816 66.336 63.944 66.224C64.088 66.08 64.256 66.032 64.448 66.08C64.656 66.112 64.808 66.2 64.904 66.344C64.968 66.488 65.008 67.928 65.024 70.664L65.096 74.72L65.384 74.96C65.48 75.04 65.6 75.096 65.744 75.128C65.888 75.16 66.064 75.184 66.272 75.2C66.48 75.2 66.656 75.192 66.8 75.176C66.96 75.144 67.08 75.096 67.16 75.032C67.176 75.016 67.192 75.008 67.208 75.008C67.24 74.992 67.28 74.976 67.328 74.96C67.392 74.944 67.448 74.928 67.496 74.912C67.56 74.896 67.616 74.88 67.664 74.864C67.728 74.848 67.768 74.84 67.784 74.84C67.928 74.84 68.048 74.872 68.144 74.936C68.256 75 68.336 75.096 68.384 75.224C68.48 75.384 68.528 75.504 68.528 75.584C68.528 75.664 68.48 75.76 68.384 75.872C68.112 76.32 67.416 76.488 66.296 76.376C65.704 76.312 65.344 76.328 65.216 76.424C65.104 76.52 65.048 77.528 65.048 79.448C65.048 80.28 65.064 80.992 65.096 81.584C65.096 81.872 65.104 82.096 65.12 82.256C65.136 82.432 65.152 82.536 65.168 82.568C65.328 82.84 65.272 83.12 65 83.408C64.872 83.552 64.744 83.632 64.616 83.648C64.488 83.68 64.36 83.656 64.232 83.576C64.168 83.544 64.112 83.504 64.064 83.456C64.016 83.408 63.976 83.352 63.944 83.288C63.896 83.16 63.848 82.936 63.8 82.616C63.768 82.296 63.744 81.904 63.728 81.44C63.728 80.976 63.728 80.312 63.728 79.448L63.68 76.328H60.536C58.232 76.328 56.176 76.432 54.368 76.64C54.288 76.656 54.216 76.664 54.152 76.664C54.088 76.664 54.024 76.664 53.96 76.664C53.912 76.664 53.872 76.656 53.84 76.64Z" fill="black"/>
<rect x="41" y="52" width="40" height="40" stroke="#7A7A7A"/>
<path d="M101.528 67.448C101.96 67.144 102.272 67.008 102.464 67.04H102.488C102.536 67.04 102.592 67.056 102.656 67.088C102.736 67.12 102.808 67.176 102.872 67.256C102.936 67.32 103.008 67.408 103.088 67.52C103.296 67.824 103.368 68.032 103.304 68.144V68.168C103.256 68.28 103.184 68.856 103.088 69.896C103.024 70.904 102.96 71.44 102.896 71.504C102.848 71.6 102.824 71.856 102.824 72.272C102.84 72.608 102.8 72.928 102.704 73.232C102.608 73.52 102.52 74.048 102.44 74.816C102.36 75.568 102.264 76.272 102.152 76.928C102.008 77.936 101.896 78.848 101.816 79.664C101.736 80.48 101.68 81.208 101.648 81.848C101.632 82.536 101.6 82.96 101.552 83.12C101.536 83.216 101.504 83.296 101.456 83.36C101.408 83.424 101.352 83.48 101.288 83.528C101.16 83.624 101.064 83.672 101 83.672C100.936 83.672 100.832 83.616 100.688 83.504H100.664C100.456 83.36 100.32 83.176 100.256 82.952C100.208 82.728 100.2 82.384 100.232 81.92C100.248 81.84 100.264 81.688 100.28 81.464C100.296 81.256 100.32 80.984 100.352 80.648C100.384 80.312 100.416 79.904 100.448 79.424C100.464 79.2 100.48 78.992 100.496 78.8C100.528 78.592 100.552 78.424 100.568 78.296C100.584 78.152 100.6 78.024 100.616 77.912C100.632 77.8 100.64 77.72 100.64 77.672C100.656 77.608 100.672 77.568 100.688 77.552C100.768 77.408 100.896 76.336 101.072 74.336C101.088 74.128 101.112 73.928 101.144 73.736C101.176 73.528 101.208 73.344 101.24 73.184C101.272 73.008 101.312 72.848 101.36 72.704C101.44 72.416 101.504 72.008 101.552 71.48C101.616 70.936 101.648 70.472 101.648 70.088C101.648 69.88 101.64 69.728 101.624 69.632C101.608 69.504 101.576 69.424 101.528 69.392L101.504 69.368C101.456 69.368 101.392 69.392 101.312 69.44C101.232 69.472 101.136 69.528 101.024 69.608C100.912 69.688 100.768 69.792 100.592 69.92C100.432 70.016 100.288 70.104 100.16 70.184C99.456 70.52 98.968 70.448 98.696 69.968C98.584 69.76 98.568 69.6 98.648 69.488C98.744 69.36 99.008 69.16 99.44 68.888C100 68.616 100.376 68.384 100.568 68.192C100.824 67.984 101.144 67.736 101.528 67.448Z" fill="black"/>
<rect x="81" y="52" width="40" height="40" stroke="#7A7A7A"/>
<path d="M136.608 66.488C136.816 66.376 137.216 66.288 137.808 66.224C138.544 66.128 139.824 66.088 141.648 66.104H144.312L144.576 66.416C144.736 66.656 144.784 66.856 144.72 67.016C144.688 67.128 144.608 67.296 144.48 67.52C144.352 67.728 144.176 68 143.952 68.336C143.488 68.992 143.04 69.56 142.608 70.04C142.048 70.68 141.624 71.176 141.336 71.528C141.064 71.88 140.928 72.088 140.928 72.152C140.928 72.248 141.088 72.312 141.408 72.344C142.016 72.456 142.832 72.856 143.856 73.544C144.24 73.8 144.56 74.064 144.816 74.336C145.088 74.608 145.288 74.88 145.416 75.152C145.688 75.696 145.824 76.496 145.824 77.552C145.84 78.336 145.792 78.944 145.68 79.376C145.632 79.6 145.552 79.856 145.44 80.144C145.328 80.432 145.184 80.76 145.008 81.128C144.56 82.024 143.872 82.72 142.944 83.216C142.864 83.248 142.792 83.28 142.728 83.312C142.68 83.344 142.624 83.368 142.56 83.384C142.496 83.416 142.44 83.44 142.392 83.456C142.344 83.488 142.296 83.512 142.248 83.528C142.2 83.544 142.152 83.552 142.104 83.552C142.056 83.568 142.016 83.576 141.984 83.576C141.744 83.608 141.136 83.632 140.16 83.648C139.232 83.68 138.648 83.68 138.408 83.648C138.28 83.632 138.144 83.6 138 83.552C137.856 83.504 137.696 83.44 137.52 83.36C136.912 83.088 136.448 82.76 136.128 82.376C135.824 82.008 135.608 81.496 135.48 80.84C135.352 80.264 135.32 79.864 135.384 79.64C135.464 79.416 135.656 79.304 135.96 79.304C136.264 79.304 136.472 79.432 136.584 79.688C136.712 79.944 136.776 80.208 136.776 80.48C136.776 81.344 137.328 81.944 138.432 82.28C138.96 82.472 139.656 82.528 140.52 82.448C141.4 82.368 142.112 82.184 142.656 81.896C142.912 81.752 143.184 81.472 143.472 81.056C143.776 80.656 144.016 80.224 144.192 79.76C144.384 79.248 144.48 78.576 144.48 77.744C144.48 76.624 144.288 75.816 143.904 75.32C143.776 75.16 143.536 74.952 143.184 74.696C142.848 74.424 142.64 74.288 142.56 74.288C142.512 74.288 142.432 74.264 142.32 74.216C142.224 74.168 142.096 74.088 141.936 73.976C141.728 73.832 141.528 73.744 141.336 73.712C141.16 73.68 140.744 73.672 140.088 73.688C139.704 73.704 139.384 73.704 139.128 73.688C138.888 73.672 138.712 73.648 138.6 73.616C138.504 73.568 138.432 73.504 138.384 73.424C138.336 73.344 138.312 73.232 138.312 73.088C138.312 72.848 138.736 72.296 139.584 71.432C141.424 69.496 142.472 68.296 142.728 67.832C142.792 67.72 142.792 67.6 142.728 67.472C142.68 67.328 142.184 67.288 141.24 67.352C138.888 67.448 137.504 67.56 137.088 67.688C136.96 67.72 136.84 67.72 136.728 67.688C136.68 67.672 136.64 67.648 136.608 67.616C136.576 67.584 136.544 67.552 136.512 67.52C136.48 67.488 136.448 67.456 136.416 67.424C136.32 67.312 136.272 67.192 136.272 67.064C136.272 67.016 136.272 66.976 136.272 66.944C136.288 66.896 136.304 66.856 136.32 66.824C136.336 66.776 136.352 66.736 136.368 66.704C136.384 66.672 136.4 66.648 136.416 66.632C136.448 66.6 136.48 66.576 136.512 66.56C136.544 66.528 136.576 66.504 136.608 66.488Z" fill="black"/>
<rect x="121" y="52" width="40" height="40" stroke="#7A7A7A"/>
<path d="M180.108 73.76C180.332 73.68 180.836 73.64 181.62 73.64C182.42 73.64 182.932 73.68 183.156 73.76C183.332 73.808 183.572 73.864 183.876 73.928C184.132 73.96 184.452 74.152 184.836 74.504C185.22 74.84 185.508 75.192 185.7 75.56C185.748 75.672 185.788 75.784 185.82 75.896C185.868 75.992 185.892 76.088 185.892 76.184C185.908 76.392 185.9 76.792 185.868 77.384C185.852 78.28 185.788 78.96 185.676 79.424C185.58 79.76 185.404 80.2 185.148 80.744C184.892 81.304 184.644 81.768 184.404 82.136C184.228 82.376 183.956 82.64 183.588 82.928C183.396 83.056 183.204 83.168 183.012 83.264C182.836 83.376 182.668 83.464 182.508 83.528C182.38 83.592 182.252 83.632 182.124 83.648C182.012 83.664 181.892 83.672 181.764 83.672C181.556 83.656 181.036 83.568 180.204 83.408C179.836 83.328 179.348 83.008 178.74 82.448C178.148 81.888 177.668 81.304 177.3 80.696C176.836 79.912 176.428 78.936 176.076 77.768C175.916 77.32 175.844 76.32 175.86 74.768C175.876 73.712 175.9 73.008 175.932 72.656C175.964 72.288 176.036 71.88 176.148 71.432C176.628 69.656 177.276 68.2 178.092 67.064C178.3 66.76 178.708 66.312 179.316 65.72C179.924 65.128 180.292 64.832 180.42 64.832C180.516 64.832 180.604 64.784 180.684 64.688C180.796 64.56 181.148 64.496 181.74 64.496C182.332 64.496 182.772 64.552 183.06 64.664C183.444 64.824 183.764 64.984 184.02 65.144C184.292 65.304 184.516 65.464 184.692 65.624C185.188 66.152 185.372 66.864 185.244 67.76C185.18 68.144 185.148 68.408 185.148 68.552V68.576C185.132 68.736 185.028 68.856 184.836 68.936C184.724 68.984 184.612 69 184.5 68.984C184.404 68.952 184.3 68.888 184.188 68.792C184.044 68.664 183.956 68.528 183.924 68.384C183.892 68.256 183.876 67.984 183.876 67.568C183.876 67.264 183.86 67.024 183.828 66.848C183.796 66.656 183.756 66.528 183.708 66.464C183.58 66.336 183.348 66.2 183.012 66.056C182.676 65.912 182.348 65.816 182.028 65.768C181.708 65.72 181.364 65.792 180.996 65.984C180.66 66.192 180.308 66.48 179.94 66.848C179.588 67.216 179.228 67.68 178.86 68.24C178.78 68.336 178.708 68.432 178.644 68.528C178.596 68.624 178.556 68.696 178.524 68.744C178.492 68.792 178.476 68.824 178.476 68.84C178.46 68.904 178.404 69.04 178.308 69.248C177.86 70.272 177.572 71.064 177.444 71.624C177.316 72.168 177.236 72.928 177.204 73.904C177.156 74.672 177.14 75.168 177.156 75.392L177.204 75.656C177.284 75.656 177.42 75.512 177.612 75.224C178.012 74.6 178.572 74.184 179.292 73.976C179.356 73.96 179.428 73.944 179.508 73.928C179.588 73.912 179.676 73.888 179.772 73.856C179.884 73.824 179.996 73.792 180.108 73.76ZM184.62 76.832C184.556 76.16 184.236 75.64 183.66 75.272C183.612 75.24 183.54 75.216 183.444 75.2C183.348 75.168 183.22 75.144 183.06 75.128C182.916 75.112 182.74 75.096 182.532 75.08C182.324 75.064 182.092 75.056 181.836 75.056C181.212 75.04 180.756 75.04 180.468 75.056C180.308 75.056 180.164 75.072 180.036 75.104C179.924 75.12 179.82 75.144 179.724 75.176C179.644 75.208 179.556 75.248 179.46 75.296C179.364 75.344 179.276 75.408 179.196 75.488C178.732 75.84 178.428 76.296 178.284 76.856C178.172 77.192 177.996 77.456 177.756 77.648C177.724 77.696 177.684 77.736 177.636 77.768C177.604 77.8 177.58 77.832 177.564 77.864C177.548 77.88 177.54 77.896 177.54 77.912C177.524 77.928 177.516 77.976 177.516 78.056C177.532 78.12 177.556 78.2 177.588 78.296C177.62 78.424 177.668 78.568 177.732 78.728C177.796 78.872 177.876 79.032 177.972 79.208C178.148 79.576 178.348 79.928 178.572 80.264C178.812 80.616 179.036 80.92 179.244 81.176C179.644 81.592 180.012 81.888 180.348 82.064C180.46 82.112 180.58 82.152 180.708 82.184C180.836 82.232 180.972 82.264 181.116 82.28C181.26 82.312 181.412 82.328 181.572 82.328C182.004 82.36 182.348 82.28 182.604 82.088C182.716 82.008 182.844 81.88 182.988 81.704C183.132 81.544 183.292 81.344 183.468 81.104C183.82 80.608 184.036 80.208 184.116 79.904C184.532 78.528 184.7 77.504 184.62 76.832Z" fill="black"/>
<rect x="161" y="52" width="40" height="40" stroke="#7A7A7A"/>
<path d="M216.028 67.448C216.46 67.144 216.772 67.008 216.964 67.04H216.988C217.036 67.04 217.092 67.056 217.156 67.088C217.236 67.12 217.308 67.176 217.372 67.256C217.436 67.32 217.508 67.408 217.588 67.52C217.796 67.824 217.868 68.032 217.804 68.144V68.168C217.756 68.28 217.684 68.856 217.588 69.896C217.524 70.904 217.46 71.44 217.396 71.504C217.348 71.6 217.324 71.856 217.324 72.272C217.34 72.608 217.3 72.928 217.204 73.232C217.108 73.52 217.02 74.048 216.94 74.816C216.86 75.568 216.764 76.272 216.652 76.928C216.508 77.936 216.396 78.848 216.316 79.664C216.236 80.48 216.18 81.208 216.148 81.848C216.132 82.536 216.1 82.96 216.052 83.12C216.036 83.216 216.004 83.296 215.956 83.36C215.908 83.424 215.852 83.48 215.788 83.528C215.66 83.624 215.564 83.672 215.5 83.672C215.436 83.672 215.332 83.616 215.188 83.504H215.164C214.956 83.36 214.82 83.176 214.756 82.952C214.708 82.728 214.7 82.384 214.732 81.92C214.748 81.84 214.764 81.688 214.78 81.464C214.796 81.256 214.82 80.984 214.852 80.648C214.884 80.312 214.916 79.904 214.948 79.424C214.964 79.2 214.98 78.992 214.996 78.8C215.028 78.592 215.052 78.424 215.068 78.296C215.084 78.152 215.1 78.024 215.116 77.912C215.132 77.8 215.14 77.72 215.14 77.672C215.156 77.608 215.172 77.568 215.188 77.552C215.268 77.408 215.396 76.336 215.572 74.336C215.588 74.128 215.612 73.928 215.644 73.736C215.676 73.528 215.708 73.344 215.74 73.184C215.772 73.008 215.812 72.848 215.86 72.704C215.94 72.416 216.004 72.008 216.052 71.48C216.116 70.936 216.148 70.472 216.148 70.088C216.148 69.88 216.14 69.728 216.124 69.632C216.108 69.504 216.076 69.424 216.028 69.392L216.004 69.368C215.956 69.368 215.892 69.392 215.812 69.44C215.732 69.472 215.636 69.528 215.524 69.608C215.412 69.688 215.268 69.792 215.092 69.92C214.932 70.016 214.788 70.104 214.66 70.184C213.956 70.52 213.468 70.448 213.196 69.968C213.084 69.76 213.068 69.6 213.148 69.488C213.244 69.36 213.508 69.16 213.94 68.888C214.5 68.616 214.876 68.384 215.068 68.192C215.324 67.984 215.644 67.736 216.028 67.448ZM220.35 71.024C221.246 69.2 222.086 68.096 222.87 67.712C223.238 67.52 223.742 67.424 224.382 67.424C224.59 67.424 224.782 67.44 224.958 67.472C225.134 67.488 225.286 67.52 225.414 67.568C225.542 67.6 225.654 67.648 225.75 67.712C225.814 67.744 225.878 67.784 225.942 67.832C226.006 67.88 226.07 67.936 226.134 68C226.214 68.064 226.286 68.136 226.35 68.216C226.43 68.296 226.51 68.384 226.59 68.48C226.67 68.576 226.75 68.68 226.83 68.792C227.022 69.08 227.182 69.344 227.31 69.584C227.454 69.808 227.55 70.016 227.598 70.208C227.63 70.304 227.758 70.688 227.982 71.36C228.11 71.744 228.174 72.52 228.174 73.688C228.174 74.84 228.11 75.584 227.982 75.92C227.822 76.272 227.742 76.568 227.742 76.808C227.742 77.144 227.622 77.744 227.382 78.608C227.254 79.04 227.126 79.432 226.998 79.784C226.87 80.12 226.734 80.424 226.59 80.696C226.366 81.144 226.102 81.552 225.798 81.92C225.51 82.288 225.182 82.616 224.814 82.904C224.094 83.48 223.43 83.736 222.822 83.672C222.182 83.592 221.566 83.352 220.974 82.952C220.398 82.552 219.966 82.064 219.678 81.488C219.55 81.232 219.438 80.992 219.342 80.768C219.246 80.544 219.166 80.344 219.102 80.168C218.99 79.784 218.91 79.344 218.862 78.848C218.814 78.352 218.79 77.712 218.79 76.928C218.79 75.584 218.862 74.624 219.006 74.048C219.166 73.472 219.614 72.464 220.35 71.024ZM225.966 69.992C225.662 69.464 225.318 69.104 224.934 68.912C224.502 68.656 224.118 68.72 223.782 69.104C223.606 69.328 223.438 69.44 223.278 69.44C223.246 69.44 223.206 69.448 223.158 69.464C223.11 69.464 223.062 69.48 223.014 69.512C222.982 69.528 222.942 69.552 222.894 69.584C222.846 69.6 222.798 69.632 222.75 69.68C222.718 69.712 222.678 69.752 222.63 69.8C222.438 70.04 222.062 70.688 221.502 71.744C220.942 72.816 220.63 73.544 220.566 73.928C220.534 73.992 220.502 74.072 220.47 74.168C220.454 74.248 220.43 74.36 220.398 74.504C220.334 74.776 220.278 74.96 220.23 75.056C220.102 75.52 220.07 76.32 220.134 77.456C220.214 78.576 220.358 79.416 220.566 79.976C220.822 80.808 221.222 81.424 221.766 81.824C222.31 82.208 222.886 82.304 223.494 82.112C223.91 81.968 224.382 81.536 224.91 80.816C225.454 80.096 225.742 79.512 225.774 79.064C225.774 78.856 225.838 78.648 225.966 78.44C226.094 78.216 226.158 77.936 226.158 77.6C226.158 77.296 226.246 76.968 226.422 76.616C226.566 76.28 226.662 75.52 226.71 74.336C226.758 73.136 226.718 72.272 226.59 71.744C226.478 71.104 226.27 70.52 225.966 69.992Z" fill="black"/>
<rect x="201" y="52" width="40" height="40" stroke="#7A7A7A"/>
<path d="M256.028 67.448C256.46 67.144 256.772 67.008 256.964 67.04H256.988C257.036 67.04 257.092 67.056 257.156 67.088C257.236 67.12 257.308 67.176 257.372 67.256C257.436 67.32 257.508 67.408 257.588 67.52C257.796 67.824 257.868 68.032 257.804 68.144V68.168C257.756 68.28 257.684 68.856 257.588 69.896C257.524 70.904 257.46 71.44 257.396 71.504C257.348 71.6 257.324 71.856 257.324 72.272C257.34 72.608 257.3 72.928 257.204 73.232C257.108 73.52 257.02 74.048 256.94 74.816C256.86 75.568 256.764 76.272 256.652 76.928C256.508 77.936 256.396 78.848 256.316 79.664C256.236 80.48 256.18 81.208 256.148 81.848C256.132 82.536 256.1 82.96 256.052 83.12C256.036 83.216 256.004 83.296 255.956 83.36C255.908 83.424 255.852 83.48 255.788 83.528C255.66 83.624 255.564 83.672 255.5 83.672C255.436 83.672 255.332 83.616 255.188 83.504H255.164C254.956 83.36 254.82 83.176 254.756 82.952C254.708 82.728 254.7 82.384 254.732 81.92C254.748 81.84 254.764 81.688 254.78 81.464C254.796 81.256 254.82 80.984 254.852 80.648C254.884 80.312 254.916 79.904 254.948 79.424C254.964 79.2 254.98 78.992 254.996 78.8C255.028 78.592 255.052 78.424 255.068 78.296C255.084 78.152 255.1 78.024 255.116 77.912C255.132 77.8 255.14 77.72 255.14 77.672C255.156 77.608 255.172 77.568 255.188 77.552C255.268 77.408 255.396 76.336 255.572 74.336C255.588 74.128 255.612 73.928 255.644 73.736C255.676 73.528 255.708 73.344 255.74 73.184C255.772 73.008 255.812 72.848 255.86 72.704C255.94 72.416 256.004 72.008 256.052 71.48C256.116 70.936 256.148 70.472 256.148 70.088C256.148 69.88 256.14 69.728 256.124 69.632C256.108 69.504 256.076 69.424 256.028 69.392L256.004 69.368C255.956 69.368 255.892 69.392 255.812 69.44C255.732 69.472 255.636 69.528 255.524 69.608C255.412 69.688 255.268 69.792 255.092 69.92C254.932 70.016 254.788 70.104 254.66 70.184C253.956 70.52 253.468 70.448 253.196 69.968C253.084 69.76 253.068 69.6 253.148 69.488C253.244 69.36 253.508 69.16 253.94 68.888C254.5 68.616 254.876 68.384 255.068 68.192C255.324 67.984 255.644 67.736 256.028 67.448ZM262.438 66.464C262.534 66.432 262.646 66.408 262.774 66.392C262.902 66.36 263.054 66.344 263.23 66.344C263.886 66.296 264.806 66.288 265.99 66.32H268.006L268.414 66.704C268.494 66.8 268.558 66.88 268.606 66.944C268.654 67.008 268.686 67.064 268.702 67.112C268.734 67.176 268.718 67.28 268.654 67.424C268.558 67.6 268.414 67.728 268.222 67.808C268.03 67.872 267.846 67.856 267.67 67.76C267.494 67.664 266.75 67.616 265.438 67.616H263.542L263.11 68.096C262.838 68.368 262.606 68.48 262.414 68.432C262.254 68.4 262.134 68.4 262.054 68.432C262.022 68.448 261.99 68.488 261.958 68.552C261.926 68.6 261.894 68.672 261.862 68.768C261.798 68.976 261.758 69.248 261.742 69.584C261.742 69.904 261.742 70.392 261.742 71.048C261.742 71.784 261.758 72.344 261.79 72.728C261.838 73.112 261.902 73.328 261.982 73.376C262.062 73.424 262.27 73.368 262.606 73.208C262.766 73.128 262.982 73.064 263.254 73.016C263.542 72.968 263.894 72.936 264.31 72.92C265.126 72.872 265.694 72.904 266.014 73.016C266.494 73.16 266.966 73.52 267.43 74.096C267.59 74.272 267.734 74.464 267.862 74.672C267.99 74.88 268.11 75.104 268.222 75.344C268.334 75.568 268.422 75.8 268.486 76.04C268.662 76.568 268.758 77.264 268.774 78.128C268.79 78.976 268.71 79.648 268.534 80.144C268.47 80.336 268.398 80.52 268.318 80.696C268.254 80.872 268.182 81.04 268.102 81.2C268.038 81.36 267.966 81.512 267.886 81.656C267.806 81.8 267.726 81.928 267.646 82.04C267.582 82.168 267.51 82.28 267.43 82.376C267.35 82.472 267.27 82.56 267.19 82.64C266.854 83.024 266.502 83.28 266.134 83.408C265.766 83.552 265.254 83.632 264.598 83.648C263.926 83.696 263.326 83.672 262.798 83.576C262.27 83.496 261.814 83.352 261.43 83.144C260.982 82.856 260.486 82.44 259.942 81.896C259.766 81.72 259.614 81.552 259.486 81.392C259.358 81.248 259.254 81.12 259.174 81.008C259.11 80.896 259.07 80.808 259.054 80.744V80.72L258.982 80.48C258.918 80.304 258.878 80.16 258.862 80.048C258.75 79.664 258.758 79.376 258.886 79.184C259.014 79.008 259.174 78.912 259.366 78.896C259.462 78.88 259.55 78.888 259.63 78.92C259.726 78.952 259.814 79.008 259.894 79.088C259.99 79.184 260.07 79.408 260.134 79.76C260.166 79.936 260.222 80.104 260.302 80.264C260.382 80.44 260.486 80.608 260.614 80.768C260.758 80.928 260.926 81.08 261.118 81.224C261.662 81.688 262.342 82.048 263.158 82.304C263.414 82.384 263.63 82.44 263.806 82.472C263.998 82.52 264.15 82.552 264.262 82.568C264.47 82.568 264.774 82.496 265.174 82.352C265.638 82.192 265.998 81.968 266.254 81.68C266.526 81.408 266.774 81 266.998 80.456C267.078 80.248 267.142 80.064 267.19 79.904C267.254 79.728 267.294 79.576 267.31 79.448C267.358 79.192 267.382 78.744 267.382 78.104C267.382 77.448 267.358 77.008 267.31 76.784C267.278 76.56 267.174 76.24 266.998 75.824C266.854 75.584 266.71 75.368 266.566 75.176C266.438 74.968 266.294 74.784 266.134 74.624C265.942 74.464 265.774 74.368 265.63 74.336C265.486 74.288 265.206 74.264 264.79 74.264C263.718 74.264 262.782 74.496 261.982 74.96C261.614 75.168 261.35 75.272 261.19 75.272C261.046 75.256 260.878 75.128 260.686 74.888L260.374 74.504V71.168C260.39 69.584 260.406 68.608 260.422 68.24C260.438 68.048 260.462 67.872 260.494 67.712C260.542 67.552 260.598 67.4 260.662 67.256C260.806 66.968 260.91 66.808 260.974 66.776C260.99 66.76 261.022 66.752 261.07 66.752C261.118 66.736 261.174 66.728 261.238 66.728C261.318 66.728 261.406 66.728 261.502 66.728C261.678 66.744 261.83 66.744 261.958 66.728C262.086 66.696 262.182 66.64 262.246 66.56C262.294 66.528 262.358 66.496 262.438 66.464Z" fill="black"/>
<rect x="241" y="52" width="40" height="40" stroke="#7A7A7A"/>
<path d="M299.204 66.608C299.348 66.608 299.436 66.56 299.468 66.464C299.516 66.384 299.764 66.344 300.212 66.344C300.404 66.344 300.556 66.352 300.668 66.368C300.7 66.384 300.732 66.4 300.764 66.416C300.796 66.416 300.828 66.424 300.86 66.44C300.892 66.44 300.916 66.448 300.932 66.464C301.012 66.512 301.108 66.592 301.22 66.704C301.46 66.944 301.732 67.12 302.036 67.232C302.116 67.248 302.268 67.288 302.492 67.352C302.572 67.368 302.644 67.384 302.708 67.4C302.772 67.416 302.82 67.432 302.852 67.448C302.9 67.464 302.94 67.472 302.972 67.472C303.084 67.52 303.196 67.576 303.308 67.64C303.42 67.688 303.532 67.76 303.644 67.856C303.756 67.936 303.876 68.032 304.004 68.144C304.356 68.464 304.596 68.784 304.724 69.104C304.98 69.712 305.02 70.4 304.844 71.168C304.684 71.92 304.34 72.584 303.812 73.16C303.396 73.592 303.188 73.856 303.188 73.952C303.188 74 303.22 74.048 303.284 74.096C303.348 74.144 303.436 74.192 303.548 74.24C303.692 74.304 303.836 74.376 303.98 74.456C304.124 74.536 304.268 74.624 304.412 74.72C304.476 74.752 304.532 74.792 304.58 74.84C304.628 74.872 304.676 74.904 304.724 74.936C304.772 74.968 304.82 75 304.868 75.032C304.916 75.064 304.964 75.104 305.012 75.152C305.06 75.184 305.1 75.216 305.132 75.248C305.18 75.28 305.228 75.32 305.276 75.368C305.356 75.432 305.428 75.496 305.492 75.56C305.556 75.624 305.612 75.688 305.66 75.752C305.708 75.8 305.748 75.84 305.78 75.872C306.292 76.784 306.468 77.768 306.308 78.824C306.164 79.88 305.684 80.896 304.868 81.872C304.74 82.048 304.612 82.192 304.484 82.304C304.372 82.432 304.26 82.536 304.148 82.616C303.924 82.776 303.588 82.968 303.14 83.192C302.612 83.432 302.244 83.568 302.036 83.6C301.956 83.616 301.852 83.624 301.724 83.624C301.596 83.64 301.436 83.648 301.244 83.648C301.068 83.664 300.852 83.672 300.596 83.672C298.628 83.672 297.068 83.16 295.916 82.136C295.756 82.008 295.612 81.872 295.484 81.728C295.372 81.6 295.276 81.472 295.196 81.344C295.116 81.216 295.052 81.096 295.004 80.984C294.876 80.632 294.836 80.104 294.884 79.4C294.884 79.144 294.892 78.92 294.908 78.728C294.94 78.52 294.972 78.352 295.004 78.224C295.052 78.096 295.116 77.936 295.196 77.744C295.276 77.536 295.38 77.296 295.508 77.024C295.572 76.864 295.644 76.712 295.724 76.568C295.804 76.408 295.884 76.264 295.964 76.136C296.06 75.992 296.148 75.864 296.228 75.752C296.324 75.624 296.412 75.504 296.492 75.392C296.588 75.28 296.684 75.176 296.78 75.08C296.876 74.984 296.972 74.896 297.068 74.816C297.18 74.72 297.284 74.632 297.38 74.552C297.492 74.472 297.604 74.4 297.716 74.336C297.956 74.208 298.124 74.104 298.22 74.024C298.332 73.944 298.38 73.88 298.364 73.832C298.348 73.72 298.14 73.568 297.74 73.376C297.324 73.152 296.988 72.912 296.732 72.656C296.492 72.4 296.324 72.128 296.228 71.84C296.132 71.536 296.108 71.072 296.156 70.448C296.236 69.376 296.604 68.528 297.26 67.904C297.436 67.76 297.66 67.576 297.932 67.352C298.22 67.128 298.492 66.944 298.748 66.8C298.86 66.736 298.956 66.688 299.036 66.656C299.116 66.624 299.172 66.608 299.204 66.608ZM301.052 68.48C300.396 68.48 300.044 68.448 299.996 68.384C299.804 68.128 299.548 68.04 299.228 68.12C299.068 68.168 298.9 68.248 298.724 68.36C298.564 68.472 298.396 68.632 298.22 68.84C298.044 69.032 297.9 69.24 297.788 69.464C297.676 69.672 297.588 69.888 297.524 70.112C297.444 70.496 297.404 70.752 297.404 70.88C297.404 70.944 297.412 71.024 297.428 71.12C297.46 71.2 297.508 71.296 297.572 71.408C297.604 71.504 297.652 71.6 297.716 71.696C297.78 71.776 297.852 71.848 297.932 71.912C298.076 72.04 298.356 72.192 298.772 72.368C299.38 72.688 299.772 72.848 299.948 72.848C300.14 72.848 300.364 72.904 300.62 73.016C300.764 73.064 300.916 73.088 301.076 73.088C301.236 73.088 301.42 73.064 301.628 73.016C302.028 72.936 302.34 72.784 302.564 72.56C302.612 72.528 302.652 72.488 302.684 72.44C302.732 72.392 302.772 72.344 302.804 72.296C302.852 72.248 302.892 72.2 302.924 72.152C302.972 72.088 303.012 72.032 303.044 71.984C303.092 71.92 303.14 71.856 303.188 71.792C303.38 71.472 303.476 71.232 303.476 71.072C303.476 70.864 303.524 70.696 303.62 70.568C303.7 70.408 303.684 70.184 303.572 69.896C303.492 69.64 303.38 69.424 303.236 69.248C303.108 69.056 302.948 68.904 302.756 68.792C302.564 68.68 302.324 68.6 302.036 68.552C301.748 68.504 301.42 68.48 301.052 68.48ZM301.484 74.936C301.356 75 301.18 74.984 300.956 74.888C300.396 74.632 299.7 74.744 298.868 75.224C298.484 75.432 298.172 75.64 297.932 75.848C297.692 76.04 297.484 76.256 297.308 76.496C297.132 76.736 296.956 77.04 296.78 77.408C296.62 77.728 296.492 78.064 296.396 78.416C296.316 78.752 296.268 79.096 296.252 79.448L296.156 80.528L296.804 81.152C297.028 81.36 297.22 81.52 297.38 81.632C297.54 81.76 297.668 81.832 297.764 81.848C297.796 81.848 297.828 81.848 297.86 81.848C297.892 81.864 297.932 81.872 297.98 81.872C298.076 81.904 298.172 81.936 298.268 81.968C298.316 81.984 298.372 82 298.436 82.016C298.516 82.032 298.596 82.056 298.676 82.088C298.836 82.12 298.972 82.152 299.084 82.184C299.484 82.296 299.852 82.368 300.188 82.4C300.54 82.432 300.852 82.432 301.124 82.4C301.668 82.336 302.364 82.096 303.212 81.68C303.292 81.632 303.428 81.496 303.62 81.272C303.812 81.064 304.004 80.824 304.196 80.552C304.388 80.28 304.54 80.048 304.652 79.856C304.812 79.552 304.9 79.024 304.916 78.272C304.916 77.856 304.892 77.512 304.844 77.24C304.796 76.968 304.716 76.76 304.604 76.616C304.54 76.52 304.42 76.408 304.244 76.28C304.084 76.152 303.868 76.008 303.596 75.848C303.34 75.688 303.036 75.512 302.684 75.32C302.028 74.968 301.628 74.84 301.484 74.936Z" fill="black"/>
<rect x="281" y="52" width="40" height="40" stroke="#7A7A7A"/>
<path d="M332.064 68.984C332.336 68.552 332.688 68.16 333.12 67.808C333.552 67.44 334.056 67.12 334.632 66.848C335.48 66.432 336.192 66.272 336.768 66.368C337.344 66.448 337.912 66.8 338.472 67.424C338.712 67.696 338.904 67.952 339.048 68.192C339.208 68.432 339.32 68.656 339.384 68.864C339.528 69.28 339.6 70.024 339.6 71.096C339.6 71.976 339.576 72.552 339.528 72.824C339.496 73.096 339.416 73.36 339.288 73.616C339.096 73.984 338.84 74.384 338.52 74.816C338.44 74.928 338.36 75.032 338.28 75.128C338.2 75.224 338.12 75.312 338.04 75.392C337.976 75.472 337.912 75.544 337.848 75.608C337.784 75.672 337.72 75.728 337.656 75.776C337.272 76.112 336.608 76.584 335.664 77.192C335.2 77.496 334.816 77.736 334.512 77.912C334.208 78.088 333.984 78.2 333.84 78.248C333.728 78.296 333.624 78.344 333.528 78.392C333.432 78.424 333.344 78.456 333.264 78.488C333.2 78.52 333.144 78.552 333.096 78.584C333.064 78.6 332.992 78.624 332.88 78.656C332.784 78.672 332.656 78.696 332.496 78.728C332.144 78.808 331.912 78.96 331.8 79.184C331.768 79.264 331.736 79.368 331.704 79.496C331.688 79.608 331.672 79.752 331.656 79.928C331.656 80.088 331.656 80.272 331.656 80.48C331.656 81.2 331.688 81.616 331.752 81.728C331.816 81.84 332.192 81.856 332.88 81.776C333.616 81.68 335.096 81.632 337.32 81.632L340.776 81.584L340.92 81.872C340.968 81.952 340.992 82.04 340.992 82.136C340.992 82.232 340.976 82.328 340.944 82.424C340.928 82.488 340.896 82.544 340.848 82.592C340.816 82.656 340.768 82.704 340.704 82.736C340.656 82.784 340.6 82.824 340.536 82.856C340.408 82.92 339.032 82.984 336.408 83.048C334.504 83.064 333.288 83.104 332.76 83.168C332.504 83.2 332.256 83.24 332.016 83.288C331.792 83.352 331.576 83.44 331.368 83.552C330.984 83.744 330.704 83.72 330.528 83.48C330.48 83.432 330.44 83.184 330.408 82.736C330.392 82.288 330.376 81.656 330.36 80.84C330.36 80.28 330.36 79.808 330.36 79.424C330.36 79.024 330.368 78.704 330.384 78.464C330.416 78.224 330.44 78.072 330.456 78.008C330.552 77.72 330.672 77.536 330.816 77.456C330.96 77.376 331.2 77.352 331.536 77.384C332.16 77.464 333.056 77.184 334.224 76.544C336.112 75.456 337.328 74.376 337.872 73.304C338.048 72.952 338.16 72.664 338.208 72.44C338.224 72.392 338.232 72.328 338.232 72.248C338.248 72.168 338.256 72.072 338.256 71.96C338.272 71.848 338.28 71.72 338.28 71.576C338.28 71.432 338.28 71.272 338.28 71.096C338.28 70.168 338.168 69.496 337.944 69.08C337.8 68.712 337.6 68.392 337.344 68.12C337.264 68.04 337.184 67.968 337.104 67.904C337.024 67.84 336.944 67.784 336.864 67.736C336.784 67.688 336.712 67.656 336.648 67.64C336.504 67.608 336.32 67.616 336.096 67.664C335.872 67.712 335.608 67.808 335.304 67.952C334.696 68.24 334.2 68.584 333.816 68.984C333.48 69.304 333.264 69.56 333.168 69.752C333.088 69.944 333.08 70.144 333.144 70.352C333.192 70.48 333.224 70.6 333.24 70.712C333.256 70.824 333.248 70.928 333.216 71.024C333.2 71.104 333.16 71.176 333.096 71.24C332.808 71.528 332.456 71.472 332.04 71.072C331.512 70.544 331.52 69.848 332.064 68.984ZM343.264 71.024C344.16 69.2 345 68.096 345.784 67.712C346.152 67.52 346.656 67.424 347.296 67.424C347.504 67.424 347.696 67.44 347.872 67.472C348.048 67.488 348.2 67.52 348.328 67.568C348.456 67.6 348.568 67.648 348.664 67.712C348.728 67.744 348.792 67.784 348.856 67.832C348.92 67.88 348.984 67.936 349.048 68C349.128 68.064 349.2 68.136 349.264 68.216C349.344 68.296 349.424 68.384 349.504 68.48C349.584 68.576 349.664 68.68 349.744 68.792C349.936 69.08 350.096 69.344 350.224 69.584C350.368 69.808 350.464 70.016 350.512 70.208C350.544 70.304 350.672 70.688 350.896 71.36C351.024 71.744 351.088 72.52 351.088 73.688C351.088 74.84 351.024 75.584 350.896 75.92C350.736 76.272 350.656 76.568 350.656 76.808C350.656 77.144 350.536 77.744 350.296 78.608C350.168 79.04 350.04 79.432 349.912 79.784C349.784 80.12 349.648 80.424 349.504 80.696C349.28 81.144 349.016 81.552 348.712 81.92C348.424 82.288 348.096 82.616 347.728 82.904C347.008 83.48 346.344 83.736 345.736 83.672C345.096 83.592 344.48 83.352 343.888 82.952C343.312 82.552 342.88 82.064 342.592 81.488C342.464 81.232 342.352 80.992 342.256 80.768C342.16 80.544 342.08 80.344 342.016 80.168C341.904 79.784 341.824 79.344 341.776 78.848C341.728 78.352 341.704 77.712 341.704 76.928C341.704 75.584 341.776 74.624 341.92 74.048C342.08 73.472 342.528 72.464 343.264 71.024ZM348.88 69.992C348.576 69.464 348.232 69.104 347.848 68.912C347.416 68.656 347.032 68.72 346.696 69.104C346.52 69.328 346.352 69.44 346.192 69.44C346.16 69.44 346.12 69.448 346.072 69.464C346.024 69.464 345.976 69.48 345.928 69.512C345.896 69.528 345.856 69.552 345.808 69.584C345.76 69.6 345.712 69.632 345.664 69.68C345.632 69.712 345.592 69.752 345.544 69.8C345.352 70.04 344.976 70.688 344.416 71.744C343.856 72.816 343.544 73.544 343.48 73.928C343.448 73.992 343.416 74.072 343.384 74.168C343.368 74.248 343.344 74.36 343.312 74.504C343.248 74.776 343.192 74.96 343.144 75.056C343.016 75.52 342.984 76.32 343.048 77.456C343.128 78.576 343.272 79.416 343.48 79.976C343.736 80.808 344.136 81.424 344.68 81.824C345.224 82.208 345.8 82.304 346.408 82.112C346.824 81.968 347.296 81.536 347.824 80.816C348.368 80.096 348.656 79.512 348.688 79.064C348.688 78.856 348.752 78.648 348.88 78.44C349.008 78.216 349.072 77.936 349.072 77.6C349.072 77.296 349.16 76.968 349.336 76.616C349.48 76.28 349.576 75.52 349.624 74.336C349.672 73.136 349.632 72.272 349.504 71.744C349.392 71.104 349.184 70.52 348.88 69.992Z" fill="black"/>
<rect x="321" y="52" width="40" height="40" stroke="#7A7A7A"/>
<path d="M371.564 68.984C371.836 68.552 372.188 68.16 372.62 67.808C373.052 67.44 373.556 67.12 374.132 66.848C374.98 66.432 375.692 66.272 376.268 66.368C376.844 66.448 377.412 66.8 377.972 67.424C378.212 67.696 378.404 67.952 378.548 68.192C378.708 68.432 378.82 68.656 378.884 68.864C379.028 69.28 379.1 70.024 379.1 71.096C379.1 71.976 379.076 72.552 379.028 72.824C378.996 73.096 378.916 73.36 378.788 73.616C378.596 73.984 378.34 74.384 378.02 74.816C377.94 74.928 377.86 75.032 377.78 75.128C377.7 75.224 377.62 75.312 377.54 75.392C377.476 75.472 377.412 75.544 377.348 75.608C377.284 75.672 377.22 75.728 377.156 75.776C376.772 76.112 376.108 76.584 375.164 77.192C374.7 77.496 374.316 77.736 374.012 77.912C373.708 78.088 373.484 78.2 373.34 78.248C373.228 78.296 373.124 78.344 373.028 78.392C372.932 78.424 372.844 78.456 372.764 78.488C372.7 78.52 372.644 78.552 372.596 78.584C372.564 78.6 372.492 78.624 372.38 78.656C372.284 78.672 372.156 78.696 371.996 78.728C371.644 78.808 371.412 78.96 371.3 79.184C371.268 79.264 371.236 79.368 371.204 79.496C371.188 79.608 371.172 79.752 371.156 79.928C371.156 80.088 371.156 80.272 371.156 80.48C371.156 81.2 371.188 81.616 371.252 81.728C371.316 81.84 371.692 81.856 372.38 81.776C373.116 81.68 374.596 81.632 376.82 81.632L380.276 81.584L380.42 81.872C380.468 81.952 380.492 82.04 380.492 82.136C380.492 82.232 380.476 82.328 380.444 82.424C380.428 82.488 380.396 82.544 380.348 82.592C380.316 82.656 380.268 82.704 380.204 82.736C380.156 82.784 380.1 82.824 380.036 82.856C379.908 82.92 378.532 82.984 375.908 83.048C374.004 83.064 372.788 83.104 372.26 83.168C372.004 83.2 371.756 83.24 371.516 83.288C371.292 83.352 371.076 83.44 370.868 83.552C370.484 83.744 370.204 83.72 370.028 83.48C369.98 83.432 369.94 83.184 369.908 82.736C369.892 82.288 369.876 81.656 369.86 80.84C369.86 80.28 369.86 79.808 369.86 79.424C369.86 79.024 369.868 78.704 369.884 78.464C369.916 78.224 369.94 78.072 369.956 78.008C370.052 77.72 370.172 77.536 370.316 77.456C370.46 77.376 370.7 77.352 371.036 77.384C371.66 77.464 372.556 77.184 373.724 76.544C375.612 75.456 376.828 74.376 377.372 73.304C377.548 72.952 377.66 72.664 377.708 72.44C377.724 72.392 377.732 72.328 377.732 72.248C377.748 72.168 377.756 72.072 377.756 71.96C377.772 71.848 377.78 71.72 377.78 71.576C377.78 71.432 377.78 71.272 377.78 71.096C377.78 70.168 377.668 69.496 377.444 69.08C377.3 68.712 377.1 68.392 376.844 68.12C376.764 68.04 376.684 67.968 376.604 67.904C376.524 67.84 376.444 67.784 376.364 67.736C376.284 67.688 376.212 67.656 376.148 67.64C376.004 67.608 375.82 67.616 375.596 67.664C375.372 67.712 375.108 67.808 374.804 67.952C374.196 68.24 373.7 68.584 373.316 68.984C372.98 69.304 372.764 69.56 372.668 69.752C372.588 69.944 372.58 70.144 372.644 70.352C372.692 70.48 372.724 70.6 372.74 70.712C372.756 70.824 372.748 70.928 372.716 71.024C372.7 71.104 372.66 71.176 372.596 71.24C372.308 71.528 371.956 71.472 371.54 71.072C371.012 70.544 371.02 69.848 371.564 68.984ZM382.908 68.984C383.18 68.552 383.532 68.16 383.964 67.808C384.396 67.44 384.9 67.12 385.476 66.848C386.324 66.432 387.036 66.272 387.612 66.368C388.188 66.448 388.756 66.8 389.316 67.424C389.556 67.696 389.748 67.952 389.892 68.192C390.052 68.432 390.164 68.656 390.228 68.864C390.372 69.28 390.444 70.024 390.444 71.096C390.444 71.976 390.42 72.552 390.372 72.824C390.34 73.096 390.26 73.36 390.132 73.616C389.94 73.984 389.684 74.384 389.364 74.816C389.284 74.928 389.204 75.032 389.124 75.128C389.044 75.224 388.964 75.312 388.884 75.392C388.82 75.472 388.756 75.544 388.692 75.608C388.628 75.672 388.564 75.728 388.5 75.776C388.116 76.112 387.452 76.584 386.508 77.192C386.044 77.496 385.66 77.736 385.356 77.912C385.052 78.088 384.828 78.2 384.684 78.248C384.572 78.296 384.468 78.344 384.372 78.392C384.276 78.424 384.188 78.456 384.108 78.488C384.044 78.52 383.988 78.552 383.94 78.584C383.908 78.6 383.836 78.624 383.724 78.656C383.628 78.672 383.5 78.696 383.34 78.728C382.988 78.808 382.756 78.96 382.644 79.184C382.612 79.264 382.58 79.368 382.548 79.496C382.532 79.608 382.516 79.752 382.5 79.928C382.5 80.088 382.5 80.272 382.5 80.48C382.5 81.2 382.532 81.616 382.596 81.728C382.66 81.84 383.036 81.856 383.724 81.776C384.46 81.68 385.94 81.632 388.164 81.632L391.62 81.584L391.764 81.872C391.812 81.952 391.836 82.04 391.836 82.136C391.836 82.232 391.82 82.328 391.788 82.424C391.772 82.488 391.74 82.544 391.692 82.592C391.66 82.656 391.612 82.704 391.548 82.736C391.5 82.784 391.444 82.824 391.38 82.856C391.252 82.92 389.876 82.984 387.252 83.048C385.348 83.064 384.132 83.104 383.604 83.168C383.348 83.2 383.1 83.24 382.86 83.288C382.636 83.352 382.42 83.44 382.212 83.552C381.828 83.744 381.548 83.72 381.372 83.48C381.324 83.432 381.284 83.184 381.252 82.736C381.236 82.288 381.22 81.656 381.204 80.84C381.204 80.28 381.204 79.808 381.204 79.424C381.204 79.024 381.212 78.704 381.228 78.464C381.26 78.224 381.284 78.072 381.3 78.008C381.396 77.72 381.516 77.536 381.66 77.456C381.804 77.376 382.044 77.352 382.38 77.384C383.004 77.464 383.9 77.184 385.068 76.544C386.956 75.456 388.172 74.376 388.716 73.304C388.892 72.952 389.004 72.664 389.052 72.44C389.068 72.392 389.076 72.328 389.076 72.248C389.092 72.168 389.1 72.072 389.1 71.96C389.116 71.848 389.124 71.72 389.124 71.576C389.124 71.432 389.124 71.272 389.124 71.096C389.124 70.168 389.012 69.496 388.788 69.08C388.644 68.712 388.444 68.392 388.188 68.12C388.108 68.04 388.028 67.968 387.948 67.904C387.868 67.84 387.788 67.784 387.708 67.736C387.628 67.688 387.556 67.656 387.492 67.64C387.348 67.608 387.164 67.616 386.94 67.664C386.716 67.712 386.452 67.808 386.148 67.952C385.54 68.24 385.044 68.584 384.66 68.984C384.324 69.304 384.108 69.56 384.012 69.752C383.932 69.944 383.924 70.144 383.988 70.352C384.036 70.48 384.068 70.6 384.084 70.712C384.1 70.824 384.092 70.928 384.06 71.024C384.044 71.104 384.004 71.176 383.94 71.24C383.652 71.528 383.3 71.472 382.884 71.072C382.356 70.544 382.364 69.848 382.908 68.984Z" fill="black"/>
<rect x="361" y="52" width="40" height="40" stroke="#7A7A7A"/>
<path d="M416.028 67.448C416.46 67.144 416.772 67.008 416.964 67.04H416.988C417.036 67.04 417.092 67.056 417.156 67.088C417.236 67.12 417.308 67.176 417.372 67.256C417.436 67.32 417.508 67.408 417.588 67.52C417.796 67.824 417.868 68.032 417.804 68.144V68.168C417.756 68.28 417.684 68.856 417.588 69.896C417.524 70.904 417.46 71.44 417.396 71.504C417.348 71.6 417.324 71.856 417.324 72.272C417.34 72.608 417.3 72.928 417.204 73.232C417.108 73.52 417.02 74.048 416.94 74.816C416.86 75.568 416.764 76.272 416.652 76.928C416.508 77.936 416.396 78.848 416.316 79.664C416.236 80.48 416.18 81.208 416.148 81.848C416.132 82.536 416.1 82.96 416.052 83.12C416.036 83.216 416.004 83.296 415.956 83.36C415.908 83.424 415.852 83.48 415.788 83.528C415.66 83.624 415.564 83.672 415.5 83.672C415.436 83.672 415.332 83.616 415.188 83.504H415.164C414.956 83.36 414.82 83.176 414.756 82.952C414.708 82.728 414.7 82.384 414.732 81.92C414.748 81.84 414.764 81.688 414.78 81.464C414.796 81.256 414.82 80.984 414.852 80.648C414.884 80.312 414.916 79.904 414.948 79.424C414.964 79.2 414.98 78.992 414.996 78.8C415.028 78.592 415.052 78.424 415.068 78.296C415.084 78.152 415.1 78.024 415.116 77.912C415.132 77.8 415.14 77.72 415.14 77.672C415.156 77.608 415.172 77.568 415.188 77.552C415.268 77.408 415.396 76.336 415.572 74.336C415.588 74.128 415.612 73.928 415.644 73.736C415.676 73.528 415.708 73.344 415.74 73.184C415.772 73.008 415.812 72.848 415.86 72.704C415.94 72.416 416.004 72.008 416.052 71.48C416.116 70.936 416.148 70.472 416.148 70.088C416.148 69.88 416.14 69.728 416.124 69.632C416.108 69.504 416.076 69.424 416.028 69.392L416.004 69.368C415.956 69.368 415.892 69.392 415.812 69.44C415.732 69.472 415.636 69.528 415.524 69.608C415.412 69.688 415.268 69.792 415.092 69.92C414.932 70.016 414.788 70.104 414.66 70.184C413.956 70.52 413.468 70.448 413.196 69.968C413.084 69.76 413.068 69.6 413.148 69.488C413.244 69.36 413.508 69.16 413.94 68.888C414.5 68.616 414.876 68.384 415.068 68.192C415.324 67.984 415.644 67.736 416.028 67.448ZM423.038 73.76C423.262 73.68 423.766 73.64 424.55 73.64C425.35 73.64 425.862 73.68 426.086 73.76C426.262 73.808 426.502 73.864 426.806 73.928C427.062 73.96 427.382 74.152 427.766 74.504C428.15 74.84 428.438 75.192 428.63 75.56C428.678 75.672 428.718 75.784 428.75 75.896C428.798 75.992 428.822 76.088 428.822 76.184C428.838 76.392 428.83 76.792 428.798 77.384C428.782 78.28 428.718 78.96 428.606 79.424C428.51 79.76 428.334 80.2 428.078 80.744C427.822 81.304 427.574 81.768 427.334 82.136C427.158 82.376 426.886 82.64 426.518 82.928C426.326 83.056 426.134 83.168 425.942 83.264C425.766 83.376 425.598 83.464 425.438 83.528C425.31 83.592 425.182 83.632 425.054 83.648C424.942 83.664 424.822 83.672 424.694 83.672C424.486 83.656 423.966 83.568 423.134 83.408C422.766 83.328 422.278 83.008 421.67 82.448C421.078 81.888 420.598 81.304 420.23 80.696C419.766 79.912 419.358 78.936 419.006 77.768C418.846 77.32 418.774 76.32 418.79 74.768C418.806 73.712 418.83 73.008 418.862 72.656C418.894 72.288 418.966 71.88 419.078 71.432C419.558 69.656 420.206 68.2 421.022 67.064C421.23 66.76 421.638 66.312 422.246 65.72C422.854 65.128 423.222 64.832 423.35 64.832C423.446 64.832 423.534 64.784 423.614 64.688C423.726 64.56 424.078 64.496 424.67 64.496C425.262 64.496 425.702 64.552 425.99 64.664C426.374 64.824 426.694 64.984 426.95 65.144C427.222 65.304 427.446 65.464 427.622 65.624C428.118 66.152 428.302 66.864 428.174 67.76C428.11 68.144 428.078 68.408 428.078 68.552V68.576C428.062 68.736 427.958 68.856 427.766 68.936C427.654 68.984 427.542 69 427.43 68.984C427.334 68.952 427.23 68.888 427.118 68.792C426.974 68.664 426.886 68.528 426.854 68.384C426.822 68.256 426.806 67.984 426.806 67.568C426.806 67.264 426.79 67.024 426.758 66.848C426.726 66.656 426.686 66.528 426.638 66.464C426.51 66.336 426.278 66.2 425.942 66.056C425.606 65.912 425.278 65.816 424.958 65.768C424.638 65.72 424.294 65.792 423.926 65.984C423.59 66.192 423.238 66.48 422.87 66.848C422.518 67.216 422.158 67.68 421.79 68.24C421.71 68.336 421.638 68.432 421.574 68.528C421.526 68.624 421.486 68.696 421.454 68.744C421.422 68.792 421.406 68.824 421.406 68.84C421.39 68.904 421.334 69.04 421.238 69.248C420.79 70.272 420.502 71.064 420.374 71.624C420.246 72.168 420.166 72.928 420.134 73.904C420.086 74.672 420.07 75.168 420.086 75.392L420.134 75.656C420.214 75.656 420.35 75.512 420.542 75.224C420.942 74.6 421.502 74.184 422.222 73.976C422.286 73.96 422.358 73.944 422.438 73.928C422.518 73.912 422.606 73.888 422.702 73.856C422.814 73.824 422.926 73.792 423.038 73.76ZM427.55 76.832C427.486 76.16 427.166 75.64 426.59 75.272C426.542 75.24 426.47 75.216 426.374 75.2C426.278 75.168 426.15 75.144 425.99 75.128C425.846 75.112 425.67 75.096 425.462 75.08C425.254 75.064 425.022 75.056 424.766 75.056C424.142 75.04 423.686 75.04 423.398 75.056C423.238 75.056 423.094 75.072 422.966 75.104C422.854 75.12 422.75 75.144 422.654 75.176C422.574 75.208 422.486 75.248 422.39 75.296C422.294 75.344 422.206 75.408 422.126 75.488C421.662 75.84 421.358 76.296 421.214 76.856C421.102 77.192 420.926 77.456 420.686 77.648C420.654 77.696 420.614 77.736 420.566 77.768C420.534 77.8 420.51 77.832 420.494 77.864C420.478 77.88 420.47 77.896 420.47 77.912C420.454 77.928 420.446 77.976 420.446 78.056C420.462 78.12 420.486 78.2 420.518 78.296C420.55 78.424 420.598 78.568 420.662 78.728C420.726 78.872 420.806 79.032 420.902 79.208C421.078 79.576 421.278 79.928 421.502 80.264C421.742 80.616 421.966 80.92 422.174 81.176C422.574 81.592 422.942 81.888 423.278 82.064C423.39 82.112 423.51 82.152 423.638 82.184C423.766 82.232 423.902 82.264 424.046 82.28C424.19 82.312 424.342 82.328 424.502 82.328C424.934 82.36 425.278 82.28 425.534 82.088C425.646 82.008 425.774 81.88 425.918 81.704C426.062 81.544 426.222 81.344 426.398 81.104C426.75 80.608 426.966 80.208 427.046 79.904C427.462 78.528 427.63 77.504 427.55 76.832Z" fill="black"/>
<rect x="401" y="52" width="40" height="40" stroke="#7A7A7A"/>
<path d="M5.704 14.272C5.96 14.192 6.512 14.144 7.36 14.128C7.52 14.128 7.656 14.128 7.768 14.128C7.896 14.128 8.008 14.136 8.104 14.152C8.216 14.152 8.304 14.16 8.368 14.176C8.448 14.176 8.512 14.176 8.56 14.176C8.656 14.208 8.776 14.256 8.92 14.32C9.064 14.368 9.224 14.432 9.4 14.512C10.28 14.944 10.872 15.576 11.176 16.408C11.336 16.824 11.408 17.232 11.392 17.632C11.376 18.032 11.272 18.432 11.08 18.832L10.744 19.432V22.504C10.744 24.552 10.704 25.736 10.624 26.056C10.56 26.28 10.488 26.624 10.408 27.088C10.344 27.488 10.224 27.896 10.048 28.312C9.872 28.728 9.648 29.144 9.376 29.56C9.104 29.992 8.784 30.432 8.416 30.88C8.336 30.96 8.256 31.04 8.176 31.12C8.096 31.2 8.008 31.272 7.912 31.336C7.816 31.416 7.712 31.488 7.6 31.552C7.504 31.616 7.392 31.672 7.264 31.72C7.152 31.784 7.032 31.848 6.904 31.912C6.264 32.168 5.792 32.224 5.488 32.08C5.28 31.984 5.088 31.936 4.912 31.936C4.512 31.92 4.024 31.64 3.448 31.096C3.16 30.824 2.896 30.52 2.656 30.184C2.416 29.864 2.2 29.52 2.008 29.152C1.752 28.64 1.592 28.28 1.528 28.072C1.48 27.864 1.448 27.504 1.432 26.992L1.36 25.912V25.888L1.792 25.456C1.888 25.36 1.976 25.28 2.056 25.216C2.136 25.168 2.208 25.128 2.272 25.096C2.336 25.08 2.392 25.072 2.44 25.072C2.504 25.072 2.56 25.08 2.608 25.096C2.672 25.112 2.728 25.136 2.776 25.168C2.824 25.216 2.872 25.272 2.92 25.336C3.032 25.512 3.088 25.632 3.088 25.696C3.088 25.76 3.032 25.872 2.92 26.032C2.568 26.656 2.64 27.488 3.136 28.528C3.6 29.488 4.176 30.152 4.864 30.52C5.568 30.904 6.216 30.904 6.808 30.52C6.888 30.488 6.96 30.44 7.024 30.376C7.104 30.328 7.176 30.272 7.24 30.208C7.304 30.144 7.368 30.072 7.432 29.992C7.512 29.928 7.592 29.848 7.672 29.752C7.752 29.672 7.824 29.584 7.888 29.488C8.064 29.248 8.224 29.008 8.368 28.768C8.512 28.544 8.632 28.312 8.728 28.072C9.048 27.272 9.224 26.712 9.256 26.392C9.304 26.088 9.352 25.144 9.4 23.56C9.4 22.968 9.392 22.472 9.376 22.072C9.376 21.672 9.368 21.36 9.352 21.136C9.352 20.896 9.336 20.76 9.304 20.728C9.288 20.712 9.256 20.704 9.208 20.704C9.176 20.688 9.128 20.688 9.064 20.704C9.016 20.72 8.952 20.744 8.872 20.776C8.792 20.792 8.696 20.824 8.584 20.872C8.52 20.904 8.472 20.928 8.44 20.944C8.28 21.008 8.128 21.064 7.984 21.112C7.856 21.16 7.744 21.192 7.648 21.208C7.6 21.208 7.528 21.216 7.432 21.232C7.352 21.232 7.256 21.232 7.144 21.232C7.032 21.232 6.896 21.232 6.736 21.232C6.592 21.232 6.432 21.224 6.256 21.208C5.904 21.192 5.616 21.176 5.392 21.16C5.168 21.144 4.992 21.128 4.864 21.112C4.752 21.08 4.624 21.04 4.48 20.992C4.336 20.928 4.176 20.848 4 20.752C3.296 20.416 2.792 20.04 2.488 19.624C2.344 19.416 2.232 19.184 2.152 18.928C2.088 18.656 2.056 18.36 2.056 18.04C2.056 17.384 2.24 16.776 2.608 16.216C2.704 16.056 2.832 15.896 2.992 15.736C3.152 15.576 3.344 15.416 3.568 15.256C4 14.952 4.432 14.72 4.864 14.56C4.912 14.528 5 14.496 5.128 14.464C5.272 14.416 5.392 14.384 5.488 14.368C5.584 14.336 5.656 14.304 5.704 14.272ZM6.328 15.592C6.248 15.624 6.152 15.648 6.04 15.664C5.928 15.68 5.8 15.688 5.656 15.688C5.352 15.704 4.984 15.856 4.552 16.144C4.136 16.432 3.824 16.736 3.616 17.056C2.992 18.144 3.304 18.984 4.552 19.576C4.824 19.704 5.072 19.784 5.296 19.816C5.408 19.832 5.56 19.848 5.752 19.864C5.96 19.864 6.216 19.864 6.52 19.864C6.68 19.864 6.824 19.864 6.952 19.864C7.08 19.864 7.184 19.864 7.264 19.864C7.36 19.864 7.44 19.856 7.504 19.84C7.584 19.84 7.656 19.832 7.72 19.816C7.8 19.8 7.872 19.784 7.936 19.768C8.064 19.72 8.248 19.616 8.488 19.456H8.512C8.608 19.408 8.688 19.368 8.752 19.336C8.816 19.288 8.864 19.248 8.896 19.216C8.976 19.168 9.056 19.088 9.136 18.976C9.168 18.912 9.192 18.864 9.208 18.832C9.24 18.784 9.256 18.744 9.256 18.712C9.272 18.664 9.272 18.52 9.256 18.28C9.24 18.04 9.216 17.832 9.184 17.656C9.168 17.464 9.12 17.152 9.04 16.72C9.008 16.512 8.976 16.344 8.944 16.216C8.912 16.072 8.88 15.976 8.848 15.928C8.832 15.864 8.8 15.808 8.752 15.76C8.72 15.712 8.664 15.672 8.584 15.64C8.536 15.608 8.456 15.584 8.344 15.568C8.248 15.552 8.128 15.536 7.984 15.52C7.84 15.504 7.672 15.496 7.48 15.496C6.904 15.48 6.52 15.512 6.328 15.592ZM13.9418 16.408C14.3098 15.976 14.8218 15.6 15.4778 15.28L16.4618 14.8H18.4538H20.3978L20.9258 15.328C21.3578 15.68 21.6378 16.064 21.7658 16.48C21.8938 16.88 21.9818 17.608 22.0298 18.664C22.0458 19.224 22.0538 19.64 22.0538 19.912C22.0698 20.168 22.1018 20.384 22.1498 20.56C22.1658 20.64 22.1898 20.728 22.2218 20.824C22.2538 20.904 22.2938 20.984 22.3418 21.064C22.4858 21.352 22.8218 21.752 23.3498 22.264C23.5258 22.44 23.6778 22.584 23.8058 22.696C23.9338 22.824 24.0378 22.912 24.1178 22.96C24.2138 23.024 24.2858 23.056 24.3338 23.056C24.3818 23.056 24.4298 23.072 24.4778 23.104C24.5418 23.136 24.5978 23.176 24.6458 23.224C24.7098 23.288 24.7738 23.336 24.8378 23.368C24.9178 23.4 25.0058 23.416 25.1018 23.416C25.1498 23.416 25.1978 23.424 25.2458 23.44C25.2938 23.456 25.3418 23.48 25.3898 23.512C25.4538 23.544 25.5098 23.584 25.5578 23.632C25.6218 23.68 25.6778 23.736 25.7258 23.8C25.8218 23.88 25.8858 23.944 25.9178 23.992C25.9658 24.056 25.9978 24.104 26.0138 24.136C26.0138 24.2 25.9658 24.32 25.8698 24.496C25.6298 24.832 25.1658 24.872 24.4778 24.616C24.1418 24.488 23.7978 24.304 23.4458 24.064C23.1098 23.84 22.7658 23.552 22.4138 23.2L21.5978 22.408L20.9738 23.104C20.2698 23.872 19.7178 24.424 19.3178 24.76C18.9338 25.112 18.5578 25.352 18.1898 25.48C17.8218 25.608 17.3658 25.672 16.8218 25.672C16.0858 25.672 15.5178 25.6 15.1178 25.456C14.7338 25.328 14.2698 25.04 13.7258 24.592C13.2938 24.224 12.9178 23.808 12.5978 23.344L12.1178 22.648V21.232C12.1658 20.272 12.2378 19.672 12.3338 19.432C12.4938 19.176 12.5738 18.984 12.5738 18.856C12.5738 18.664 12.7338 18.28 13.0538 17.704C13.3738 17.128 13.6698 16.696 13.9418 16.408ZM20.6138 19.048C20.6618 18.088 20.6698 17.504 20.6378 17.296C20.6218 17.088 20.5418 16.888 20.3978 16.696L20.1098 16.24L18.3098 16.216C17.5098 16.216 16.9818 16.232 16.7258 16.264C16.4698 16.296 16.2138 16.376 15.9578 16.504C15.8778 16.536 15.7978 16.576 15.7178 16.624C15.6538 16.656 15.5818 16.696 15.5018 16.744C15.4218 16.792 15.3418 16.848 15.2618 16.912C15.1978 16.96 15.1338 17.016 15.0698 17.08C15.0058 17.144 14.9338 17.216 14.8538 17.296C14.6938 17.504 14.5178 17.784 14.3258 18.136C14.1338 18.472 13.9418 18.888 13.7498 19.384C13.5898 19.72 13.4938 20.272 13.4618 21.04L13.3898 22.264L13.9418 22.936C14.3418 23.416 14.7258 23.76 15.0938 23.968C15.4778 24.192 15.9418 24.328 16.4858 24.376C16.9018 24.408 17.1898 24.416 17.3498 24.4C17.4298 24.384 17.5178 24.36 17.6138 24.328C17.7258 24.296 17.8458 24.248 17.9738 24.184C18.1018 24.104 18.2458 24 18.4058 23.872C18.5658 23.76 18.7418 23.616 18.9338 23.44C19.2858 23.104 19.6058 22.744 19.8938 22.36C19.9898 22.232 20.0698 22.112 20.1338 22C20.2138 21.872 20.2778 21.76 20.3258 21.664C20.3738 21.568 20.4058 21.48 20.4218 21.4C20.5178 21.112 20.5818 20.328 20.6138 19.048ZM30.4388 15.52C30.7908 15.36 31.3588 15.28 32.1428 15.28C32.9268 15.264 33.4228 15.312 33.6308 15.424C33.7268 15.472 33.8228 15.536 33.9188 15.616C34.0148 15.68 34.1108 15.76 34.2068 15.856C34.4148 16.032 34.6068 16.224 34.7828 16.432C34.9588 16.64 35.1348 16.872 35.3108 17.128C35.4868 17.368 35.6308 17.608 35.7428 17.848C35.7588 17.88 35.7748 17.92 35.7908 17.968C35.8228 18.016 35.8468 18.064 35.8628 18.112C35.8788 18.16 35.8948 18.216 35.9108 18.28C35.9268 18.328 35.9428 18.384 35.9588 18.448C35.9748 18.512 35.9908 18.576 36.0068 18.64C36.0228 18.704 36.0308 18.768 36.0308 18.832C36.0468 18.896 36.0548 18.968 36.0548 19.048C36.0708 19.128 36.0788 19.2 36.0788 19.264C36.1428 19.888 36.1268 20.4 36.0308 20.8C35.6628 22.128 34.5908 23.272 32.8148 24.232C32.5588 24.376 32.2548 24.496 31.9028 24.592C31.5668 24.704 31.1828 24.8 30.7508 24.88C29.9028 25.024 29.2788 25.032 28.8788 24.904C28.5108 24.76 28.2868 24.792 28.2068 25C28.1268 25.32 28.0868 26.448 28.0868 28.384C28.0868 30.208 28.0468 31.296 27.9668 31.648C27.9348 31.824 27.8628 31.952 27.7508 32.032C27.6388 32.112 27.4948 32.152 27.3188 32.152C27.0148 32.152 26.8388 31.864 26.7908 31.288C26.7268 30.68 26.7268 28.976 26.7908 26.176C26.8228 24.928 26.8468 23.696 26.8628 22.48C26.8948 21.28 26.9188 20.096 26.9348 18.928C26.9348 17.472 26.9748 16.616 27.0548 16.36C27.1668 16.136 27.3268 16 27.5348 15.952C27.6468 15.936 27.7508 15.944 27.8468 15.976C27.9588 16.008 28.0628 16.072 28.1588 16.168L28.4948 16.48H28.5188L29.1908 16.12C29.7348 15.8 30.1508 15.6 30.4388 15.52ZM34.4948 18.4C34.4948 18.304 34.4148 18.144 34.2548 17.92C34.0948 17.68 33.8468 17.376 33.5108 17.008C33.3508 16.832 33.1988 16.72 33.0548 16.672C32.9268 16.624 32.6548 16.6 32.2388 16.6C32.1588 16.6 32.0708 16.6 31.9748 16.6C31.8948 16.6 31.8148 16.608 31.7348 16.624C31.6548 16.624 31.5748 16.632 31.4948 16.648C31.4148 16.664 31.3348 16.68 31.2548 16.696C31.1748 16.712 31.0948 16.728 31.0148 16.744C30.9348 16.76 30.8548 16.784 30.7748 16.816C30.6948 16.848 30.6148 16.88 30.5348 16.912C30.4228 16.944 30.3188 16.984 30.2228 17.032C30.1428 17.064 30.0628 17.104 29.9828 17.152C29.9028 17.2 29.8308 17.248 29.7668 17.296C29.7188 17.344 29.6708 17.392 29.6228 17.44C29.4468 17.648 29.3428 17.92 29.3108 18.256C29.2948 18.512 29.2228 18.688 29.0948 18.784C28.7268 19.008 28.5108 19.208 28.4468 19.384C28.4308 19.448 28.4148 19.552 28.3988 19.696C28.3828 19.824 28.3668 19.992 28.3508 20.2C28.3348 20.408 28.3268 20.664 28.3268 20.968C28.3268 21.88 28.3588 22.464 28.4228 22.72C28.5028 22.992 28.6948 23.208 28.9988 23.368C29.2228 23.48 29.5268 23.552 29.9108 23.584C30.1188 23.584 30.3028 23.576 30.4628 23.56C30.6228 23.544 30.7588 23.512 30.8708 23.464C30.9828 23.4 31.2468 23.304 31.6628 23.176C32.1908 23.016 32.6868 22.768 33.1508 22.432C33.3748 22.272 33.5748 22.104 33.7508 21.928C33.9428 21.736 34.1108 21.536 34.2548 21.328C34.4148 21.088 34.5268 20.904 34.5908 20.776C34.6548 20.632 34.6948 20.488 34.7108 20.344C34.7268 20.312 34.7348 20.272 34.7348 20.224C34.7348 20.176 34.7348 20.128 34.7348 20.08C34.7508 20.016 34.7588 19.952 34.7588 19.888C34.7588 19.808 34.7588 19.728 34.7588 19.648C34.7588 19.056 34.7108 18.728 34.6148 18.664C34.5348 18.6 34.4948 18.512 34.4948 18.4ZM50.4237 13.024C50.5837 12.944 51.0157 12.904 51.7197 12.904C52.4237 12.904 52.8397 12.976 52.9677 13.12C53.0957 13.232 53.1677 13.392 53.1837 13.6C53.1997 13.792 53.1517 13.928 53.0397 14.008C52.9117 14.088 52.3037 14.176 51.2157 14.272C50.1277 14.368 48.9197 14.44 47.5917 14.488C46.7437 14.504 46.0957 14.504 45.6477 14.488C45.2157 14.472 44.9197 14.44 44.7597 14.392C44.6157 14.344 44.4797 14.256 44.3517 14.128C44.1917 13.984 44.1597 13.784 44.2557 13.528L44.3997 13.144H47.3037C49.2877 13.144 50.3277 13.104 50.4237 13.024ZM47.7597 18.496C47.9997 18.496 48.3517 18.488 48.8157 18.472C51.4397 18.424 52.9757 18.408 53.4237 18.424C53.8877 18.424 54.1837 18.488 54.3117 18.616C54.3277 18.632 54.3517 18.656 54.3837 18.688C54.5277 18.832 54.6157 19 54.6477 19.192C54.6957 19.384 54.6717 19.544 54.5757 19.672C54.5277 19.752 52.9677 19.792 49.8957 19.792C46.8237 19.792 45.1997 19.848 45.0237 19.96C44.6717 20.168 44.3677 20.04 44.1117 19.576C44.0477 19.464 44.0317 19.376 44.0637 19.312C44.0957 19.232 44.1917 19.104 44.3517 18.928L44.7357 18.568L47.7597 18.496ZM65.7467 9.448C66.1788 9.144 66.4908 9.008 66.6828 9.04H66.7068C66.7548 9.04 66.8108 9.056 66.8748 9.088C66.9548 9.12 67.0268 9.176 67.0908 9.256C67.1548 9.32 67.2268 9.408 67.3068 9.52C67.5148 9.824 67.5868 10.032 67.5228 10.144V10.168C67.4748 10.28 67.4028 10.856 67.3068 11.896C67.2428 12.904 67.1788 13.44 67.1148 13.504C67.0668 13.6 67.0428 13.856 67.0428 14.272C67.0588 14.608 67.0188 14.928 66.9228 15.232C66.8268 15.52 66.7388 16.048 66.6588 16.816C66.5788 17.568 66.4828 18.272 66.3708 18.928C66.2268 19.936 66.1148 20.848 66.0348 21.664C65.9548 22.48 65.8988 23.208 65.8668 23.848C65.8508 24.536 65.8188 24.96 65.7708 25.12C65.7548 25.216 65.7228 25.296 65.6748 25.36C65.6268 25.424 65.5708 25.48 65.5068 25.528C65.3788 25.624 65.2828 25.672 65.2188 25.672C65.1548 25.672 65.0508 25.616 64.9068 25.504H64.8828C64.6748 25.36 64.5388 25.176 64.4748 24.952C64.4268 24.728 64.4188 24.384 64.4508 23.92C64.4668 23.84 64.4828 23.688 64.4988 23.464C64.5148 23.256 64.5388 22.984 64.5708 22.648C64.6028 22.312 64.6348 21.904 64.6668 21.424C64.6828 21.2 64.6988 20.992 64.7148 20.8C64.7468 20.592 64.7708 20.424 64.7868 20.296C64.8028 20.152 64.8188 20.024 64.8348 19.912C64.8508 19.8 64.8588 19.72 64.8588 19.672C64.8748 19.608 64.8908 19.568 64.9068 19.552C64.9868 19.408 65.1148 18.336 65.2908 16.336C65.3068 16.128 65.3308 15.928 65.3628 15.736C65.3948 15.528 65.4268 15.344 65.4588 15.184C65.4908 15.008 65.5308 14.848 65.5788 14.704C65.6588 14.416 65.7228 14.008 65.7708 13.48C65.8348 12.936 65.8668 12.472 65.8668 12.088C65.8668 11.88 65.8588 11.728 65.8428 11.632C65.8268 11.504 65.7948 11.424 65.7467 11.392L65.7228 11.368C65.6748 11.368 65.6108 11.392 65.5308 11.44C65.4508 11.472 65.3548 11.528 65.2428 11.608C65.1308 11.688 64.9868 11.792 64.8108 11.92C64.6508 12.016 64.5068 12.104 64.3788 12.184C63.6748 12.52 63.1868 12.448 62.9148 11.968C62.8028 11.76 62.7868 11.6 62.8668 11.488C62.9628 11.36 63.2268 11.16 63.6588 10.888C64.2188 10.616 64.5948 10.384 64.7868 10.192C65.0428 9.984 65.3628 9.736 65.7467 9.448Z" fill="black"/>
</svg>
