<svg width="442" height="82" viewBox="0 0 442 82" fill="none" xmlns="http://www.w3.org/2000/svg">
<path d="M21.528 16.448C21.96 16.144 22.272 16.008 22.464 16.04H22.488C22.536 16.04 22.592 16.056 22.656 16.088C22.736 16.12 22.808 16.176 22.872 16.256C22.936 16.32 23.008 16.408 23.088 16.52C23.296 16.824 23.368 17.032 23.304 17.144V17.168C23.256 17.28 23.184 17.856 23.088 18.896C23.024 19.904 22.96 20.44 22.896 20.504C22.848 20.6 22.824 20.856 22.824 21.272C22.84 21.608 22.8 21.928 22.704 22.232C22.608 22.52 22.52 23.048 22.44 23.816C22.36 24.568 22.264 25.272 22.152 25.928C22.008 26.936 21.896 27.848 21.816 28.664C21.736 29.48 21.68 30.208 21.648 30.848C21.632 31.536 21.6 31.96 21.552 32.12C21.536 32.216 21.504 32.296 21.456 32.36C21.408 32.424 21.352 32.48 21.288 32.528C21.16 32.624 21.064 32.672 21 32.672C20.936 32.672 20.832 32.616 20.688 32.504H20.664C20.456 32.36 20.32 32.176 20.256 31.952C20.208 31.728 20.2 31.384 20.232 30.92C20.248 30.84 20.264 30.688 20.28 30.464C20.296 30.256 20.32 29.984 20.352 29.648C20.384 29.312 20.416 28.904 20.448 28.424C20.464 28.2 20.48 27.992 20.496 27.8C20.528 27.592 20.552 27.424 20.568 27.296C20.584 27.152 20.6 27.024 20.616 26.912C20.632 26.8 20.64 26.72 20.64 26.672C20.656 26.608 20.672 26.568 20.688 26.552C20.768 26.408 20.896 25.336 21.072 23.336C21.088 23.128 21.112 22.928 21.144 22.736C21.176 22.528 21.208 22.344 21.24 22.184C21.272 22.008 21.312 21.848 21.36 21.704C21.44 21.416 21.504 21.008 21.552 20.48C21.616 19.936 21.648 19.472 21.648 19.088C21.648 18.88 21.64 18.728 21.624 18.632C21.608 18.504 21.576 18.424 21.528 18.392L21.504 18.368C21.456 18.368 21.392 18.392 21.312 18.44C21.232 18.472 21.136 18.528 21.024 18.608C20.912 18.688 20.768 18.792 20.592 18.92C20.432 19.016 20.288 19.104 20.16 19.184C19.456 19.52 18.968 19.448 18.696 18.968C18.584 18.76 18.568 18.6 18.648 18.488C18.744 18.36 19.008 18.16 19.44 17.888C20 17.616 20.376 17.384 20.568 17.192C20.824 16.984 21.144 16.736 21.528 16.448Z" fill="black"/>
<rect x="1" y="1" width="40" height="40" stroke="#7A7A7A"/>
<rect x="41" y="1" width="40" height="40" stroke="#7A7A7A"/>
<path d="M96.608 15.488C96.816 15.376 97.216 15.288 97.808 15.224C98.544 15.128 99.824 15.088 101.648 15.104H104.312L104.576 15.416C104.736 15.656 104.784 15.856 104.72 16.016C104.688 16.128 104.608 16.296 104.48 16.52C104.352 16.728 104.176 17 103.952 17.336C103.488 17.992 103.04 18.56 102.608 19.04C102.048 19.68 101.624 20.176 101.336 20.528C101.064 20.88 100.928 21.088 100.928 21.152C100.928 21.248 101.088 21.312 101.408 21.344C102.016 21.456 102.832 21.856 103.856 22.544C104.24 22.8 104.56 23.064 104.816 23.336C105.088 23.608 105.288 23.88 105.416 24.152C105.688 24.696 105.824 25.496 105.824 26.552C105.84 27.336 105.792 27.944 105.68 28.376C105.632 28.6 105.552 28.856 105.44 29.144C105.328 29.432 105.184 29.76 105.008 30.128C104.56 31.024 103.872 31.72 102.944 32.216C102.864 32.248 102.792 32.28 102.728 32.312C102.68 32.344 102.624 32.368 102.56 32.384C102.496 32.416 102.44 32.44 102.392 32.456C102.344 32.488 102.296 32.512 102.248 32.528C102.2 32.544 102.152 32.552 102.104 32.552C102.056 32.568 102.016 32.576 101.984 32.576C101.744 32.608 101.136 32.632 100.16 32.648C99.232 32.68 98.648 32.68 98.408 32.648C98.28 32.632 98.144 32.6 98 32.552C97.856 32.504 97.696 32.44 97.52 32.36C96.912 32.088 96.448 31.76 96.128 31.376C95.824 31.008 95.608 30.496 95.48 29.84C95.352 29.264 95.32 28.864 95.384 28.64C95.464 28.416 95.656 28.304 95.96 28.304C96.264 28.304 96.472 28.432 96.584 28.688C96.712 28.944 96.776 29.208 96.776 29.48C96.776 30.344 97.328 30.944 98.432 31.28C98.96 31.472 99.656 31.528 100.52 31.448C101.4 31.368 102.112 31.184 102.656 30.896C102.912 30.752 103.184 30.472 103.472 30.056C103.776 29.656 104.016 29.224 104.192 28.76C104.384 28.248 104.48 27.576 104.48 26.744C104.48 25.624 104.288 24.816 103.904 24.32C103.776 24.16 103.536 23.952 103.184 23.696C102.848 23.424 102.64 23.288 102.56 23.288C102.512 23.288 102.432 23.264 102.32 23.216C102.224 23.168 102.096 23.088 101.936 22.976C101.728 22.832 101.528 22.744 101.336 22.712C101.16 22.68 100.744 22.672 100.088 22.688C99.704 22.704 99.384 22.704 99.128 22.688C98.888 22.672 98.712 22.648 98.6 22.616C98.504 22.568 98.432 22.504 98.384 22.424C98.336 22.344 98.312 22.232 98.312 22.088C98.312 21.848 98.736 21.296 99.584 20.432C101.424 18.496 102.472 17.296 102.728 16.832C102.792 16.72 102.792 16.6 102.728 16.472C102.68 16.328 102.184 16.288 101.24 16.352C98.888 16.448 97.504 16.56 97.088 16.688C96.96 16.72 96.84 16.72 96.728 16.688C96.68 16.672 96.64 16.648 96.608 16.616C96.576 16.584 96.544 16.552 96.512 16.52C96.48 16.488 96.448 16.456 96.416 16.424C96.32 16.312 96.272 16.192 96.272 16.064C96.272 16.016 96.272 15.976 96.272 15.944C96.288 15.896 96.304 15.856 96.32 15.824C96.336 15.776 96.352 15.736 96.368 15.704C96.384 15.672 96.4 15.648 96.416 15.632C96.448 15.6 96.48 15.576 96.512 15.56C96.544 15.528 96.576 15.504 96.608 15.488Z" fill="black"/>
<rect x="81" y="1" width="40" height="40" stroke="#7A7A7A"/>
<rect x="121" y="1" width="40" height="40" stroke="#7A7A7A"/>
<path d="M173.84 25.64C173.792 25.624 173.744 25.6 173.696 25.568C173.648 25.52 173.6 25.456 173.552 25.376C173.36 25.152 173.312 24.928 173.408 24.704C173.44 24.64 173.488 24.568 173.552 24.488C173.632 24.408 173.72 24.328 173.816 24.248C173.928 24.152 174.056 24.048 174.2 23.936C176.568 22.336 178.376 20.536 179.624 18.536C179.832 18.2 180.048 17.896 180.272 17.624C180.544 17.32 180.896 16.84 181.328 16.184C181.792 15.464 182.096 15.032 182.24 14.888C182.368 14.712 182.544 14.64 182.768 14.672C183.008 14.688 183.192 14.792 183.32 14.984C183.4 15.128 183.432 15.248 183.416 15.344C183.416 15.424 183.32 15.6 183.128 15.872C182.52 16.784 181.968 17.56 181.472 18.2C181.088 18.728 180.784 19.152 180.56 19.472C180.304 19.856 180.008 20.256 179.672 20.672C179.352 21.088 178.992 21.52 178.592 21.968C178.384 22.208 178.192 22.416 178.016 22.592C177.856 22.768 177.704 22.928 177.56 23.072C177.416 23.2 177.288 23.312 177.176 23.408C177.08 23.488 176.992 23.552 176.912 23.6C176.704 23.696 176.592 23.776 176.576 23.84C176.656 23.92 177.832 23.952 180.104 23.936L183.632 23.912L183.656 19.688C183.672 17.672 183.696 16.448 183.728 16.016C183.744 15.6 183.816 15.336 183.944 15.224C184.088 15.08 184.256 15.032 184.448 15.08C184.656 15.112 184.808 15.2 184.904 15.344C184.968 15.488 185.008 16.928 185.024 19.664L185.096 23.72L185.384 23.96C185.48 24.04 185.6 24.096 185.744 24.128C185.888 24.16 186.064 24.184 186.272 24.2C186.48 24.2 186.656 24.192 186.8 24.176C186.96 24.144 187.08 24.096 187.16 24.032C187.176 24.016 187.192 24.008 187.208 24.008C187.24 23.992 187.28 23.976 187.328 23.96C187.392 23.944 187.448 23.928 187.496 23.912C187.56 23.896 187.616 23.88 187.664 23.864C187.728 23.848 187.768 23.84 187.784 23.84C187.928 23.84 188.048 23.872 188.144 23.936C188.256 24 188.336 24.096 188.384 24.224C188.48 24.384 188.528 24.504 188.528 24.584C188.528 24.664 188.48 24.76 188.384 24.872C188.112 25.32 187.416 25.488 186.296 25.376C185.704 25.312 185.344 25.328 185.216 25.424C185.104 25.52 185.048 26.528 185.048 28.448C185.048 29.28 185.064 29.992 185.096 30.584C185.096 30.872 185.104 31.096 185.12 31.256C185.136 31.432 185.152 31.536 185.168 31.568C185.328 31.84 185.272 32.12 185 32.408C184.872 32.552 184.744 32.632 184.616 32.648C184.488 32.68 184.36 32.656 184.232 32.576C184.168 32.544 184.112 32.504 184.064 32.456C184.016 32.408 183.976 32.352 183.944 32.288C183.896 32.16 183.848 31.936 183.8 31.616C183.768 31.296 183.744 30.904 183.728 30.44C183.728 29.976 183.728 29.312 183.728 28.448L183.68 25.328H180.536C178.232 25.328 176.176 25.432 174.368 25.64C174.288 25.656 174.216 25.664 174.152 25.664C174.088 25.664 174.024 25.664 173.96 25.664C173.912 25.664 173.872 25.656 173.84 25.64Z" fill="black"/>
<rect x="161" y="1" width="40" height="40" stroke="#7A7A7A"/>
<rect x="201" y="1" width="40" height="40" stroke="#7A7A7A"/>
<path d="M256.028 16.448C256.46 16.144 256.772 16.008 256.964 16.04H256.988C257.036 16.04 257.092 16.056 257.156 16.088C257.236 16.12 257.308 16.176 257.372 16.256C257.436 16.32 257.508 16.408 257.588 16.52C257.796 16.824 257.868 17.032 257.804 17.144V17.168C257.756 17.28 257.684 17.856 257.588 18.896C257.524 19.904 257.46 20.44 257.396 20.504C257.348 20.6 257.324 20.856 257.324 21.272C257.34 21.608 257.3 21.928 257.204 22.232C257.108 22.52 257.02 23.048 256.94 23.816C256.86 24.568 256.764 25.272 256.652 25.928C256.508 26.936 256.396 27.848 256.316 28.664C256.236 29.48 256.18 30.208 256.148 30.848C256.132 31.536 256.1 31.96 256.052 32.12C256.036 32.216 256.004 32.296 255.956 32.36C255.908 32.424 255.852 32.48 255.788 32.528C255.66 32.624 255.564 32.672 255.5 32.672C255.436 32.672 255.332 32.616 255.188 32.504H255.164C254.956 32.36 254.82 32.176 254.756 31.952C254.708 31.728 254.7 31.384 254.732 30.92C254.748 30.84 254.764 30.688 254.78 30.464C254.796 30.256 254.82 29.984 254.852 29.648C254.884 29.312 254.916 28.904 254.948 28.424C254.964 28.2 254.98 27.992 254.996 27.8C255.028 27.592 255.052 27.424 255.068 27.296C255.084 27.152 255.1 27.024 255.116 26.912C255.132 26.8 255.14 26.72 255.14 26.672C255.156 26.608 255.172 26.568 255.188 26.552C255.268 26.408 255.396 25.336 255.572 23.336C255.588 23.128 255.612 22.928 255.644 22.736C255.676 22.528 255.708 22.344 255.74 22.184C255.772 22.008 255.812 21.848 255.86 21.704C255.94 21.416 256.004 21.008 256.052 20.48C256.116 19.936 256.148 19.472 256.148 19.088C256.148 18.88 256.14 18.728 256.124 18.632C256.108 18.504 256.076 18.424 256.028 18.392L256.004 18.368C255.956 18.368 255.892 18.392 255.812 18.44C255.732 18.472 255.636 18.528 255.524 18.608C255.412 18.688 255.268 18.792 255.092 18.92C254.932 19.016 254.788 19.104 254.66 19.184C253.956 19.52 253.468 19.448 253.196 18.968C253.084 18.76 253.068 18.6 253.148 18.488C253.244 18.36 253.508 18.16 253.94 17.888C254.5 17.616 254.876 17.384 255.068 17.192C255.324 16.984 255.644 16.736 256.028 16.448ZM263.038 22.76C263.262 22.68 263.766 22.64 264.55 22.64C265.35 22.64 265.862 22.68 266.086 22.76C266.262 22.808 266.502 22.864 266.806 22.928C267.062 22.96 267.382 23.152 267.766 23.504C268.15 23.84 268.438 24.192 268.63 24.56C268.678 24.672 268.718 24.784 268.75 24.896C268.798 24.992 268.822 25.088 268.822 25.184C268.838 25.392 268.83 25.792 268.798 26.384C268.782 27.28 268.718 27.96 268.606 28.424C268.51 28.76 268.334 29.2 268.078 29.744C267.822 30.304 267.574 30.768 267.334 31.136C267.158 31.376 266.886 31.64 266.518 31.928C266.326 32.056 266.134 32.168 265.942 32.264C265.766 32.376 265.598 32.464 265.438 32.528C265.31 32.592 265.182 32.632 265.054 32.648C264.942 32.664 264.822 32.672 264.694 32.672C264.486 32.656 263.966 32.568 263.134 32.408C262.766 32.328 262.278 32.008 261.67 31.448C261.078 30.888 260.598 30.304 260.23 29.696C259.766 28.912 259.358 27.936 259.006 26.768C258.846 26.32 258.774 25.32 258.79 23.768C258.806 22.712 258.83 22.008 258.862 21.656C258.894 21.288 258.966 20.88 259.078 20.432C259.558 18.656 260.206 17.2 261.022 16.064C261.23 15.76 261.638 15.312 262.246 14.72C262.854 14.128 263.222 13.832 263.35 13.832C263.446 13.832 263.534 13.784 263.614 13.688C263.726 13.56 264.078 13.496 264.67 13.496C265.262 13.496 265.702 13.552 265.99 13.664C266.374 13.824 266.694 13.984 266.95 14.144C267.222 14.304 267.446 14.464 267.622 14.624C268.118 15.152 268.302 15.864 268.174 16.76C268.11 17.144 268.078 17.408 268.078 17.552V17.576C268.062 17.736 267.958 17.856 267.766 17.936C267.654 17.984 267.542 18 267.43 17.984C267.334 17.952 267.23 17.888 267.118 17.792C266.974 17.664 266.886 17.528 266.854 17.384C266.822 17.256 266.806 16.984 266.806 16.568C266.806 16.264 266.79 16.024 266.758 15.848C266.726 15.656 266.686 15.528 266.638 15.464C266.51 15.336 266.278 15.2 265.942 15.056C265.606 14.912 265.278 14.816 264.958 14.768C264.638 14.72 264.294 14.792 263.926 14.984C263.59 15.192 263.238 15.48 262.87 15.848C262.518 16.216 262.158 16.68 261.79 17.24C261.71 17.336 261.638 17.432 261.574 17.528C261.526 17.624 261.486 17.696 261.454 17.744C261.422 17.792 261.406 17.824 261.406 17.84C261.39 17.904 261.334 18.04 261.238 18.248C260.79 19.272 260.502 20.064 260.374 20.624C260.246 21.168 260.166 21.928 260.134 22.904C260.086 23.672 260.07 24.168 260.086 24.392L260.134 24.656C260.214 24.656 260.35 24.512 260.542 24.224C260.942 23.6 261.502 23.184 262.222 22.976C262.286 22.96 262.358 22.944 262.438 22.928C262.518 22.912 262.606 22.888 262.702 22.856C262.814 22.824 262.926 22.792 263.038 22.76ZM267.55 25.832C267.486 25.16 267.166 24.64 266.59 24.272C266.542 24.24 266.47 24.216 266.374 24.2C266.278 24.168 266.15 24.144 265.99 24.128C265.846 24.112 265.67 24.096 265.462 24.08C265.254 24.064 265.022 24.056 264.766 24.056C264.142 24.04 263.686 24.04 263.398 24.056C263.238 24.056 263.094 24.072 262.966 24.104C262.854 24.12 262.75 24.144 262.654 24.176C262.574 24.208 262.486 24.248 262.39 24.296C262.294 24.344 262.206 24.408 262.126 24.488C261.662 24.84 261.358 25.296 261.214 25.856C261.102 26.192 260.926 26.456 260.686 26.648C260.654 26.696 260.614 26.736 260.566 26.768C260.534 26.8 260.51 26.832 260.494 26.864C260.478 26.88 260.47 26.896 260.47 26.912C260.454 26.928 260.446 26.976 260.446 27.056C260.462 27.12 260.486 27.2 260.518 27.296C260.55 27.424 260.598 27.568 260.662 27.728C260.726 27.872 260.806 28.032 260.902 28.208C261.078 28.576 261.278 28.928 261.502 29.264C261.742 29.616 261.966 29.92 262.174 30.176C262.574 30.592 262.942 30.888 263.278 31.064C263.39 31.112 263.51 31.152 263.638 31.184C263.766 31.232 263.902 31.264 264.046 31.28C264.19 31.312 264.342 31.328 264.502 31.328C264.934 31.36 265.278 31.28 265.534 31.088C265.646 31.008 265.774 30.88 265.918 30.704C266.062 30.544 266.222 30.344 266.398 30.104C266.75 29.608 266.966 29.208 267.046 28.904C267.462 27.528 267.63 26.504 267.55 25.832Z" fill="black"/>
<rect x="241" y="1" width="40" height="40" stroke="#7A7A7A"/>
<rect x="281" y="1" width="40" height="40" stroke="#7A7A7A"/>
<path d="M332.064 17.984C332.336 17.552 332.688 17.16 333.12 16.808C333.552 16.44 334.056 16.12 334.632 15.848C335.48 15.432 336.192 15.272 336.768 15.368C337.344 15.448 337.912 15.8 338.472 16.424C338.712 16.696 338.904 16.952 339.048 17.192C339.208 17.432 339.32 17.656 339.384 17.864C339.528 18.28 339.6 19.024 339.6 20.096C339.6 20.976 339.576 21.552 339.528 21.824C339.496 22.096 339.416 22.36 339.288 22.616C339.096 22.984 338.84 23.384 338.52 23.816C338.44 23.928 338.36 24.032 338.28 24.128C338.2 24.224 338.12 24.312 338.04 24.392C337.976 24.472 337.912 24.544 337.848 24.608C337.784 24.672 337.72 24.728 337.656 24.776C337.272 25.112 336.608 25.584 335.664 26.192C335.2 26.496 334.816 26.736 334.512 26.912C334.208 27.088 333.984 27.2 333.84 27.248C333.728 27.296 333.624 27.344 333.528 27.392C333.432 27.424 333.344 27.456 333.264 27.488C333.2 27.52 333.144 27.552 333.096 27.584C333.064 27.6 332.992 27.624 332.88 27.656C332.784 27.672 332.656 27.696 332.496 27.728C332.144 27.808 331.912 27.96 331.8 28.184C331.768 28.264 331.736 28.368 331.704 28.496C331.688 28.608 331.672 28.752 331.656 28.928C331.656 29.088 331.656 29.272 331.656 29.48C331.656 30.2 331.688 30.616 331.752 30.728C331.816 30.84 332.192 30.856 332.88 30.776C333.616 30.68 335.096 30.632 337.32 30.632L340.776 30.584L340.92 30.872C340.968 30.952 340.992 31.04 340.992 31.136C340.992 31.232 340.976 31.328 340.944 31.424C340.928 31.488 340.896 31.544 340.848 31.592C340.816 31.656 340.768 31.704 340.704 31.736C340.656 31.784 340.6 31.824 340.536 31.856C340.408 31.92 339.032 31.984 336.408 32.048C334.504 32.064 333.288 32.104 332.76 32.168C332.504 32.2 332.256 32.24 332.016 32.288C331.792 32.352 331.576 32.44 331.368 32.552C330.984 32.744 330.704 32.72 330.528 32.48C330.48 32.432 330.44 32.184 330.408 31.736C330.392 31.288 330.376 30.656 330.36 29.84C330.36 29.28 330.36 28.808 330.36 28.424C330.36 28.024 330.368 27.704 330.384 27.464C330.416 27.224 330.44 27.072 330.456 27.008C330.552 26.72 330.672 26.536 330.816 26.456C330.96 26.376 331.2 26.352 331.536 26.384C332.16 26.464 333.056 26.184 334.224 25.544C336.112 24.456 337.328 23.376 337.872 22.304C338.048 21.952 338.16 21.664 338.208 21.44C338.224 21.392 338.232 21.328 338.232 21.248C338.248 21.168 338.256 21.072 338.256 20.96C338.272 20.848 338.28 20.72 338.28 20.576C338.28 20.432 338.28 20.272 338.28 20.096C338.28 19.168 338.168 18.496 337.944 18.08C337.8 17.712 337.6 17.392 337.344 17.12C337.264 17.04 337.184 16.968 337.104 16.904C337.024 16.84 336.944 16.784 336.864 16.736C336.784 16.688 336.712 16.656 336.648 16.64C336.504 16.608 336.32 16.616 336.096 16.664C335.872 16.712 335.608 16.808 335.304 16.952C334.696 17.24 334.2 17.584 333.816 17.984C333.48 18.304 333.264 18.56 333.168 18.752C333.088 18.944 333.08 19.144 333.144 19.352C333.192 19.48 333.224 19.6 333.24 19.712C333.256 19.824 333.248 19.928 333.216 20.024C333.2 20.104 333.16 20.176 333.096 20.24C332.808 20.528 332.456 20.472 332.04 20.072C331.512 19.544 331.52 18.848 332.064 17.984ZM343.264 20.024C344.16 18.2 345 17.096 345.784 16.712C346.152 16.52 346.656 16.424 347.296 16.424C347.504 16.424 347.696 16.44 347.872 16.472C348.048 16.488 348.2 16.52 348.328 16.568C348.456 16.6 348.568 16.648 348.664 16.712C348.728 16.744 348.792 16.784 348.856 16.832C348.92 16.88 348.984 16.936 349.048 17C349.128 17.064 349.2 17.136 349.264 17.216C349.344 17.296 349.424 17.384 349.504 17.48C349.584 17.576 349.664 17.68 349.744 17.792C349.936 18.08 350.096 18.344 350.224 18.584C350.368 18.808 350.464 19.016 350.512 19.208C350.544 19.304 350.672 19.688 350.896 20.36C351.024 20.744 351.088 21.52 351.088 22.688C351.088 23.84 351.024 24.584 350.896 24.92C350.736 25.272 350.656 25.568 350.656 25.808C350.656 26.144 350.536 26.744 350.296 27.608C350.168 28.04 350.04 28.432 349.912 28.784C349.784 29.12 349.648 29.424 349.504 29.696C349.28 30.144 349.016 30.552 348.712 30.92C348.424 31.288 348.096 31.616 347.728 31.904C347.008 32.48 346.344 32.736 345.736 32.672C345.096 32.592 344.48 32.352 343.888 31.952C343.312 31.552 342.88 31.064 342.592 30.488C342.464 30.232 342.352 29.992 342.256 29.768C342.16 29.544 342.08 29.344 342.016 29.168C341.904 28.784 341.824 28.344 341.776 27.848C341.728 27.352 341.704 26.712 341.704 25.928C341.704 24.584 341.776 23.624 341.92 23.048C342.08 22.472 342.528 21.464 343.264 20.024ZM348.88 18.992C348.576 18.464 348.232 18.104 347.848 17.912C347.416 17.656 347.032 17.72 346.696 18.104C346.52 18.328 346.352 18.44 346.192 18.44C346.16 18.44 346.12 18.448 346.072 18.464C346.024 18.464 345.976 18.48 345.928 18.512C345.896 18.528 345.856 18.552 345.808 18.584C345.76 18.6 345.712 18.632 345.664 18.68C345.632 18.712 345.592 18.752 345.544 18.8C345.352 19.04 344.976 19.688 344.416 20.744C343.856 21.816 343.544 22.544 343.48 22.928C343.448 22.992 343.416 23.072 343.384 23.168C343.368 23.248 343.344 23.36 343.312 23.504C343.248 23.776 343.192 23.96 343.144 24.056C343.016 24.52 342.984 25.32 343.048 26.456C343.128 27.576 343.272 28.416 343.48 28.976C343.736 29.808 344.136 30.424 344.68 30.824C345.224 31.208 345.8 31.304 346.408 31.112C346.824 30.968 347.296 30.536 347.824 29.816C348.368 29.096 348.656 28.512 348.688 28.064C348.688 27.856 348.752 27.648 348.88 27.44C349.008 27.216 349.072 26.936 349.072 26.6C349.072 26.296 349.16 25.968 349.336 25.616C349.48 25.28 349.576 24.52 349.624 23.336C349.672 22.136 349.632 21.272 349.504 20.744C349.392 20.104 349.184 19.52 348.88 18.992Z" fill="black"/>
<rect x="321" y="1" width="40" height="40" stroke="#7A7A7A"/>
<rect x="361" y="1" width="40" height="40" stroke="#7A7A7A"/>
<path d="M411.564 17.984C411.836 17.552 412.188 17.16 412.62 16.808C413.052 16.44 413.556 16.12 414.132 15.848C414.98 15.432 415.692 15.272 416.268 15.368C416.844 15.448 417.412 15.8 417.972 16.424C418.212 16.696 418.404 16.952 418.548 17.192C418.708 17.432 418.82 17.656 418.884 17.864C419.028 18.28 419.1 19.024 419.1 20.096C419.1 20.976 419.076 21.552 419.028 21.824C418.996 22.096 418.916 22.36 418.788 22.616C418.596 22.984 418.34 23.384 418.02 23.816C417.94 23.928 417.86 24.032 417.78 24.128C417.7 24.224 417.62 24.312 417.54 24.392C417.476 24.472 417.412 24.544 417.348 24.608C417.284 24.672 417.22 24.728 417.156 24.776C416.772 25.112 416.108 25.584 415.164 26.192C414.7 26.496 414.316 26.736 414.012 26.912C413.708 27.088 413.484 27.2 413.34 27.248C413.228 27.296 413.124 27.344 413.028 27.392C412.932 27.424 412.844 27.456 412.764 27.488C412.7 27.52 412.644 27.552 412.596 27.584C412.564 27.6 412.492 27.624 412.38 27.656C412.284 27.672 412.156 27.696 411.996 27.728C411.644 27.808 411.412 27.96 411.3 28.184C411.268 28.264 411.236 28.368 411.204 28.496C411.188 28.608 411.172 28.752 411.156 28.928C411.156 29.088 411.156 29.272 411.156 29.48C411.156 30.2 411.188 30.616 411.252 30.728C411.316 30.84 411.692 30.856 412.38 30.776C413.116 30.68 414.596 30.632 416.82 30.632L420.276 30.584L420.42 30.872C420.468 30.952 420.492 31.04 420.492 31.136C420.492 31.232 420.476 31.328 420.444 31.424C420.428 31.488 420.396 31.544 420.348 31.592C420.316 31.656 420.268 31.704 420.204 31.736C420.156 31.784 420.1 31.824 420.036 31.856C419.908 31.92 418.532 31.984 415.908 32.048C414.004 32.064 412.788 32.104 412.26 32.168C412.004 32.2 411.756 32.24 411.516 32.288C411.292 32.352 411.076 32.44 410.868 32.552C410.484 32.744 410.204 32.72 410.028 32.48C409.98 32.432 409.94 32.184 409.908 31.736C409.892 31.288 409.876 30.656 409.86 29.84C409.86 29.28 409.86 28.808 409.86 28.424C409.86 28.024 409.868 27.704 409.884 27.464C409.916 27.224 409.94 27.072 409.956 27.008C410.052 26.72 410.172 26.536 410.316 26.456C410.46 26.376 410.7 26.352 411.036 26.384C411.66 26.464 412.556 26.184 413.724 25.544C415.612 24.456 416.828 23.376 417.372 22.304C417.548 21.952 417.66 21.664 417.708 21.44C417.724 21.392 417.732 21.328 417.732 21.248C417.748 21.168 417.756 21.072 417.756 20.96C417.772 20.848 417.78 20.72 417.78 20.576C417.78 20.432 417.78 20.272 417.78 20.096C417.78 19.168 417.668 18.496 417.444 18.08C417.3 17.712 417.1 17.392 416.844 17.12C416.764 17.04 416.684 16.968 416.604 16.904C416.524 16.84 416.444 16.784 416.364 16.736C416.284 16.688 416.212 16.656 416.148 16.64C416.004 16.608 415.82 16.616 415.596 16.664C415.372 16.712 415.108 16.808 414.804 16.952C414.196 17.24 413.7 17.584 413.316 17.984C412.98 18.304 412.764 18.56 412.668 18.752C412.588 18.944 412.58 19.144 412.644 19.352C412.692 19.48 412.724 19.6 412.74 19.712C412.756 19.824 412.748 19.928 412.716 20.024C412.7 20.104 412.66 20.176 412.596 20.24C412.308 20.528 411.956 20.472 411.54 20.072C411.012 19.544 411.02 18.848 411.564 17.984ZM422.908 17.984C423.18 17.552 423.532 17.16 423.964 16.808C424.396 16.44 424.9 16.12 425.476 15.848C426.324 15.432 427.036 15.272 427.612 15.368C428.188 15.448 428.756 15.8 429.316 16.424C429.556 16.696 429.748 16.952 429.892 17.192C430.052 17.432 430.164 17.656 430.228 17.864C430.372 18.28 430.444 19.024 430.444 20.096C430.444 20.976 430.42 21.552 430.372 21.824C430.34 22.096 430.26 22.36 430.132 22.616C429.94 22.984 429.684 23.384 429.364 23.816C429.284 23.928 429.204 24.032 429.124 24.128C429.044 24.224 428.964 24.312 428.884 24.392C428.82 24.472 428.756 24.544 428.692 24.608C428.628 24.672 428.564 24.728 428.5 24.776C428.116 25.112 427.452 25.584 426.508 26.192C426.044 26.496 425.66 26.736 425.356 26.912C425.052 27.088 424.828 27.2 424.684 27.248C424.572 27.296 424.468 27.344 424.372 27.392C424.276 27.424 424.188 27.456 424.108 27.488C424.044 27.52 423.988 27.552 423.94 27.584C423.908 27.6 423.836 27.624 423.724 27.656C423.628 27.672 423.5 27.696 423.34 27.728C422.988 27.808 422.756 27.96 422.644 28.184C422.612 28.264 422.58 28.368 422.548 28.496C422.532 28.608 422.516 28.752 422.5 28.928C422.5 29.088 422.5 29.272 422.5 29.48C422.5 30.2 422.532 30.616 422.596 30.728C422.66 30.84 423.036 30.856 423.724 30.776C424.46 30.68 425.94 30.632 428.164 30.632L431.62 30.584L431.764 30.872C431.812 30.952 431.836 31.04 431.836 31.136C431.836 31.232 431.82 31.328 431.788 31.424C431.772 31.488 431.74 31.544 431.692 31.592C431.66 31.656 431.612 31.704 431.548 31.736C431.5 31.784 431.444 31.824 431.38 31.856C431.252 31.92 429.876 31.984 427.252 32.048C425.348 32.064 424.132 32.104 423.604 32.168C423.348 32.2 423.1 32.24 422.86 32.288C422.636 32.352 422.42 32.44 422.212 32.552C421.828 32.744 421.548 32.72 421.372 32.48C421.324 32.432 421.284 32.184 421.252 31.736C421.236 31.288 421.22 30.656 421.204 29.84C421.204 29.28 421.204 28.808 421.204 28.424C421.204 28.024 421.212 27.704 421.228 27.464C421.26 27.224 421.284 27.072 421.3 27.008C421.396 26.72 421.516 26.536 421.66 26.456C421.804 26.376 422.044 26.352 422.38 26.384C423.004 26.464 423.9 26.184 425.068 25.544C426.956 24.456 428.172 23.376 428.716 22.304C428.892 21.952 429.004 21.664 429.052 21.44C429.068 21.392 429.076 21.328 429.076 21.248C429.092 21.168 429.1 21.072 429.1 20.96C429.116 20.848 429.124 20.72 429.124 20.576C429.124 20.432 429.124 20.272 429.124 20.096C429.124 19.168 429.012 18.496 428.788 18.08C428.644 17.712 428.444 17.392 428.188 17.12C428.108 17.04 428.028 16.968 427.948 16.904C427.868 16.84 427.788 16.784 427.708 16.736C427.628 16.688 427.556 16.656 427.492 16.64C427.348 16.608 427.164 16.616 426.94 16.664C426.716 16.712 426.452 16.808 426.148 16.952C425.54 17.24 425.044 17.584 424.66 17.984C424.324 18.304 424.108 18.56 424.012 18.752C423.932 18.944 423.924 19.144 423.988 19.352C424.036 19.48 424.068 19.6 424.084 19.712C424.1 19.824 424.092 19.928 424.06 20.024C424.044 20.104 424.004 20.176 423.94 20.24C423.652 20.528 423.3 20.472 422.884 20.072C422.356 19.544 422.364 18.848 422.908 17.984Z" fill="black"/>
<rect x="401" y="1" width="40" height="40" stroke="#7A7A7A"/>
<rect x="1" y="41" width="40" height="40" stroke="#7A7A7A"/>
<path d="M57.42 60.024C58.316 58.2 59.156 57.096 59.94 56.712C60.308 56.52 60.812 56.424 61.452 56.424C61.66 56.424 61.852 56.44 62.028 56.472C62.204 56.488 62.356 56.52 62.484 56.568C62.612 56.6 62.724 56.648 62.82 56.712C62.884 56.744 62.948 56.784 63.012 56.832C63.076 56.88 63.14 56.936 63.204 57C63.284 57.064 63.356 57.136 63.42 57.216C63.5 57.296 63.58 57.384 63.66 57.48C63.74 57.576 63.82 57.68 63.9 57.792C64.092 58.08 64.252 58.344 64.38 58.584C64.524 58.808 64.62 59.016 64.668 59.208C64.7 59.304 64.828 59.688 65.052 60.36C65.18 60.744 65.244 61.52 65.244 62.688C65.244 63.84 65.18 64.584 65.052 64.92C64.892 65.272 64.812 65.568 64.812 65.808C64.812 66.144 64.692 66.744 64.452 67.608C64.324 68.04 64.196 68.432 64.068 68.784C63.94 69.12 63.804 69.424 63.66 69.696C63.436 70.144 63.172 70.552 62.868 70.92C62.58 71.288 62.252 71.616 61.884 71.904C61.164 72.48 60.5 72.736 59.892 72.672C59.252 72.592 58.636 72.352 58.044 71.952C57.468 71.552 57.036 71.064 56.748 70.488C56.62 70.232 56.508 69.992 56.412 69.768C56.316 69.544 56.236 69.344 56.172 69.168C56.06 68.784 55.98 68.344 55.932 67.848C55.884 67.352 55.86 66.712 55.86 65.928C55.86 64.584 55.932 63.624 56.076 63.048C56.236 62.472 56.684 61.464 57.42 60.024ZM63.036 58.992C62.732 58.464 62.388 58.104 62.004 57.912C61.572 57.656 61.188 57.72 60.852 58.104C60.676 58.328 60.508 58.44 60.348 58.44C60.316 58.44 60.276 58.448 60.228 58.464C60.18 58.464 60.132 58.48 60.084 58.512C60.052 58.528 60.012 58.552 59.964 58.584C59.916 58.6 59.868 58.632 59.82 58.68C59.788 58.712 59.748 58.752 59.7 58.8C59.508 59.04 59.132 59.688 58.572 60.744C58.012 61.816 57.7 62.544 57.636 62.928C57.604 62.992 57.572 63.072 57.54 63.168C57.524 63.248 57.5 63.36 57.468 63.504C57.404 63.776 57.348 63.96 57.3 64.056C57.172 64.52 57.14 65.32 57.204 66.456C57.284 67.576 57.428 68.416 57.636 68.976C57.892 69.808 58.292 70.424 58.836 70.824C59.38 71.208 59.956 71.304 60.564 71.112C60.98 70.968 61.452 70.536 61.98 69.816C62.524 69.096 62.812 68.512 62.844 68.064C62.844 67.856 62.908 67.648 63.036 67.44C63.164 67.216 63.228 66.936 63.228 66.6C63.228 66.296 63.316 65.968 63.492 65.616C63.636 65.28 63.732 64.52 63.78 63.336C63.828 62.136 63.788 61.272 63.66 60.744C63.548 60.104 63.34 59.52 63.036 58.992Z" fill="black"/>
<rect x="41" y="41" width="40" height="40" stroke="#7A7A7A"/>
<rect x="81" y="41" width="40" height="40" stroke="#7A7A7A"/>
<path d="M140.108 62.76C140.332 62.68 140.836 62.64 141.62 62.64C142.42 62.64 142.932 62.68 143.156 62.76C143.332 62.808 143.572 62.864 143.876 62.928C144.132 62.96 144.452 63.152 144.836 63.504C145.22 63.84 145.508 64.192 145.7 64.56C145.748 64.672 145.788 64.784 145.82 64.896C145.868 64.992 145.892 65.088 145.892 65.184C145.908 65.392 145.9 65.792 145.868 66.384C145.852 67.28 145.788 67.96 145.676 68.424C145.58 68.76 145.404 69.2 145.148 69.744C144.892 70.304 144.644 70.768 144.404 71.136C144.228 71.376 143.956 71.64 143.588 71.928C143.396 72.056 143.204 72.168 143.012 72.264C142.836 72.376 142.668 72.464 142.508 72.528C142.38 72.592 142.252 72.632 142.124 72.648C142.012 72.664 141.892 72.672 141.764 72.672C141.556 72.656 141.036 72.568 140.204 72.408C139.836 72.328 139.348 72.008 138.74 71.448C138.148 70.888 137.668 70.304 137.3 69.696C136.836 68.912 136.428 67.936 136.076 66.768C135.916 66.32 135.844 65.32 135.86 63.768C135.876 62.712 135.9 62.008 135.932 61.656C135.964 61.288 136.036 60.88 136.148 60.432C136.628 58.656 137.276 57.2 138.092 56.064C138.3 55.76 138.708 55.312 139.316 54.72C139.924 54.128 140.292 53.832 140.42 53.832C140.516 53.832 140.604 53.784 140.684 53.688C140.796 53.56 141.148 53.496 141.74 53.496C142.332 53.496 142.772 53.552 143.06 53.664C143.444 53.824 143.764 53.984 144.02 54.144C144.292 54.304 144.516 54.464 144.692 54.624C145.188 55.152 145.372 55.864 145.244 56.76C145.18 57.144 145.148 57.408 145.148 57.552V57.576C145.132 57.736 145.028 57.856 144.836 57.936C144.724 57.984 144.612 58 144.5 57.984C144.404 57.952 144.3 57.888 144.188 57.792C144.044 57.664 143.956 57.528 143.924 57.384C143.892 57.256 143.876 56.984 143.876 56.568C143.876 56.264 143.86 56.024 143.828 55.848C143.796 55.656 143.756 55.528 143.708 55.464C143.58 55.336 143.348 55.2 143.012 55.056C142.676 54.912 142.348 54.816 142.028 54.768C141.708 54.72 141.364 54.792 140.996 54.984C140.66 55.192 140.308 55.48 139.94 55.848C139.588 56.216 139.228 56.68 138.86 57.24C138.78 57.336 138.708 57.432 138.644 57.528C138.596 57.624 138.556 57.696 138.524 57.744C138.492 57.792 138.476 57.824 138.476 57.84C138.46 57.904 138.404 58.04 138.308 58.248C137.86 59.272 137.572 60.064 137.444 60.624C137.316 61.168 137.236 61.928 137.204 62.904C137.156 63.672 137.14 64.168 137.156 64.392L137.204 64.656C137.284 64.656 137.42 64.512 137.612 64.224C138.012 63.6 138.572 63.184 139.292 62.976C139.356 62.96 139.428 62.944 139.508 62.928C139.588 62.912 139.676 62.888 139.772 62.856C139.884 62.824 139.996 62.792 140.108 62.76ZM144.62 65.832C144.556 65.16 144.236 64.64 143.66 64.272C143.612 64.24 143.54 64.216 143.444 64.2C143.348 64.168 143.22 64.144 143.06 64.128C142.916 64.112 142.74 64.096 142.532 64.08C142.324 64.064 142.092 64.056 141.836 64.056C141.212 64.04 140.756 64.04 140.468 64.056C140.308 64.056 140.164 64.072 140.036 64.104C139.924 64.12 139.82 64.144 139.724 64.176C139.644 64.208 139.556 64.248 139.46 64.296C139.364 64.344 139.276 64.408 139.196 64.488C138.732 64.84 138.428 65.296 138.284 65.856C138.172 66.192 137.996 66.456 137.756 66.648C137.724 66.696 137.684 66.736 137.636 66.768C137.604 66.8 137.58 66.832 137.564 66.864C137.548 66.88 137.54 66.896 137.54 66.912C137.524 66.928 137.516 66.976 137.516 67.056C137.532 67.12 137.556 67.2 137.588 67.296C137.62 67.424 137.668 67.568 137.732 67.728C137.796 67.872 137.876 68.032 137.972 68.208C138.148 68.576 138.348 68.928 138.572 69.264C138.812 69.616 139.036 69.92 139.244 70.176C139.644 70.592 140.012 70.888 140.348 71.064C140.46 71.112 140.58 71.152 140.708 71.184C140.836 71.232 140.972 71.264 141.116 71.28C141.26 71.312 141.412 71.328 141.572 71.328C142.004 71.36 142.348 71.28 142.604 71.088C142.716 71.008 142.844 70.88 142.988 70.704C143.132 70.544 143.292 70.344 143.468 70.104C143.82 69.608 144.036 69.208 144.116 68.904C144.532 67.528 144.7 66.504 144.62 65.832Z" fill="black"/>
<rect x="121" y="41" width="40" height="40" stroke="#7A7A7A"/>
<rect x="161" y="41" width="40" height="40" stroke="#7A7A7A"/>
<path d="M219.204 55.608C219.348 55.608 219.436 55.56 219.468 55.464C219.516 55.384 219.764 55.344 220.212 55.344C220.404 55.344 220.556 55.352 220.668 55.368C220.7 55.384 220.732 55.4 220.764 55.416C220.796 55.416 220.828 55.424 220.86 55.44C220.892 55.44 220.916 55.448 220.932 55.464C221.012 55.512 221.108 55.592 221.22 55.704C221.46 55.944 221.732 56.12 222.036 56.232C222.116 56.248 222.268 56.288 222.492 56.352C222.572 56.368 222.644 56.384 222.708 56.4C222.772 56.416 222.82 56.432 222.852 56.448C222.9 56.464 222.94 56.472 222.972 56.472C223.084 56.52 223.196 56.576 223.308 56.64C223.42 56.688 223.532 56.76 223.644 56.856C223.756 56.936 223.876 57.032 224.004 57.144C224.356 57.464 224.596 57.784 224.724 58.104C224.98 58.712 225.02 59.4 224.844 60.168C224.684 60.92 224.34 61.584 223.812 62.16C223.396 62.592 223.188 62.856 223.188 62.952C223.188 63 223.22 63.048 223.284 63.096C223.348 63.144 223.436 63.192 223.548 63.24C223.692 63.304 223.836 63.376 223.98 63.456C224.124 63.536 224.268 63.624 224.412 63.72C224.476 63.752 224.532 63.792 224.58 63.84C224.628 63.872 224.676 63.904 224.724 63.936C224.772 63.968 224.82 64 224.868 64.032C224.916 64.064 224.964 64.104 225.012 64.152C225.06 64.184 225.1 64.216 225.132 64.248C225.18 64.28 225.228 64.32 225.276 64.368C225.356 64.432 225.428 64.496 225.492 64.56C225.556 64.624 225.612 64.688 225.66 64.752C225.708 64.8 225.748 64.84 225.78 64.872C226.292 65.784 226.468 66.768 226.308 67.824C226.164 68.88 225.684 69.896 224.868 70.872C224.74 71.048 224.612 71.192 224.484 71.304C224.372 71.432 224.26 71.536 224.148 71.616C223.924 71.776 223.588 71.968 223.14 72.192C222.612 72.432 222.244 72.568 222.036 72.6C221.956 72.616 221.852 72.624 221.724 72.624C221.596 72.64 221.436 72.648 221.244 72.648C221.068 72.664 220.852 72.672 220.596 72.672C218.628 72.672 217.068 72.16 215.916 71.136C215.756 71.008 215.612 70.872 215.484 70.728C215.372 70.6 215.276 70.472 215.196 70.344C215.116 70.216 215.052 70.096 215.004 69.984C214.876 69.632 214.836 69.104 214.884 68.4C214.884 68.144 214.892 67.92 214.908 67.728C214.94 67.52 214.972 67.352 215.004 67.224C215.052 67.096 215.116 66.936 215.196 66.744C215.276 66.536 215.38 66.296 215.508 66.024C215.572 65.864 215.644 65.712 215.724 65.568C215.804 65.408 215.884 65.264 215.964 65.136C216.06 64.992 216.148 64.864 216.228 64.752C216.324 64.624 216.412 64.504 216.492 64.392C216.588 64.28 216.684 64.176 216.78 64.08C216.876 63.984 216.972 63.896 217.068 63.816C217.18 63.72 217.284 63.632 217.38 63.552C217.492 63.472 217.604 63.4 217.716 63.336C217.956 63.208 218.124 63.104 218.22 63.024C218.332 62.944 218.38 62.88 218.364 62.832C218.348 62.72 218.14 62.568 217.74 62.376C217.324 62.152 216.988 61.912 216.732 61.656C216.492 61.4 216.324 61.128 216.228 60.84C216.132 60.536 216.108 60.072 216.156 59.448C216.236 58.376 216.604 57.528 217.26 56.904C217.436 56.76 217.66 56.576 217.932 56.352C218.22 56.128 218.492 55.944 218.748 55.8C218.86 55.736 218.956 55.688 219.036 55.656C219.116 55.624 219.172 55.608 219.204 55.608ZM221.052 57.48C220.396 57.48 220.044 57.448 219.996 57.384C219.804 57.128 219.548 57.04 219.228 57.12C219.068 57.168 218.9 57.248 218.724 57.36C218.564 57.472 218.396 57.632 218.22 57.84C218.044 58.032 217.9 58.24 217.788 58.464C217.676 58.672 217.588 58.888 217.524 59.112C217.444 59.496 217.404 59.752 217.404 59.88C217.404 59.944 217.412 60.024 217.428 60.12C217.46 60.2 217.508 60.296 217.572 60.408C217.604 60.504 217.652 60.6 217.716 60.696C217.78 60.776 217.852 60.848 217.932 60.912C218.076 61.04 218.356 61.192 218.772 61.368C219.38 61.688 219.772 61.848 219.948 61.848C220.14 61.848 220.364 61.904 220.62 62.016C220.764 62.064 220.916 62.088 221.076 62.088C221.236 62.088 221.42 62.064 221.628 62.016C222.028 61.936 222.34 61.784 222.564 61.56C222.612 61.528 222.652 61.488 222.684 61.44C222.732 61.392 222.772 61.344 222.804 61.296C222.852 61.248 222.892 61.2 222.924 61.152C222.972 61.088 223.012 61.032 223.044 60.984C223.092 60.92 223.14 60.856 223.188 60.792C223.38 60.472 223.476 60.232 223.476 60.072C223.476 59.864 223.524 59.696 223.62 59.568C223.7 59.408 223.684 59.184 223.572 58.896C223.492 58.64 223.38 58.424 223.236 58.248C223.108 58.056 222.948 57.904 222.756 57.792C222.564 57.68 222.324 57.6 222.036 57.552C221.748 57.504 221.42 57.48 221.052 57.48ZM221.484 63.936C221.356 64 221.18 63.984 220.956 63.888C220.396 63.632 219.7 63.744 218.868 64.224C218.484 64.432 218.172 64.64 217.932 64.848C217.692 65.04 217.484 65.256 217.308 65.496C217.132 65.736 216.956 66.04 216.78 66.408C216.62 66.728 216.492 67.064 216.396 67.416C216.316 67.752 216.268 68.096 216.252 68.448L216.156 69.528L216.804 70.152C217.028 70.36 217.22 70.52 217.38 70.632C217.54 70.76 217.668 70.832 217.764 70.848C217.796 70.848 217.828 70.848 217.86 70.848C217.892 70.864 217.932 70.872 217.98 70.872C218.076 70.904 218.172 70.936 218.268 70.968C218.316 70.984 218.372 71 218.436 71.016C218.516 71.032 218.596 71.056 218.676 71.088C218.836 71.12 218.972 71.152 219.084 71.184C219.484 71.296 219.852 71.368 220.188 71.4C220.54 71.432 220.852 71.432 221.124 71.4C221.668 71.336 222.364 71.096 223.212 70.68C223.292 70.632 223.428 70.496 223.62 70.272C223.812 70.064 224.004 69.824 224.196 69.552C224.388 69.28 224.54 69.048 224.652 68.856C224.812 68.552 224.9 68.024 224.916 67.272C224.916 66.856 224.892 66.512 224.844 66.24C224.796 65.968 224.716 65.76 224.604 65.616C224.54 65.52 224.42 65.408 224.244 65.28C224.084 65.152 223.868 65.008 223.596 64.848C223.34 64.688 223.036 64.512 222.684 64.32C222.028 63.968 221.628 63.84 221.484 63.936Z" fill="black"/>
<rect x="201" y="41" width="40" height="40" stroke="#7A7A7A"/>
<rect x="241" y="41" width="40" height="40" stroke="#7A7A7A"/>
<path d="M296.028 56.448C296.46 56.144 296.772 56.008 296.964 56.04H296.988C297.036 56.04 297.092 56.056 297.156 56.088C297.236 56.12 297.308 56.176 297.372 56.256C297.436 56.32 297.508 56.408 297.588 56.52C297.796 56.824 297.868 57.032 297.804 57.144V57.168C297.756 57.28 297.684 57.856 297.588 58.896C297.524 59.904 297.46 60.44 297.396 60.504C297.348 60.6 297.324 60.856 297.324 61.272C297.34 61.608 297.3 61.928 297.204 62.232C297.108 62.52 297.02 63.048 296.94 63.816C296.86 64.568 296.764 65.272 296.652 65.928C296.508 66.936 296.396 67.848 296.316 68.664C296.236 69.48 296.18 70.208 296.148 70.848C296.132 71.536 296.1 71.96 296.052 72.12C296.036 72.216 296.004 72.296 295.956 72.36C295.908 72.424 295.852 72.48 295.788 72.528C295.66 72.624 295.564 72.672 295.5 72.672C295.436 72.672 295.332 72.616 295.188 72.504H295.164C294.956 72.36 294.82 72.176 294.756 71.952C294.708 71.728 294.7 71.384 294.732 70.92C294.748 70.84 294.764 70.688 294.78 70.464C294.796 70.256 294.82 69.984 294.852 69.648C294.884 69.312 294.916 68.904 294.948 68.424C294.964 68.2 294.98 67.992 294.996 67.8C295.028 67.592 295.052 67.424 295.068 67.296C295.084 67.152 295.1 67.024 295.116 66.912C295.132 66.8 295.14 66.72 295.14 66.672C295.156 66.608 295.172 66.568 295.188 66.552C295.268 66.408 295.396 65.336 295.572 63.336C295.588 63.128 295.612 62.928 295.644 62.736C295.676 62.528 295.708 62.344 295.74 62.184C295.772 62.008 295.812 61.848 295.86 61.704C295.94 61.416 296.004 61.008 296.052 60.48C296.116 59.936 296.148 59.472 296.148 59.088C296.148 58.88 296.14 58.728 296.124 58.632C296.108 58.504 296.076 58.424 296.028 58.392L296.004 58.368C295.956 58.368 295.892 58.392 295.812 58.44C295.732 58.472 295.636 58.528 295.524 58.608C295.412 58.688 295.268 58.792 295.092 58.92C294.932 59.016 294.788 59.104 294.66 59.184C293.956 59.52 293.468 59.448 293.196 58.968C293.084 58.76 293.068 58.6 293.148 58.488C293.244 58.36 293.508 58.16 293.94 57.888C294.5 57.616 294.876 57.384 295.068 57.192C295.324 56.984 295.644 56.736 296.028 56.448ZM300.35 60.024C301.246 58.2 302.086 57.096 302.87 56.712C303.238 56.52 303.742 56.424 304.382 56.424C304.59 56.424 304.782 56.44 304.958 56.472C305.134 56.488 305.286 56.52 305.414 56.568C305.542 56.6 305.654 56.648 305.75 56.712C305.814 56.744 305.878 56.784 305.942 56.832C306.006 56.88 306.07 56.936 306.134 57C306.214 57.064 306.286 57.136 306.35 57.216C306.43 57.296 306.51 57.384 306.59 57.48C306.67 57.576 306.75 57.68 306.83 57.792C307.022 58.08 307.182 58.344 307.31 58.584C307.454 58.808 307.55 59.016 307.598 59.208C307.63 59.304 307.758 59.688 307.982 60.36C308.11 60.744 308.174 61.52 308.174 62.688C308.174 63.84 308.11 64.584 307.982 64.92C307.822 65.272 307.742 65.568 307.742 65.808C307.742 66.144 307.622 66.744 307.382 67.608C307.254 68.04 307.126 68.432 306.998 68.784C306.87 69.12 306.734 69.424 306.59 69.696C306.366 70.144 306.102 70.552 305.798 70.92C305.51 71.288 305.182 71.616 304.814 71.904C304.094 72.48 303.43 72.736 302.822 72.672C302.182 72.592 301.566 72.352 300.974 71.952C300.398 71.552 299.966 71.064 299.678 70.488C299.55 70.232 299.438 69.992 299.342 69.768C299.246 69.544 299.166 69.344 299.102 69.168C298.99 68.784 298.91 68.344 298.862 67.848C298.814 67.352 298.79 66.712 298.79 65.928C298.79 64.584 298.862 63.624 299.006 63.048C299.166 62.472 299.614 61.464 300.35 60.024ZM305.966 58.992C305.662 58.464 305.318 58.104 304.934 57.912C304.502 57.656 304.118 57.72 303.782 58.104C303.606 58.328 303.438 58.44 303.278 58.44C303.246 58.44 303.206 58.448 303.158 58.464C303.11 58.464 303.062 58.48 303.014 58.512C302.982 58.528 302.942 58.552 302.894 58.584C302.846 58.6 302.798 58.632 302.75 58.68C302.718 58.712 302.678 58.752 302.63 58.8C302.438 59.04 302.062 59.688 301.502 60.744C300.942 61.816 300.63 62.544 300.566 62.928C300.534 62.992 300.502 63.072 300.47 63.168C300.454 63.248 300.43 63.36 300.398 63.504C300.334 63.776 300.278 63.96 300.23 64.056C300.102 64.52 300.07 65.32 300.134 66.456C300.214 67.576 300.358 68.416 300.566 68.976C300.822 69.808 301.222 70.424 301.766 70.824C302.31 71.208 302.886 71.304 303.494 71.112C303.91 70.968 304.382 70.536 304.91 69.816C305.454 69.096 305.742 68.512 305.774 68.064C305.774 67.856 305.838 67.648 305.966 67.44C306.094 67.216 306.158 66.936 306.158 66.6C306.158 66.296 306.246 65.968 306.422 65.616C306.566 65.28 306.662 64.52 306.71 63.336C306.758 62.136 306.718 61.272 306.59 60.744C306.478 60.104 306.27 59.52 305.966 58.992Z" fill="black"/>
<rect x="281" y="41" width="40" height="40" stroke="#7A7A7A"/>
<rect x="321" y="41" width="40" height="40" stroke="#7A7A7A"/>
<path d="M376.028 56.448C376.46 56.144 376.772 56.008 376.964 56.04H376.988C377.036 56.04 377.092 56.056 377.156 56.088C377.236 56.12 377.308 56.176 377.372 56.256C377.436 56.32 377.508 56.408 377.588 56.52C377.796 56.824 377.868 57.032 377.804 57.144V57.168C377.756 57.28 377.684 57.856 377.588 58.896C377.524 59.904 377.46 60.44 377.396 60.504C377.348 60.6 377.324 60.856 377.324 61.272C377.34 61.608 377.3 61.928 377.204 62.232C377.108 62.52 377.02 63.048 376.94 63.816C376.86 64.568 376.764 65.272 376.652 65.928C376.508 66.936 376.396 67.848 376.316 68.664C376.236 69.48 376.18 70.208 376.148 70.848C376.132 71.536 376.1 71.96 376.052 72.12C376.036 72.216 376.004 72.296 375.956 72.36C375.908 72.424 375.852 72.48 375.788 72.528C375.66 72.624 375.564 72.672 375.5 72.672C375.436 72.672 375.332 72.616 375.188 72.504H375.164C374.956 72.36 374.82 72.176 374.756 71.952C374.708 71.728 374.7 71.384 374.732 70.92C374.748 70.84 374.764 70.688 374.78 70.464C374.796 70.256 374.82 69.984 374.852 69.648C374.884 69.312 374.916 68.904 374.948 68.424C374.964 68.2 374.98 67.992 374.996 67.8C375.028 67.592 375.052 67.424 375.068 67.296C375.084 67.152 375.1 67.024 375.116 66.912C375.132 66.8 375.14 66.72 375.14 66.672C375.156 66.608 375.172 66.568 375.188 66.552C375.268 66.408 375.396 65.336 375.572 63.336C375.588 63.128 375.612 62.928 375.644 62.736C375.676 62.528 375.708 62.344 375.74 62.184C375.772 62.008 375.812 61.848 375.86 61.704C375.94 61.416 376.004 61.008 376.052 60.48C376.116 59.936 376.148 59.472 376.148 59.088C376.148 58.88 376.14 58.728 376.124 58.632C376.108 58.504 376.076 58.424 376.028 58.392L376.004 58.368C375.956 58.368 375.892 58.392 375.812 58.44C375.732 58.472 375.636 58.528 375.524 58.608C375.412 58.688 375.268 58.792 375.092 58.92C374.932 59.016 374.788 59.104 374.66 59.184C373.956 59.52 373.468 59.448 373.196 58.968C373.084 58.76 373.068 58.6 373.148 58.488C373.244 58.36 373.508 58.16 373.94 57.888C374.5 57.616 374.876 57.384 375.068 57.192C375.324 56.984 375.644 56.736 376.028 56.448ZM382.438 55.464C382.534 55.432 382.646 55.408 382.774 55.392C382.902 55.36 383.054 55.344 383.23 55.344C383.886 55.296 384.806 55.288 385.99 55.32H388.006L388.414 55.704C388.494 55.8 388.558 55.88 388.606 55.944C388.654 56.008 388.686 56.064 388.702 56.112C388.734 56.176 388.718 56.28 388.654 56.424C388.558 56.6 388.414 56.728 388.222 56.808C388.03 56.872 387.846 56.856 387.67 56.76C387.494 56.664 386.75 56.616 385.438 56.616H383.542L383.11 57.096C382.838 57.368 382.606 57.48 382.414 57.432C382.254 57.4 382.134 57.4 382.054 57.432C382.022 57.448 381.99 57.488 381.958 57.552C381.926 57.6 381.894 57.672 381.862 57.768C381.798 57.976 381.758 58.248 381.742 58.584C381.742 58.904 381.742 59.392 381.742 60.048C381.742 60.784 381.758 61.344 381.79 61.728C381.838 62.112 381.902 62.328 381.982 62.376C382.062 62.424 382.27 62.368 382.606 62.208C382.766 62.128 382.982 62.064 383.254 62.016C383.542 61.968 383.894 61.936 384.31 61.92C385.126 61.872 385.694 61.904 386.014 62.016C386.494 62.16 386.966 62.52 387.43 63.096C387.59 63.272 387.734 63.464 387.862 63.672C387.99 63.88 388.11 64.104 388.222 64.344C388.334 64.568 388.422 64.8 388.486 65.04C388.662 65.568 388.758 66.264 388.774 67.128C388.79 67.976 388.71 68.648 388.534 69.144C388.47 69.336 388.398 69.52 388.318 69.696C388.254 69.872 388.182 70.04 388.102 70.2C388.038 70.36 387.966 70.512 387.886 70.656C387.806 70.8 387.726 70.928 387.646 71.04C387.582 71.168 387.51 71.28 387.43 71.376C387.35 71.472 387.27 71.56 387.19 71.64C386.854 72.024 386.502 72.28 386.134 72.408C385.766 72.552 385.254 72.632 384.598 72.648C383.926 72.696 383.326 72.672 382.798 72.576C382.27 72.496 381.814 72.352 381.43 72.144C380.982 71.856 380.486 71.44 379.942 70.896C379.766 70.72 379.614 70.552 379.486 70.392C379.358 70.248 379.254 70.12 379.174 70.008C379.11 69.896 379.07 69.808 379.054 69.744V69.72L378.982 69.48C378.918 69.304 378.878 69.16 378.862 69.048C378.75 68.664 378.758 68.376 378.886 68.184C379.014 68.008 379.174 67.912 379.366 67.896C379.462 67.88 379.55 67.888 379.63 67.92C379.726 67.952 379.814 68.008 379.894 68.088C379.99 68.184 380.07 68.408 380.134 68.76C380.166 68.936 380.222 69.104 380.302 69.264C380.382 69.44 380.486 69.608 380.614 69.768C380.758 69.928 380.926 70.08 381.118 70.224C381.662 70.688 382.342 71.048 383.158 71.304C383.414 71.384 383.63 71.44 383.806 71.472C383.998 71.52 384.15 71.552 384.262 71.568C384.47 71.568 384.774 71.496 385.174 71.352C385.638 71.192 385.998 70.968 386.254 70.68C386.526 70.408 386.774 70 386.998 69.456C387.078 69.248 387.142 69.064 387.19 68.904C387.254 68.728 387.294 68.576 387.31 68.448C387.358 68.192 387.382 67.744 387.382 67.104C387.382 66.448 387.358 66.008 387.31 65.784C387.278 65.56 387.174 65.24 386.998 64.824C386.854 64.584 386.71 64.368 386.566 64.176C386.438 63.968 386.294 63.784 386.134 63.624C385.942 63.464 385.774 63.368 385.63 63.336C385.486 63.288 385.206 63.264 384.79 63.264C383.718 63.264 382.782 63.496 381.982 63.96C381.614 64.168 381.35 64.272 381.19 64.272C381.046 64.256 380.878 64.128 380.686 63.888L380.374 63.504V60.168C380.39 58.584 380.406 57.608 380.422 57.24C380.438 57.048 380.462 56.872 380.494 56.712C380.542 56.552 380.598 56.4 380.662 56.256C380.806 55.968 380.91 55.808 380.974 55.776C380.99 55.76 381.022 55.752 381.07 55.752C381.118 55.736 381.174 55.728 381.238 55.728C381.318 55.728 381.406 55.728 381.502 55.728C381.678 55.744 381.83 55.744 381.958 55.728C382.086 55.696 382.182 55.64 382.246 55.56C382.294 55.528 382.358 55.496 382.438 55.464Z" fill="black"/>
<rect x="361" y="41" width="40" height="40" stroke="#7A7A7A"/>
<rect x="401" y="41" width="40" height="40" stroke="#7A7A7A"/>
</svg>
