<svg width="442" height="124" viewBox="0 0 442 124" fill="none" xmlns="http://www.w3.org/2000/svg">
<path d="M16.608 57.488C16.816 57.376 17.216 57.288 17.808 57.224C18.544 57.128 19.824 57.088 21.648 57.104H24.312L24.576 57.416C24.736 57.656 24.784 57.856 24.72 58.016C24.688 58.128 24.608 58.296 24.48 58.52C24.352 58.728 24.176 59 23.952 59.336C23.488 59.992 23.04 60.56 22.608 61.04C22.048 61.68 21.624 62.176 21.336 62.528C21.064 62.88 20.928 63.088 20.928 63.152C20.928 63.248 21.088 63.312 21.408 63.344C22.016 63.456 22.832 63.856 23.856 64.544C24.24 64.8 24.56 65.064 24.816 65.336C25.088 65.608 25.288 65.88 25.416 66.152C25.688 66.696 25.824 67.496 25.824 68.552C25.84 69.336 25.792 69.944 25.68 70.376C25.632 70.6 25.552 70.856 25.44 71.144C25.328 71.432 25.184 71.76 25.008 72.128C24.56 73.024 23.872 73.72 22.944 74.216C22.864 74.248 22.792 74.28 22.728 74.312C22.68 74.344 22.624 74.368 22.56 74.384C22.496 74.416 22.44 74.44 22.392 74.456C22.344 74.488 22.296 74.512 22.248 74.528C22.2 74.544 22.152 74.552 22.104 74.552C22.056 74.568 22.016 74.576 21.984 74.576C21.744 74.608 21.136 74.632 20.16 74.648C19.232 74.68 18.648 74.68 18.408 74.648C18.28 74.632 18.144 74.6 18 74.552C17.856 74.504 17.696 74.44 17.52 74.36C16.912 74.088 16.448 73.76 16.128 73.376C15.824 73.008 15.608 72.496 15.48 71.84C15.352 71.264 15.32 70.864 15.384 70.64C15.464 70.416 15.656 70.304 15.96 70.304C16.264 70.304 16.472 70.432 16.584 70.688C16.712 70.944 16.776 71.208 16.776 71.48C16.776 72.344 17.328 72.944 18.432 73.28C18.96 73.472 19.656 73.528 20.52 73.448C21.4 73.368 22.112 73.184 22.656 72.896C22.912 72.752 23.184 72.472 23.472 72.056C23.776 71.656 24.016 71.224 24.192 70.76C24.384 70.248 24.48 69.576 24.48 68.744C24.48 67.624 24.288 66.816 23.904 66.32C23.776 66.16 23.536 65.952 23.184 65.696C22.848 65.424 22.64 65.288 22.56 65.288C22.512 65.288 22.432 65.264 22.32 65.216C22.224 65.168 22.096 65.088 21.936 64.976C21.728 64.832 21.528 64.744 21.336 64.712C21.16 64.68 20.744 64.672 20.088 64.688C19.704 64.704 19.384 64.704 19.128 64.688C18.888 64.672 18.712 64.648 18.6 64.616C18.504 64.568 18.432 64.504 18.384 64.424C18.336 64.344 18.312 64.232 18.312 64.088C18.312 63.848 18.736 63.296 19.584 62.432C21.424 60.496 22.472 59.296 22.728 58.832C22.792 58.72 22.792 58.6 22.728 58.472C22.68 58.328 22.184 58.288 21.24 58.352C18.888 58.448 17.504 58.56 17.088 58.688C16.96 58.72 16.84 58.72 16.728 58.688C16.68 58.672 16.64 58.648 16.608 58.616C16.576 58.584 16.544 58.552 16.512 58.52C16.48 58.488 16.448 58.456 16.416 58.424C16.32 58.312 16.272 58.192 16.272 58.064C16.272 58.016 16.272 57.976 16.272 57.944C16.288 57.896 16.304 57.856 16.32 57.824C16.336 57.776 16.352 57.736 16.368 57.704C16.384 57.672 16.4 57.648 16.416 57.632C16.448 57.6 16.48 57.576 16.512 57.56C16.544 57.528 16.576 57.504 16.608 57.488Z" fill="black"/>
<rect x="1" y="43" width="40" height="40" stroke="#7A7A7A"/>
<rect x="41" y="43" width="40" height="40" stroke="#7A7A7A"/>
<path d="M101.528 58.448C101.96 58.144 102.272 58.008 102.464 58.04H102.488C102.536 58.04 102.592 58.056 102.656 58.088C102.736 58.12 102.808 58.176 102.872 58.256C102.936 58.32 103.008 58.408 103.088 58.52C103.296 58.824 103.368 59.032 103.304 59.144V59.168C103.256 59.28 103.184 59.856 103.088 60.896C103.024 61.904 102.96 62.44 102.896 62.504C102.848 62.6 102.824 62.856 102.824 63.272C102.84 63.608 102.8 63.928 102.704 64.232C102.608 64.52 102.52 65.048 102.44 65.816C102.36 66.568 102.264 67.272 102.152 67.928C102.008 68.936 101.896 69.848 101.816 70.664C101.736 71.48 101.68 72.208 101.648 72.848C101.632 73.536 101.6 73.96 101.552 74.12C101.536 74.216 101.504 74.296 101.456 74.36C101.408 74.424 101.352 74.48 101.288 74.528C101.16 74.624 101.064 74.672 101 74.672C100.936 74.672 100.832 74.616 100.688 74.504H100.664C100.456 74.36 100.32 74.176 100.256 73.952C100.208 73.728 100.2 73.384 100.232 72.92C100.248 72.84 100.264 72.688 100.28 72.464C100.296 72.256 100.32 71.984 100.352 71.648C100.384 71.312 100.416 70.904 100.448 70.424C100.464 70.2 100.48 69.992 100.496 69.8C100.528 69.592 100.552 69.424 100.568 69.296C100.584 69.152 100.6 69.024 100.616 68.912C100.632 68.8 100.64 68.72 100.64 68.672C100.656 68.608 100.672 68.568 100.688 68.552C100.768 68.408 100.896 67.336 101.072 65.336C101.088 65.128 101.112 64.928 101.144 64.736C101.176 64.528 101.208 64.344 101.24 64.184C101.272 64.008 101.312 63.848 101.36 63.704C101.44 63.416 101.504 63.008 101.552 62.48C101.616 61.936 101.648 61.472 101.648 61.088C101.648 60.88 101.64 60.728 101.624 60.632C101.608 60.504 101.576 60.424 101.528 60.392L101.504 60.368C101.456 60.368 101.392 60.392 101.312 60.44C101.232 60.472 101.136 60.528 101.024 60.608C100.912 60.688 100.768 60.792 100.592 60.92C100.432 61.016 100.288 61.104 100.16 61.184C99.456 61.52 98.968 61.448 98.696 60.968C98.584 60.76 98.568 60.6 98.648 60.488C98.744 60.36 99.008 60.16 99.44 59.888C100 59.616 100.376 59.384 100.568 59.192C100.824 58.984 101.144 58.736 101.528 58.448Z" fill="black"/>
<rect x="81" y="43" width="40" height="40" stroke="#7A7A7A"/>
<rect x="121" y="43" width="40" height="40" stroke="#7A7A7A"/>
<path d="M173.84 67.64C173.792 67.624 173.744 67.6 173.696 67.568C173.648 67.52 173.6 67.456 173.552 67.376C173.36 67.152 173.312 66.928 173.408 66.704C173.44 66.64 173.488 66.568 173.552 66.488C173.632 66.408 173.72 66.328 173.816 66.248C173.928 66.152 174.056 66.048 174.2 65.936C176.568 64.336 178.376 62.536 179.624 60.536C179.832 60.2 180.048 59.896 180.272 59.624C180.544 59.32 180.896 58.84 181.328 58.184C181.792 57.464 182.096 57.032 182.24 56.888C182.368 56.712 182.544 56.64 182.768 56.672C183.008 56.688 183.192 56.792 183.32 56.984C183.4 57.128 183.432 57.248 183.416 57.344C183.416 57.424 183.32 57.6 183.128 57.872C182.52 58.784 181.968 59.56 181.472 60.2C181.088 60.728 180.784 61.152 180.56 61.472C180.304 61.856 180.008 62.256 179.672 62.672C179.352 63.088 178.992 63.52 178.592 63.968C178.384 64.208 178.192 64.416 178.016 64.592C177.856 64.768 177.704 64.928 177.56 65.072C177.416 65.2 177.288 65.312 177.176 65.408C177.08 65.488 176.992 65.552 176.912 65.6C176.704 65.696 176.592 65.776 176.576 65.84C176.656 65.92 177.832 65.952 180.104 65.936L183.632 65.912L183.656 61.688C183.672 59.672 183.696 58.448 183.728 58.016C183.744 57.6 183.816 57.336 183.944 57.224C184.088 57.08 184.256 57.032 184.448 57.08C184.656 57.112 184.808 57.2 184.904 57.344C184.968 57.488 185.008 58.928 185.024 61.664L185.096 65.72L185.384 65.96C185.48 66.04 185.6 66.096 185.744 66.128C185.888 66.16 186.064 66.184 186.272 66.2C186.48 66.2 186.656 66.192 186.8 66.176C186.96 66.144 187.08 66.096 187.16 66.032C187.176 66.016 187.192 66.008 187.208 66.008C187.24 65.992 187.28 65.976 187.328 65.96C187.392 65.944 187.448 65.928 187.496 65.912C187.56 65.896 187.616 65.88 187.664 65.864C187.728 65.848 187.768 65.84 187.784 65.84C187.928 65.84 188.048 65.872 188.144 65.936C188.256 66 188.336 66.096 188.384 66.224C188.48 66.384 188.528 66.504 188.528 66.584C188.528 66.664 188.48 66.76 188.384 66.872C188.112 67.32 187.416 67.488 186.296 67.376C185.704 67.312 185.344 67.328 185.216 67.424C185.104 67.52 185.048 68.528 185.048 70.448C185.048 71.28 185.064 71.992 185.096 72.584C185.096 72.872 185.104 73.096 185.12 73.256C185.136 73.432 185.152 73.536 185.168 73.568C185.328 73.84 185.272 74.12 185 74.408C184.872 74.552 184.744 74.632 184.616 74.648C184.488 74.68 184.36 74.656 184.232 74.576C184.168 74.544 184.112 74.504 184.064 74.456C184.016 74.408 183.976 74.352 183.944 74.288C183.896 74.16 183.848 73.936 183.8 73.616C183.768 73.296 183.744 72.904 183.728 72.44C183.728 71.976 183.728 71.312 183.728 70.448L183.68 67.328H180.536C178.232 67.328 176.176 67.432 174.368 67.64C174.288 67.656 174.216 67.664 174.152 67.664C174.088 67.664 174.024 67.664 173.96 67.664C173.912 67.664 173.872 67.656 173.84 67.64Z" fill="black"/>
<rect x="161" y="43" width="40" height="40" stroke="#7A7A7A"/>
<rect x="201" y="43" width="40" height="40" stroke="#7A7A7A"/>
<path d="M251.564 59.984C251.836 59.552 252.188 59.16 252.62 58.808C253.052 58.44 253.556 58.12 254.132 57.848C254.98 57.432 255.692 57.272 256.268 57.368C256.844 57.448 257.412 57.8 257.972 58.424C258.212 58.696 258.404 58.952 258.548 59.192C258.708 59.432 258.82 59.656 258.884 59.864C259.028 60.28 259.1 61.024 259.1 62.096C259.1 62.976 259.076 63.552 259.028 63.824C258.996 64.096 258.916 64.36 258.788 64.616C258.596 64.984 258.34 65.384 258.02 65.816C257.94 65.928 257.86 66.032 257.78 66.128C257.7 66.224 257.62 66.312 257.54 66.392C257.476 66.472 257.412 66.544 257.348 66.608C257.284 66.672 257.22 66.728 257.156 66.776C256.772 67.112 256.108 67.584 255.164 68.192C254.7 68.496 254.316 68.736 254.012 68.912C253.708 69.088 253.484 69.2 253.34 69.248C253.228 69.296 253.124 69.344 253.028 69.392C252.932 69.424 252.844 69.456 252.764 69.488C252.7 69.52 252.644 69.552 252.596 69.584C252.564 69.6 252.492 69.624 252.38 69.656C252.284 69.672 252.156 69.696 251.996 69.728C251.644 69.808 251.412 69.96 251.3 70.184C251.268 70.264 251.236 70.368 251.204 70.496C251.188 70.608 251.172 70.752 251.156 70.928C251.156 71.088 251.156 71.272 251.156 71.48C251.156 72.2 251.188 72.616 251.252 72.728C251.316 72.84 251.692 72.856 252.38 72.776C253.116 72.68 254.596 72.632 256.82 72.632L260.276 72.584L260.42 72.872C260.468 72.952 260.492 73.04 260.492 73.136C260.492 73.232 260.476 73.328 260.444 73.424C260.428 73.488 260.396 73.544 260.348 73.592C260.316 73.656 260.268 73.704 260.204 73.736C260.156 73.784 260.1 73.824 260.036 73.856C259.908 73.92 258.532 73.984 255.908 74.048C254.004 74.064 252.788 74.104 252.26 74.168C252.004 74.2 251.756 74.24 251.516 74.288C251.292 74.352 251.076 74.44 250.868 74.552C250.484 74.744 250.204 74.72 250.028 74.48C249.98 74.432 249.94 74.184 249.908 73.736C249.892 73.288 249.876 72.656 249.86 71.84C249.86 71.28 249.86 70.808 249.86 70.424C249.86 70.024 249.868 69.704 249.884 69.464C249.916 69.224 249.94 69.072 249.956 69.008C250.052 68.72 250.172 68.536 250.316 68.456C250.46 68.376 250.7 68.352 251.036 68.384C251.66 68.464 252.556 68.184 253.724 67.544C255.612 66.456 256.828 65.376 257.372 64.304C257.548 63.952 257.66 63.664 257.708 63.44C257.724 63.392 257.732 63.328 257.732 63.248C257.748 63.168 257.756 63.072 257.756 62.96C257.772 62.848 257.78 62.72 257.78 62.576C257.78 62.432 257.78 62.272 257.78 62.096C257.78 61.168 257.668 60.496 257.444 60.08C257.3 59.712 257.1 59.392 256.844 59.12C256.764 59.04 256.684 58.968 256.604 58.904C256.524 58.84 256.444 58.784 256.364 58.736C256.284 58.688 256.212 58.656 256.148 58.64C256.004 58.608 255.82 58.616 255.596 58.664C255.372 58.712 255.108 58.808 254.804 58.952C254.196 59.24 253.7 59.584 253.316 59.984C252.98 60.304 252.764 60.56 252.668 60.752C252.588 60.944 252.58 61.144 252.644 61.352C252.692 61.48 252.724 61.6 252.74 61.712C252.756 61.824 252.748 61.928 252.716 62.024C252.7 62.104 252.66 62.176 252.596 62.24C252.308 62.528 251.956 62.472 251.54 62.072C251.012 61.544 251.02 60.848 251.564 59.984ZM262.908 59.984C263.18 59.552 263.532 59.16 263.964 58.808C264.396 58.44 264.9 58.12 265.476 57.848C266.324 57.432 267.036 57.272 267.612 57.368C268.188 57.448 268.756 57.8 269.316 58.424C269.556 58.696 269.748 58.952 269.892 59.192C270.052 59.432 270.164 59.656 270.228 59.864C270.372 60.28 270.444 61.024 270.444 62.096C270.444 62.976 270.42 63.552 270.372 63.824C270.34 64.096 270.26 64.36 270.132 64.616C269.94 64.984 269.684 65.384 269.364 65.816C269.284 65.928 269.204 66.032 269.124 66.128C269.044 66.224 268.964 66.312 268.884 66.392C268.82 66.472 268.756 66.544 268.692 66.608C268.628 66.672 268.564 66.728 268.5 66.776C268.116 67.112 267.452 67.584 266.508 68.192C266.044 68.496 265.66 68.736 265.356 68.912C265.052 69.088 264.828 69.2 264.684 69.248C264.572 69.296 264.468 69.344 264.372 69.392C264.276 69.424 264.188 69.456 264.108 69.488C264.044 69.52 263.988 69.552 263.94 69.584C263.908 69.6 263.836 69.624 263.724 69.656C263.628 69.672 263.5 69.696 263.34 69.728C262.988 69.808 262.756 69.96 262.644 70.184C262.612 70.264 262.58 70.368 262.548 70.496C262.532 70.608 262.516 70.752 262.5 70.928C262.5 71.088 262.5 71.272 262.5 71.48C262.5 72.2 262.532 72.616 262.596 72.728C262.66 72.84 263.036 72.856 263.724 72.776C264.46 72.68 265.94 72.632 268.164 72.632L271.62 72.584L271.764 72.872C271.812 72.952 271.836 73.04 271.836 73.136C271.836 73.232 271.82 73.328 271.788 73.424C271.772 73.488 271.74 73.544 271.692 73.592C271.66 73.656 271.612 73.704 271.548 73.736C271.5 73.784 271.444 73.824 271.38 73.856C271.252 73.92 269.876 73.984 267.252 74.048C265.348 74.064 264.132 74.104 263.604 74.168C263.348 74.2 263.1 74.24 262.86 74.288C262.636 74.352 262.42 74.44 262.212 74.552C261.828 74.744 261.548 74.72 261.372 74.48C261.324 74.432 261.284 74.184 261.252 73.736C261.236 73.288 261.22 72.656 261.204 71.84C261.204 71.28 261.204 70.808 261.204 70.424C261.204 70.024 261.212 69.704 261.228 69.464C261.26 69.224 261.284 69.072 261.3 69.008C261.396 68.72 261.516 68.536 261.66 68.456C261.804 68.376 262.044 68.352 262.38 68.384C263.004 68.464 263.9 68.184 265.068 67.544C266.956 66.456 268.172 65.376 268.716 64.304C268.892 63.952 269.004 63.664 269.052 63.44C269.068 63.392 269.076 63.328 269.076 63.248C269.092 63.168 269.1 63.072 269.1 62.96C269.116 62.848 269.124 62.72 269.124 62.576C269.124 62.432 269.124 62.272 269.124 62.096C269.124 61.168 269.012 60.496 268.788 60.08C268.644 59.712 268.444 59.392 268.188 59.12C268.108 59.04 268.028 58.968 267.948 58.904C267.868 58.84 267.788 58.784 267.708 58.736C267.628 58.688 267.556 58.656 267.492 58.64C267.348 58.608 267.164 58.616 266.94 58.664C266.716 58.712 266.452 58.808 266.148 58.952C265.54 59.24 265.044 59.584 264.66 59.984C264.324 60.304 264.108 60.56 264.012 60.752C263.932 60.944 263.924 61.144 263.988 61.352C264.036 61.48 264.068 61.6 264.084 61.712C264.1 61.824 264.092 61.928 264.06 62.024C264.044 62.104 264.004 62.176 263.94 62.24C263.652 62.528 263.3 62.472 262.884 62.072C262.356 61.544 262.364 60.848 262.908 59.984Z" fill="black"/>
<rect x="241" y="43" width="40" height="40" stroke="#7A7A7A"/>
<rect x="281" y="43" width="40" height="40" stroke="#7A7A7A"/>
<path d="M332.064 59.984C332.336 59.552 332.688 59.16 333.12 58.808C333.552 58.44 334.056 58.12 334.632 57.848C335.48 57.432 336.192 57.272 336.768 57.368C337.344 57.448 337.912 57.8 338.472 58.424C338.712 58.696 338.904 58.952 339.048 59.192C339.208 59.432 339.32 59.656 339.384 59.864C339.528 60.28 339.6 61.024 339.6 62.096C339.6 62.976 339.576 63.552 339.528 63.824C339.496 64.096 339.416 64.36 339.288 64.616C339.096 64.984 338.84 65.384 338.52 65.816C338.44 65.928 338.36 66.032 338.28 66.128C338.2 66.224 338.12 66.312 338.04 66.392C337.976 66.472 337.912 66.544 337.848 66.608C337.784 66.672 337.72 66.728 337.656 66.776C337.272 67.112 336.608 67.584 335.664 68.192C335.2 68.496 334.816 68.736 334.512 68.912C334.208 69.088 333.984 69.2 333.84 69.248C333.728 69.296 333.624 69.344 333.528 69.392C333.432 69.424 333.344 69.456 333.264 69.488C333.2 69.52 333.144 69.552 333.096 69.584C333.064 69.6 332.992 69.624 332.88 69.656C332.784 69.672 332.656 69.696 332.496 69.728C332.144 69.808 331.912 69.96 331.8 70.184C331.768 70.264 331.736 70.368 331.704 70.496C331.688 70.608 331.672 70.752 331.656 70.928C331.656 71.088 331.656 71.272 331.656 71.48C331.656 72.2 331.688 72.616 331.752 72.728C331.816 72.84 332.192 72.856 332.88 72.776C333.616 72.68 335.096 72.632 337.32 72.632L340.776 72.584L340.92 72.872C340.968 72.952 340.992 73.04 340.992 73.136C340.992 73.232 340.976 73.328 340.944 73.424C340.928 73.488 340.896 73.544 340.848 73.592C340.816 73.656 340.768 73.704 340.704 73.736C340.656 73.784 340.6 73.824 340.536 73.856C340.408 73.92 339.032 73.984 336.408 74.048C334.504 74.064 333.288 74.104 332.76 74.168C332.504 74.2 332.256 74.24 332.016 74.288C331.792 74.352 331.576 74.44 331.368 74.552C330.984 74.744 330.704 74.72 330.528 74.48C330.48 74.432 330.44 74.184 330.408 73.736C330.392 73.288 330.376 72.656 330.36 71.84C330.36 71.28 330.36 70.808 330.36 70.424C330.36 70.024 330.368 69.704 330.384 69.464C330.416 69.224 330.44 69.072 330.456 69.008C330.552 68.72 330.672 68.536 330.816 68.456C330.96 68.376 331.2 68.352 331.536 68.384C332.16 68.464 333.056 68.184 334.224 67.544C336.112 66.456 337.328 65.376 337.872 64.304C338.048 63.952 338.16 63.664 338.208 63.44C338.224 63.392 338.232 63.328 338.232 63.248C338.248 63.168 338.256 63.072 338.256 62.96C338.272 62.848 338.28 62.72 338.28 62.576C338.28 62.432 338.28 62.272 338.28 62.096C338.28 61.168 338.168 60.496 337.944 60.08C337.8 59.712 337.6 59.392 337.344 59.12C337.264 59.04 337.184 58.968 337.104 58.904C337.024 58.84 336.944 58.784 336.864 58.736C336.784 58.688 336.712 58.656 336.648 58.64C336.504 58.608 336.32 58.616 336.096 58.664C335.872 58.712 335.608 58.808 335.304 58.952C334.696 59.24 334.2 59.584 333.816 59.984C333.48 60.304 333.264 60.56 333.168 60.752C333.088 60.944 333.08 61.144 333.144 61.352C333.192 61.48 333.224 61.6 333.24 61.712C333.256 61.824 333.248 61.928 333.216 62.024C333.2 62.104 333.16 62.176 333.096 62.24C332.808 62.528 332.456 62.472 332.04 62.072C331.512 61.544 331.52 60.848 332.064 59.984ZM343.264 62.024C344.16 60.2 345 59.096 345.784 58.712C346.152 58.52 346.656 58.424 347.296 58.424C347.504 58.424 347.696 58.44 347.872 58.472C348.048 58.488 348.2 58.52 348.328 58.568C348.456 58.6 348.568 58.648 348.664 58.712C348.728 58.744 348.792 58.784 348.856 58.832C348.92 58.88 348.984 58.936 349.048 59C349.128 59.064 349.2 59.136 349.264 59.216C349.344 59.296 349.424 59.384 349.504 59.48C349.584 59.576 349.664 59.68 349.744 59.792C349.936 60.08 350.096 60.344 350.224 60.584C350.368 60.808 350.464 61.016 350.512 61.208C350.544 61.304 350.672 61.688 350.896 62.36C351.024 62.744 351.088 63.52 351.088 64.688C351.088 65.84 351.024 66.584 350.896 66.92C350.736 67.272 350.656 67.568 350.656 67.808C350.656 68.144 350.536 68.744 350.296 69.608C350.168 70.04 350.04 70.432 349.912 70.784C349.784 71.12 349.648 71.424 349.504 71.696C349.28 72.144 349.016 72.552 348.712 72.92C348.424 73.288 348.096 73.616 347.728 73.904C347.008 74.48 346.344 74.736 345.736 74.672C345.096 74.592 344.48 74.352 343.888 73.952C343.312 73.552 342.88 73.064 342.592 72.488C342.464 72.232 342.352 71.992 342.256 71.768C342.16 71.544 342.08 71.344 342.016 71.168C341.904 70.784 341.824 70.344 341.776 69.848C341.728 69.352 341.704 68.712 341.704 67.928C341.704 66.584 341.776 65.624 341.92 65.048C342.08 64.472 342.528 63.464 343.264 62.024ZM348.88 60.992C348.576 60.464 348.232 60.104 347.848 59.912C347.416 59.656 347.032 59.72 346.696 60.104C346.52 60.328 346.352 60.44 346.192 60.44C346.16 60.44 346.12 60.448 346.072 60.464C346.024 60.464 345.976 60.48 345.928 60.512C345.896 60.528 345.856 60.552 345.808 60.584C345.76 60.6 345.712 60.632 345.664 60.68C345.632 60.712 345.592 60.752 345.544 60.8C345.352 61.04 344.976 61.688 344.416 62.744C343.856 63.816 343.544 64.544 343.48 64.928C343.448 64.992 343.416 65.072 343.384 65.168C343.368 65.248 343.344 65.36 343.312 65.504C343.248 65.776 343.192 65.96 343.144 66.056C343.016 66.52 342.984 67.32 343.048 68.456C343.128 69.576 343.272 70.416 343.48 70.976C343.736 71.808 344.136 72.424 344.68 72.824C345.224 73.208 345.8 73.304 346.408 73.112C346.824 72.968 347.296 72.536 347.824 71.816C348.368 71.096 348.656 70.512 348.688 70.064C348.688 69.856 348.752 69.648 348.88 69.44C349.008 69.216 349.072 68.936 349.072 68.6C349.072 68.296 349.16 67.968 349.336 67.616C349.48 67.28 349.576 66.52 349.624 65.336C349.672 64.136 349.632 63.272 349.504 62.744C349.392 62.104 349.184 61.52 348.88 60.992Z" fill="black"/>
<rect x="321" y="43" width="40" height="40" stroke="#7A7A7A"/>
<rect x="361" y="43" width="40" height="40" stroke="#7A7A7A"/>
<path d="M416.028 58.448C416.46 58.144 416.772 58.008 416.964 58.04H416.988C417.036 58.04 417.092 58.056 417.156 58.088C417.236 58.12 417.308 58.176 417.372 58.256C417.436 58.32 417.508 58.408 417.588 58.52C417.796 58.824 417.868 59.032 417.804 59.144V59.168C417.756 59.28 417.684 59.856 417.588 60.896C417.524 61.904 417.46 62.44 417.396 62.504C417.348 62.6 417.324 62.856 417.324 63.272C417.34 63.608 417.3 63.928 417.204 64.232C417.108 64.52 417.02 65.048 416.94 65.816C416.86 66.568 416.764 67.272 416.652 67.928C416.508 68.936 416.396 69.848 416.316 70.664C416.236 71.48 416.18 72.208 416.148 72.848C416.132 73.536 416.1 73.96 416.052 74.12C416.036 74.216 416.004 74.296 415.956 74.36C415.908 74.424 415.852 74.48 415.788 74.528C415.66 74.624 415.564 74.672 415.5 74.672C415.436 74.672 415.332 74.616 415.188 74.504H415.164C414.956 74.36 414.82 74.176 414.756 73.952C414.708 73.728 414.7 73.384 414.732 72.92C414.748 72.84 414.764 72.688 414.78 72.464C414.796 72.256 414.82 71.984 414.852 71.648C414.884 71.312 414.916 70.904 414.948 70.424C414.964 70.2 414.98 69.992 414.996 69.8C415.028 69.592 415.052 69.424 415.068 69.296C415.084 69.152 415.1 69.024 415.116 68.912C415.132 68.8 415.14 68.72 415.14 68.672C415.156 68.608 415.172 68.568 415.188 68.552C415.268 68.408 415.396 67.336 415.572 65.336C415.588 65.128 415.612 64.928 415.644 64.736C415.676 64.528 415.708 64.344 415.74 64.184C415.772 64.008 415.812 63.848 415.86 63.704C415.94 63.416 416.004 63.008 416.052 62.48C416.116 61.936 416.148 61.472 416.148 61.088C416.148 60.88 416.14 60.728 416.124 60.632C416.108 60.504 416.076 60.424 416.028 60.392L416.004 60.368C415.956 60.368 415.892 60.392 415.812 60.44C415.732 60.472 415.636 60.528 415.524 60.608C415.412 60.688 415.268 60.792 415.092 60.92C414.932 61.016 414.788 61.104 414.66 61.184C413.956 61.52 413.468 61.448 413.196 60.968C413.084 60.76 413.068 60.6 413.148 60.488C413.244 60.36 413.508 60.16 413.94 59.888C414.5 59.616 414.876 59.384 415.068 59.192C415.324 58.984 415.644 58.736 416.028 58.448ZM423.038 64.76C423.262 64.68 423.766 64.64 424.55 64.64C425.35 64.64 425.862 64.68 426.086 64.76C426.262 64.808 426.502 64.864 426.806 64.928C427.062 64.96 427.382 65.152 427.766 65.504C428.15 65.84 428.438 66.192 428.63 66.56C428.678 66.672 428.718 66.784 428.75 66.896C428.798 66.992 428.822 67.088 428.822 67.184C428.838 67.392 428.83 67.792 428.798 68.384C428.782 69.28 428.718 69.96 428.606 70.424C428.51 70.76 428.334 71.2 428.078 71.744C427.822 72.304 427.574 72.768 427.334 73.136C427.158 73.376 426.886 73.64 426.518 73.928C426.326 74.056 426.134 74.168 425.942 74.264C425.766 74.376 425.598 74.464 425.438 74.528C425.31 74.592 425.182 74.632 425.054 74.648C424.942 74.664 424.822 74.672 424.694 74.672C424.486 74.656 423.966 74.568 423.134 74.408C422.766 74.328 422.278 74.008 421.67 73.448C421.078 72.888 420.598 72.304 420.23 71.696C419.766 70.912 419.358 69.936 419.006 68.768C418.846 68.32 418.774 67.32 418.79 65.768C418.806 64.712 418.83 64.008 418.862 63.656C418.894 63.288 418.966 62.88 419.078 62.432C419.558 60.656 420.206 59.2 421.022 58.064C421.23 57.76 421.638 57.312 422.246 56.72C422.854 56.128 423.222 55.832 423.35 55.832C423.446 55.832 423.534 55.784 423.614 55.688C423.726 55.56 424.078 55.496 424.67 55.496C425.262 55.496 425.702 55.552 425.99 55.664C426.374 55.824 426.694 55.984 426.95 56.144C427.222 56.304 427.446 56.464 427.622 56.624C428.118 57.152 428.302 57.864 428.174 58.76C428.11 59.144 428.078 59.408 428.078 59.552V59.576C428.062 59.736 427.958 59.856 427.766 59.936C427.654 59.984 427.542 60 427.43 59.984C427.334 59.952 427.23 59.888 427.118 59.792C426.974 59.664 426.886 59.528 426.854 59.384C426.822 59.256 426.806 58.984 426.806 58.568C426.806 58.264 426.79 58.024 426.758 57.848C426.726 57.656 426.686 57.528 426.638 57.464C426.51 57.336 426.278 57.2 425.942 57.056C425.606 56.912 425.278 56.816 424.958 56.768C424.638 56.72 424.294 56.792 423.926 56.984C423.59 57.192 423.238 57.48 422.87 57.848C422.518 58.216 422.158 58.68 421.79 59.24C421.71 59.336 421.638 59.432 421.574 59.528C421.526 59.624 421.486 59.696 421.454 59.744C421.422 59.792 421.406 59.824 421.406 59.84C421.39 59.904 421.334 60.04 421.238 60.248C420.79 61.272 420.502 62.064 420.374 62.624C420.246 63.168 420.166 63.928 420.134 64.904C420.086 65.672 420.07 66.168 420.086 66.392L420.134 66.656C420.214 66.656 420.35 66.512 420.542 66.224C420.942 65.6 421.502 65.184 422.222 64.976C422.286 64.96 422.358 64.944 422.438 64.928C422.518 64.912 422.606 64.888 422.702 64.856C422.814 64.824 422.926 64.792 423.038 64.76ZM427.55 67.832C427.486 67.16 427.166 66.64 426.59 66.272C426.542 66.24 426.47 66.216 426.374 66.2C426.278 66.168 426.15 66.144 425.99 66.128C425.846 66.112 425.67 66.096 425.462 66.08C425.254 66.064 425.022 66.056 424.766 66.056C424.142 66.04 423.686 66.04 423.398 66.056C423.238 66.056 423.094 66.072 422.966 66.104C422.854 66.12 422.75 66.144 422.654 66.176C422.574 66.208 422.486 66.248 422.39 66.296C422.294 66.344 422.206 66.408 422.126 66.488C421.662 66.84 421.358 67.296 421.214 67.856C421.102 68.192 420.926 68.456 420.686 68.648C420.654 68.696 420.614 68.736 420.566 68.768C420.534 68.8 420.51 68.832 420.494 68.864C420.478 68.88 420.47 68.896 420.47 68.912C420.454 68.928 420.446 68.976 420.446 69.056C420.462 69.12 420.486 69.2 420.518 69.296C420.55 69.424 420.598 69.568 420.662 69.728C420.726 69.872 420.806 70.032 420.902 70.208C421.078 70.576 421.278 70.928 421.502 71.264C421.742 71.616 421.966 71.92 422.174 72.176C422.574 72.592 422.942 72.888 423.278 73.064C423.39 73.112 423.51 73.152 423.638 73.184C423.766 73.232 423.902 73.264 424.046 73.28C424.19 73.312 424.342 73.328 424.502 73.328C424.934 73.36 425.278 73.28 425.534 73.088C425.646 73.008 425.774 72.88 425.918 72.704C426.062 72.544 426.222 72.344 426.398 72.104C426.75 71.608 426.966 71.208 427.046 70.904C427.462 69.528 427.63 68.504 427.55 67.832Z" fill="black"/>
<rect x="401" y="43" width="40" height="40" stroke="#7A7A7A"/>
<rect x="1" y="83" width="40" height="40" stroke="#7A7A7A"/>
<path d="M59.204 97.608C59.348 97.608 59.436 97.56 59.468 97.464C59.516 97.384 59.764 97.344 60.212 97.344C60.404 97.344 60.556 97.352 60.668 97.368C60.7 97.384 60.732 97.4 60.764 97.416C60.796 97.416 60.828 97.424 60.86 97.44C60.892 97.44 60.916 97.448 60.932 97.464C61.012 97.512 61.108 97.592 61.22 97.704C61.46 97.944 61.732 98.12 62.036 98.232C62.116 98.248 62.268 98.288 62.492 98.352C62.572 98.368 62.644 98.384 62.708 98.4C62.772 98.416 62.82 98.432 62.852 98.448C62.9 98.464 62.94 98.472 62.972 98.472C63.084 98.52 63.196 98.576 63.308 98.64C63.42 98.688 63.532 98.76 63.644 98.856C63.756 98.936 63.876 99.032 64.004 99.144C64.356 99.464 64.596 99.784 64.724 100.104C64.98 100.712 65.02 101.4 64.844 102.168C64.684 102.92 64.34 103.584 63.812 104.16C63.396 104.592 63.188 104.856 63.188 104.952C63.188 105 63.22 105.048 63.284 105.096C63.348 105.144 63.436 105.192 63.548 105.24C63.692 105.304 63.836 105.376 63.98 105.456C64.124 105.536 64.268 105.624 64.412 105.72C64.476 105.752 64.532 105.792 64.58 105.84C64.628 105.872 64.676 105.904 64.724 105.936C64.772 105.968 64.82 106 64.868 106.032C64.916 106.064 64.964 106.104 65.012 106.152C65.06 106.184 65.1 106.216 65.132 106.248C65.18 106.28 65.228 106.32 65.276 106.368C65.356 106.432 65.428 106.496 65.492 106.56C65.556 106.624 65.612 106.688 65.66 106.752C65.708 106.8 65.748 106.84 65.78 106.872C66.292 107.784 66.468 108.768 66.308 109.824C66.164 110.88 65.684 111.896 64.868 112.872C64.74 113.048 64.612 113.192 64.484 113.304C64.372 113.432 64.26 113.536 64.148 113.616C63.924 113.776 63.588 113.968 63.14 114.192C62.612 114.432 62.244 114.568 62.036 114.6C61.956 114.616 61.852 114.624 61.724 114.624C61.596 114.64 61.436 114.648 61.244 114.648C61.068 114.664 60.852 114.672 60.596 114.672C58.628 114.672 57.068 114.16 55.916 113.136C55.756 113.008 55.612 112.872 55.484 112.728C55.372 112.6 55.276 112.472 55.196 112.344C55.116 112.216 55.052 112.096 55.004 111.984C54.876 111.632 54.836 111.104 54.884 110.4C54.884 110.144 54.892 109.92 54.908 109.728C54.94 109.52 54.972 109.352 55.004 109.224C55.052 109.096 55.116 108.936 55.196 108.744C55.276 108.536 55.38 108.296 55.508 108.024C55.572 107.864 55.644 107.712 55.724 107.568C55.804 107.408 55.884 107.264 55.964 107.136C56.06 106.992 56.148 106.864 56.228 106.752C56.324 106.624 56.412 106.504 56.492 106.392C56.588 106.28 56.684 106.176 56.78 106.08C56.876 105.984 56.972 105.896 57.068 105.816C57.18 105.72 57.284 105.632 57.38 105.552C57.492 105.472 57.604 105.4 57.716 105.336C57.956 105.208 58.124 105.104 58.22 105.024C58.332 104.944 58.38 104.88 58.364 104.832C58.348 104.72 58.14 104.568 57.74 104.376C57.324 104.152 56.988 103.912 56.732 103.656C56.492 103.4 56.324 103.128 56.228 102.84C56.132 102.536 56.108 102.072 56.156 101.448C56.236 100.376 56.604 99.528 57.26 98.904C57.436 98.76 57.66 98.576 57.932 98.352C58.22 98.128 58.492 97.944 58.748 97.8C58.86 97.736 58.956 97.688 59.036 97.656C59.116 97.624 59.172 97.608 59.204 97.608ZM61.052 99.48C60.396 99.48 60.044 99.448 59.996 99.384C59.804 99.128 59.548 99.04 59.228 99.12C59.068 99.168 58.9 99.248 58.724 99.36C58.564 99.472 58.396 99.632 58.22 99.84C58.044 100.032 57.9 100.24 57.788 100.464C57.676 100.672 57.588 100.888 57.524 101.112C57.444 101.496 57.404 101.752 57.404 101.88C57.404 101.944 57.412 102.024 57.428 102.12C57.46 102.2 57.508 102.296 57.572 102.408C57.604 102.504 57.652 102.6 57.716 102.696C57.78 102.776 57.852 102.848 57.932 102.912C58.076 103.04 58.356 103.192 58.772 103.368C59.38 103.688 59.772 103.848 59.948 103.848C60.14 103.848 60.364 103.904 60.62 104.016C60.764 104.064 60.916 104.088 61.076 104.088C61.236 104.088 61.42 104.064 61.628 104.016C62.028 103.936 62.34 103.784 62.564 103.56C62.612 103.528 62.652 103.488 62.684 103.44C62.732 103.392 62.772 103.344 62.804 103.296C62.852 103.248 62.892 103.2 62.924 103.152C62.972 103.088 63.012 103.032 63.044 102.984C63.092 102.92 63.14 102.856 63.188 102.792C63.38 102.472 63.476 102.232 63.476 102.072C63.476 101.864 63.524 101.696 63.62 101.568C63.7 101.408 63.684 101.184 63.572 100.896C63.492 100.64 63.38 100.424 63.236 100.248C63.108 100.056 62.948 99.904 62.756 99.792C62.564 99.68 62.324 99.6 62.036 99.552C61.748 99.504 61.42 99.48 61.052 99.48ZM61.484 105.936C61.356 106 61.18 105.984 60.956 105.888C60.396 105.632 59.7 105.744 58.868 106.224C58.484 106.432 58.172 106.64 57.932 106.848C57.692 107.04 57.484 107.256 57.308 107.496C57.132 107.736 56.956 108.04 56.78 108.408C56.62 108.728 56.492 109.064 56.396 109.416C56.316 109.752 56.268 110.096 56.252 110.448L56.156 111.528L56.804 112.152C57.028 112.36 57.22 112.52 57.38 112.632C57.54 112.76 57.668 112.832 57.764 112.848C57.796 112.848 57.828 112.848 57.86 112.848C57.892 112.864 57.932 112.872 57.98 112.872C58.076 112.904 58.172 112.936 58.268 112.968C58.316 112.984 58.372 113 58.436 113.016C58.516 113.032 58.596 113.056 58.676 113.088C58.836 113.12 58.972 113.152 59.084 113.184C59.484 113.296 59.852 113.368 60.188 113.4C60.54 113.432 60.852 113.432 61.124 113.4C61.668 113.336 62.364 113.096 63.212 112.68C63.292 112.632 63.428 112.496 63.62 112.272C63.812 112.064 64.004 111.824 64.196 111.552C64.388 111.28 64.54 111.048 64.652 110.856C64.812 110.552 64.9 110.024 64.916 109.272C64.916 108.856 64.892 108.512 64.844 108.24C64.796 107.968 64.716 107.76 64.604 107.616C64.54 107.52 64.42 107.408 64.244 107.28C64.084 107.152 63.868 107.008 63.596 106.848C63.34 106.688 63.036 106.512 62.684 106.32C62.028 105.968 61.628 105.84 61.484 105.936Z" fill="black"/>
<rect x="41" y="83" width="40" height="40" stroke="#7A7A7A"/>
<rect x="81" y="83" width="40" height="40" stroke="#7A7A7A"/>
<path d="M137.42 102.024C138.316 100.2 139.156 99.096 139.94 98.712C140.308 98.52 140.812 98.424 141.452 98.424C141.66 98.424 141.852 98.44 142.028 98.472C142.204 98.488 142.356 98.52 142.484 98.568C142.612 98.6 142.724 98.648 142.82 98.712C142.884 98.744 142.948 98.784 143.012 98.832C143.076 98.88 143.14 98.936 143.204 99C143.284 99.064 143.356 99.136 143.42 99.216C143.5 99.296 143.58 99.384 143.66 99.48C143.74 99.576 143.82 99.68 143.9 99.792C144.092 100.08 144.252 100.344 144.38 100.584C144.524 100.808 144.62 101.016 144.668 101.208C144.7 101.304 144.828 101.688 145.052 102.36C145.18 102.744 145.244 103.52 145.244 104.688C145.244 105.84 145.18 106.584 145.052 106.92C144.892 107.272 144.812 107.568 144.812 107.808C144.812 108.144 144.692 108.744 144.452 109.608C144.324 110.04 144.196 110.432 144.068 110.784C143.94 111.12 143.804 111.424 143.66 111.696C143.436 112.144 143.172 112.552 142.868 112.92C142.58 113.288 142.252 113.616 141.884 113.904C141.164 114.48 140.5 114.736 139.892 114.672C139.252 114.592 138.636 114.352 138.044 113.952C137.468 113.552 137.036 113.064 136.748 112.488C136.62 112.232 136.508 111.992 136.412 111.768C136.316 111.544 136.236 111.344 136.172 111.168C136.06 110.784 135.98 110.344 135.932 109.848C135.884 109.352 135.86 108.712 135.86 107.928C135.86 106.584 135.932 105.624 136.076 105.048C136.236 104.472 136.684 103.464 137.42 102.024ZM143.036 100.992C142.732 100.464 142.388 100.104 142.004 99.912C141.572 99.656 141.188 99.72 140.852 100.104C140.676 100.328 140.508 100.44 140.348 100.44C140.316 100.44 140.276 100.448 140.228 100.464C140.18 100.464 140.132 100.48 140.084 100.512C140.052 100.528 140.012 100.552 139.964 100.584C139.916 100.6 139.868 100.632 139.82 100.68C139.788 100.712 139.748 100.752 139.7 100.8C139.508 101.04 139.132 101.688 138.572 102.744C138.012 103.816 137.7 104.544 137.636 104.928C137.604 104.992 137.572 105.072 137.54 105.168C137.524 105.248 137.5 105.36 137.468 105.504C137.404 105.776 137.348 105.96 137.3 106.056C137.172 106.52 137.14 107.32 137.204 108.456C137.284 109.576 137.428 110.416 137.636 110.976C137.892 111.808 138.292 112.424 138.836 112.824C139.38 113.208 139.956 113.304 140.564 113.112C140.98 112.968 141.452 112.536 141.98 111.816C142.524 111.096 142.812 110.512 142.844 110.064C142.844 109.856 142.908 109.648 143.036 109.44C143.164 109.216 143.228 108.936 143.228 108.6C143.228 108.296 143.316 107.968 143.492 107.616C143.636 107.28 143.732 106.52 143.78 105.336C143.828 104.136 143.788 103.272 143.66 102.744C143.548 102.104 143.34 101.52 143.036 100.992Z" fill="black"/>
<rect x="121" y="83" width="40" height="40" stroke="#7A7A7A"/>
<rect x="161" y="83" width="40" height="40" stroke="#7A7A7A"/>
<path d="M216.028 98.448C216.46 98.144 216.772 98.008 216.964 98.04H216.988C217.036 98.04 217.092 98.056 217.156 98.088C217.236 98.12 217.308 98.176 217.372 98.256C217.436 98.32 217.508 98.408 217.588 98.52C217.796 98.824 217.868 99.032 217.804 99.144V99.168C217.756 99.28 217.684 99.856 217.588 100.896C217.524 101.904 217.46 102.44 217.396 102.504C217.348 102.6 217.324 102.856 217.324 103.272C217.34 103.608 217.3 103.928 217.204 104.232C217.108 104.52 217.02 105.048 216.94 105.816C216.86 106.568 216.764 107.272 216.652 107.928C216.508 108.936 216.396 109.848 216.316 110.664C216.236 111.48 216.18 112.208 216.148 112.848C216.132 113.536 216.1 113.96 216.052 114.12C216.036 114.216 216.004 114.296 215.956 114.36C215.908 114.424 215.852 114.48 215.788 114.528C215.66 114.624 215.564 114.672 215.5 114.672C215.436 114.672 215.332 114.616 215.188 114.504H215.164C214.956 114.36 214.82 114.176 214.756 113.952C214.708 113.728 214.7 113.384 214.732 112.92C214.748 112.84 214.764 112.688 214.78 112.464C214.796 112.256 214.82 111.984 214.852 111.648C214.884 111.312 214.916 110.904 214.948 110.424C214.964 110.2 214.98 109.992 214.996 109.8C215.028 109.592 215.052 109.424 215.068 109.296C215.084 109.152 215.1 109.024 215.116 108.912C215.132 108.8 215.14 108.72 215.14 108.672C215.156 108.608 215.172 108.568 215.188 108.552C215.268 108.408 215.396 107.336 215.572 105.336C215.588 105.128 215.612 104.928 215.644 104.736C215.676 104.528 215.708 104.344 215.74 104.184C215.772 104.008 215.812 103.848 215.86 103.704C215.94 103.416 216.004 103.008 216.052 102.48C216.116 101.936 216.148 101.472 216.148 101.088C216.148 100.88 216.14 100.728 216.124 100.632C216.108 100.504 216.076 100.424 216.028 100.392L216.004 100.368C215.956 100.368 215.892 100.392 215.812 100.44C215.732 100.472 215.636 100.528 215.524 100.608C215.412 100.688 215.268 100.792 215.092 100.92C214.932 101.016 214.788 101.104 214.66 101.184C213.956 101.52 213.468 101.448 213.196 100.968C213.084 100.76 213.068 100.6 213.148 100.488C213.244 100.36 213.508 100.16 213.94 99.888C214.5 99.616 214.876 99.384 215.068 99.192C215.324 98.984 215.644 98.736 216.028 98.448ZM220.35 102.024C221.246 100.2 222.086 99.096 222.87 98.712C223.238 98.52 223.742 98.424 224.382 98.424C224.59 98.424 224.782 98.44 224.958 98.472C225.134 98.488 225.286 98.52 225.414 98.568C225.542 98.6 225.654 98.648 225.75 98.712C225.814 98.744 225.878 98.784 225.942 98.832C226.006 98.88 226.07 98.936 226.134 99C226.214 99.064 226.286 99.136 226.35 99.216C226.43 99.296 226.51 99.384 226.59 99.48C226.67 99.576 226.75 99.68 226.83 99.792C227.022 100.08 227.182 100.344 227.31 100.584C227.454 100.808 227.55 101.016 227.598 101.208C227.63 101.304 227.758 101.688 227.982 102.36C228.11 102.744 228.174 103.52 228.174 104.688C228.174 105.84 228.11 106.584 227.982 106.92C227.822 107.272 227.742 107.568 227.742 107.808C227.742 108.144 227.622 108.744 227.382 109.608C227.254 110.04 227.126 110.432 226.998 110.784C226.87 111.12 226.734 111.424 226.59 111.696C226.366 112.144 226.102 112.552 225.798 112.92C225.51 113.288 225.182 113.616 224.814 113.904C224.094 114.48 223.43 114.736 222.822 114.672C222.182 114.592 221.566 114.352 220.974 113.952C220.398 113.552 219.966 113.064 219.678 112.488C219.55 112.232 219.438 111.992 219.342 111.768C219.246 111.544 219.166 111.344 219.102 111.168C218.99 110.784 218.91 110.344 218.862 109.848C218.814 109.352 218.79 108.712 218.79 107.928C218.79 106.584 218.862 105.624 219.006 105.048C219.166 104.472 219.614 103.464 220.35 102.024ZM225.966 100.992C225.662 100.464 225.318 100.104 224.934 99.912C224.502 99.656 224.118 99.72 223.782 100.104C223.606 100.328 223.438 100.44 223.278 100.44C223.246 100.44 223.206 100.448 223.158 100.464C223.11 100.464 223.062 100.48 223.014 100.512C222.982 100.528 222.942 100.552 222.894 100.584C222.846 100.6 222.798 100.632 222.75 100.68C222.718 100.712 222.678 100.752 222.63 100.8C222.438 101.04 222.062 101.688 221.502 102.744C220.942 103.816 220.63 104.544 220.566 104.928C220.534 104.992 220.502 105.072 220.47 105.168C220.454 105.248 220.43 105.36 220.398 105.504C220.334 105.776 220.278 105.96 220.23 106.056C220.102 106.52 220.07 107.32 220.134 108.456C220.214 109.576 220.358 110.416 220.566 110.976C220.822 111.808 221.222 112.424 221.766 112.824C222.31 113.208 222.886 113.304 223.494 113.112C223.91 112.968 224.382 112.536 224.91 111.816C225.454 111.096 225.742 110.512 225.774 110.064C225.774 109.856 225.838 109.648 225.966 109.44C226.094 109.216 226.158 108.936 226.158 108.6C226.158 108.296 226.246 107.968 226.422 107.616C226.566 107.28 226.662 106.52 226.71 105.336C226.758 104.136 226.718 103.272 226.59 102.744C226.478 102.104 226.27 101.52 225.966 100.992Z" fill="black"/>
<rect x="201" y="83" width="40" height="40" stroke="#7A7A7A"/>
<rect x="241" y="83" width="40" height="40" stroke="#7A7A7A"/>
<path d="M300.108 104.76C300.332 104.68 300.836 104.64 301.62 104.64C302.42 104.64 302.932 104.68 303.156 104.76C303.332 104.808 303.572 104.864 303.876 104.928C304.132 104.96 304.452 105.152 304.836 105.504C305.22 105.84 305.508 106.192 305.7 106.56C305.748 106.672 305.788 106.784 305.82 106.896C305.868 106.992 305.892 107.088 305.892 107.184C305.908 107.392 305.9 107.792 305.868 108.384C305.852 109.28 305.788 109.96 305.676 110.424C305.58 110.76 305.404 111.2 305.148 111.744C304.892 112.304 304.644 112.768 304.404 113.136C304.228 113.376 303.956 113.64 303.588 113.928C303.396 114.056 303.204 114.168 303.012 114.264C302.836 114.376 302.668 114.464 302.508 114.528C302.38 114.592 302.252 114.632 302.124 114.648C302.012 114.664 301.892 114.672 301.764 114.672C301.556 114.656 301.036 114.568 300.204 114.408C299.836 114.328 299.348 114.008 298.74 113.448C298.148 112.888 297.668 112.304 297.3 111.696C296.836 110.912 296.428 109.936 296.076 108.768C295.916 108.32 295.844 107.32 295.86 105.768C295.876 104.712 295.9 104.008 295.932 103.656C295.964 103.288 296.036 102.88 296.148 102.432C296.628 100.656 297.276 99.2 298.092 98.064C298.3 97.76 298.708 97.312 299.316 96.72C299.924 96.128 300.292 95.832 300.42 95.832C300.516 95.832 300.604 95.784 300.684 95.688C300.796 95.56 301.148 95.496 301.74 95.496C302.332 95.496 302.772 95.552 303.06 95.664C303.444 95.824 303.764 95.984 304.02 96.144C304.292 96.304 304.516 96.464 304.692 96.624C305.188 97.152 305.372 97.864 305.244 98.76C305.18 99.144 305.148 99.408 305.148 99.552V99.576C305.132 99.736 305.028 99.856 304.836 99.936C304.724 99.984 304.612 100 304.5 99.984C304.404 99.952 304.3 99.888 304.188 99.792C304.044 99.664 303.956 99.528 303.924 99.384C303.892 99.256 303.876 98.984 303.876 98.568C303.876 98.264 303.86 98.024 303.828 97.848C303.796 97.656 303.756 97.528 303.708 97.464C303.58 97.336 303.348 97.2 303.012 97.056C302.676 96.912 302.348 96.816 302.028 96.768C301.708 96.72 301.364 96.792 300.996 96.984C300.66 97.192 300.308 97.48 299.94 97.848C299.588 98.216 299.228 98.68 298.86 99.24C298.78 99.336 298.708 99.432 298.644 99.528C298.596 99.624 298.556 99.696 298.524 99.744C298.492 99.792 298.476 99.824 298.476 99.84C298.46 99.904 298.404 100.04 298.308 100.248C297.86 101.272 297.572 102.064 297.444 102.624C297.316 103.168 297.236 103.928 297.204 104.904C297.156 105.672 297.14 106.168 297.156 106.392L297.204 106.656C297.284 106.656 297.42 106.512 297.612 106.224C298.012 105.6 298.572 105.184 299.292 104.976C299.356 104.96 299.428 104.944 299.508 104.928C299.588 104.912 299.676 104.888 299.772 104.856C299.884 104.824 299.996 104.792 300.108 104.76ZM304.62 107.832C304.556 107.16 304.236 106.64 303.66 106.272C303.612 106.24 303.54 106.216 303.444 106.2C303.348 106.168 303.22 106.144 303.06 106.128C302.916 106.112 302.74 106.096 302.532 106.08C302.324 106.064 302.092 106.056 301.836 106.056C301.212 106.04 300.756 106.04 300.468 106.056C300.308 106.056 300.164 106.072 300.036 106.104C299.924 106.12 299.82 106.144 299.724 106.176C299.644 106.208 299.556 106.248 299.46 106.296C299.364 106.344 299.276 106.408 299.196 106.488C298.732 106.84 298.428 107.296 298.284 107.856C298.172 108.192 297.996 108.456 297.756 108.648C297.724 108.696 297.684 108.736 297.636 108.768C297.604 108.8 297.58 108.832 297.564 108.864C297.548 108.88 297.54 108.896 297.54 108.912C297.524 108.928 297.516 108.976 297.516 109.056C297.532 109.12 297.556 109.2 297.588 109.296C297.62 109.424 297.668 109.568 297.732 109.728C297.796 109.872 297.876 110.032 297.972 110.208C298.148 110.576 298.348 110.928 298.572 111.264C298.812 111.616 299.036 111.92 299.244 112.176C299.644 112.592 300.012 112.888 300.348 113.064C300.46 113.112 300.58 113.152 300.708 113.184C300.836 113.232 300.972 113.264 301.116 113.28C301.26 113.312 301.412 113.328 301.572 113.328C302.004 113.36 302.348 113.28 302.604 113.088C302.716 113.008 302.844 112.88 302.988 112.704C303.132 112.544 303.292 112.344 303.468 112.104C303.82 111.608 304.036 111.208 304.116 110.904C304.532 109.528 304.7 108.504 304.62 107.832Z" fill="black"/>
<rect x="281" y="83" width="40" height="40" stroke="#7A7A7A"/>
<rect x="321" y="83" width="40" height="40" stroke="#7A7A7A"/>
<path d="M376.028 98.448C376.46 98.144 376.772 98.008 376.964 98.04H376.988C377.036 98.04 377.092 98.056 377.156 98.088C377.236 98.12 377.308 98.176 377.372 98.256C377.436 98.32 377.508 98.408 377.588 98.52C377.796 98.824 377.868 99.032 377.804 99.144V99.168C377.756 99.28 377.684 99.856 377.588 100.896C377.524 101.904 377.46 102.44 377.396 102.504C377.348 102.6 377.324 102.856 377.324 103.272C377.34 103.608 377.3 103.928 377.204 104.232C377.108 104.52 377.02 105.048 376.94 105.816C376.86 106.568 376.764 107.272 376.652 107.928C376.508 108.936 376.396 109.848 376.316 110.664C376.236 111.48 376.18 112.208 376.148 112.848C376.132 113.536 376.1 113.96 376.052 114.12C376.036 114.216 376.004 114.296 375.956 114.36C375.908 114.424 375.852 114.48 375.788 114.528C375.66 114.624 375.564 114.672 375.5 114.672C375.436 114.672 375.332 114.616 375.188 114.504H375.164C374.956 114.36 374.82 114.176 374.756 113.952C374.708 113.728 374.7 113.384 374.732 112.92C374.748 112.84 374.764 112.688 374.78 112.464C374.796 112.256 374.82 111.984 374.852 111.648C374.884 111.312 374.916 110.904 374.948 110.424C374.964 110.2 374.98 109.992 374.996 109.8C375.028 109.592 375.052 109.424 375.068 109.296C375.084 109.152 375.1 109.024 375.116 108.912C375.132 108.8 375.14 108.72 375.14 108.672C375.156 108.608 375.172 108.568 375.188 108.552C375.268 108.408 375.396 107.336 375.572 105.336C375.588 105.128 375.612 104.928 375.644 104.736C375.676 104.528 375.708 104.344 375.74 104.184C375.772 104.008 375.812 103.848 375.86 103.704C375.94 103.416 376.004 103.008 376.052 102.48C376.116 101.936 376.148 101.472 376.148 101.088C376.148 100.88 376.14 100.728 376.124 100.632C376.108 100.504 376.076 100.424 376.028 100.392L376.004 100.368C375.956 100.368 375.892 100.392 375.812 100.44C375.732 100.472 375.636 100.528 375.524 100.608C375.412 100.688 375.268 100.792 375.092 100.92C374.932 101.016 374.788 101.104 374.66 101.184C373.956 101.52 373.468 101.448 373.196 100.968C373.084 100.76 373.068 100.6 373.148 100.488C373.244 100.36 373.508 100.16 373.94 99.888C374.5 99.616 374.876 99.384 375.068 99.192C375.324 98.984 375.644 98.736 376.028 98.448ZM382.438 97.464C382.534 97.432 382.646 97.408 382.774 97.392C382.902 97.36 383.054 97.344 383.23 97.344C383.886 97.296 384.806 97.288 385.99 97.32H388.006L388.414 97.704C388.494 97.8 388.558 97.88 388.606 97.944C388.654 98.008 388.686 98.064 388.702 98.112C388.734 98.176 388.718 98.28 388.654 98.424C388.558 98.6 388.414 98.728 388.222 98.808C388.03 98.872 387.846 98.856 387.67 98.76C387.494 98.664 386.75 98.616 385.438 98.616H383.542L383.11 99.096C382.838 99.368 382.606 99.48 382.414 99.432C382.254 99.4 382.134 99.4 382.054 99.432C382.022 99.448 381.99 99.488 381.958 99.552C381.926 99.6 381.894 99.672 381.862 99.768C381.798 99.976 381.758 100.248 381.742 100.584C381.742 100.904 381.742 101.392 381.742 102.048C381.742 102.784 381.758 103.344 381.79 103.728C381.838 104.112 381.902 104.328 381.982 104.376C382.062 104.424 382.27 104.368 382.606 104.208C382.766 104.128 382.982 104.064 383.254 104.016C383.542 103.968 383.894 103.936 384.31 103.92C385.126 103.872 385.694 103.904 386.014 104.016C386.494 104.16 386.966 104.52 387.43 105.096C387.59 105.272 387.734 105.464 387.862 105.672C387.99 105.88 388.11 106.104 388.222 106.344C388.334 106.568 388.422 106.8 388.486 107.04C388.662 107.568 388.758 108.264 388.774 109.128C388.79 109.976 388.71 110.648 388.534 111.144C388.47 111.336 388.398 111.52 388.318 111.696C388.254 111.872 388.182 112.04 388.102 112.2C388.038 112.36 387.966 112.512 387.886 112.656C387.806 112.8 387.726 112.928 387.646 113.04C387.582 113.168 387.51 113.28 387.43 113.376C387.35 113.472 387.27 113.56 387.19 113.64C386.854 114.024 386.502 114.28 386.134 114.408C385.766 114.552 385.254 114.632 384.598 114.648C383.926 114.696 383.326 114.672 382.798 114.576C382.27 114.496 381.814 114.352 381.43 114.144C380.982 113.856 380.486 113.44 379.942 112.896C379.766 112.72 379.614 112.552 379.486 112.392C379.358 112.248 379.254 112.12 379.174 112.008C379.11 111.896 379.07 111.808 379.054 111.744V111.72L378.982 111.48C378.918 111.304 378.878 111.16 378.862 111.048C378.75 110.664 378.758 110.376 378.886 110.184C379.014 110.008 379.174 109.912 379.366 109.896C379.462 109.88 379.55 109.888 379.63 109.92C379.726 109.952 379.814 110.008 379.894 110.088C379.99 110.184 380.07 110.408 380.134 110.76C380.166 110.936 380.222 111.104 380.302 111.264C380.382 111.44 380.486 111.608 380.614 111.768C380.758 111.928 380.926 112.08 381.118 112.224C381.662 112.688 382.342 113.048 383.158 113.304C383.414 113.384 383.63 113.44 383.806 113.472C383.998 113.52 384.15 113.552 384.262 113.568C384.47 113.568 384.774 113.496 385.174 113.352C385.638 113.192 385.998 112.968 386.254 112.68C386.526 112.408 386.774 112 386.998 111.456C387.078 111.248 387.142 111.064 387.19 110.904C387.254 110.728 387.294 110.576 387.31 110.448C387.358 110.192 387.382 109.744 387.382 109.104C387.382 108.448 387.358 108.008 387.31 107.784C387.278 107.56 387.174 107.24 386.998 106.824C386.854 106.584 386.71 106.368 386.566 106.176C386.438 105.968 386.294 105.784 386.134 105.624C385.942 105.464 385.774 105.368 385.63 105.336C385.486 105.288 385.206 105.264 384.79 105.264C383.718 105.264 382.782 105.496 381.982 105.96C381.614 106.168 381.35 106.272 381.19 106.272C381.046 106.256 380.878 106.128 380.686 105.888L380.374 105.504V102.168C380.39 100.584 380.406 99.608 380.422 99.24C380.438 99.048 380.462 98.872 380.494 98.712C380.542 98.552 380.598 98.4 380.662 98.256C380.806 97.968 380.91 97.808 380.974 97.776C380.99 97.76 381.022 97.752 381.07 97.752C381.118 97.736 381.174 97.728 381.238 97.728C381.318 97.728 381.406 97.728 381.502 97.728C381.678 97.744 381.83 97.744 381.958 97.728C382.086 97.696 382.182 97.64 382.246 97.56C382.294 97.528 382.358 97.496 382.438 97.464Z" fill="black"/>
<rect x="361" y="83" width="40" height="40" stroke="#7A7A7A"/>
<rect x="401" y="83" width="40" height="40" stroke="#7A7A7A"/>
<path d="M5.704 14.272C5.96 14.192 6.512 14.144 7.36 14.128C7.52 14.128 7.656 14.128 7.768 14.128C7.896 14.128 8.008 14.136 8.104 14.152C8.216 14.152 8.304 14.16 8.368 14.176C8.448 14.176 8.512 14.176 8.56 14.176C8.656 14.208 8.776 14.256 8.92 14.32C9.064 14.368 9.224 14.432 9.4 14.512C10.28 14.944 10.872 15.576 11.176 16.408C11.336 16.824 11.408 17.232 11.392 17.632C11.376 18.032 11.272 18.432 11.08 18.832L10.744 19.432V22.504C10.744 24.552 10.704 25.736 10.624 26.056C10.56 26.28 10.488 26.624 10.408 27.088C10.344 27.488 10.224 27.896 10.048 28.312C9.872 28.728 9.648 29.144 9.376 29.56C9.104 29.992 8.784 30.432 8.416 30.88C8.336 30.96 8.256 31.04 8.176 31.12C8.096 31.2 8.008 31.272 7.912 31.336C7.816 31.416 7.712 31.488 7.6 31.552C7.504 31.616 7.392 31.672 7.264 31.72C7.152 31.784 7.032 31.848 6.904 31.912C6.264 32.168 5.792 32.224 5.488 32.08C5.28 31.984 5.088 31.936 4.912 31.936C4.512 31.92 4.024 31.64 3.448 31.096C3.16 30.824 2.896 30.52 2.656 30.184C2.416 29.864 2.2 29.52 2.008 29.152C1.752 28.64 1.592 28.28 1.528 28.072C1.48 27.864 1.448 27.504 1.432 26.992L1.36 25.912V25.888L1.792 25.456C1.888 25.36 1.976 25.28 2.056 25.216C2.136 25.168 2.208 25.128 2.272 25.096C2.336 25.08 2.392 25.072 2.44 25.072C2.504 25.072 2.56 25.08 2.608 25.096C2.672 25.112 2.728 25.136 2.776 25.168C2.824 25.216 2.872 25.272 2.92 25.336C3.032 25.512 3.088 25.632 3.088 25.696C3.088 25.76 3.032 25.872 2.92 26.032C2.568 26.656 2.64 27.488 3.136 28.528C3.6 29.488 4.176 30.152 4.864 30.52C5.568 30.904 6.216 30.904 6.808 30.52C6.888 30.488 6.96 30.44 7.024 30.376C7.104 30.328 7.176 30.272 7.24 30.208C7.304 30.144 7.368 30.072 7.432 29.992C7.512 29.928 7.592 29.848 7.672 29.752C7.752 29.672 7.824 29.584 7.888 29.488C8.064 29.248 8.224 29.008 8.368 28.768C8.512 28.544 8.632 28.312 8.728 28.072C9.048 27.272 9.224 26.712 9.256 26.392C9.304 26.088 9.352 25.144 9.4 23.56C9.4 22.968 9.392 22.472 9.376 22.072C9.376 21.672 9.368 21.36 9.352 21.136C9.352 20.896 9.336 20.76 9.304 20.728C9.288 20.712 9.256 20.704 9.208 20.704C9.176 20.688 9.128 20.688 9.064 20.704C9.016 20.72 8.952 20.744 8.872 20.776C8.792 20.792 8.696 20.824 8.584 20.872C8.52 20.904 8.472 20.928 8.44 20.944C8.28 21.008 8.128 21.064 7.984 21.112C7.856 21.16 7.744 21.192 7.648 21.208C7.6 21.208 7.528 21.216 7.432 21.232C7.352 21.232 7.256 21.232 7.144 21.232C7.032 21.232 6.896 21.232 6.736 21.232C6.592 21.232 6.432 21.224 6.256 21.208C5.904 21.192 5.616 21.176 5.392 21.16C5.168 21.144 4.992 21.128 4.864 21.112C4.752 21.08 4.624 21.04 4.48 20.992C4.336 20.928 4.176 20.848 4 20.752C3.296 20.416 2.792 20.04 2.488 19.624C2.344 19.416 2.232 19.184 2.152 18.928C2.088 18.656 2.056 18.36 2.056 18.04C2.056 17.384 2.24 16.776 2.608 16.216C2.704 16.056 2.832 15.896 2.992 15.736C3.152 15.576 3.344 15.416 3.568 15.256C4 14.952 4.432 14.72 4.864 14.56C4.912 14.528 5 14.496 5.128 14.464C5.272 14.416 5.392 14.384 5.488 14.368C5.584 14.336 5.656 14.304 5.704 14.272ZM6.328 15.592C6.248 15.624 6.152 15.648 6.04 15.664C5.928 15.68 5.8 15.688 5.656 15.688C5.352 15.704 4.984 15.856 4.552 16.144C4.136 16.432 3.824 16.736 3.616 17.056C2.992 18.144 3.304 18.984 4.552 19.576C4.824 19.704 5.072 19.784 5.296 19.816C5.408 19.832 5.56 19.848 5.752 19.864C5.96 19.864 6.216 19.864 6.52 19.864C6.68 19.864 6.824 19.864 6.952 19.864C7.08 19.864 7.184 19.864 7.264 19.864C7.36 19.864 7.44 19.856 7.504 19.84C7.584 19.84 7.656 19.832 7.72 19.816C7.8 19.8 7.872 19.784 7.936 19.768C8.064 19.72 8.248 19.616 8.488 19.456H8.512C8.608 19.408 8.688 19.368 8.752 19.336C8.816 19.288 8.864 19.248 8.896 19.216C8.976 19.168 9.056 19.088 9.136 18.976C9.168 18.912 9.192 18.864 9.208 18.832C9.24 18.784 9.256 18.744 9.256 18.712C9.272 18.664 9.272 18.52 9.256 18.28C9.24 18.04 9.216 17.832 9.184 17.656C9.168 17.464 9.12 17.152 9.04 16.72C9.008 16.512 8.976 16.344 8.944 16.216C8.912 16.072 8.88 15.976 8.848 15.928C8.832 15.864 8.8 15.808 8.752 15.76C8.72 15.712 8.664 15.672 8.584 15.64C8.536 15.608 8.456 15.584 8.344 15.568C8.248 15.552 8.128 15.536 7.984 15.52C7.84 15.504 7.672 15.496 7.48 15.496C6.904 15.48 6.52 15.512 6.328 15.592ZM13.9418 16.408C14.3098 15.976 14.8218 15.6 15.4778 15.28L16.4618 14.8H18.4538H20.3978L20.9258 15.328C21.3578 15.68 21.6378 16.064 21.7658 16.48C21.8938 16.88 21.9818 17.608 22.0298 18.664C22.0458 19.224 22.0538 19.64 22.0538 19.912C22.0698 20.168 22.1018 20.384 22.1498 20.56C22.1658 20.64 22.1898 20.728 22.2218 20.824C22.2538 20.904 22.2938 20.984 22.3418 21.064C22.4858 21.352 22.8218 21.752 23.3498 22.264C23.5258 22.44 23.6778 22.584 23.8058 22.696C23.9338 22.824 24.0378 22.912 24.1178 22.96C24.2138 23.024 24.2858 23.056 24.3338 23.056C24.3818 23.056 24.4298 23.072 24.4778 23.104C24.5418 23.136 24.5978 23.176 24.6458 23.224C24.7098 23.288 24.7738 23.336 24.8378 23.368C24.9178 23.4 25.0058 23.416 25.1018 23.416C25.1498 23.416 25.1978 23.424 25.2458 23.44C25.2938 23.456 25.3418 23.48 25.3898 23.512C25.4538 23.544 25.5098 23.584 25.5578 23.632C25.6218 23.68 25.6778 23.736 25.7258 23.8C25.8218 23.88 25.8858 23.944 25.9178 23.992C25.9658 24.056 25.9978 24.104 26.0138 24.136C26.0138 24.2 25.9658 24.32 25.8698 24.496C25.6298 24.832 25.1658 24.872 24.4778 24.616C24.1418 24.488 23.7978 24.304 23.4458 24.064C23.1098 23.84 22.7658 23.552 22.4138 23.2L21.5978 22.408L20.9738 23.104C20.2698 23.872 19.7178 24.424 19.3178 24.76C18.9338 25.112 18.5578 25.352 18.1898 25.48C17.8218 25.608 17.3658 25.672 16.8218 25.672C16.0858 25.672 15.5178 25.6 15.1178 25.456C14.7338 25.328 14.2698 25.04 13.7258 24.592C13.2938 24.224 12.9178 23.808 12.5978 23.344L12.1178 22.648V21.232C12.1658 20.272 12.2378 19.672 12.3338 19.432C12.4938 19.176 12.5738 18.984 12.5738 18.856C12.5738 18.664 12.7338 18.28 13.0538 17.704C13.3738 17.128 13.6698 16.696 13.9418 16.408ZM20.6138 19.048C20.6618 18.088 20.6698 17.504 20.6378 17.296C20.6218 17.088 20.5418 16.888 20.3978 16.696L20.1098 16.24L18.3098 16.216C17.5098 16.216 16.9818 16.232 16.7258 16.264C16.4698 16.296 16.2138 16.376 15.9578 16.504C15.8778 16.536 15.7978 16.576 15.7178 16.624C15.6538 16.656 15.5818 16.696 15.5018 16.744C15.4218 16.792 15.3418 16.848 15.2618 16.912C15.1978 16.96 15.1338 17.016 15.0698 17.08C15.0058 17.144 14.9338 17.216 14.8538 17.296C14.6938 17.504 14.5178 17.784 14.3258 18.136C14.1338 18.472 13.9418 18.888 13.7498 19.384C13.5898 19.72 13.4938 20.272 13.4618 21.04L13.3898 22.264L13.9418 22.936C14.3418 23.416 14.7258 23.76 15.0938 23.968C15.4778 24.192 15.9418 24.328 16.4858 24.376C16.9018 24.408 17.1898 24.416 17.3498 24.4C17.4298 24.384 17.5178 24.36 17.6138 24.328C17.7258 24.296 17.8458 24.248 17.9738 24.184C18.1018 24.104 18.2458 24 18.4058 23.872C18.5658 23.76 18.7418 23.616 18.9338 23.44C19.2858 23.104 19.6058 22.744 19.8938 22.36C19.9898 22.232 20.0698 22.112 20.1338 22C20.2138 21.872 20.2778 21.76 20.3258 21.664C20.3738 21.568 20.4058 21.48 20.4218 21.4C20.5178 21.112 20.5818 20.328 20.6138 19.048ZM30.4388 15.52C30.7908 15.36 31.3588 15.28 32.1428 15.28C32.9268 15.264 33.4228 15.312 33.6308 15.424C33.7268 15.472 33.8228 15.536 33.9188 15.616C34.0148 15.68 34.1108 15.76 34.2068 15.856C34.4148 16.032 34.6068 16.224 34.7828 16.432C34.9588 16.64 35.1348 16.872 35.3108 17.128C35.4868 17.368 35.6308 17.608 35.7428 17.848C35.7588 17.88 35.7748 17.92 35.7908 17.968C35.8228 18.016 35.8468 18.064 35.8628 18.112C35.8788 18.16 35.8948 18.216 35.9108 18.28C35.9268 18.328 35.9428 18.384 35.9588 18.448C35.9748 18.512 35.9908 18.576 36.0068 18.64C36.0228 18.704 36.0308 18.768 36.0308 18.832C36.0468 18.896 36.0548 18.968 36.0548 19.048C36.0708 19.128 36.0788 19.2 36.0788 19.264C36.1428 19.888 36.1268 20.4 36.0308 20.8C35.6628 22.128 34.5908 23.272 32.8148 24.232C32.5588 24.376 32.2548 24.496 31.9028 24.592C31.5668 24.704 31.1828 24.8 30.7508 24.88C29.9028 25.024 29.2788 25.032 28.8788 24.904C28.5108 24.76 28.2868 24.792 28.2068 25C28.1268 25.32 28.0868 26.448 28.0868 28.384C28.0868 30.208 28.0468 31.296 27.9668 31.648C27.9348 31.824 27.8628 31.952 27.7508 32.032C27.6388 32.112 27.4948 32.152 27.3188 32.152C27.0148 32.152 26.8388 31.864 26.7908 31.288C26.7268 30.68 26.7268 28.976 26.7908 26.176C26.8228 24.928 26.8468 23.696 26.8628 22.48C26.8948 21.28 26.9188 20.096 26.9348 18.928C26.9348 17.472 26.9748 16.616 27.0548 16.36C27.1668 16.136 27.3268 16 27.5348 15.952C27.6468 15.936 27.7508 15.944 27.8468 15.976C27.9588 16.008 28.0628 16.072 28.1588 16.168L28.4948 16.48H28.5188L29.1908 16.12C29.7348 15.8 30.1508 15.6 30.4388 15.52ZM34.4948 18.4C34.4948 18.304 34.4148 18.144 34.2548 17.92C34.0948 17.68 33.8468 17.376 33.5108 17.008C33.3508 16.832 33.1988 16.72 33.0548 16.672C32.9268 16.624 32.6548 16.6 32.2388 16.6C32.1588 16.6 32.0708 16.6 31.9748 16.6C31.8948 16.6 31.8148 16.608 31.7348 16.624C31.6548 16.624 31.5748 16.632 31.4948 16.648C31.4148 16.664 31.3348 16.68 31.2548 16.696C31.1748 16.712 31.0948 16.728 31.0148 16.744C30.9348 16.76 30.8548 16.784 30.7748 16.816C30.6948 16.848 30.6148 16.88 30.5348 16.912C30.4228 16.944 30.3188 16.984 30.2228 17.032C30.1428 17.064 30.0628 17.104 29.9828 17.152C29.9028 17.2 29.8308 17.248 29.7668 17.296C29.7188 17.344 29.6708 17.392 29.6228 17.44C29.4468 17.648 29.3428 17.92 29.3108 18.256C29.2948 18.512 29.2228 18.688 29.0948 18.784C28.7268 19.008 28.5108 19.208 28.4468 19.384C28.4308 19.448 28.4148 19.552 28.3988 19.696C28.3828 19.824 28.3668 19.992 28.3508 20.2C28.3348 20.408 28.3268 20.664 28.3268 20.968C28.3268 21.88 28.3588 22.464 28.4228 22.72C28.5028 22.992 28.6948 23.208 28.9988 23.368C29.2228 23.48 29.5268 23.552 29.9108 23.584C30.1188 23.584 30.3028 23.576 30.4628 23.56C30.6228 23.544 30.7588 23.512 30.8708 23.464C30.9828 23.4 31.2468 23.304 31.6628 23.176C32.1908 23.016 32.6868 22.768 33.1508 22.432C33.3748 22.272 33.5748 22.104 33.7508 21.928C33.9428 21.736 34.1108 21.536 34.2548 21.328C34.4148 21.088 34.5268 20.904 34.5908 20.776C34.6548 20.632 34.6948 20.488 34.7108 20.344C34.7268 20.312 34.7348 20.272 34.7348 20.224C34.7348 20.176 34.7348 20.128 34.7348 20.08C34.7508 20.016 34.7588 19.952 34.7588 19.888C34.7588 19.808 34.7588 19.728 34.7588 19.648C34.7588 19.056 34.7108 18.728 34.6148 18.664C34.5348 18.6 34.4948 18.512 34.4948 18.4ZM50.4237 13.024C50.5837 12.944 51.0157 12.904 51.7197 12.904C52.4237 12.904 52.8397 12.976 52.9677 13.12C53.0957 13.232 53.1677 13.392 53.1837 13.6C53.1997 13.792 53.1517 13.928 53.0397 14.008C52.9117 14.088 52.3037 14.176 51.2157 14.272C50.1277 14.368 48.9197 14.44 47.5917 14.488C46.7437 14.504 46.0957 14.504 45.6477 14.488C45.2157 14.472 44.9197 14.44 44.7597 14.392C44.6157 14.344 44.4797 14.256 44.3517 14.128C44.1917 13.984 44.1597 13.784 44.2557 13.528L44.3997 13.144H47.3037C49.2877 13.144 50.3277 13.104 50.4237 13.024ZM47.7597 18.496C47.9997 18.496 48.3517 18.488 48.8157 18.472C51.4397 18.424 52.9757 18.408 53.4237 18.424C53.8877 18.424 54.1837 18.488 54.3117 18.616C54.3277 18.632 54.3517 18.656 54.3837 18.688C54.5277 18.832 54.6157 19 54.6477 19.192C54.6957 19.384 54.6717 19.544 54.5757 19.672C54.5277 19.752 52.9677 19.792 49.8957 19.792C46.8237 19.792 45.1997 19.848 45.0237 19.96C44.6717 20.168 44.3677 20.04 44.1117 19.576C44.0477 19.464 44.0317 19.376 44.0637 19.312C44.0957 19.232 44.1917 19.104 44.3517 18.928L44.7357 18.568L47.7597 18.496ZM64.2828 10.984C64.5548 10.552 64.9068 10.16 65.3388 9.808C65.7708 9.44 66.2748 9.12 66.8508 8.848C67.6988 8.432 68.4108 8.272 68.9868 8.368C69.5628 8.448 70.1308 8.8 70.6908 9.424C70.9308 9.696 71.1228 9.952 71.2668 10.192C71.4268 10.432 71.5388 10.656 71.6028 10.864C71.7468 11.28 71.8188 12.024 71.8188 13.096C71.8188 13.976 71.7948 14.552 71.7468 14.824C71.7148 15.096 71.6348 15.36 71.5068 15.616C71.3148 15.984 71.0588 16.384 70.7388 16.816C70.6588 16.928 70.5788 17.032 70.4988 17.128C70.4188 17.224 70.3388 17.312 70.2588 17.392C70.1948 17.472 70.1308 17.544 70.0668 17.608C70.0028 17.672 69.9388 17.728 69.8748 17.776C69.4908 18.112 68.8268 18.584 67.8828 19.192C67.4188 19.496 67.0348 19.736 66.7308 19.912C66.4268 20.088 66.2028 20.2 66.0588 20.248C65.9468 20.296 65.8428 20.344 65.7467 20.392C65.6508 20.424 65.5628 20.456 65.4828 20.488C65.4188 20.52 65.3628 20.552 65.3148 20.584C65.2828 20.6 65.2108 20.624 65.0988 20.656C65.0028 20.672 64.8748 20.696 64.7148 20.728C64.3628 20.808 64.1308 20.96 64.0188 21.184C63.9868 21.264 63.9548 21.368 63.9228 21.496C63.9068 21.608 63.8908 21.752 63.8748 21.928C63.8748 22.088 63.8748 22.272 63.8748 22.48C63.8748 23.2 63.9068 23.616 63.9708 23.728C64.0348 23.84 64.4108 23.856 65.0988 23.776C65.8348 23.68 67.3148 23.632 69.5388 23.632L72.9948 23.584L73.1388 23.872C73.1868 23.952 73.2108 24.04 73.2108 24.136C73.2108 24.232 73.1948 24.328 73.1628 24.424C73.1468 24.488 73.1148 24.544 73.0668 24.592C73.0348 24.656 72.9868 24.704 72.9228 24.736C72.8748 24.784 72.8188 24.824 72.7548 24.856C72.6268 24.92 71.2508 24.984 68.6268 25.048C66.7228 25.064 65.5068 25.104 64.9788 25.168C64.7228 25.2 64.4748 25.24 64.2348 25.288C64.0108 25.352 63.7948 25.44 63.5868 25.552C63.2028 25.744 62.9228 25.72 62.7468 25.48C62.6988 25.432 62.6588 25.184 62.6268 24.736C62.6108 24.288 62.5948 23.656 62.5788 22.84C62.5788 22.28 62.5788 21.808 62.5788 21.424C62.5788 21.024 62.5868 20.704 62.6028 20.464C62.6348 20.224 62.6588 20.072 62.6748 20.008C62.7708 19.72 62.8908 19.536 63.0348 19.456C63.1788 19.376 63.4188 19.352 63.7548 19.384C64.3788 19.464 65.2748 19.184 66.4428 18.544C68.3308 17.456 69.5468 16.376 70.0908 15.304C70.2668 14.952 70.3788 14.664 70.4268 14.44C70.4428 14.392 70.4508 14.328 70.4508 14.248C70.4668 14.168 70.4748 14.072 70.4748 13.96C70.4908 13.848 70.4988 13.72 70.4988 13.576C70.4988 13.432 70.4988 13.272 70.4988 13.096C70.4988 12.168 70.3868 11.496 70.1628 11.08C70.0188 10.712 69.8188 10.392 69.5628 10.12C69.4828 10.04 69.4028 9.968 69.3228 9.904C69.2428 9.84 69.1628 9.784 69.0828 9.736C69.0028 9.688 68.9308 9.656 68.8668 9.64C68.7228 9.608 68.5388 9.616 68.3148 9.664C68.0908 9.712 67.8268 9.808 67.5228 9.952C66.9148 10.24 66.4188 10.584 66.0348 10.984C65.6988 11.304 65.4828 11.56 65.3867 11.752C65.3068 11.944 65.2988 12.144 65.3628 12.352C65.4108 12.48 65.4428 12.6 65.4588 12.712C65.4748 12.824 65.4668 12.928 65.4348 13.024C65.4188 13.104 65.3788 13.176 65.3148 13.24C65.0268 13.528 64.6748 13.472 64.2588 13.072C63.7308 12.544 63.7388 11.848 64.2828 10.984Z" fill="black"/>
</svg>
