<svg width="442" height="164" viewBox="0 0 442 164" fill="none" xmlns="http://www.w3.org/2000/svg">
<path d="M16.608 57.488C16.816 57.376 17.216 57.288 17.808 57.224C18.544 57.128 19.824 57.088 21.648 57.104H24.312L24.576 57.416C24.736 57.656 24.784 57.856 24.72 58.016C24.688 58.128 24.608 58.296 24.48 58.52C24.352 58.728 24.176 59 23.952 59.336C23.488 59.992 23.04 60.56 22.608 61.04C22.048 61.68 21.624 62.176 21.336 62.528C21.064 62.88 20.928 63.088 20.928 63.152C20.928 63.248 21.088 63.312 21.408 63.344C22.016 63.456 22.832 63.856 23.856 64.544C24.24 64.8 24.56 65.064 24.816 65.336C25.088 65.608 25.288 65.88 25.416 66.152C25.688 66.696 25.824 67.496 25.824 68.552C25.84 69.336 25.792 69.944 25.68 70.376C25.632 70.6 25.552 70.856 25.44 71.144C25.328 71.432 25.184 71.76 25.008 72.128C24.56 73.024 23.872 73.72 22.944 74.216C22.864 74.248 22.792 74.28 22.728 74.312C22.68 74.344 22.624 74.368 22.56 74.384C22.496 74.416 22.44 74.44 22.392 74.456C22.344 74.488 22.296 74.512 22.248 74.528C22.2 74.544 22.152 74.552 22.104 74.552C22.056 74.568 22.016 74.576 21.984 74.576C21.744 74.608 21.136 74.632 20.16 74.648C19.232 74.68 18.648 74.68 18.408 74.648C18.28 74.632 18.144 74.6 18 74.552C17.856 74.504 17.696 74.44 17.52 74.36C16.912 74.088 16.448 73.76 16.128 73.376C15.824 73.008 15.608 72.496 15.48 71.84C15.352 71.264 15.32 70.864 15.384 70.64C15.464 70.416 15.656 70.304 15.96 70.304C16.264 70.304 16.472 70.432 16.584 70.688C16.712 70.944 16.776 71.208 16.776 71.48C16.776 72.344 17.328 72.944 18.432 73.28C18.96 73.472 19.656 73.528 20.52 73.448C21.4 73.368 22.112 73.184 22.656 72.896C22.912 72.752 23.184 72.472 23.472 72.056C23.776 71.656 24.016 71.224 24.192 70.76C24.384 70.248 24.48 69.576 24.48 68.744C24.48 67.624 24.288 66.816 23.904 66.32C23.776 66.16 23.536 65.952 23.184 65.696C22.848 65.424 22.64 65.288 22.56 65.288C22.512 65.288 22.432 65.264 22.32 65.216C22.224 65.168 22.096 65.088 21.936 64.976C21.728 64.832 21.528 64.744 21.336 64.712C21.16 64.68 20.744 64.672 20.088 64.688C19.704 64.704 19.384 64.704 19.128 64.688C18.888 64.672 18.712 64.648 18.6 64.616C18.504 64.568 18.432 64.504 18.384 64.424C18.336 64.344 18.312 64.232 18.312 64.088C18.312 63.848 18.736 63.296 19.584 62.432C21.424 60.496 22.472 59.296 22.728 58.832C22.792 58.72 22.792 58.6 22.728 58.472C22.68 58.328 22.184 58.288 21.24 58.352C18.888 58.448 17.504 58.56 17.088 58.688C16.96 58.72 16.84 58.72 16.728 58.688C16.68 58.672 16.64 58.648 16.608 58.616C16.576 58.584 16.544 58.552 16.512 58.52C16.48 58.488 16.448 58.456 16.416 58.424C16.32 58.312 16.272 58.192 16.272 58.064C16.272 58.016 16.272 57.976 16.272 57.944C16.288 57.896 16.304 57.856 16.32 57.824C16.336 57.776 16.352 57.736 16.368 57.704C16.384 57.672 16.4 57.648 16.416 57.632C16.448 57.6 16.48 57.576 16.512 57.56C16.544 57.528 16.576 57.504 16.608 57.488Z" fill="black"/>
<rect x="1" y="43" width="40" height="40" stroke="#7A7A7A"/>
<rect x="41" y="43" width="40" height="40" stroke="#7A7A7A"/>
<rect x="81" y="43" width="40" height="40" stroke="#7A7A7A"/>
<path d="M137.42 62.024C138.316 60.2 139.156 59.096 139.94 58.712C140.308 58.52 140.812 58.424 141.452 58.424C141.66 58.424 141.852 58.44 142.028 58.472C142.204 58.488 142.356 58.52 142.484 58.568C142.612 58.6 142.724 58.648 142.82 58.712C142.884 58.744 142.948 58.784 143.012 58.832C143.076 58.88 143.14 58.936 143.204 59C143.284 59.064 143.356 59.136 143.42 59.216C143.5 59.296 143.58 59.384 143.66 59.48C143.74 59.576 143.82 59.68 143.9 59.792C144.092 60.08 144.252 60.344 144.38 60.584C144.524 60.808 144.62 61.016 144.668 61.208C144.7 61.304 144.828 61.688 145.052 62.36C145.18 62.744 145.244 63.52 145.244 64.688C145.244 65.84 145.18 66.584 145.052 66.92C144.892 67.272 144.812 67.568 144.812 67.808C144.812 68.144 144.692 68.744 144.452 69.608C144.324 70.04 144.196 70.432 144.068 70.784C143.94 71.12 143.804 71.424 143.66 71.696C143.436 72.144 143.172 72.552 142.868 72.92C142.58 73.288 142.252 73.616 141.884 73.904C141.164 74.48 140.5 74.736 139.892 74.672C139.252 74.592 138.636 74.352 138.044 73.952C137.468 73.552 137.036 73.064 136.748 72.488C136.62 72.232 136.508 71.992 136.412 71.768C136.316 71.544 136.236 71.344 136.172 71.168C136.06 70.784 135.98 70.344 135.932 69.848C135.884 69.352 135.86 68.712 135.86 67.928C135.86 66.584 135.932 65.624 136.076 65.048C136.236 64.472 136.684 63.464 137.42 62.024ZM143.036 60.992C142.732 60.464 142.388 60.104 142.004 59.912C141.572 59.656 141.188 59.72 140.852 60.104C140.676 60.328 140.508 60.44 140.348 60.44C140.316 60.44 140.276 60.448 140.228 60.464C140.18 60.464 140.132 60.48 140.084 60.512C140.052 60.528 140.012 60.552 139.964 60.584C139.916 60.6 139.868 60.632 139.82 60.68C139.788 60.712 139.748 60.752 139.7 60.8C139.508 61.04 139.132 61.688 138.572 62.744C138.012 63.816 137.7 64.544 137.636 64.928C137.604 64.992 137.572 65.072 137.54 65.168C137.524 65.248 137.5 65.36 137.468 65.504C137.404 65.776 137.348 65.96 137.3 66.056C137.172 66.52 137.14 67.32 137.204 68.456C137.284 69.576 137.428 70.416 137.636 70.976C137.892 71.808 138.292 72.424 138.836 72.824C139.38 73.208 139.956 73.304 140.564 73.112C140.98 72.968 141.452 72.536 141.98 71.816C142.524 71.096 142.812 70.512 142.844 70.064C142.844 69.856 142.908 69.648 143.036 69.44C143.164 69.216 143.228 68.936 143.228 68.6C143.228 68.296 143.316 67.968 143.492 67.616C143.636 67.28 143.732 66.52 143.78 65.336C143.828 64.136 143.788 63.272 143.66 62.744C143.548 62.104 143.34 61.52 143.036 60.992Z" fill="black"/>
<rect x="121" y="43" width="40" height="40" stroke="#7A7A7A"/>
<rect x="161" y="43" width="40" height="40" stroke="#7A7A7A"/>
<rect x="201" y="43" width="40" height="40" stroke="#7A7A7A"/>
<path d="M251.564 59.984C251.836 59.552 252.188 59.16 252.62 58.808C253.052 58.44 253.556 58.12 254.132 57.848C254.98 57.432 255.692 57.272 256.268 57.368C256.844 57.448 257.412 57.8 257.972 58.424C258.212 58.696 258.404 58.952 258.548 59.192C258.708 59.432 258.82 59.656 258.884 59.864C259.028 60.28 259.1 61.024 259.1 62.096C259.1 62.976 259.076 63.552 259.028 63.824C258.996 64.096 258.916 64.36 258.788 64.616C258.596 64.984 258.34 65.384 258.02 65.816C257.94 65.928 257.86 66.032 257.78 66.128C257.7 66.224 257.62 66.312 257.54 66.392C257.476 66.472 257.412 66.544 257.348 66.608C257.284 66.672 257.22 66.728 257.156 66.776C256.772 67.112 256.108 67.584 255.164 68.192C254.7 68.496 254.316 68.736 254.012 68.912C253.708 69.088 253.484 69.2 253.34 69.248C253.228 69.296 253.124 69.344 253.028 69.392C252.932 69.424 252.844 69.456 252.764 69.488C252.7 69.52 252.644 69.552 252.596 69.584C252.564 69.6 252.492 69.624 252.38 69.656C252.284 69.672 252.156 69.696 251.996 69.728C251.644 69.808 251.412 69.96 251.3 70.184C251.268 70.264 251.236 70.368 251.204 70.496C251.188 70.608 251.172 70.752 251.156 70.928C251.156 71.088 251.156 71.272 251.156 71.48C251.156 72.2 251.188 72.616 251.252 72.728C251.316 72.84 251.692 72.856 252.38 72.776C253.116 72.68 254.596 72.632 256.82 72.632L260.276 72.584L260.42 72.872C260.468 72.952 260.492 73.04 260.492 73.136C260.492 73.232 260.476 73.328 260.444 73.424C260.428 73.488 260.396 73.544 260.348 73.592C260.316 73.656 260.268 73.704 260.204 73.736C260.156 73.784 260.1 73.824 260.036 73.856C259.908 73.92 258.532 73.984 255.908 74.048C254.004 74.064 252.788 74.104 252.26 74.168C252.004 74.2 251.756 74.24 251.516 74.288C251.292 74.352 251.076 74.44 250.868 74.552C250.484 74.744 250.204 74.72 250.028 74.48C249.98 74.432 249.94 74.184 249.908 73.736C249.892 73.288 249.876 72.656 249.86 71.84C249.86 71.28 249.86 70.808 249.86 70.424C249.86 70.024 249.868 69.704 249.884 69.464C249.916 69.224 249.94 69.072 249.956 69.008C250.052 68.72 250.172 68.536 250.316 68.456C250.46 68.376 250.7 68.352 251.036 68.384C251.66 68.464 252.556 68.184 253.724 67.544C255.612 66.456 256.828 65.376 257.372 64.304C257.548 63.952 257.66 63.664 257.708 63.44C257.724 63.392 257.732 63.328 257.732 63.248C257.748 63.168 257.756 63.072 257.756 62.96C257.772 62.848 257.78 62.72 257.78 62.576C257.78 62.432 257.78 62.272 257.78 62.096C257.78 61.168 257.668 60.496 257.444 60.08C257.3 59.712 257.1 59.392 256.844 59.12C256.764 59.04 256.684 58.968 256.604 58.904C256.524 58.84 256.444 58.784 256.364 58.736C256.284 58.688 256.212 58.656 256.148 58.64C256.004 58.608 255.82 58.616 255.596 58.664C255.372 58.712 255.108 58.808 254.804 58.952C254.196 59.24 253.7 59.584 253.316 59.984C252.98 60.304 252.764 60.56 252.668 60.752C252.588 60.944 252.58 61.144 252.644 61.352C252.692 61.48 252.724 61.6 252.74 61.712C252.756 61.824 252.748 61.928 252.716 62.024C252.7 62.104 252.66 62.176 252.596 62.24C252.308 62.528 251.956 62.472 251.54 62.072C251.012 61.544 251.02 60.848 251.564 59.984ZM262.908 59.984C263.18 59.552 263.532 59.16 263.964 58.808C264.396 58.44 264.9 58.12 265.476 57.848C266.324 57.432 267.036 57.272 267.612 57.368C268.188 57.448 268.756 57.8 269.316 58.424C269.556 58.696 269.748 58.952 269.892 59.192C270.052 59.432 270.164 59.656 270.228 59.864C270.372 60.28 270.444 61.024 270.444 62.096C270.444 62.976 270.42 63.552 270.372 63.824C270.34 64.096 270.26 64.36 270.132 64.616C269.94 64.984 269.684 65.384 269.364 65.816C269.284 65.928 269.204 66.032 269.124 66.128C269.044 66.224 268.964 66.312 268.884 66.392C268.82 66.472 268.756 66.544 268.692 66.608C268.628 66.672 268.564 66.728 268.5 66.776C268.116 67.112 267.452 67.584 266.508 68.192C266.044 68.496 265.66 68.736 265.356 68.912C265.052 69.088 264.828 69.2 264.684 69.248C264.572 69.296 264.468 69.344 264.372 69.392C264.276 69.424 264.188 69.456 264.108 69.488C264.044 69.52 263.988 69.552 263.94 69.584C263.908 69.6 263.836 69.624 263.724 69.656C263.628 69.672 263.5 69.696 263.34 69.728C262.988 69.808 262.756 69.96 262.644 70.184C262.612 70.264 262.58 70.368 262.548 70.496C262.532 70.608 262.516 70.752 262.5 70.928C262.5 71.088 262.5 71.272 262.5 71.48C262.5 72.2 262.532 72.616 262.596 72.728C262.66 72.84 263.036 72.856 263.724 72.776C264.46 72.68 265.94 72.632 268.164 72.632L271.62 72.584L271.764 72.872C271.812 72.952 271.836 73.04 271.836 73.136C271.836 73.232 271.82 73.328 271.788 73.424C271.772 73.488 271.74 73.544 271.692 73.592C271.66 73.656 271.612 73.704 271.548 73.736C271.5 73.784 271.444 73.824 271.38 73.856C271.252 73.92 269.876 73.984 267.252 74.048C265.348 74.064 264.132 74.104 263.604 74.168C263.348 74.2 263.1 74.24 262.86 74.288C262.636 74.352 262.42 74.44 262.212 74.552C261.828 74.744 261.548 74.72 261.372 74.48C261.324 74.432 261.284 74.184 261.252 73.736C261.236 73.288 261.22 72.656 261.204 71.84C261.204 71.28 261.204 70.808 261.204 70.424C261.204 70.024 261.212 69.704 261.228 69.464C261.26 69.224 261.284 69.072 261.3 69.008C261.396 68.72 261.516 68.536 261.66 68.456C261.804 68.376 262.044 68.352 262.38 68.384C263.004 68.464 263.9 68.184 265.068 67.544C266.956 66.456 268.172 65.376 268.716 64.304C268.892 63.952 269.004 63.664 269.052 63.44C269.068 63.392 269.076 63.328 269.076 63.248C269.092 63.168 269.1 63.072 269.1 62.96C269.116 62.848 269.124 62.72 269.124 62.576C269.124 62.432 269.124 62.272 269.124 62.096C269.124 61.168 269.012 60.496 268.788 60.08C268.644 59.712 268.444 59.392 268.188 59.12C268.108 59.04 268.028 58.968 267.948 58.904C267.868 58.84 267.788 58.784 267.708 58.736C267.628 58.688 267.556 58.656 267.492 58.64C267.348 58.608 267.164 58.616 266.94 58.664C266.716 58.712 266.452 58.808 266.148 58.952C265.54 59.24 265.044 59.584 264.66 59.984C264.324 60.304 264.108 60.56 264.012 60.752C263.932 60.944 263.924 61.144 263.988 61.352C264.036 61.48 264.068 61.6 264.084 61.712C264.1 61.824 264.092 61.928 264.06 62.024C264.044 62.104 264.004 62.176 263.94 62.24C263.652 62.528 263.3 62.472 262.884 62.072C262.356 61.544 262.364 60.848 262.908 59.984Z" fill="black"/>
<rect x="241" y="43" width="40" height="40" stroke="#7A7A7A"/>
<rect x="281" y="43" width="40" height="40" stroke="#7A7A7A"/>
<rect x="321" y="43" width="40" height="40" stroke="#7A7A7A"/>
<path d="M376.028 58.448C376.46 58.144 376.772 58.008 376.964 58.04H376.988C377.036 58.04 377.092 58.056 377.156 58.088C377.236 58.12 377.308 58.176 377.372 58.256C377.436 58.32 377.508 58.408 377.588 58.52C377.796 58.824 377.868 59.032 377.804 59.144V59.168C377.756 59.28 377.684 59.856 377.588 60.896C377.524 61.904 377.46 62.44 377.396 62.504C377.348 62.6 377.324 62.856 377.324 63.272C377.34 63.608 377.3 63.928 377.204 64.232C377.108 64.52 377.02 65.048 376.94 65.816C376.86 66.568 376.764 67.272 376.652 67.928C376.508 68.936 376.396 69.848 376.316 70.664C376.236 71.48 376.18 72.208 376.148 72.848C376.132 73.536 376.1 73.96 376.052 74.12C376.036 74.216 376.004 74.296 375.956 74.36C375.908 74.424 375.852 74.48 375.788 74.528C375.66 74.624 375.564 74.672 375.5 74.672C375.436 74.672 375.332 74.616 375.188 74.504H375.164C374.956 74.36 374.82 74.176 374.756 73.952C374.708 73.728 374.7 73.384 374.732 72.92C374.748 72.84 374.764 72.688 374.78 72.464C374.796 72.256 374.82 71.984 374.852 71.648C374.884 71.312 374.916 70.904 374.948 70.424C374.964 70.2 374.98 69.992 374.996 69.8C375.028 69.592 375.052 69.424 375.068 69.296C375.084 69.152 375.1 69.024 375.116 68.912C375.132 68.8 375.14 68.72 375.14 68.672C375.156 68.608 375.172 68.568 375.188 68.552C375.268 68.408 375.396 67.336 375.572 65.336C375.588 65.128 375.612 64.928 375.644 64.736C375.676 64.528 375.708 64.344 375.74 64.184C375.772 64.008 375.812 63.848 375.86 63.704C375.94 63.416 376.004 63.008 376.052 62.48C376.116 61.936 376.148 61.472 376.148 61.088C376.148 60.88 376.14 60.728 376.124 60.632C376.108 60.504 376.076 60.424 376.028 60.392L376.004 60.368C375.956 60.368 375.892 60.392 375.812 60.44C375.732 60.472 375.636 60.528 375.524 60.608C375.412 60.688 375.268 60.792 375.092 60.92C374.932 61.016 374.788 61.104 374.66 61.184C373.956 61.52 373.468 61.448 373.196 60.968C373.084 60.76 373.068 60.6 373.148 60.488C373.244 60.36 373.508 60.16 373.94 59.888C374.5 59.616 374.876 59.384 375.068 59.192C375.324 58.984 375.644 58.736 376.028 58.448ZM382.438 57.464C382.534 57.432 382.646 57.408 382.774 57.392C382.902 57.36 383.054 57.344 383.23 57.344C383.886 57.296 384.806 57.288 385.99 57.32H388.006L388.414 57.704C388.494 57.8 388.558 57.88 388.606 57.944C388.654 58.008 388.686 58.064 388.702 58.112C388.734 58.176 388.718 58.28 388.654 58.424C388.558 58.6 388.414 58.728 388.222 58.808C388.03 58.872 387.846 58.856 387.67 58.76C387.494 58.664 386.75 58.616 385.438 58.616H383.542L383.11 59.096C382.838 59.368 382.606 59.48 382.414 59.432C382.254 59.4 382.134 59.4 382.054 59.432C382.022 59.448 381.99 59.488 381.958 59.552C381.926 59.6 381.894 59.672 381.862 59.768C381.798 59.976 381.758 60.248 381.742 60.584C381.742 60.904 381.742 61.392 381.742 62.048C381.742 62.784 381.758 63.344 381.79 63.728C381.838 64.112 381.902 64.328 381.982 64.376C382.062 64.424 382.27 64.368 382.606 64.208C382.766 64.128 382.982 64.064 383.254 64.016C383.542 63.968 383.894 63.936 384.31 63.92C385.126 63.872 385.694 63.904 386.014 64.016C386.494 64.16 386.966 64.52 387.43 65.096C387.59 65.272 387.734 65.464 387.862 65.672C387.99 65.88 388.11 66.104 388.222 66.344C388.334 66.568 388.422 66.8 388.486 67.04C388.662 67.568 388.758 68.264 388.774 69.128C388.79 69.976 388.71 70.648 388.534 71.144C388.47 71.336 388.398 71.52 388.318 71.696C388.254 71.872 388.182 72.04 388.102 72.2C388.038 72.36 387.966 72.512 387.886 72.656C387.806 72.8 387.726 72.928 387.646 73.04C387.582 73.168 387.51 73.28 387.43 73.376C387.35 73.472 387.27 73.56 387.19 73.64C386.854 74.024 386.502 74.28 386.134 74.408C385.766 74.552 385.254 74.632 384.598 74.648C383.926 74.696 383.326 74.672 382.798 74.576C382.27 74.496 381.814 74.352 381.43 74.144C380.982 73.856 380.486 73.44 379.942 72.896C379.766 72.72 379.614 72.552 379.486 72.392C379.358 72.248 379.254 72.12 379.174 72.008C379.11 71.896 379.07 71.808 379.054 71.744V71.72L378.982 71.48C378.918 71.304 378.878 71.16 378.862 71.048C378.75 70.664 378.758 70.376 378.886 70.184C379.014 70.008 379.174 69.912 379.366 69.896C379.462 69.88 379.55 69.888 379.63 69.92C379.726 69.952 379.814 70.008 379.894 70.088C379.99 70.184 380.07 70.408 380.134 70.76C380.166 70.936 380.222 71.104 380.302 71.264C380.382 71.44 380.486 71.608 380.614 71.768C380.758 71.928 380.926 72.08 381.118 72.224C381.662 72.688 382.342 73.048 383.158 73.304C383.414 73.384 383.63 73.44 383.806 73.472C383.998 73.52 384.15 73.552 384.262 73.568C384.47 73.568 384.774 73.496 385.174 73.352C385.638 73.192 385.998 72.968 386.254 72.68C386.526 72.408 386.774 72 386.998 71.456C387.078 71.248 387.142 71.064 387.19 70.904C387.254 70.728 387.294 70.576 387.31 70.448C387.358 70.192 387.382 69.744 387.382 69.104C387.382 68.448 387.358 68.008 387.31 67.784C387.278 67.56 387.174 67.24 386.998 66.824C386.854 66.584 386.71 66.368 386.566 66.176C386.438 65.968 386.294 65.784 386.134 65.624C385.942 65.464 385.774 65.368 385.63 65.336C385.486 65.288 385.206 65.264 384.79 65.264C383.718 65.264 382.782 65.496 381.982 65.96C381.614 66.168 381.35 66.272 381.19 66.272C381.046 66.256 380.878 66.128 380.686 65.888L380.374 65.504V62.168C380.39 60.584 380.406 59.608 380.422 59.24C380.438 59.048 380.462 58.872 380.494 58.712C380.542 58.552 380.598 58.4 380.662 58.256C380.806 57.968 380.91 57.808 380.974 57.776C380.99 57.76 381.022 57.752 381.07 57.752C381.118 57.736 381.174 57.728 381.238 57.728C381.318 57.728 381.406 57.728 381.502 57.728C381.678 57.744 381.83 57.744 381.958 57.728C382.086 57.696 382.182 57.64 382.246 57.56C382.294 57.528 382.358 57.496 382.438 57.464Z" fill="black"/>
<rect x="361" y="43" width="40" height="40" stroke="#7A7A7A"/>
<rect x="401" y="43" width="40" height="40" stroke="#7A7A7A"/>
<rect x="1" y="83" width="40" height="40" stroke="#7A7A7A"/>
<path d="M59.204 97.608C59.348 97.608 59.436 97.56 59.468 97.464C59.516 97.384 59.764 97.344 60.212 97.344C60.404 97.344 60.556 97.352 60.668 97.368C60.7 97.384 60.732 97.4 60.764 97.416C60.796 97.416 60.828 97.424 60.86 97.44C60.892 97.44 60.916 97.448 60.932 97.464C61.012 97.512 61.108 97.592 61.22 97.704C61.46 97.944 61.732 98.12 62.036 98.232C62.116 98.248 62.268 98.288 62.492 98.352C62.572 98.368 62.644 98.384 62.708 98.4C62.772 98.416 62.82 98.432 62.852 98.448C62.9 98.464 62.94 98.472 62.972 98.472C63.084 98.52 63.196 98.576 63.308 98.64C63.42 98.688 63.532 98.76 63.644 98.856C63.756 98.936 63.876 99.032 64.004 99.144C64.356 99.464 64.596 99.784 64.724 100.104C64.98 100.712 65.02 101.4 64.844 102.168C64.684 102.92 64.34 103.584 63.812 104.16C63.396 104.592 63.188 104.856 63.188 104.952C63.188 105 63.22 105.048 63.284 105.096C63.348 105.144 63.436 105.192 63.548 105.24C63.692 105.304 63.836 105.376 63.98 105.456C64.124 105.536 64.268 105.624 64.412 105.72C64.476 105.752 64.532 105.792 64.58 105.84C64.628 105.872 64.676 105.904 64.724 105.936C64.772 105.968 64.82 106 64.868 106.032C64.916 106.064 64.964 106.104 65.012 106.152C65.06 106.184 65.1 106.216 65.132 106.248C65.18 106.28 65.228 106.32 65.276 106.368C65.356 106.432 65.428 106.496 65.492 106.56C65.556 106.624 65.612 106.688 65.66 106.752C65.708 106.8 65.748 106.84 65.78 106.872C66.292 107.784 66.468 108.768 66.308 109.824C66.164 110.88 65.684 111.896 64.868 112.872C64.74 113.048 64.612 113.192 64.484 113.304C64.372 113.432 64.26 113.536 64.148 113.616C63.924 113.776 63.588 113.968 63.14 114.192C62.612 114.432 62.244 114.568 62.036 114.6C61.956 114.616 61.852 114.624 61.724 114.624C61.596 114.64 61.436 114.648 61.244 114.648C61.068 114.664 60.852 114.672 60.596 114.672C58.628 114.672 57.068 114.16 55.916 113.136C55.756 113.008 55.612 112.872 55.484 112.728C55.372 112.6 55.276 112.472 55.196 112.344C55.116 112.216 55.052 112.096 55.004 111.984C54.876 111.632 54.836 111.104 54.884 110.4C54.884 110.144 54.892 109.92 54.908 109.728C54.94 109.52 54.972 109.352 55.004 109.224C55.052 109.096 55.116 108.936 55.196 108.744C55.276 108.536 55.38 108.296 55.508 108.024C55.572 107.864 55.644 107.712 55.724 107.568C55.804 107.408 55.884 107.264 55.964 107.136C56.06 106.992 56.148 106.864 56.228 106.752C56.324 106.624 56.412 106.504 56.492 106.392C56.588 106.28 56.684 106.176 56.78 106.08C56.876 105.984 56.972 105.896 57.068 105.816C57.18 105.72 57.284 105.632 57.38 105.552C57.492 105.472 57.604 105.4 57.716 105.336C57.956 105.208 58.124 105.104 58.22 105.024C58.332 104.944 58.38 104.88 58.364 104.832C58.348 104.72 58.14 104.568 57.74 104.376C57.324 104.152 56.988 103.912 56.732 103.656C56.492 103.4 56.324 103.128 56.228 102.84C56.132 102.536 56.108 102.072 56.156 101.448C56.236 100.376 56.604 99.528 57.26 98.904C57.436 98.76 57.66 98.576 57.932 98.352C58.22 98.128 58.492 97.944 58.748 97.8C58.86 97.736 58.956 97.688 59.036 97.656C59.116 97.624 59.172 97.608 59.204 97.608ZM61.052 99.48C60.396 99.48 60.044 99.448 59.996 99.384C59.804 99.128 59.548 99.04 59.228 99.12C59.068 99.168 58.9 99.248 58.724 99.36C58.564 99.472 58.396 99.632 58.22 99.84C58.044 100.032 57.9 100.24 57.788 100.464C57.676 100.672 57.588 100.888 57.524 101.112C57.444 101.496 57.404 101.752 57.404 101.88C57.404 101.944 57.412 102.024 57.428 102.12C57.46 102.2 57.508 102.296 57.572 102.408C57.604 102.504 57.652 102.6 57.716 102.696C57.78 102.776 57.852 102.848 57.932 102.912C58.076 103.04 58.356 103.192 58.772 103.368C59.38 103.688 59.772 103.848 59.948 103.848C60.14 103.848 60.364 103.904 60.62 104.016C60.764 104.064 60.916 104.088 61.076 104.088C61.236 104.088 61.42 104.064 61.628 104.016C62.028 103.936 62.34 103.784 62.564 103.56C62.612 103.528 62.652 103.488 62.684 103.44C62.732 103.392 62.772 103.344 62.804 103.296C62.852 103.248 62.892 103.2 62.924 103.152C62.972 103.088 63.012 103.032 63.044 102.984C63.092 102.92 63.14 102.856 63.188 102.792C63.38 102.472 63.476 102.232 63.476 102.072C63.476 101.864 63.524 101.696 63.62 101.568C63.7 101.408 63.684 101.184 63.572 100.896C63.492 100.64 63.38 100.424 63.236 100.248C63.108 100.056 62.948 99.904 62.756 99.792C62.564 99.68 62.324 99.6 62.036 99.552C61.748 99.504 61.42 99.48 61.052 99.48ZM61.484 105.936C61.356 106 61.18 105.984 60.956 105.888C60.396 105.632 59.7 105.744 58.868 106.224C58.484 106.432 58.172 106.64 57.932 106.848C57.692 107.04 57.484 107.256 57.308 107.496C57.132 107.736 56.956 108.04 56.78 108.408C56.62 108.728 56.492 109.064 56.396 109.416C56.316 109.752 56.268 110.096 56.252 110.448L56.156 111.528L56.804 112.152C57.028 112.36 57.22 112.52 57.38 112.632C57.54 112.76 57.668 112.832 57.764 112.848C57.796 112.848 57.828 112.848 57.86 112.848C57.892 112.864 57.932 112.872 57.98 112.872C58.076 112.904 58.172 112.936 58.268 112.968C58.316 112.984 58.372 113 58.436 113.016C58.516 113.032 58.596 113.056 58.676 113.088C58.836 113.12 58.972 113.152 59.084 113.184C59.484 113.296 59.852 113.368 60.188 113.4C60.54 113.432 60.852 113.432 61.124 113.4C61.668 113.336 62.364 113.096 63.212 112.68C63.292 112.632 63.428 112.496 63.62 112.272C63.812 112.064 64.004 111.824 64.196 111.552C64.388 111.28 64.54 111.048 64.652 110.856C64.812 110.552 64.9 110.024 64.916 109.272C64.916 108.856 64.892 108.512 64.844 108.24C64.796 107.968 64.716 107.76 64.604 107.616C64.54 107.52 64.42 107.408 64.244 107.28C64.084 107.152 63.868 107.008 63.596 106.848C63.34 106.688 63.036 106.512 62.684 106.32C62.028 105.968 61.628 105.84 61.484 105.936Z" fill="black"/>
<rect x="41" y="83" width="40" height="40" stroke="#7A7A7A"/>
<rect x="81" y="83" width="40" height="40" stroke="#7A7A7A"/>
<rect x="121" y="83" width="40" height="40" stroke="#7A7A7A"/>
<path d="M173.84 107.64C173.792 107.624 173.744 107.6 173.696 107.568C173.648 107.52 173.6 107.456 173.552 107.376C173.36 107.152 173.312 106.928 173.408 106.704C173.44 106.64 173.488 106.568 173.552 106.488C173.632 106.408 173.72 106.328 173.816 106.248C173.928 106.152 174.056 106.048 174.2 105.936C176.568 104.336 178.376 102.536 179.624 100.536C179.832 100.2 180.048 99.896 180.272 99.624C180.544 99.32 180.896 98.84 181.328 98.184C181.792 97.464 182.096 97.032 182.24 96.888C182.368 96.712 182.544 96.64 182.768 96.672C183.008 96.688 183.192 96.792 183.32 96.984C183.4 97.128 183.432 97.248 183.416 97.344C183.416 97.424 183.32 97.6 183.128 97.872C182.52 98.784 181.968 99.56 181.472 100.2C181.088 100.728 180.784 101.152 180.56 101.472C180.304 101.856 180.008 102.256 179.672 102.672C179.352 103.088 178.992 103.52 178.592 103.968C178.384 104.208 178.192 104.416 178.016 104.592C177.856 104.768 177.704 104.928 177.56 105.072C177.416 105.2 177.288 105.312 177.176 105.408C177.08 105.488 176.992 105.552 176.912 105.6C176.704 105.696 176.592 105.776 176.576 105.84C176.656 105.92 177.832 105.952 180.104 105.936L183.632 105.912L183.656 101.688C183.672 99.672 183.696 98.448 183.728 98.016C183.744 97.6 183.816 97.336 183.944 97.224C184.088 97.08 184.256 97.032 184.448 97.08C184.656 97.112 184.808 97.2 184.904 97.344C184.968 97.488 185.008 98.928 185.024 101.664L185.096 105.72L185.384 105.96C185.48 106.04 185.6 106.096 185.744 106.128C185.888 106.16 186.064 106.184 186.272 106.2C186.48 106.2 186.656 106.192 186.8 106.176C186.96 106.144 187.08 106.096 187.16 106.032C187.176 106.016 187.192 106.008 187.208 106.008C187.24 105.992 187.28 105.976 187.328 105.96C187.392 105.944 187.448 105.928 187.496 105.912C187.56 105.896 187.616 105.88 187.664 105.864C187.728 105.848 187.768 105.84 187.784 105.84C187.928 105.84 188.048 105.872 188.144 105.936C188.256 106 188.336 106.096 188.384 106.224C188.48 106.384 188.528 106.504 188.528 106.584C188.528 106.664 188.48 106.76 188.384 106.872C188.112 107.32 187.416 107.488 186.296 107.376C185.704 107.312 185.344 107.328 185.216 107.424C185.104 107.52 185.048 108.528 185.048 110.448C185.048 111.28 185.064 111.992 185.096 112.584C185.096 112.872 185.104 113.096 185.12 113.256C185.136 113.432 185.152 113.536 185.168 113.568C185.328 113.84 185.272 114.12 185 114.408C184.872 114.552 184.744 114.632 184.616 114.648C184.488 114.68 184.36 114.656 184.232 114.576C184.168 114.544 184.112 114.504 184.064 114.456C184.016 114.408 183.976 114.352 183.944 114.288C183.896 114.16 183.848 113.936 183.8 113.616C183.768 113.296 183.744 112.904 183.728 112.44C183.728 111.976 183.728 111.312 183.728 110.448L183.68 107.328H180.536C178.232 107.328 176.176 107.432 174.368 107.64C174.288 107.656 174.216 107.664 174.152 107.664C174.088 107.664 174.024 107.664 173.96 107.664C173.912 107.664 173.872 107.656 173.84 107.64Z" fill="black"/>
<rect x="161" y="83" width="40" height="40" stroke="#7A7A7A"/>
<rect x="201" y="83" width="40" height="40" stroke="#7A7A7A"/>
<rect x="241" y="83" width="40" height="40" stroke="#7A7A7A"/>
<path d="M300.108 104.76C300.332 104.68 300.836 104.64 301.62 104.64C302.42 104.64 302.932 104.68 303.156 104.76C303.332 104.808 303.572 104.864 303.876 104.928C304.132 104.96 304.452 105.152 304.836 105.504C305.22 105.84 305.508 106.192 305.7 106.56C305.748 106.672 305.788 106.784 305.82 106.896C305.868 106.992 305.892 107.088 305.892 107.184C305.908 107.392 305.9 107.792 305.868 108.384C305.852 109.28 305.788 109.96 305.676 110.424C305.58 110.76 305.404 111.2 305.148 111.744C304.892 112.304 304.644 112.768 304.404 113.136C304.228 113.376 303.956 113.64 303.588 113.928C303.396 114.056 303.204 114.168 303.012 114.264C302.836 114.376 302.668 114.464 302.508 114.528C302.38 114.592 302.252 114.632 302.124 114.648C302.012 114.664 301.892 114.672 301.764 114.672C301.556 114.656 301.036 114.568 300.204 114.408C299.836 114.328 299.348 114.008 298.74 113.448C298.148 112.888 297.668 112.304 297.3 111.696C296.836 110.912 296.428 109.936 296.076 108.768C295.916 108.32 295.844 107.32 295.86 105.768C295.876 104.712 295.9 104.008 295.932 103.656C295.964 103.288 296.036 102.88 296.148 102.432C296.628 100.656 297.276 99.2 298.092 98.064C298.3 97.76 298.708 97.312 299.316 96.72C299.924 96.128 300.292 95.832 300.42 95.832C300.516 95.832 300.604 95.784 300.684 95.688C300.796 95.56 301.148 95.496 301.74 95.496C302.332 95.496 302.772 95.552 303.06 95.664C303.444 95.824 303.764 95.984 304.02 96.144C304.292 96.304 304.516 96.464 304.692 96.624C305.188 97.152 305.372 97.864 305.244 98.76C305.18 99.144 305.148 99.408 305.148 99.552V99.576C305.132 99.736 305.028 99.856 304.836 99.936C304.724 99.984 304.612 100 304.5 99.984C304.404 99.952 304.3 99.888 304.188 99.792C304.044 99.664 303.956 99.528 303.924 99.384C303.892 99.256 303.876 98.984 303.876 98.568C303.876 98.264 303.86 98.024 303.828 97.848C303.796 97.656 303.756 97.528 303.708 97.464C303.58 97.336 303.348 97.2 303.012 97.056C302.676 96.912 302.348 96.816 302.028 96.768C301.708 96.72 301.364 96.792 300.996 96.984C300.66 97.192 300.308 97.48 299.94 97.848C299.588 98.216 299.228 98.68 298.86 99.24C298.78 99.336 298.708 99.432 298.644 99.528C298.596 99.624 298.556 99.696 298.524 99.744C298.492 99.792 298.476 99.824 298.476 99.84C298.46 99.904 298.404 100.04 298.308 100.248C297.86 101.272 297.572 102.064 297.444 102.624C297.316 103.168 297.236 103.928 297.204 104.904C297.156 105.672 297.14 106.168 297.156 106.392L297.204 106.656C297.284 106.656 297.42 106.512 297.612 106.224C298.012 105.6 298.572 105.184 299.292 104.976C299.356 104.96 299.428 104.944 299.508 104.928C299.588 104.912 299.676 104.888 299.772 104.856C299.884 104.824 299.996 104.792 300.108 104.76ZM304.62 107.832C304.556 107.16 304.236 106.64 303.66 106.272C303.612 106.24 303.54 106.216 303.444 106.2C303.348 106.168 303.22 106.144 303.06 106.128C302.916 106.112 302.74 106.096 302.532 106.08C302.324 106.064 302.092 106.056 301.836 106.056C301.212 106.04 300.756 106.04 300.468 106.056C300.308 106.056 300.164 106.072 300.036 106.104C299.924 106.12 299.82 106.144 299.724 106.176C299.644 106.208 299.556 106.248 299.46 106.296C299.364 106.344 299.276 106.408 299.196 106.488C298.732 106.84 298.428 107.296 298.284 107.856C298.172 108.192 297.996 108.456 297.756 108.648C297.724 108.696 297.684 108.736 297.636 108.768C297.604 108.8 297.58 108.832 297.564 108.864C297.548 108.88 297.54 108.896 297.54 108.912C297.524 108.928 297.516 108.976 297.516 109.056C297.532 109.12 297.556 109.2 297.588 109.296C297.62 109.424 297.668 109.568 297.732 109.728C297.796 109.872 297.876 110.032 297.972 110.208C298.148 110.576 298.348 110.928 298.572 111.264C298.812 111.616 299.036 111.92 299.244 112.176C299.644 112.592 300.012 112.888 300.348 113.064C300.46 113.112 300.58 113.152 300.708 113.184C300.836 113.232 300.972 113.264 301.116 113.28C301.26 113.312 301.412 113.328 301.572 113.328C302.004 113.36 302.348 113.28 302.604 113.088C302.716 113.008 302.844 112.88 302.988 112.704C303.132 112.544 303.292 112.344 303.468 112.104C303.82 111.608 304.036 111.208 304.116 110.904C304.532 109.528 304.7 108.504 304.62 107.832Z" fill="black"/>
<rect x="281" y="83" width="40" height="40" stroke="#7A7A7A"/>
<rect x="321" y="83" width="40" height="40" stroke="#7A7A7A"/>
<rect x="361" y="83" width="40" height="40" stroke="#7A7A7A"/>
<path d="M416.028 98.448C416.46 98.144 416.772 98.008 416.964 98.04H416.988C417.036 98.04 417.092 98.056 417.156 98.088C417.236 98.12 417.308 98.176 417.372 98.256C417.436 98.32 417.508 98.408 417.588 98.52C417.796 98.824 417.868 99.032 417.804 99.144V99.168C417.756 99.28 417.684 99.856 417.588 100.896C417.524 101.904 417.46 102.44 417.396 102.504C417.348 102.6 417.324 102.856 417.324 103.272C417.34 103.608 417.3 103.928 417.204 104.232C417.108 104.52 417.02 105.048 416.94 105.816C416.86 106.568 416.764 107.272 416.652 107.928C416.508 108.936 416.396 109.848 416.316 110.664C416.236 111.48 416.18 112.208 416.148 112.848C416.132 113.536 416.1 113.96 416.052 114.12C416.036 114.216 416.004 114.296 415.956 114.36C415.908 114.424 415.852 114.48 415.788 114.528C415.66 114.624 415.564 114.672 415.5 114.672C415.436 114.672 415.332 114.616 415.188 114.504H415.164C414.956 114.36 414.82 114.176 414.756 113.952C414.708 113.728 414.7 113.384 414.732 112.92C414.748 112.84 414.764 112.688 414.78 112.464C414.796 112.256 414.82 111.984 414.852 111.648C414.884 111.312 414.916 110.904 414.948 110.424C414.964 110.2 414.98 109.992 414.996 109.8C415.028 109.592 415.052 109.424 415.068 109.296C415.084 109.152 415.1 109.024 415.116 108.912C415.132 108.8 415.14 108.72 415.14 108.672C415.156 108.608 415.172 108.568 415.188 108.552C415.268 108.408 415.396 107.336 415.572 105.336C415.588 105.128 415.612 104.928 415.644 104.736C415.676 104.528 415.708 104.344 415.74 104.184C415.772 104.008 415.812 103.848 415.86 103.704C415.94 103.416 416.004 103.008 416.052 102.48C416.116 101.936 416.148 101.472 416.148 101.088C416.148 100.88 416.14 100.728 416.124 100.632C416.108 100.504 416.076 100.424 416.028 100.392L416.004 100.368C415.956 100.368 415.892 100.392 415.812 100.44C415.732 100.472 415.636 100.528 415.524 100.608C415.412 100.688 415.268 100.792 415.092 100.92C414.932 101.016 414.788 101.104 414.66 101.184C413.956 101.52 413.468 101.448 413.196 100.968C413.084 100.76 413.068 100.6 413.148 100.488C413.244 100.36 413.508 100.16 413.94 99.888C414.5 99.616 414.876 99.384 415.068 99.192C415.324 98.984 415.644 98.736 416.028 98.448ZM423.038 104.76C423.262 104.68 423.766 104.64 424.55 104.64C425.35 104.64 425.862 104.68 426.086 104.76C426.262 104.808 426.502 104.864 426.806 104.928C427.062 104.96 427.382 105.152 427.766 105.504C428.15 105.84 428.438 106.192 428.63 106.56C428.678 106.672 428.718 106.784 428.75 106.896C428.798 106.992 428.822 107.088 428.822 107.184C428.838 107.392 428.83 107.792 428.798 108.384C428.782 109.28 428.718 109.96 428.606 110.424C428.51 110.76 428.334 111.2 428.078 111.744C427.822 112.304 427.574 112.768 427.334 113.136C427.158 113.376 426.886 113.64 426.518 113.928C426.326 114.056 426.134 114.168 425.942 114.264C425.766 114.376 425.598 114.464 425.438 114.528C425.31 114.592 425.182 114.632 425.054 114.648C424.942 114.664 424.822 114.672 424.694 114.672C424.486 114.656 423.966 114.568 423.134 114.408C422.766 114.328 422.278 114.008 421.67 113.448C421.078 112.888 420.598 112.304 420.23 111.696C419.766 110.912 419.358 109.936 419.006 108.768C418.846 108.32 418.774 107.32 418.79 105.768C418.806 104.712 418.83 104.008 418.862 103.656C418.894 103.288 418.966 102.88 419.078 102.432C419.558 100.656 420.206 99.2 421.022 98.064C421.23 97.76 421.638 97.312 422.246 96.72C422.854 96.128 423.222 95.832 423.35 95.832C423.446 95.832 423.534 95.784 423.614 95.688C423.726 95.56 424.078 95.496 424.67 95.496C425.262 95.496 425.702 95.552 425.99 95.664C426.374 95.824 426.694 95.984 426.95 96.144C427.222 96.304 427.446 96.464 427.622 96.624C428.118 97.152 428.302 97.864 428.174 98.76C428.11 99.144 428.078 99.408 428.078 99.552V99.576C428.062 99.736 427.958 99.856 427.766 99.936C427.654 99.984 427.542 100 427.43 99.984C427.334 99.952 427.23 99.888 427.118 99.792C426.974 99.664 426.886 99.528 426.854 99.384C426.822 99.256 426.806 98.984 426.806 98.568C426.806 98.264 426.79 98.024 426.758 97.848C426.726 97.656 426.686 97.528 426.638 97.464C426.51 97.336 426.278 97.2 425.942 97.056C425.606 96.912 425.278 96.816 424.958 96.768C424.638 96.72 424.294 96.792 423.926 96.984C423.59 97.192 423.238 97.48 422.87 97.848C422.518 98.216 422.158 98.68 421.79 99.24C421.71 99.336 421.638 99.432 421.574 99.528C421.526 99.624 421.486 99.696 421.454 99.744C421.422 99.792 421.406 99.824 421.406 99.84C421.39 99.904 421.334 100.04 421.238 100.248C420.79 101.272 420.502 102.064 420.374 102.624C420.246 103.168 420.166 103.928 420.134 104.904C420.086 105.672 420.07 106.168 420.086 106.392L420.134 106.656C420.214 106.656 420.35 106.512 420.542 106.224C420.942 105.6 421.502 105.184 422.222 104.976C422.286 104.96 422.358 104.944 422.438 104.928C422.518 104.912 422.606 104.888 422.702 104.856C422.814 104.824 422.926 104.792 423.038 104.76ZM427.55 107.832C427.486 107.16 427.166 106.64 426.59 106.272C426.542 106.24 426.47 106.216 426.374 106.2C426.278 106.168 426.15 106.144 425.99 106.128C425.846 106.112 425.67 106.096 425.462 106.08C425.254 106.064 425.022 106.056 424.766 106.056C424.142 106.04 423.686 106.04 423.398 106.056C423.238 106.056 423.094 106.072 422.966 106.104C422.854 106.12 422.75 106.144 422.654 106.176C422.574 106.208 422.486 106.248 422.39 106.296C422.294 106.344 422.206 106.408 422.126 106.488C421.662 106.84 421.358 107.296 421.214 107.856C421.102 108.192 420.926 108.456 420.686 108.648C420.654 108.696 420.614 108.736 420.566 108.768C420.534 108.8 420.51 108.832 420.494 108.864C420.478 108.88 420.47 108.896 420.47 108.912C420.454 108.928 420.446 108.976 420.446 109.056C420.462 109.12 420.486 109.2 420.518 109.296C420.55 109.424 420.598 109.568 420.662 109.728C420.726 109.872 420.806 110.032 420.902 110.208C421.078 110.576 421.278 110.928 421.502 111.264C421.742 111.616 421.966 111.92 422.174 112.176C422.574 112.592 422.942 112.888 423.278 113.064C423.39 113.112 423.51 113.152 423.638 113.184C423.766 113.232 423.902 113.264 424.046 113.28C424.19 113.312 424.342 113.328 424.502 113.328C424.934 113.36 425.278 113.28 425.534 113.088C425.646 113.008 425.774 112.88 425.918 112.704C426.062 112.544 426.222 112.344 426.398 112.104C426.75 111.608 426.966 111.208 427.046 110.904C427.462 109.528 427.63 108.504 427.55 107.832Z" fill="black"/>
<rect x="401" y="83" width="40" height="40" stroke="#7A7A7A"/>
<rect x="1" y="123" width="40" height="40" stroke="#7A7A7A"/>
<rect x="41" y="123" width="40" height="40" stroke="#7A7A7A"/>
<path d="M101.528 138.448C101.96 138.144 102.272 138.008 102.464 138.04H102.488C102.536 138.04 102.592 138.056 102.656 138.088C102.736 138.12 102.808 138.176 102.872 138.256C102.936 138.32 103.008 138.408 103.088 138.52C103.296 138.824 103.368 139.032 103.304 139.144V139.168C103.256 139.28 103.184 139.856 103.088 140.896C103.024 141.904 102.96 142.44 102.896 142.504C102.848 142.6 102.824 142.856 102.824 143.272C102.84 143.608 102.8 143.928 102.704 144.232C102.608 144.52 102.52 145.048 102.44 145.816C102.36 146.568 102.264 147.272 102.152 147.928C102.008 148.936 101.896 149.848 101.816 150.664C101.736 151.48 101.68 152.208 101.648 152.848C101.632 153.536 101.6 153.96 101.552 154.12C101.536 154.216 101.504 154.296 101.456 154.36C101.408 154.424 101.352 154.48 101.288 154.528C101.16 154.624 101.064 154.672 101 154.672C100.936 154.672 100.832 154.616 100.688 154.504H100.664C100.456 154.36 100.32 154.176 100.256 153.952C100.208 153.728 100.2 153.384 100.232 152.92C100.248 152.84 100.264 152.688 100.28 152.464C100.296 152.256 100.32 151.984 100.352 151.648C100.384 151.312 100.416 150.904 100.448 150.424C100.464 150.2 100.48 149.992 100.496 149.8C100.528 149.592 100.552 149.424 100.568 149.296C100.584 149.152 100.6 149.024 100.616 148.912C100.632 148.8 100.64 148.72 100.64 148.672C100.656 148.608 100.672 148.568 100.688 148.552C100.768 148.408 100.896 147.336 101.072 145.336C101.088 145.128 101.112 144.928 101.144 144.736C101.176 144.528 101.208 144.344 101.24 144.184C101.272 144.008 101.312 143.848 101.36 143.704C101.44 143.416 101.504 143.008 101.552 142.48C101.616 141.936 101.648 141.472 101.648 141.088C101.648 140.88 101.64 140.728 101.624 140.632C101.608 140.504 101.576 140.424 101.528 140.392L101.504 140.368C101.456 140.368 101.392 140.392 101.312 140.44C101.232 140.472 101.136 140.528 101.024 140.608C100.912 140.688 100.768 140.792 100.592 140.92C100.432 141.016 100.288 141.104 100.16 141.184C99.456 141.52 98.968 141.448 98.696 140.968C98.584 140.76 98.568 140.6 98.648 140.488C98.744 140.36 99.008 140.16 99.44 139.888C100 139.616 100.376 139.384 100.568 139.192C100.824 138.984 101.144 138.736 101.528 138.448Z" fill="black"/>
<rect x="81" y="123" width="40" height="40" stroke="#7A7A7A"/>
<rect x="121" y="123" width="40" height="40" stroke="#7A7A7A"/>
<rect x="161" y="123" width="40" height="40" stroke="#7A7A7A"/>
<path d="M216.028 138.448C216.46 138.144 216.772 138.008 216.964 138.04H216.988C217.036 138.04 217.092 138.056 217.156 138.088C217.236 138.12 217.308 138.176 217.372 138.256C217.436 138.32 217.508 138.408 217.588 138.52C217.796 138.824 217.868 139.032 217.804 139.144V139.168C217.756 139.28 217.684 139.856 217.588 140.896C217.524 141.904 217.46 142.44 217.396 142.504C217.348 142.6 217.324 142.856 217.324 143.272C217.34 143.608 217.3 143.928 217.204 144.232C217.108 144.52 217.02 145.048 216.94 145.816C216.86 146.568 216.764 147.272 216.652 147.928C216.508 148.936 216.396 149.848 216.316 150.664C216.236 151.48 216.18 152.208 216.148 152.848C216.132 153.536 216.1 153.96 216.052 154.12C216.036 154.216 216.004 154.296 215.956 154.36C215.908 154.424 215.852 154.48 215.788 154.528C215.66 154.624 215.564 154.672 215.5 154.672C215.436 154.672 215.332 154.616 215.188 154.504H215.164C214.956 154.36 214.82 154.176 214.756 153.952C214.708 153.728 214.7 153.384 214.732 152.92C214.748 152.84 214.764 152.688 214.78 152.464C214.796 152.256 214.82 151.984 214.852 151.648C214.884 151.312 214.916 150.904 214.948 150.424C214.964 150.2 214.98 149.992 214.996 149.8C215.028 149.592 215.052 149.424 215.068 149.296C215.084 149.152 215.1 149.024 215.116 148.912C215.132 148.8 215.14 148.72 215.14 148.672C215.156 148.608 215.172 148.568 215.188 148.552C215.268 148.408 215.396 147.336 215.572 145.336C215.588 145.128 215.612 144.928 215.644 144.736C215.676 144.528 215.708 144.344 215.74 144.184C215.772 144.008 215.812 143.848 215.86 143.704C215.94 143.416 216.004 143.008 216.052 142.48C216.116 141.936 216.148 141.472 216.148 141.088C216.148 140.88 216.14 140.728 216.124 140.632C216.108 140.504 216.076 140.424 216.028 140.392L216.004 140.368C215.956 140.368 215.892 140.392 215.812 140.44C215.732 140.472 215.636 140.528 215.524 140.608C215.412 140.688 215.268 140.792 215.092 140.92C214.932 141.016 214.788 141.104 214.66 141.184C213.956 141.52 213.468 141.448 213.196 140.968C213.084 140.76 213.068 140.6 213.148 140.488C213.244 140.36 213.508 140.16 213.94 139.888C214.5 139.616 214.876 139.384 215.068 139.192C215.324 138.984 215.644 138.736 216.028 138.448ZM220.35 142.024C221.246 140.2 222.086 139.096 222.87 138.712C223.238 138.52 223.742 138.424 224.382 138.424C224.59 138.424 224.782 138.44 224.958 138.472C225.134 138.488 225.286 138.52 225.414 138.568C225.542 138.6 225.654 138.648 225.75 138.712C225.814 138.744 225.878 138.784 225.942 138.832C226.006 138.88 226.07 138.936 226.134 139C226.214 139.064 226.286 139.136 226.35 139.216C226.43 139.296 226.51 139.384 226.59 139.48C226.67 139.576 226.75 139.68 226.83 139.792C227.022 140.08 227.182 140.344 227.31 140.584C227.454 140.808 227.55 141.016 227.598 141.208C227.63 141.304 227.758 141.688 227.982 142.36C228.11 142.744 228.174 143.52 228.174 144.688C228.174 145.84 228.11 146.584 227.982 146.92C227.822 147.272 227.742 147.568 227.742 147.808C227.742 148.144 227.622 148.744 227.382 149.608C227.254 150.04 227.126 150.432 226.998 150.784C226.87 151.12 226.734 151.424 226.59 151.696C226.366 152.144 226.102 152.552 225.798 152.92C225.51 153.288 225.182 153.616 224.814 153.904C224.094 154.48 223.43 154.736 222.822 154.672C222.182 154.592 221.566 154.352 220.974 153.952C220.398 153.552 219.966 153.064 219.678 152.488C219.55 152.232 219.438 151.992 219.342 151.768C219.246 151.544 219.166 151.344 219.102 151.168C218.99 150.784 218.91 150.344 218.862 149.848C218.814 149.352 218.79 148.712 218.79 147.928C218.79 146.584 218.862 145.624 219.006 145.048C219.166 144.472 219.614 143.464 220.35 142.024ZM225.966 140.992C225.662 140.464 225.318 140.104 224.934 139.912C224.502 139.656 224.118 139.72 223.782 140.104C223.606 140.328 223.438 140.44 223.278 140.44C223.246 140.44 223.206 140.448 223.158 140.464C223.11 140.464 223.062 140.48 223.014 140.512C222.982 140.528 222.942 140.552 222.894 140.584C222.846 140.6 222.798 140.632 222.75 140.68C222.718 140.712 222.678 140.752 222.63 140.8C222.438 141.04 222.062 141.688 221.502 142.744C220.942 143.816 220.63 144.544 220.566 144.928C220.534 144.992 220.502 145.072 220.47 145.168C220.454 145.248 220.43 145.36 220.398 145.504C220.334 145.776 220.278 145.96 220.23 146.056C220.102 146.52 220.07 147.32 220.134 148.456C220.214 149.576 220.358 150.416 220.566 150.976C220.822 151.808 221.222 152.424 221.766 152.824C222.31 153.208 222.886 153.304 223.494 153.112C223.91 152.968 224.382 152.536 224.91 151.816C225.454 151.096 225.742 150.512 225.774 150.064C225.774 149.856 225.838 149.648 225.966 149.44C226.094 149.216 226.158 148.936 226.158 148.6C226.158 148.296 226.246 147.968 226.422 147.616C226.566 147.28 226.662 146.52 226.71 145.336C226.758 144.136 226.718 143.272 226.59 142.744C226.478 142.104 226.27 141.52 225.966 140.992Z" fill="black"/>
<rect x="201" y="123" width="40" height="40" stroke="#7A7A7A"/>
<rect x="241" y="123" width="40" height="40" stroke="#7A7A7A"/>
<rect x="281" y="123" width="40" height="40" stroke="#7A7A7A"/>
<path d="M332.064 139.984C332.336 139.552 332.688 139.16 333.12 138.808C333.552 138.44 334.056 138.12 334.632 137.848C335.48 137.432 336.192 137.272 336.768 137.368C337.344 137.448 337.912 137.8 338.472 138.424C338.712 138.696 338.904 138.952 339.048 139.192C339.208 139.432 339.32 139.656 339.384 139.864C339.528 140.28 339.6 141.024 339.6 142.096C339.6 142.976 339.576 143.552 339.528 143.824C339.496 144.096 339.416 144.36 339.288 144.616C339.096 144.984 338.84 145.384 338.52 145.816C338.44 145.928 338.36 146.032 338.28 146.128C338.2 146.224 338.12 146.312 338.04 146.392C337.976 146.472 337.912 146.544 337.848 146.608C337.784 146.672 337.72 146.728 337.656 146.776C337.272 147.112 336.608 147.584 335.664 148.192C335.2 148.496 334.816 148.736 334.512 148.912C334.208 149.088 333.984 149.2 333.84 149.248C333.728 149.296 333.624 149.344 333.528 149.392C333.432 149.424 333.344 149.456 333.264 149.488C333.2 149.52 333.144 149.552 333.096 149.584C333.064 149.6 332.992 149.624 332.88 149.656C332.784 149.672 332.656 149.696 332.496 149.728C332.144 149.808 331.912 149.96 331.8 150.184C331.768 150.264 331.736 150.368 331.704 150.496C331.688 150.608 331.672 150.752 331.656 150.928C331.656 151.088 331.656 151.272 331.656 151.48C331.656 152.2 331.688 152.616 331.752 152.728C331.816 152.84 332.192 152.856 332.88 152.776C333.616 152.68 335.096 152.632 337.32 152.632L340.776 152.584L340.92 152.872C340.968 152.952 340.992 153.04 340.992 153.136C340.992 153.232 340.976 153.328 340.944 153.424C340.928 153.488 340.896 153.544 340.848 153.592C340.816 153.656 340.768 153.704 340.704 153.736C340.656 153.784 340.6 153.824 340.536 153.856C340.408 153.92 339.032 153.984 336.408 154.048C334.504 154.064 333.288 154.104 332.76 154.168C332.504 154.2 332.256 154.24 332.016 154.288C331.792 154.352 331.576 154.44 331.368 154.552C330.984 154.744 330.704 154.72 330.528 154.48C330.48 154.432 330.44 154.184 330.408 153.736C330.392 153.288 330.376 152.656 330.36 151.84C330.36 151.28 330.36 150.808 330.36 150.424C330.36 150.024 330.368 149.704 330.384 149.464C330.416 149.224 330.44 149.072 330.456 149.008C330.552 148.72 330.672 148.536 330.816 148.456C330.96 148.376 331.2 148.352 331.536 148.384C332.16 148.464 333.056 148.184 334.224 147.544C336.112 146.456 337.328 145.376 337.872 144.304C338.048 143.952 338.16 143.664 338.208 143.44C338.224 143.392 338.232 143.328 338.232 143.248C338.248 143.168 338.256 143.072 338.256 142.96C338.272 142.848 338.28 142.72 338.28 142.576C338.28 142.432 338.28 142.272 338.28 142.096C338.28 141.168 338.168 140.496 337.944 140.08C337.8 139.712 337.6 139.392 337.344 139.12C337.264 139.04 337.184 138.968 337.104 138.904C337.024 138.84 336.944 138.784 336.864 138.736C336.784 138.688 336.712 138.656 336.648 138.64C336.504 138.608 336.32 138.616 336.096 138.664C335.872 138.712 335.608 138.808 335.304 138.952C334.696 139.24 334.2 139.584 333.816 139.984C333.48 140.304 333.264 140.56 333.168 140.752C333.088 140.944 333.08 141.144 333.144 141.352C333.192 141.48 333.224 141.6 333.24 141.712C333.256 141.824 333.248 141.928 333.216 142.024C333.2 142.104 333.16 142.176 333.096 142.24C332.808 142.528 332.456 142.472 332.04 142.072C331.512 141.544 331.52 140.848 332.064 139.984ZM343.264 142.024C344.16 140.2 345 139.096 345.784 138.712C346.152 138.52 346.656 138.424 347.296 138.424C347.504 138.424 347.696 138.44 347.872 138.472C348.048 138.488 348.2 138.52 348.328 138.568C348.456 138.6 348.568 138.648 348.664 138.712C348.728 138.744 348.792 138.784 348.856 138.832C348.92 138.88 348.984 138.936 349.048 139C349.128 139.064 349.2 139.136 349.264 139.216C349.344 139.296 349.424 139.384 349.504 139.48C349.584 139.576 349.664 139.68 349.744 139.792C349.936 140.08 350.096 140.344 350.224 140.584C350.368 140.808 350.464 141.016 350.512 141.208C350.544 141.304 350.672 141.688 350.896 142.36C351.024 142.744 351.088 143.52 351.088 144.688C351.088 145.84 351.024 146.584 350.896 146.92C350.736 147.272 350.656 147.568 350.656 147.808C350.656 148.144 350.536 148.744 350.296 149.608C350.168 150.04 350.04 150.432 349.912 150.784C349.784 151.12 349.648 151.424 349.504 151.696C349.28 152.144 349.016 152.552 348.712 152.92C348.424 153.288 348.096 153.616 347.728 153.904C347.008 154.48 346.344 154.736 345.736 154.672C345.096 154.592 344.48 154.352 343.888 153.952C343.312 153.552 342.88 153.064 342.592 152.488C342.464 152.232 342.352 151.992 342.256 151.768C342.16 151.544 342.08 151.344 342.016 151.168C341.904 150.784 341.824 150.344 341.776 149.848C341.728 149.352 341.704 148.712 341.704 147.928C341.704 146.584 341.776 145.624 341.92 145.048C342.08 144.472 342.528 143.464 343.264 142.024ZM348.88 140.992C348.576 140.464 348.232 140.104 347.848 139.912C347.416 139.656 347.032 139.72 346.696 140.104C346.52 140.328 346.352 140.44 346.192 140.44C346.16 140.44 346.12 140.448 346.072 140.464C346.024 140.464 345.976 140.48 345.928 140.512C345.896 140.528 345.856 140.552 345.808 140.584C345.76 140.6 345.712 140.632 345.664 140.68C345.632 140.712 345.592 140.752 345.544 140.8C345.352 141.04 344.976 141.688 344.416 142.744C343.856 143.816 343.544 144.544 343.48 144.928C343.448 144.992 343.416 145.072 343.384 145.168C343.368 145.248 343.344 145.36 343.312 145.504C343.248 145.776 343.192 145.96 343.144 146.056C343.016 146.52 342.984 147.32 343.048 148.456C343.128 149.576 343.272 150.416 343.48 150.976C343.736 151.808 344.136 152.424 344.68 152.824C345.224 153.208 345.8 153.304 346.408 153.112C346.824 152.968 347.296 152.536 347.824 151.816C348.368 151.096 348.656 150.512 348.688 150.064C348.688 149.856 348.752 149.648 348.88 149.44C349.008 149.216 349.072 148.936 349.072 148.6C349.072 148.296 349.16 147.968 349.336 147.616C349.48 147.28 349.576 146.52 349.624 145.336C349.672 144.136 349.632 143.272 349.504 142.744C349.392 142.104 349.184 141.52 348.88 140.992Z" fill="black"/>
<rect x="321" y="123" width="40" height="40" stroke="#7A7A7A"/>
<rect x="361" y="123" width="40" height="40" stroke="#7A7A7A"/>
<rect x="401" y="123" width="40" height="40" stroke="#7A7A7A"/>
<path d="M5.704 14.272C5.96 14.192 6.512 14.144 7.36 14.128C7.52 14.128 7.656 14.128 7.768 14.128C7.896 14.128 8.008 14.136 8.104 14.152C8.216 14.152 8.304 14.16 8.368 14.176C8.448 14.176 8.512 14.176 8.56 14.176C8.656 14.208 8.776 14.256 8.92 14.32C9.064 14.368 9.224 14.432 9.4 14.512C10.28 14.944 10.872 15.576 11.176 16.408C11.336 16.824 11.408 17.232 11.392 17.632C11.376 18.032 11.272 18.432 11.08 18.832L10.744 19.432V22.504C10.744 24.552 10.704 25.736 10.624 26.056C10.56 26.28 10.488 26.624 10.408 27.088C10.344 27.488 10.224 27.896 10.048 28.312C9.872 28.728 9.648 29.144 9.376 29.56C9.104 29.992 8.784 30.432 8.416 30.88C8.336 30.96 8.256 31.04 8.176 31.12C8.096 31.2 8.008 31.272 7.912 31.336C7.816 31.416 7.712 31.488 7.6 31.552C7.504 31.616 7.392 31.672 7.264 31.72C7.152 31.784 7.032 31.848 6.904 31.912C6.264 32.168 5.792 32.224 5.488 32.08C5.28 31.984 5.088 31.936 4.912 31.936C4.512 31.92 4.024 31.64 3.448 31.096C3.16 30.824 2.896 30.52 2.656 30.184C2.416 29.864 2.2 29.52 2.008 29.152C1.752 28.64 1.592 28.28 1.528 28.072C1.48 27.864 1.448 27.504 1.432 26.992L1.36 25.912V25.888L1.792 25.456C1.888 25.36 1.976 25.28 2.056 25.216C2.136 25.168 2.208 25.128 2.272 25.096C2.336 25.08 2.392 25.072 2.44 25.072C2.504 25.072 2.56 25.08 2.608 25.096C2.672 25.112 2.728 25.136 2.776 25.168C2.824 25.216 2.872 25.272 2.92 25.336C3.032 25.512 3.088 25.632 3.088 25.696C3.088 25.76 3.032 25.872 2.92 26.032C2.568 26.656 2.64 27.488 3.136 28.528C3.6 29.488 4.176 30.152 4.864 30.52C5.568 30.904 6.216 30.904 6.808 30.52C6.888 30.488 6.96 30.44 7.024 30.376C7.104 30.328 7.176 30.272 7.24 30.208C7.304 30.144 7.368 30.072 7.432 29.992C7.512 29.928 7.592 29.848 7.672 29.752C7.752 29.672 7.824 29.584 7.888 29.488C8.064 29.248 8.224 29.008 8.368 28.768C8.512 28.544 8.632 28.312 8.728 28.072C9.048 27.272 9.224 26.712 9.256 26.392C9.304 26.088 9.352 25.144 9.4 23.56C9.4 22.968 9.392 22.472 9.376 22.072C9.376 21.672 9.368 21.36 9.352 21.136C9.352 20.896 9.336 20.76 9.304 20.728C9.288 20.712 9.256 20.704 9.208 20.704C9.176 20.688 9.128 20.688 9.064 20.704C9.016 20.72 8.952 20.744 8.872 20.776C8.792 20.792 8.696 20.824 8.584 20.872C8.52 20.904 8.472 20.928 8.44 20.944C8.28 21.008 8.128 21.064 7.984 21.112C7.856 21.16 7.744 21.192 7.648 21.208C7.6 21.208 7.528 21.216 7.432 21.232C7.352 21.232 7.256 21.232 7.144 21.232C7.032 21.232 6.896 21.232 6.736 21.232C6.592 21.232 6.432 21.224 6.256 21.208C5.904 21.192 5.616 21.176 5.392 21.16C5.168 21.144 4.992 21.128 4.864 21.112C4.752 21.08 4.624 21.04 4.48 20.992C4.336 20.928 4.176 20.848 4 20.752C3.296 20.416 2.792 20.04 2.488 19.624C2.344 19.416 2.232 19.184 2.152 18.928C2.088 18.656 2.056 18.36 2.056 18.04C2.056 17.384 2.24 16.776 2.608 16.216C2.704 16.056 2.832 15.896 2.992 15.736C3.152 15.576 3.344 15.416 3.568 15.256C4 14.952 4.432 14.72 4.864 14.56C4.912 14.528 5 14.496 5.128 14.464C5.272 14.416 5.392 14.384 5.488 14.368C5.584 14.336 5.656 14.304 5.704 14.272ZM6.328 15.592C6.248 15.624 6.152 15.648 6.04 15.664C5.928 15.68 5.8 15.688 5.656 15.688C5.352 15.704 4.984 15.856 4.552 16.144C4.136 16.432 3.824 16.736 3.616 17.056C2.992 18.144 3.304 18.984 4.552 19.576C4.824 19.704 5.072 19.784 5.296 19.816C5.408 19.832 5.56 19.848 5.752 19.864C5.96 19.864 6.216 19.864 6.52 19.864C6.68 19.864 6.824 19.864 6.952 19.864C7.08 19.864 7.184 19.864 7.264 19.864C7.36 19.864 7.44 19.856 7.504 19.84C7.584 19.84 7.656 19.832 7.72 19.816C7.8 19.8 7.872 19.784 7.936 19.768C8.064 19.72 8.248 19.616 8.488 19.456H8.512C8.608 19.408 8.688 19.368 8.752 19.336C8.816 19.288 8.864 19.248 8.896 19.216C8.976 19.168 9.056 19.088 9.136 18.976C9.168 18.912 9.192 18.864 9.208 18.832C9.24 18.784 9.256 18.744 9.256 18.712C9.272 18.664 9.272 18.52 9.256 18.28C9.24 18.04 9.216 17.832 9.184 17.656C9.168 17.464 9.12 17.152 9.04 16.72C9.008 16.512 8.976 16.344 8.944 16.216C8.912 16.072 8.88 15.976 8.848 15.928C8.832 15.864 8.8 15.808 8.752 15.76C8.72 15.712 8.664 15.672 8.584 15.64C8.536 15.608 8.456 15.584 8.344 15.568C8.248 15.552 8.128 15.536 7.984 15.52C7.84 15.504 7.672 15.496 7.48 15.496C6.904 15.48 6.52 15.512 6.328 15.592ZM13.9418 16.408C14.3098 15.976 14.8218 15.6 15.4778 15.28L16.4618 14.8H18.4538H20.3978L20.9258 15.328C21.3578 15.68 21.6378 16.064 21.7658 16.48C21.8938 16.88 21.9818 17.608 22.0298 18.664C22.0458 19.224 22.0538 19.64 22.0538 19.912C22.0698 20.168 22.1018 20.384 22.1498 20.56C22.1658 20.64 22.1898 20.728 22.2218 20.824C22.2538 20.904 22.2938 20.984 22.3418 21.064C22.4858 21.352 22.8218 21.752 23.3498 22.264C23.5258 22.44 23.6778 22.584 23.8058 22.696C23.9338 22.824 24.0378 22.912 24.1178 22.96C24.2138 23.024 24.2858 23.056 24.3338 23.056C24.3818 23.056 24.4298 23.072 24.4778 23.104C24.5418 23.136 24.5978 23.176 24.6458 23.224C24.7098 23.288 24.7738 23.336 24.8378 23.368C24.9178 23.4 25.0058 23.416 25.1018 23.416C25.1498 23.416 25.1978 23.424 25.2458 23.44C25.2938 23.456 25.3418 23.48 25.3898 23.512C25.4538 23.544 25.5098 23.584 25.5578 23.632C25.6218 23.68 25.6778 23.736 25.7258 23.8C25.8218 23.88 25.8858 23.944 25.9178 23.992C25.9658 24.056 25.9978 24.104 26.0138 24.136C26.0138 24.2 25.9658 24.32 25.8698 24.496C25.6298 24.832 25.1658 24.872 24.4778 24.616C24.1418 24.488 23.7978 24.304 23.4458 24.064C23.1098 23.84 22.7658 23.552 22.4138 23.2L21.5978 22.408L20.9738 23.104C20.2698 23.872 19.7178 24.424 19.3178 24.76C18.9338 25.112 18.5578 25.352 18.1898 25.48C17.8218 25.608 17.3658 25.672 16.8218 25.672C16.0858 25.672 15.5178 25.6 15.1178 25.456C14.7338 25.328 14.2698 25.04 13.7258 24.592C13.2938 24.224 12.9178 23.808 12.5978 23.344L12.1178 22.648V21.232C12.1658 20.272 12.2378 19.672 12.3338 19.432C12.4938 19.176 12.5738 18.984 12.5738 18.856C12.5738 18.664 12.7338 18.28 13.0538 17.704C13.3738 17.128 13.6698 16.696 13.9418 16.408ZM20.6138 19.048C20.6618 18.088 20.6698 17.504 20.6378 17.296C20.6218 17.088 20.5418 16.888 20.3978 16.696L20.1098 16.24L18.3098 16.216C17.5098 16.216 16.9818 16.232 16.7258 16.264C16.4698 16.296 16.2138 16.376 15.9578 16.504C15.8778 16.536 15.7978 16.576 15.7178 16.624C15.6538 16.656 15.5818 16.696 15.5018 16.744C15.4218 16.792 15.3418 16.848 15.2618 16.912C15.1978 16.96 15.1338 17.016 15.0698 17.08C15.0058 17.144 14.9338 17.216 14.8538 17.296C14.6938 17.504 14.5178 17.784 14.3258 18.136C14.1338 18.472 13.9418 18.888 13.7498 19.384C13.5898 19.72 13.4938 20.272 13.4618 21.04L13.3898 22.264L13.9418 22.936C14.3418 23.416 14.7258 23.76 15.0938 23.968C15.4778 24.192 15.9418 24.328 16.4858 24.376C16.9018 24.408 17.1898 24.416 17.3498 24.4C17.4298 24.384 17.5178 24.36 17.6138 24.328C17.7258 24.296 17.8458 24.248 17.9738 24.184C18.1018 24.104 18.2458 24 18.4058 23.872C18.5658 23.76 18.7418 23.616 18.9338 23.44C19.2858 23.104 19.6058 22.744 19.8938 22.36C19.9898 22.232 20.0698 22.112 20.1338 22C20.2138 21.872 20.2778 21.76 20.3258 21.664C20.3738 21.568 20.4058 21.48 20.4218 21.4C20.5178 21.112 20.5818 20.328 20.6138 19.048ZM30.4388 15.52C30.7908 15.36 31.3588 15.28 32.1428 15.28C32.9268 15.264 33.4228 15.312 33.6308 15.424C33.7268 15.472 33.8228 15.536 33.9188 15.616C34.0148 15.68 34.1108 15.76 34.2068 15.856C34.4148 16.032 34.6068 16.224 34.7828 16.432C34.9588 16.64 35.1348 16.872 35.3108 17.128C35.4868 17.368 35.6308 17.608 35.7428 17.848C35.7588 17.88 35.7748 17.92 35.7908 17.968C35.8228 18.016 35.8468 18.064 35.8628 18.112C35.8788 18.16 35.8948 18.216 35.9108 18.28C35.9268 18.328 35.9428 18.384 35.9588 18.448C35.9748 18.512 35.9908 18.576 36.0068 18.64C36.0228 18.704 36.0308 18.768 36.0308 18.832C36.0468 18.896 36.0548 18.968 36.0548 19.048C36.0708 19.128 36.0788 19.2 36.0788 19.264C36.1428 19.888 36.1268 20.4 36.0308 20.8C35.6628 22.128 34.5908 23.272 32.8148 24.232C32.5588 24.376 32.2548 24.496 31.9028 24.592C31.5668 24.704 31.1828 24.8 30.7508 24.88C29.9028 25.024 29.2788 25.032 28.8788 24.904C28.5108 24.76 28.2868 24.792 28.2068 25C28.1268 25.32 28.0868 26.448 28.0868 28.384C28.0868 30.208 28.0468 31.296 27.9668 31.648C27.9348 31.824 27.8628 31.952 27.7508 32.032C27.6388 32.112 27.4948 32.152 27.3188 32.152C27.0148 32.152 26.8388 31.864 26.7908 31.288C26.7268 30.68 26.7268 28.976 26.7908 26.176C26.8228 24.928 26.8468 23.696 26.8628 22.48C26.8948 21.28 26.9188 20.096 26.9348 18.928C26.9348 17.472 26.9748 16.616 27.0548 16.36C27.1668 16.136 27.3268 16 27.5348 15.952C27.6468 15.936 27.7508 15.944 27.8468 15.976C27.9588 16.008 28.0628 16.072 28.1588 16.168L28.4948 16.48H28.5188L29.1908 16.12C29.7348 15.8 30.1508 15.6 30.4388 15.52ZM34.4948 18.4C34.4948 18.304 34.4148 18.144 34.2548 17.92C34.0948 17.68 33.8468 17.376 33.5108 17.008C33.3508 16.832 33.1988 16.72 33.0548 16.672C32.9268 16.624 32.6548 16.6 32.2388 16.6C32.1588 16.6 32.0708 16.6 31.9748 16.6C31.8948 16.6 31.8148 16.608 31.7348 16.624C31.6548 16.624 31.5748 16.632 31.4948 16.648C31.4148 16.664 31.3348 16.68 31.2548 16.696C31.1748 16.712 31.0948 16.728 31.0148 16.744C30.9348 16.76 30.8548 16.784 30.7748 16.816C30.6948 16.848 30.6148 16.88 30.5348 16.912C30.4228 16.944 30.3188 16.984 30.2228 17.032C30.1428 17.064 30.0628 17.104 29.9828 17.152C29.9028 17.2 29.8308 17.248 29.7668 17.296C29.7188 17.344 29.6708 17.392 29.6228 17.44C29.4468 17.648 29.3428 17.92 29.3108 18.256C29.2948 18.512 29.2228 18.688 29.0948 18.784C28.7268 19.008 28.5108 19.208 28.4468 19.384C28.4308 19.448 28.4148 19.552 28.3988 19.696C28.3828 19.824 28.3668 19.992 28.3508 20.2C28.3348 20.408 28.3268 20.664 28.3268 20.968C28.3268 21.88 28.3588 22.464 28.4228 22.72C28.5028 22.992 28.6948 23.208 28.9988 23.368C29.2228 23.48 29.5268 23.552 29.9108 23.584C30.1188 23.584 30.3028 23.576 30.4628 23.56C30.6228 23.544 30.7588 23.512 30.8708 23.464C30.9828 23.4 31.2468 23.304 31.6628 23.176C32.1908 23.016 32.6868 22.768 33.1508 22.432C33.3748 22.272 33.5748 22.104 33.7508 21.928C33.9428 21.736 34.1108 21.536 34.2548 21.328C34.4148 21.088 34.5268 20.904 34.5908 20.776C34.6548 20.632 34.6948 20.488 34.7108 20.344C34.7268 20.312 34.7348 20.272 34.7348 20.224C34.7348 20.176 34.7348 20.128 34.7348 20.08C34.7508 20.016 34.7588 19.952 34.7588 19.888C34.7588 19.808 34.7588 19.728 34.7588 19.648C34.7588 19.056 34.7108 18.728 34.6148 18.664C34.5348 18.6 34.4948 18.512 34.4948 18.4ZM50.4237 13.024C50.5837 12.944 51.0157 12.904 51.7197 12.904C52.4237 12.904 52.8397 12.976 52.9677 13.12C53.0957 13.232 53.1677 13.392 53.1837 13.6C53.1997 13.792 53.1517 13.928 53.0397 14.008C52.9117 14.088 52.3037 14.176 51.2157 14.272C50.1277 14.368 48.9197 14.44 47.5917 14.488C46.7437 14.504 46.0957 14.504 45.6477 14.488C45.2157 14.472 44.9197 14.44 44.7597 14.392C44.6157 14.344 44.4797 14.256 44.3517 14.128C44.1917 13.984 44.1597 13.784 44.2557 13.528L44.3997 13.144H47.3037C49.2877 13.144 50.3277 13.104 50.4237 13.024ZM47.7597 18.496C47.9997 18.496 48.3517 18.488 48.8157 18.472C51.4397 18.424 52.9757 18.408 53.4237 18.424C53.8877 18.424 54.1837 18.488 54.3117 18.616C54.3277 18.632 54.3517 18.656 54.3837 18.688C54.5277 18.832 54.6157 19 54.6477 19.192C54.6957 19.384 54.6717 19.544 54.5757 19.672C54.5277 19.752 52.9677 19.792 49.8957 19.792C46.8237 19.792 45.1997 19.848 45.0237 19.96C44.6717 20.168 44.3677 20.04 44.1117 19.576C44.0477 19.464 44.0317 19.376 44.0637 19.312C44.0957 19.232 44.1917 19.104 44.3517 18.928L44.7357 18.568L47.7597 18.496ZM63.8268 8.488C64.0348 8.376 64.4348 8.288 65.0268 8.224C65.7628 8.128 67.0428 8.088 68.8668 8.104H71.5308L71.7948 8.416C71.9548 8.656 72.0028 8.856 71.9388 9.016C71.9068 9.128 71.8268 9.296 71.6988 9.52C71.5708 9.728 71.3948 10 71.1708 10.336C70.7068 10.992 70.2588 11.56 69.8268 12.04C69.2668 12.68 68.8428 13.176 68.5547 13.528C68.2828 13.88 68.1468 14.088 68.1468 14.152C68.1468 14.248 68.3068 14.312 68.6268 14.344C69.2348 14.456 70.0508 14.856 71.0748 15.544C71.4588 15.8 71.7788 16.064 72.0348 16.336C72.3068 16.608 72.5068 16.88 72.6348 17.152C72.9068 17.696 73.0428 18.496 73.0428 19.552C73.0588 20.336 73.0108 20.944 72.8988 21.376C72.8508 21.6 72.7708 21.856 72.6588 22.144C72.5468 22.432 72.4028 22.76 72.2268 23.128C71.7788 24.024 71.0908 24.72 70.1628 25.216C70.0828 25.248 70.0108 25.28 69.9468 25.312C69.8988 25.344 69.8428 25.368 69.7788 25.384C69.7148 25.416 69.6588 25.44 69.6108 25.456C69.5628 25.488 69.5148 25.512 69.4668 25.528C69.4188 25.544 69.3708 25.552 69.3228 25.552C69.2748 25.568 69.2348 25.576 69.2028 25.576C68.9628 25.608 68.3548 25.632 67.3788 25.648C66.4508 25.68 65.8668 25.68 65.6268 25.648C65.4988 25.632 65.3628 25.6 65.2188 25.552C65.0748 25.504 64.9148 25.44 64.7388 25.36C64.1308 25.088 63.6668 24.76 63.3468 24.376C63.0428 24.008 62.8268 23.496 62.6988 22.84C62.5708 22.264 62.5388 21.864 62.6028 21.64C62.6828 21.416 62.8748 21.304 63.1788 21.304C63.4828 21.304 63.6908 21.432 63.8027 21.688C63.9308 21.944 63.9948 22.208 63.9948 22.48C63.9948 23.344 64.5468 23.944 65.6508 24.28C66.1788 24.472 66.8748 24.528 67.7388 24.448C68.6188 24.368 69.3308 24.184 69.8748 23.896C70.1308 23.752 70.4028 23.472 70.6908 23.056C70.9948 22.656 71.2348 22.224 71.4108 21.76C71.6028 21.248 71.6988 20.576 71.6988 19.744C71.6988 18.624 71.5068 17.816 71.1228 17.32C70.9948 17.16 70.7548 16.952 70.4028 16.696C70.0668 16.424 69.8588 16.288 69.7788 16.288C69.7308 16.288 69.6508 16.264 69.5388 16.216C69.4428 16.168 69.3148 16.088 69.1548 15.976C68.9468 15.832 68.7468 15.744 68.5547 15.712C68.3788 15.68 67.9628 15.672 67.3068 15.688C66.9228 15.704 66.6028 15.704 66.3468 15.688C66.1068 15.672 65.9308 15.648 65.8188 15.616C65.7228 15.568 65.6508 15.504 65.6028 15.424C65.5548 15.344 65.5308 15.232 65.5308 15.088C65.5308 14.848 65.9548 14.296 66.8028 13.432C68.6428 11.496 69.6908 10.296 69.9468 9.832C70.0108 9.72 70.0108 9.6 69.9468 9.472C69.8988 9.328 69.4028 9.288 68.4588 9.352C66.1068 9.448 64.7228 9.56 64.3068 9.688C64.1788 9.72 64.0588 9.72 63.9468 9.688C63.8988 9.672 63.8588 9.648 63.8268 9.616C63.7948 9.584 63.7628 9.552 63.7308 9.52C63.6988 9.488 63.6668 9.456 63.6348 9.424C63.5388 9.312 63.4908 9.192 63.4908 9.064C63.4908 9.016 63.4908 8.976 63.4908 8.944C63.5068 8.896 63.5228 8.856 63.5388 8.824C63.5548 8.776 63.5708 8.736 63.5868 8.704C63.6028 8.672 63.6188 8.648 63.6348 8.632C63.6668 8.6 63.6988 8.576 63.7308 8.56C63.7628 8.528 63.7948 8.504 63.8268 8.488Z" fill="black"/>
</svg>
