<svg width="442" height="122" viewBox="0 0 442 122" fill="none" xmlns="http://www.w3.org/2000/svg">
<rect width="440" height="40" transform="translate(1 1)" fill="#FFCCC9"/>
<path d="M17.42 20.024C18.316 18.2 19.156 17.096 19.94 16.712C20.308 16.52 20.812 16.424 21.452 16.424C21.66 16.424 21.852 16.44 22.028 16.472C22.204 16.488 22.356 16.52 22.484 16.568C22.612 16.6 22.724 16.648 22.82 16.712C22.884 16.744 22.948 16.784 23.012 16.832C23.076 16.88 23.14 16.936 23.204 17C23.284 17.064 23.356 17.136 23.42 17.216C23.5 17.296 23.58 17.384 23.66 17.48C23.74 17.576 23.82 17.68 23.9 17.792C24.092 18.08 24.252 18.344 24.38 18.584C24.524 18.808 24.62 19.016 24.668 19.208C24.7 19.304 24.828 19.688 25.052 20.36C25.18 20.744 25.244 21.52 25.244 22.688C25.244 23.84 25.18 24.584 25.052 24.92C24.892 25.272 24.812 25.568 24.812 25.808C24.812 26.144 24.692 26.744 24.452 27.608C24.324 28.04 24.196 28.432 24.068 28.784C23.94 29.12 23.804 29.424 23.66 29.696C23.436 30.144 23.172 30.552 22.868 30.92C22.58 31.288 22.252 31.616 21.884 31.904C21.164 32.48 20.5 32.736 19.892 32.672C19.252 32.592 18.636 32.352 18.044 31.952C17.468 31.552 17.036 31.064 16.748 30.488C16.62 30.232 16.508 29.992 16.412 29.768C16.316 29.544 16.236 29.344 16.172 29.168C16.06 28.784 15.98 28.344 15.932 27.848C15.884 27.352 15.86 26.712 15.86 25.928C15.86 24.584 15.932 23.624 16.076 23.048C16.236 22.472 16.684 21.464 17.42 20.024ZM23.036 18.992C22.732 18.464 22.388 18.104 22.004 17.912C21.572 17.656 21.188 17.72 20.852 18.104C20.676 18.328 20.508 18.44 20.348 18.44C20.316 18.44 20.276 18.448 20.228 18.464C20.18 18.464 20.132 18.48 20.084 18.512C20.052 18.528 20.012 18.552 19.964 18.584C19.916 18.6 19.868 18.632 19.82 18.68C19.788 18.712 19.748 18.752 19.7 18.8C19.508 19.04 19.132 19.688 18.572 20.744C18.012 21.816 17.7 22.544 17.636 22.928C17.604 22.992 17.572 23.072 17.54 23.168C17.524 23.248 17.5 23.36 17.468 23.504C17.404 23.776 17.348 23.96 17.3 24.056C17.172 24.52 17.14 25.32 17.204 26.456C17.284 27.576 17.428 28.416 17.636 28.976C17.892 29.808 18.292 30.424 18.836 30.824C19.38 31.208 19.956 31.304 20.564 31.112C20.98 30.968 21.452 30.536 21.98 29.816C22.524 29.096 22.812 28.512 22.844 28.064C22.844 27.856 22.908 27.648 23.036 27.44C23.164 27.216 23.228 26.936 23.228 26.6C23.228 26.296 23.316 25.968 23.492 25.616C23.636 25.28 23.732 24.52 23.78 23.336C23.828 22.136 23.788 21.272 23.66 20.744C23.548 20.104 23.34 19.52 23.036 18.992Z" fill="black"/>
<rect x="1" y="1" width="40" height="40" stroke="#FF9696"/>
<rect x="41" y="1" width="40" height="40" stroke="#FF9696"/>
<rect x="81" y="1" width="40" height="40" stroke="#FF9696"/>
<path d="M136.608 15.488C136.816 15.376 137.216 15.288 137.808 15.224C138.544 15.128 139.824 15.088 141.648 15.104H144.312L144.576 15.416C144.736 15.656 144.784 15.856 144.72 16.016C144.688 16.128 144.608 16.296 144.48 16.52C144.352 16.728 144.176 17 143.952 17.336C143.488 17.992 143.04 18.56 142.608 19.04C142.048 19.68 141.624 20.176 141.336 20.528C141.064 20.88 140.928 21.088 140.928 21.152C140.928 21.248 141.088 21.312 141.408 21.344C142.016 21.456 142.832 21.856 143.856 22.544C144.24 22.8 144.56 23.064 144.816 23.336C145.088 23.608 145.288 23.88 145.416 24.152C145.688 24.696 145.824 25.496 145.824 26.552C145.84 27.336 145.792 27.944 145.68 28.376C145.632 28.6 145.552 28.856 145.44 29.144C145.328 29.432 145.184 29.76 145.008 30.128C144.56 31.024 143.872 31.72 142.944 32.216C142.864 32.248 142.792 32.28 142.728 32.312C142.68 32.344 142.624 32.368 142.56 32.384C142.496 32.416 142.44 32.44 142.392 32.456C142.344 32.488 142.296 32.512 142.248 32.528C142.2 32.544 142.152 32.552 142.104 32.552C142.056 32.568 142.016 32.576 141.984 32.576C141.744 32.608 141.136 32.632 140.16 32.648C139.232 32.68 138.648 32.68 138.408 32.648C138.28 32.632 138.144 32.6 138 32.552C137.856 32.504 137.696 32.44 137.52 32.36C136.912 32.088 136.448 31.76 136.128 31.376C135.824 31.008 135.608 30.496 135.48 29.84C135.352 29.264 135.32 28.864 135.384 28.64C135.464 28.416 135.656 28.304 135.96 28.304C136.264 28.304 136.472 28.432 136.584 28.688C136.712 28.944 136.776 29.208 136.776 29.48C136.776 30.344 137.328 30.944 138.432 31.28C138.96 31.472 139.656 31.528 140.52 31.448C141.4 31.368 142.112 31.184 142.656 30.896C142.912 30.752 143.184 30.472 143.472 30.056C143.776 29.656 144.016 29.224 144.192 28.76C144.384 28.248 144.48 27.576 144.48 26.744C144.48 25.624 144.288 24.816 143.904 24.32C143.776 24.16 143.536 23.952 143.184 23.696C142.848 23.424 142.64 23.288 142.56 23.288C142.512 23.288 142.432 23.264 142.32 23.216C142.224 23.168 142.096 23.088 141.936 22.976C141.728 22.832 141.528 22.744 141.336 22.712C141.16 22.68 140.744 22.672 140.088 22.688C139.704 22.704 139.384 22.704 139.128 22.688C138.888 22.672 138.712 22.648 138.6 22.616C138.504 22.568 138.432 22.504 138.384 22.424C138.336 22.344 138.312 22.232 138.312 22.088C138.312 21.848 138.736 21.296 139.584 20.432C141.424 18.496 142.472 17.296 142.728 16.832C142.792 16.72 142.792 16.6 142.728 16.472C142.68 16.328 142.184 16.288 141.24 16.352C138.888 16.448 137.504 16.56 137.088 16.688C136.96 16.72 136.84 16.72 136.728 16.688C136.68 16.672 136.64 16.648 136.608 16.616C136.576 16.584 136.544 16.552 136.512 16.52C136.48 16.488 136.448 16.456 136.416 16.424C136.32 16.312 136.272 16.192 136.272 16.064C136.272 16.016 136.272 15.976 136.272 15.944C136.288 15.896 136.304 15.856 136.32 15.824C136.336 15.776 136.352 15.736 136.368 15.704C136.384 15.672 136.4 15.648 136.416 15.632C136.448 15.6 136.48 15.576 136.512 15.56C136.544 15.528 136.576 15.504 136.608 15.488Z" fill="black"/>
<rect x="121" y="1" width="40" height="40" stroke="#FF9696"/>
<rect x="161" y="1" width="40" height="40" stroke="#FF9696"/>
<rect x="201" y="1" width="40" height="40" stroke="#FF9696"/>
<path d="M256.028 16.448C256.46 16.144 256.772 16.008 256.964 16.04H256.988C257.036 16.04 257.092 16.056 257.156 16.088C257.236 16.12 257.308 16.176 257.372 16.256C257.436 16.32 257.508 16.408 257.588 16.52C257.796 16.824 257.868 17.032 257.804 17.144V17.168C257.756 17.28 257.684 17.856 257.588 18.896C257.524 19.904 257.46 20.44 257.396 20.504C257.348 20.6 257.324 20.856 257.324 21.272C257.34 21.608 257.3 21.928 257.204 22.232C257.108 22.52 257.02 23.048 256.94 23.816C256.86 24.568 256.764 25.272 256.652 25.928C256.508 26.936 256.396 27.848 256.316 28.664C256.236 29.48 256.18 30.208 256.148 30.848C256.132 31.536 256.1 31.96 256.052 32.12C256.036 32.216 256.004 32.296 255.956 32.36C255.908 32.424 255.852 32.48 255.788 32.528C255.66 32.624 255.564 32.672 255.5 32.672C255.436 32.672 255.332 32.616 255.188 32.504H255.164C254.956 32.36 254.82 32.176 254.756 31.952C254.708 31.728 254.7 31.384 254.732 30.92C254.748 30.84 254.764 30.688 254.78 30.464C254.796 30.256 254.82 29.984 254.852 29.648C254.884 29.312 254.916 28.904 254.948 28.424C254.964 28.2 254.98 27.992 254.996 27.8C255.028 27.592 255.052 27.424 255.068 27.296C255.084 27.152 255.1 27.024 255.116 26.912C255.132 26.8 255.14 26.72 255.14 26.672C255.156 26.608 255.172 26.568 255.188 26.552C255.268 26.408 255.396 25.336 255.572 23.336C255.588 23.128 255.612 22.928 255.644 22.736C255.676 22.528 255.708 22.344 255.74 22.184C255.772 22.008 255.812 21.848 255.86 21.704C255.94 21.416 256.004 21.008 256.052 20.48C256.116 19.936 256.148 19.472 256.148 19.088C256.148 18.88 256.14 18.728 256.124 18.632C256.108 18.504 256.076 18.424 256.028 18.392L256.004 18.368C255.956 18.368 255.892 18.392 255.812 18.44C255.732 18.472 255.636 18.528 255.524 18.608C255.412 18.688 255.268 18.792 255.092 18.92C254.932 19.016 254.788 19.104 254.66 19.184C253.956 19.52 253.468 19.448 253.196 18.968C253.084 18.76 253.068 18.6 253.148 18.488C253.244 18.36 253.508 18.16 253.94 17.888C254.5 17.616 254.876 17.384 255.068 17.192C255.324 16.984 255.644 16.736 256.028 16.448ZM262.438 15.464C262.534 15.432 262.646 15.408 262.774 15.392C262.902 15.36 263.054 15.344 263.23 15.344C263.886 15.296 264.806 15.288 265.99 15.32H268.006L268.414 15.704C268.494 15.8 268.558 15.88 268.606 15.944C268.654 16.008 268.686 16.064 268.702 16.112C268.734 16.176 268.718 16.28 268.654 16.424C268.558 16.6 268.414 16.728 268.222 16.808C268.03 16.872 267.846 16.856 267.67 16.76C267.494 16.664 266.75 16.616 265.438 16.616H263.542L263.11 17.096C262.838 17.368 262.606 17.48 262.414 17.432C262.254 17.4 262.134 17.4 262.054 17.432C262.022 17.448 261.99 17.488 261.958 17.552C261.926 17.6 261.894 17.672 261.862 17.768C261.798 17.976 261.758 18.248 261.742 18.584C261.742 18.904 261.742 19.392 261.742 20.048C261.742 20.784 261.758 21.344 261.79 21.728C261.838 22.112 261.902 22.328 261.982 22.376C262.062 22.424 262.27 22.368 262.606 22.208C262.766 22.128 262.982 22.064 263.254 22.016C263.542 21.968 263.894 21.936 264.31 21.92C265.126 21.872 265.694 21.904 266.014 22.016C266.494 22.16 266.966 22.52 267.43 23.096C267.59 23.272 267.734 23.464 267.862 23.672C267.99 23.88 268.11 24.104 268.222 24.344C268.334 24.568 268.422 24.8 268.486 25.04C268.662 25.568 268.758 26.264 268.774 27.128C268.79 27.976 268.71 28.648 268.534 29.144C268.47 29.336 268.398 29.52 268.318 29.696C268.254 29.872 268.182 30.04 268.102 30.2C268.038 30.36 267.966 30.512 267.886 30.656C267.806 30.8 267.726 30.928 267.646 31.04C267.582 31.168 267.51 31.28 267.43 31.376C267.35 31.472 267.27 31.56 267.19 31.64C266.854 32.024 266.502 32.28 266.134 32.408C265.766 32.552 265.254 32.632 264.598 32.648C263.926 32.696 263.326 32.672 262.798 32.576C262.27 32.496 261.814 32.352 261.43 32.144C260.982 31.856 260.486 31.44 259.942 30.896C259.766 30.72 259.614 30.552 259.486 30.392C259.358 30.248 259.254 30.12 259.174 30.008C259.11 29.896 259.07 29.808 259.054 29.744V29.72L258.982 29.48C258.918 29.304 258.878 29.16 258.862 29.048C258.75 28.664 258.758 28.376 258.886 28.184C259.014 28.008 259.174 27.912 259.366 27.896C259.462 27.88 259.55 27.888 259.63 27.92C259.726 27.952 259.814 28.008 259.894 28.088C259.99 28.184 260.07 28.408 260.134 28.76C260.166 28.936 260.222 29.104 260.302 29.264C260.382 29.44 260.486 29.608 260.614 29.768C260.758 29.928 260.926 30.08 261.118 30.224C261.662 30.688 262.342 31.048 263.158 31.304C263.414 31.384 263.63 31.44 263.806 31.472C263.998 31.52 264.15 31.552 264.262 31.568C264.47 31.568 264.774 31.496 265.174 31.352C265.638 31.192 265.998 30.968 266.254 30.68C266.526 30.408 266.774 30 266.998 29.456C267.078 29.248 267.142 29.064 267.19 28.904C267.254 28.728 267.294 28.576 267.31 28.448C267.358 28.192 267.382 27.744 267.382 27.104C267.382 26.448 267.358 26.008 267.31 25.784C267.278 25.56 267.174 25.24 266.998 24.824C266.854 24.584 266.71 24.368 266.566 24.176C266.438 23.968 266.294 23.784 266.134 23.624C265.942 23.464 265.774 23.368 265.63 23.336C265.486 23.288 265.206 23.264 264.79 23.264C263.718 23.264 262.782 23.496 261.982 23.96C261.614 24.168 261.35 24.272 261.19 24.272C261.046 24.256 260.878 24.128 260.686 23.888L260.374 23.504V20.168C260.39 18.584 260.406 17.608 260.422 17.24C260.438 17.048 260.462 16.872 260.494 16.712C260.542 16.552 260.598 16.4 260.662 16.256C260.806 15.968 260.91 15.808 260.974 15.776C260.99 15.76 261.022 15.752 261.07 15.752C261.118 15.736 261.174 15.728 261.238 15.728C261.318 15.728 261.406 15.728 261.502 15.728C261.678 15.744 261.83 15.744 261.958 15.728C262.086 15.696 262.182 15.64 262.246 15.56C262.294 15.528 262.358 15.496 262.438 15.464Z" fill="black"/>
<rect x="241" y="1" width="40" height="40" stroke="#FF9696"/>
<rect x="281" y="1" width="40" height="40" stroke="#FF9696"/>
<rect x="321" y="1" width="40" height="40" stroke="#FF9696"/>
<path d="M371.564 17.984C371.836 17.552 372.188 17.16 372.62 16.808C373.052 16.44 373.556 16.12 374.132 15.848C374.98 15.432 375.692 15.272 376.268 15.368C376.844 15.448 377.412 15.8 377.972 16.424C378.212 16.696 378.404 16.952 378.548 17.192C378.708 17.432 378.82 17.656 378.884 17.864C379.028 18.28 379.1 19.024 379.1 20.096C379.1 20.976 379.076 21.552 379.028 21.824C378.996 22.096 378.916 22.36 378.788 22.616C378.596 22.984 378.34 23.384 378.02 23.816C377.94 23.928 377.86 24.032 377.78 24.128C377.7 24.224 377.62 24.312 377.54 24.392C377.476 24.472 377.412 24.544 377.348 24.608C377.284 24.672 377.22 24.728 377.156 24.776C376.772 25.112 376.108 25.584 375.164 26.192C374.7 26.496 374.316 26.736 374.012 26.912C373.708 27.088 373.484 27.2 373.34 27.248C373.228 27.296 373.124 27.344 373.028 27.392C372.932 27.424 372.844 27.456 372.764 27.488C372.7 27.52 372.644 27.552 372.596 27.584C372.564 27.6 372.492 27.624 372.38 27.656C372.284 27.672 372.156 27.696 371.996 27.728C371.644 27.808 371.412 27.96 371.3 28.184C371.268 28.264 371.236 28.368 371.204 28.496C371.188 28.608 371.172 28.752 371.156 28.928C371.156 29.088 371.156 29.272 371.156 29.48C371.156 30.2 371.188 30.616 371.252 30.728C371.316 30.84 371.692 30.856 372.38 30.776C373.116 30.68 374.596 30.632 376.82 30.632L380.276 30.584L380.42 30.872C380.468 30.952 380.492 31.04 380.492 31.136C380.492 31.232 380.476 31.328 380.444 31.424C380.428 31.488 380.396 31.544 380.348 31.592C380.316 31.656 380.268 31.704 380.204 31.736C380.156 31.784 380.1 31.824 380.036 31.856C379.908 31.92 378.532 31.984 375.908 32.048C374.004 32.064 372.788 32.104 372.26 32.168C372.004 32.2 371.756 32.24 371.516 32.288C371.292 32.352 371.076 32.44 370.868 32.552C370.484 32.744 370.204 32.72 370.028 32.48C369.98 32.432 369.94 32.184 369.908 31.736C369.892 31.288 369.876 30.656 369.86 29.84C369.86 29.28 369.86 28.808 369.86 28.424C369.86 28.024 369.868 27.704 369.884 27.464C369.916 27.224 369.94 27.072 369.956 27.008C370.052 26.72 370.172 26.536 370.316 26.456C370.46 26.376 370.7 26.352 371.036 26.384C371.66 26.464 372.556 26.184 373.724 25.544C375.612 24.456 376.828 23.376 377.372 22.304C377.548 21.952 377.66 21.664 377.708 21.44C377.724 21.392 377.732 21.328 377.732 21.248C377.748 21.168 377.756 21.072 377.756 20.96C377.772 20.848 377.78 20.72 377.78 20.576C377.78 20.432 377.78 20.272 377.78 20.096C377.78 19.168 377.668 18.496 377.444 18.08C377.3 17.712 377.1 17.392 376.844 17.12C376.764 17.04 376.684 16.968 376.604 16.904C376.524 16.84 376.444 16.784 376.364 16.736C376.284 16.688 376.212 16.656 376.148 16.64C376.004 16.608 375.82 16.616 375.596 16.664C375.372 16.712 375.108 16.808 374.804 16.952C374.196 17.24 373.7 17.584 373.316 17.984C372.98 18.304 372.764 18.56 372.668 18.752C372.588 18.944 372.58 19.144 372.644 19.352C372.692 19.48 372.724 19.6 372.74 19.712C372.756 19.824 372.748 19.928 372.716 20.024C372.7 20.104 372.66 20.176 372.596 20.24C372.308 20.528 371.956 20.472 371.54 20.072C371.012 19.544 371.02 18.848 371.564 17.984ZM382.908 17.984C383.18 17.552 383.532 17.16 383.964 16.808C384.396 16.44 384.9 16.12 385.476 15.848C386.324 15.432 387.036 15.272 387.612 15.368C388.188 15.448 388.756 15.8 389.316 16.424C389.556 16.696 389.748 16.952 389.892 17.192C390.052 17.432 390.164 17.656 390.228 17.864C390.372 18.28 390.444 19.024 390.444 20.096C390.444 20.976 390.42 21.552 390.372 21.824C390.34 22.096 390.26 22.36 390.132 22.616C389.94 22.984 389.684 23.384 389.364 23.816C389.284 23.928 389.204 24.032 389.124 24.128C389.044 24.224 388.964 24.312 388.884 24.392C388.82 24.472 388.756 24.544 388.692 24.608C388.628 24.672 388.564 24.728 388.5 24.776C388.116 25.112 387.452 25.584 386.508 26.192C386.044 26.496 385.66 26.736 385.356 26.912C385.052 27.088 384.828 27.2 384.684 27.248C384.572 27.296 384.468 27.344 384.372 27.392C384.276 27.424 384.188 27.456 384.108 27.488C384.044 27.52 383.988 27.552 383.94 27.584C383.908 27.6 383.836 27.624 383.724 27.656C383.628 27.672 383.5 27.696 383.34 27.728C382.988 27.808 382.756 27.96 382.644 28.184C382.612 28.264 382.58 28.368 382.548 28.496C382.532 28.608 382.516 28.752 382.5 28.928C382.5 29.088 382.5 29.272 382.5 29.48C382.5 30.2 382.532 30.616 382.596 30.728C382.66 30.84 383.036 30.856 383.724 30.776C384.46 30.68 385.94 30.632 388.164 30.632L391.62 30.584L391.764 30.872C391.812 30.952 391.836 31.04 391.836 31.136C391.836 31.232 391.82 31.328 391.788 31.424C391.772 31.488 391.74 31.544 391.692 31.592C391.66 31.656 391.612 31.704 391.548 31.736C391.5 31.784 391.444 31.824 391.38 31.856C391.252 31.92 389.876 31.984 387.252 32.048C385.348 32.064 384.132 32.104 383.604 32.168C383.348 32.2 383.1 32.24 382.86 32.288C382.636 32.352 382.42 32.44 382.212 32.552C381.828 32.744 381.548 32.72 381.372 32.48C381.324 32.432 381.284 32.184 381.252 31.736C381.236 31.288 381.22 30.656 381.204 29.84C381.204 29.28 381.204 28.808 381.204 28.424C381.204 28.024 381.212 27.704 381.228 27.464C381.26 27.224 381.284 27.072 381.3 27.008C381.396 26.72 381.516 26.536 381.66 26.456C381.804 26.376 382.044 26.352 382.38 26.384C383.004 26.464 383.9 26.184 385.068 25.544C386.956 24.456 388.172 23.376 388.716 22.304C388.892 21.952 389.004 21.664 389.052 21.44C389.068 21.392 389.076 21.328 389.076 21.248C389.092 21.168 389.1 21.072 389.1 20.96C389.116 20.848 389.124 20.72 389.124 20.576C389.124 20.432 389.124 20.272 389.124 20.096C389.124 19.168 389.012 18.496 388.788 18.08C388.644 17.712 388.444 17.392 388.188 17.12C388.108 17.04 388.028 16.968 387.948 16.904C387.868 16.84 387.788 16.784 387.708 16.736C387.628 16.688 387.556 16.656 387.492 16.64C387.348 16.608 387.164 16.616 386.94 16.664C386.716 16.712 386.452 16.808 386.148 16.952C385.54 17.24 385.044 17.584 384.66 17.984C384.324 18.304 384.108 18.56 384.012 18.752C383.932 18.944 383.924 19.144 383.988 19.352C384.036 19.48 384.068 19.6 384.084 19.712C384.1 19.824 384.092 19.928 384.06 20.024C384.044 20.104 384.004 20.176 383.94 20.24C383.652 20.528 383.3 20.472 382.884 20.072C382.356 19.544 382.364 18.848 382.908 17.984Z" fill="black"/>
<rect x="361" y="1" width="40" height="40" stroke="#FF9696"/>
<rect x="401" y="1" width="40" height="40" stroke="#FF9696"/>
<rect x="1" y="41" width="40" height="40" stroke="#7A7A7A"/>
<path d="M53.84 65.64C53.792 65.624 53.744 65.6 53.696 65.568C53.648 65.52 53.6 65.456 53.552 65.376C53.36 65.152 53.312 64.928 53.408 64.704C53.44 64.64 53.488 64.568 53.552 64.488C53.632 64.408 53.72 64.328 53.816 64.248C53.928 64.152 54.056 64.048 54.2 63.936C56.568 62.336 58.376 60.536 59.624 58.536C59.832 58.2 60.048 57.896 60.272 57.624C60.544 57.32 60.896 56.84 61.328 56.184C61.792 55.464 62.096 55.032 62.24 54.888C62.368 54.712 62.544 54.64 62.768 54.672C63.008 54.688 63.192 54.792 63.32 54.984C63.4 55.128 63.432 55.248 63.416 55.344C63.416 55.424 63.32 55.6 63.128 55.872C62.52 56.784 61.968 57.56 61.472 58.2C61.088 58.728 60.784 59.152 60.56 59.472C60.304 59.856 60.008 60.256 59.672 60.672C59.352 61.088 58.992 61.52 58.592 61.968C58.384 62.208 58.192 62.416 58.016 62.592C57.856 62.768 57.704 62.928 57.56 63.072C57.416 63.2 57.288 63.312 57.176 63.408C57.08 63.488 56.992 63.552 56.912 63.6C56.704 63.696 56.592 63.776 56.576 63.84C56.656 63.92 57.832 63.952 60.104 63.936L63.632 63.912L63.656 59.688C63.672 57.672 63.696 56.448 63.728 56.016C63.744 55.6 63.816 55.336 63.944 55.224C64.088 55.08 64.256 55.032 64.448 55.08C64.656 55.112 64.808 55.2 64.904 55.344C64.968 55.488 65.008 56.928 65.024 59.664L65.096 63.72L65.384 63.96C65.48 64.04 65.6 64.096 65.744 64.128C65.888 64.16 66.064 64.184 66.272 64.2C66.48 64.2 66.656 64.192 66.8 64.176C66.96 64.144 67.08 64.096 67.16 64.032C67.176 64.016 67.192 64.008 67.208 64.008C67.24 63.992 67.28 63.976 67.328 63.96C67.392 63.944 67.448 63.928 67.496 63.912C67.56 63.896 67.616 63.88 67.664 63.864C67.728 63.848 67.768 63.84 67.784 63.84C67.928 63.84 68.048 63.872 68.144 63.936C68.256 64 68.336 64.096 68.384 64.224C68.48 64.384 68.528 64.504 68.528 64.584C68.528 64.664 68.48 64.76 68.384 64.872C68.112 65.32 67.416 65.488 66.296 65.376C65.704 65.312 65.344 65.328 65.216 65.424C65.104 65.52 65.048 66.528 65.048 68.448C65.048 69.28 65.064 69.992 65.096 70.584C65.096 70.872 65.104 71.096 65.12 71.256C65.136 71.432 65.152 71.536 65.168 71.568C65.328 71.84 65.272 72.12 65 72.408C64.872 72.552 64.744 72.632 64.616 72.648C64.488 72.68 64.36 72.656 64.232 72.576C64.168 72.544 64.112 72.504 64.064 72.456C64.016 72.408 63.976 72.352 63.944 72.288C63.896 72.16 63.848 71.936 63.8 71.616C63.768 71.296 63.744 70.904 63.728 70.44C63.728 69.976 63.728 69.312 63.728 68.448L63.68 65.328H60.536C58.232 65.328 56.176 65.432 54.368 65.64C54.288 65.656 54.216 65.664 54.152 65.664C54.088 65.664 54.024 65.664 53.96 65.664C53.912 65.664 53.872 65.656 53.84 65.64Z" fill="black"/>
<rect x="41" y="41" width="40" height="40" stroke="#7A7A7A"/>
<rect x="81" y="41" width="40" height="40" stroke="#7A7A7A"/>
<rect x="121" y="41" width="40" height="40" stroke="#7A7A7A"/>
<path d="M180.108 62.76C180.332 62.68 180.836 62.64 181.62 62.64C182.42 62.64 182.932 62.68 183.156 62.76C183.332 62.808 183.572 62.864 183.876 62.928C184.132 62.96 184.452 63.152 184.836 63.504C185.22 63.84 185.508 64.192 185.7 64.56C185.748 64.672 185.788 64.784 185.82 64.896C185.868 64.992 185.892 65.088 185.892 65.184C185.908 65.392 185.9 65.792 185.868 66.384C185.852 67.28 185.788 67.96 185.676 68.424C185.58 68.76 185.404 69.2 185.148 69.744C184.892 70.304 184.644 70.768 184.404 71.136C184.228 71.376 183.956 71.64 183.588 71.928C183.396 72.056 183.204 72.168 183.012 72.264C182.836 72.376 182.668 72.464 182.508 72.528C182.38 72.592 182.252 72.632 182.124 72.648C182.012 72.664 181.892 72.672 181.764 72.672C181.556 72.656 181.036 72.568 180.204 72.408C179.836 72.328 179.348 72.008 178.74 71.448C178.148 70.888 177.668 70.304 177.3 69.696C176.836 68.912 176.428 67.936 176.076 66.768C175.916 66.32 175.844 65.32 175.86 63.768C175.876 62.712 175.9 62.008 175.932 61.656C175.964 61.288 176.036 60.88 176.148 60.432C176.628 58.656 177.276 57.2 178.092 56.064C178.3 55.76 178.708 55.312 179.316 54.72C179.924 54.128 180.292 53.832 180.42 53.832C180.516 53.832 180.604 53.784 180.684 53.688C180.796 53.56 181.148 53.496 181.74 53.496C182.332 53.496 182.772 53.552 183.06 53.664C183.444 53.824 183.764 53.984 184.02 54.144C184.292 54.304 184.516 54.464 184.692 54.624C185.188 55.152 185.372 55.864 185.244 56.76C185.18 57.144 185.148 57.408 185.148 57.552V57.576C185.132 57.736 185.028 57.856 184.836 57.936C184.724 57.984 184.612 58 184.5 57.984C184.404 57.952 184.3 57.888 184.188 57.792C184.044 57.664 183.956 57.528 183.924 57.384C183.892 57.256 183.876 56.984 183.876 56.568C183.876 56.264 183.86 56.024 183.828 55.848C183.796 55.656 183.756 55.528 183.708 55.464C183.58 55.336 183.348 55.2 183.012 55.056C182.676 54.912 182.348 54.816 182.028 54.768C181.708 54.72 181.364 54.792 180.996 54.984C180.66 55.192 180.308 55.48 179.94 55.848C179.588 56.216 179.228 56.68 178.86 57.24C178.78 57.336 178.708 57.432 178.644 57.528C178.596 57.624 178.556 57.696 178.524 57.744C178.492 57.792 178.476 57.824 178.476 57.84C178.46 57.904 178.404 58.04 178.308 58.248C177.86 59.272 177.572 60.064 177.444 60.624C177.316 61.168 177.236 61.928 177.204 62.904C177.156 63.672 177.14 64.168 177.156 64.392L177.204 64.656C177.284 64.656 177.42 64.512 177.612 64.224C178.012 63.6 178.572 63.184 179.292 62.976C179.356 62.96 179.428 62.944 179.508 62.928C179.588 62.912 179.676 62.888 179.772 62.856C179.884 62.824 179.996 62.792 180.108 62.76ZM184.62 65.832C184.556 65.16 184.236 64.64 183.66 64.272C183.612 64.24 183.54 64.216 183.444 64.2C183.348 64.168 183.22 64.144 183.06 64.128C182.916 64.112 182.74 64.096 182.532 64.08C182.324 64.064 182.092 64.056 181.836 64.056C181.212 64.04 180.756 64.04 180.468 64.056C180.308 64.056 180.164 64.072 180.036 64.104C179.924 64.12 179.82 64.144 179.724 64.176C179.644 64.208 179.556 64.248 179.46 64.296C179.364 64.344 179.276 64.408 179.196 64.488C178.732 64.84 178.428 65.296 178.284 65.856C178.172 66.192 177.996 66.456 177.756 66.648C177.724 66.696 177.684 66.736 177.636 66.768C177.604 66.8 177.58 66.832 177.564 66.864C177.548 66.88 177.54 66.896 177.54 66.912C177.524 66.928 177.516 66.976 177.516 67.056C177.532 67.12 177.556 67.2 177.588 67.296C177.62 67.424 177.668 67.568 177.732 67.728C177.796 67.872 177.876 68.032 177.972 68.208C178.148 68.576 178.348 68.928 178.572 69.264C178.812 69.616 179.036 69.92 179.244 70.176C179.644 70.592 180.012 70.888 180.348 71.064C180.46 71.112 180.58 71.152 180.708 71.184C180.836 71.232 180.972 71.264 181.116 71.28C181.26 71.312 181.412 71.328 181.572 71.328C182.004 71.36 182.348 71.28 182.604 71.088C182.716 71.008 182.844 70.88 182.988 70.704C183.132 70.544 183.292 70.344 183.468 70.104C183.82 69.608 184.036 69.208 184.116 68.904C184.532 67.528 184.7 66.504 184.62 65.832Z" fill="black"/>
<rect x="161" y="41" width="40" height="40" stroke="#7A7A7A"/>
<rect x="201" y="41" width="40" height="40" stroke="#7A7A7A"/>
<rect x="241" y="41" width="40" height="40" stroke="#7A7A7A"/>
<path d="M299.204 55.608C299.348 55.608 299.436 55.56 299.468 55.464C299.516 55.384 299.764 55.344 300.212 55.344C300.404 55.344 300.556 55.352 300.668 55.368C300.7 55.384 300.732 55.4 300.764 55.416C300.796 55.416 300.828 55.424 300.86 55.44C300.892 55.44 300.916 55.448 300.932 55.464C301.012 55.512 301.108 55.592 301.22 55.704C301.46 55.944 301.732 56.12 302.036 56.232C302.116 56.248 302.268 56.288 302.492 56.352C302.572 56.368 302.644 56.384 302.708 56.4C302.772 56.416 302.82 56.432 302.852 56.448C302.9 56.464 302.94 56.472 302.972 56.472C303.084 56.52 303.196 56.576 303.308 56.64C303.42 56.688 303.532 56.76 303.644 56.856C303.756 56.936 303.876 57.032 304.004 57.144C304.356 57.464 304.596 57.784 304.724 58.104C304.98 58.712 305.02 59.4 304.844 60.168C304.684 60.92 304.34 61.584 303.812 62.16C303.396 62.592 303.188 62.856 303.188 62.952C303.188 63 303.22 63.048 303.284 63.096C303.348 63.144 303.436 63.192 303.548 63.24C303.692 63.304 303.836 63.376 303.98 63.456C304.124 63.536 304.268 63.624 304.412 63.72C304.476 63.752 304.532 63.792 304.58 63.84C304.628 63.872 304.676 63.904 304.724 63.936C304.772 63.968 304.82 64 304.868 64.032C304.916 64.064 304.964 64.104 305.012 64.152C305.06 64.184 305.1 64.216 305.132 64.248C305.18 64.28 305.228 64.32 305.276 64.368C305.356 64.432 305.428 64.496 305.492 64.56C305.556 64.624 305.612 64.688 305.66 64.752C305.708 64.8 305.748 64.84 305.78 64.872C306.292 65.784 306.468 66.768 306.308 67.824C306.164 68.88 305.684 69.896 304.868 70.872C304.74 71.048 304.612 71.192 304.484 71.304C304.372 71.432 304.26 71.536 304.148 71.616C303.924 71.776 303.588 71.968 303.14 72.192C302.612 72.432 302.244 72.568 302.036 72.6C301.956 72.616 301.852 72.624 301.724 72.624C301.596 72.64 301.436 72.648 301.244 72.648C301.068 72.664 300.852 72.672 300.596 72.672C298.628 72.672 297.068 72.16 295.916 71.136C295.756 71.008 295.612 70.872 295.484 70.728C295.372 70.6 295.276 70.472 295.196 70.344C295.116 70.216 295.052 70.096 295.004 69.984C294.876 69.632 294.836 69.104 294.884 68.4C294.884 68.144 294.892 67.92 294.908 67.728C294.94 67.52 294.972 67.352 295.004 67.224C295.052 67.096 295.116 66.936 295.196 66.744C295.276 66.536 295.38 66.296 295.508 66.024C295.572 65.864 295.644 65.712 295.724 65.568C295.804 65.408 295.884 65.264 295.964 65.136C296.06 64.992 296.148 64.864 296.228 64.752C296.324 64.624 296.412 64.504 296.492 64.392C296.588 64.28 296.684 64.176 296.78 64.08C296.876 63.984 296.972 63.896 297.068 63.816C297.18 63.72 297.284 63.632 297.38 63.552C297.492 63.472 297.604 63.4 297.716 63.336C297.956 63.208 298.124 63.104 298.22 63.024C298.332 62.944 298.38 62.88 298.364 62.832C298.348 62.72 298.14 62.568 297.74 62.376C297.324 62.152 296.988 61.912 296.732 61.656C296.492 61.4 296.324 61.128 296.228 60.84C296.132 60.536 296.108 60.072 296.156 59.448C296.236 58.376 296.604 57.528 297.26 56.904C297.436 56.76 297.66 56.576 297.932 56.352C298.22 56.128 298.492 55.944 298.748 55.8C298.86 55.736 298.956 55.688 299.036 55.656C299.116 55.624 299.172 55.608 299.204 55.608ZM301.052 57.48C300.396 57.48 300.044 57.448 299.996 57.384C299.804 57.128 299.548 57.04 299.228 57.12C299.068 57.168 298.9 57.248 298.724 57.36C298.564 57.472 298.396 57.632 298.22 57.84C298.044 58.032 297.9 58.24 297.788 58.464C297.676 58.672 297.588 58.888 297.524 59.112C297.444 59.496 297.404 59.752 297.404 59.88C297.404 59.944 297.412 60.024 297.428 60.12C297.46 60.2 297.508 60.296 297.572 60.408C297.604 60.504 297.652 60.6 297.716 60.696C297.78 60.776 297.852 60.848 297.932 60.912C298.076 61.04 298.356 61.192 298.772 61.368C299.38 61.688 299.772 61.848 299.948 61.848C300.14 61.848 300.364 61.904 300.62 62.016C300.764 62.064 300.916 62.088 301.076 62.088C301.236 62.088 301.42 62.064 301.628 62.016C302.028 61.936 302.34 61.784 302.564 61.56C302.612 61.528 302.652 61.488 302.684 61.44C302.732 61.392 302.772 61.344 302.804 61.296C302.852 61.248 302.892 61.2 302.924 61.152C302.972 61.088 303.012 61.032 303.044 60.984C303.092 60.92 303.14 60.856 303.188 60.792C303.38 60.472 303.476 60.232 303.476 60.072C303.476 59.864 303.524 59.696 303.62 59.568C303.7 59.408 303.684 59.184 303.572 58.896C303.492 58.64 303.38 58.424 303.236 58.248C303.108 58.056 302.948 57.904 302.756 57.792C302.564 57.68 302.324 57.6 302.036 57.552C301.748 57.504 301.42 57.48 301.052 57.48ZM301.484 63.936C301.356 64 301.18 63.984 300.956 63.888C300.396 63.632 299.7 63.744 298.868 64.224C298.484 64.432 298.172 64.64 297.932 64.848C297.692 65.04 297.484 65.256 297.308 65.496C297.132 65.736 296.956 66.04 296.78 66.408C296.62 66.728 296.492 67.064 296.396 67.416C296.316 67.752 296.268 68.096 296.252 68.448L296.156 69.528L296.804 70.152C297.028 70.36 297.22 70.52 297.38 70.632C297.54 70.76 297.668 70.832 297.764 70.848C297.796 70.848 297.828 70.848 297.86 70.848C297.892 70.864 297.932 70.872 297.98 70.872C298.076 70.904 298.172 70.936 298.268 70.968C298.316 70.984 298.372 71 298.436 71.016C298.516 71.032 298.596 71.056 298.676 71.088C298.836 71.12 298.972 71.152 299.084 71.184C299.484 71.296 299.852 71.368 300.188 71.4C300.54 71.432 300.852 71.432 301.124 71.4C301.668 71.336 302.364 71.096 303.212 70.68C303.292 70.632 303.428 70.496 303.62 70.272C303.812 70.064 304.004 69.824 304.196 69.552C304.388 69.28 304.54 69.048 304.652 68.856C304.812 68.552 304.9 68.024 304.916 67.272C304.916 66.856 304.892 66.512 304.844 66.24C304.796 65.968 304.716 65.76 304.604 65.616C304.54 65.52 304.42 65.408 304.244 65.28C304.084 65.152 303.868 65.008 303.596 64.848C303.34 64.688 303.036 64.512 302.684 64.32C302.028 63.968 301.628 63.84 301.484 63.936Z" fill="black"/>
<rect x="281" y="41" width="40" height="40" stroke="#7A7A7A"/>
<rect x="321" y="41" width="40" height="40" stroke="#7A7A7A"/>
<rect x="361" y="41" width="40" height="40" stroke="#7A7A7A"/>
<path d="M416.028 56.448C416.46 56.144 416.772 56.008 416.964 56.04H416.988C417.036 56.04 417.092 56.056 417.156 56.088C417.236 56.12 417.308 56.176 417.372 56.256C417.436 56.32 417.508 56.408 417.588 56.52C417.796 56.824 417.868 57.032 417.804 57.144V57.168C417.756 57.28 417.684 57.856 417.588 58.896C417.524 59.904 417.46 60.44 417.396 60.504C417.348 60.6 417.324 60.856 417.324 61.272C417.34 61.608 417.3 61.928 417.204 62.232C417.108 62.52 417.02 63.048 416.94 63.816C416.86 64.568 416.764 65.272 416.652 65.928C416.508 66.936 416.396 67.848 416.316 68.664C416.236 69.48 416.18 70.208 416.148 70.848C416.132 71.536 416.1 71.96 416.052 72.12C416.036 72.216 416.004 72.296 415.956 72.36C415.908 72.424 415.852 72.48 415.788 72.528C415.66 72.624 415.564 72.672 415.5 72.672C415.436 72.672 415.332 72.616 415.188 72.504H415.164C414.956 72.36 414.82 72.176 414.756 71.952C414.708 71.728 414.7 71.384 414.732 70.92C414.748 70.84 414.764 70.688 414.78 70.464C414.796 70.256 414.82 69.984 414.852 69.648C414.884 69.312 414.916 68.904 414.948 68.424C414.964 68.2 414.98 67.992 414.996 67.8C415.028 67.592 415.052 67.424 415.068 67.296C415.084 67.152 415.1 67.024 415.116 66.912C415.132 66.8 415.14 66.72 415.14 66.672C415.156 66.608 415.172 66.568 415.188 66.552C415.268 66.408 415.396 65.336 415.572 63.336C415.588 63.128 415.612 62.928 415.644 62.736C415.676 62.528 415.708 62.344 415.74 62.184C415.772 62.008 415.812 61.848 415.86 61.704C415.94 61.416 416.004 61.008 416.052 60.48C416.116 59.936 416.148 59.472 416.148 59.088C416.148 58.88 416.14 58.728 416.124 58.632C416.108 58.504 416.076 58.424 416.028 58.392L416.004 58.368C415.956 58.368 415.892 58.392 415.812 58.44C415.732 58.472 415.636 58.528 415.524 58.608C415.412 58.688 415.268 58.792 415.092 58.92C414.932 59.016 414.788 59.104 414.66 59.184C413.956 59.52 413.468 59.448 413.196 58.968C413.084 58.76 413.068 58.6 413.148 58.488C413.244 58.36 413.508 58.16 413.94 57.888C414.5 57.616 414.876 57.384 415.068 57.192C415.324 56.984 415.644 56.736 416.028 56.448ZM423.038 62.76C423.262 62.68 423.766 62.64 424.55 62.64C425.35 62.64 425.862 62.68 426.086 62.76C426.262 62.808 426.502 62.864 426.806 62.928C427.062 62.96 427.382 63.152 427.766 63.504C428.15 63.84 428.438 64.192 428.63 64.56C428.678 64.672 428.718 64.784 428.75 64.896C428.798 64.992 428.822 65.088 428.822 65.184C428.838 65.392 428.83 65.792 428.798 66.384C428.782 67.28 428.718 67.96 428.606 68.424C428.51 68.76 428.334 69.2 428.078 69.744C427.822 70.304 427.574 70.768 427.334 71.136C427.158 71.376 426.886 71.64 426.518 71.928C426.326 72.056 426.134 72.168 425.942 72.264C425.766 72.376 425.598 72.464 425.438 72.528C425.31 72.592 425.182 72.632 425.054 72.648C424.942 72.664 424.822 72.672 424.694 72.672C424.486 72.656 423.966 72.568 423.134 72.408C422.766 72.328 422.278 72.008 421.67 71.448C421.078 70.888 420.598 70.304 420.23 69.696C419.766 68.912 419.358 67.936 419.006 66.768C418.846 66.32 418.774 65.32 418.79 63.768C418.806 62.712 418.83 62.008 418.862 61.656C418.894 61.288 418.966 60.88 419.078 60.432C419.558 58.656 420.206 57.2 421.022 56.064C421.23 55.76 421.638 55.312 422.246 54.72C422.854 54.128 423.222 53.832 423.35 53.832C423.446 53.832 423.534 53.784 423.614 53.688C423.726 53.56 424.078 53.496 424.67 53.496C425.262 53.496 425.702 53.552 425.99 53.664C426.374 53.824 426.694 53.984 426.95 54.144C427.222 54.304 427.446 54.464 427.622 54.624C428.118 55.152 428.302 55.864 428.174 56.76C428.11 57.144 428.078 57.408 428.078 57.552V57.576C428.062 57.736 427.958 57.856 427.766 57.936C427.654 57.984 427.542 58 427.43 57.984C427.334 57.952 427.23 57.888 427.118 57.792C426.974 57.664 426.886 57.528 426.854 57.384C426.822 57.256 426.806 56.984 426.806 56.568C426.806 56.264 426.79 56.024 426.758 55.848C426.726 55.656 426.686 55.528 426.638 55.464C426.51 55.336 426.278 55.2 425.942 55.056C425.606 54.912 425.278 54.816 424.958 54.768C424.638 54.72 424.294 54.792 423.926 54.984C423.59 55.192 423.238 55.48 422.87 55.848C422.518 56.216 422.158 56.68 421.79 57.24C421.71 57.336 421.638 57.432 421.574 57.528C421.526 57.624 421.486 57.696 421.454 57.744C421.422 57.792 421.406 57.824 421.406 57.84C421.39 57.904 421.334 58.04 421.238 58.248C420.79 59.272 420.502 60.064 420.374 60.624C420.246 61.168 420.166 61.928 420.134 62.904C420.086 63.672 420.07 64.168 420.086 64.392L420.134 64.656C420.214 64.656 420.35 64.512 420.542 64.224C420.942 63.6 421.502 63.184 422.222 62.976C422.286 62.96 422.358 62.944 422.438 62.928C422.518 62.912 422.606 62.888 422.702 62.856C422.814 62.824 422.926 62.792 423.038 62.76ZM427.55 65.832C427.486 65.16 427.166 64.64 426.59 64.272C426.542 64.24 426.47 64.216 426.374 64.2C426.278 64.168 426.15 64.144 425.99 64.128C425.846 64.112 425.67 64.096 425.462 64.08C425.254 64.064 425.022 64.056 424.766 64.056C424.142 64.04 423.686 64.04 423.398 64.056C423.238 64.056 423.094 64.072 422.966 64.104C422.854 64.12 422.75 64.144 422.654 64.176C422.574 64.208 422.486 64.248 422.39 64.296C422.294 64.344 422.206 64.408 422.126 64.488C421.662 64.84 421.358 65.296 421.214 65.856C421.102 66.192 420.926 66.456 420.686 66.648C420.654 66.696 420.614 66.736 420.566 66.768C420.534 66.8 420.51 66.832 420.494 66.864C420.478 66.88 420.47 66.896 420.47 66.912C420.454 66.928 420.446 66.976 420.446 67.056C420.462 67.12 420.486 67.2 420.518 67.296C420.55 67.424 420.598 67.568 420.662 67.728C420.726 67.872 420.806 68.032 420.902 68.208C421.078 68.576 421.278 68.928 421.502 69.264C421.742 69.616 421.966 69.92 422.174 70.176C422.574 70.592 422.942 70.888 423.278 71.064C423.39 71.112 423.51 71.152 423.638 71.184C423.766 71.232 423.902 71.264 424.046 71.28C424.19 71.312 424.342 71.328 424.502 71.328C424.934 71.36 425.278 71.28 425.534 71.088C425.646 71.008 425.774 70.88 425.918 70.704C426.062 70.544 426.222 70.344 426.398 70.104C426.75 69.608 426.966 69.208 427.046 68.904C427.462 67.528 427.63 66.504 427.55 65.832Z" fill="black"/>
<rect x="401" y="41" width="40" height="40" stroke="#7A7A7A"/>
<rect x="1" y="81" width="40" height="40" stroke="#7A7A7A"/>
<rect x="41" y="81" width="40" height="40" stroke="#7A7A7A"/>
<path d="M101.528 96.448C101.96 96.144 102.272 96.008 102.464 96.04H102.488C102.536 96.04 102.592 96.056 102.656 96.088C102.736 96.12 102.808 96.176 102.872 96.256C102.936 96.32 103.008 96.408 103.088 96.52C103.296 96.824 103.368 97.032 103.304 97.144V97.168C103.256 97.28 103.184 97.856 103.088 98.896C103.024 99.904 102.96 100.44 102.896 100.504C102.848 100.6 102.824 100.856 102.824 101.272C102.84 101.608 102.8 101.928 102.704 102.232C102.608 102.52 102.52 103.048 102.44 103.816C102.36 104.568 102.264 105.272 102.152 105.928C102.008 106.936 101.896 107.848 101.816 108.664C101.736 109.48 101.68 110.208 101.648 110.848C101.632 111.536 101.6 111.96 101.552 112.12C101.536 112.216 101.504 112.296 101.456 112.36C101.408 112.424 101.352 112.48 101.288 112.528C101.16 112.624 101.064 112.672 101 112.672C100.936 112.672 100.832 112.616 100.688 112.504H100.664C100.456 112.36 100.32 112.176 100.256 111.952C100.208 111.728 100.2 111.384 100.232 110.92C100.248 110.84 100.264 110.688 100.28 110.464C100.296 110.256 100.32 109.984 100.352 109.648C100.384 109.312 100.416 108.904 100.448 108.424C100.464 108.2 100.48 107.992 100.496 107.8C100.528 107.592 100.552 107.424 100.568 107.296C100.584 107.152 100.6 107.024 100.616 106.912C100.632 106.8 100.64 106.72 100.64 106.672C100.656 106.608 100.672 106.568 100.688 106.552C100.768 106.408 100.896 105.336 101.072 103.336C101.088 103.128 101.112 102.928 101.144 102.736C101.176 102.528 101.208 102.344 101.24 102.184C101.272 102.008 101.312 101.848 101.36 101.704C101.44 101.416 101.504 101.008 101.552 100.48C101.616 99.936 101.648 99.472 101.648 99.088C101.648 98.88 101.64 98.728 101.624 98.632C101.608 98.504 101.576 98.424 101.528 98.392L101.504 98.368C101.456 98.368 101.392 98.392 101.312 98.44C101.232 98.472 101.136 98.528 101.024 98.608C100.912 98.688 100.768 98.792 100.592 98.92C100.432 99.016 100.288 99.104 100.16 99.184C99.456 99.52 98.968 99.448 98.696 98.968C98.584 98.76 98.568 98.6 98.648 98.488C98.744 98.36 99.008 98.16 99.44 97.888C100 97.616 100.376 97.384 100.568 97.192C100.824 96.984 101.144 96.736 101.528 96.448Z" fill="black"/>
<rect x="81" y="81" width="40" height="40" stroke="#7A7A7A"/>
<rect x="121" y="81" width="40" height="40" stroke="#7A7A7A"/>
<rect x="161" y="81" width="40" height="40" stroke="#7A7A7A"/>
<path d="M216.028 96.448C216.46 96.144 216.772 96.008 216.964 96.04H216.988C217.036 96.04 217.092 96.056 217.156 96.088C217.236 96.12 217.308 96.176 217.372 96.256C217.436 96.32 217.508 96.408 217.588 96.52C217.796 96.824 217.868 97.032 217.804 97.144V97.168C217.756 97.28 217.684 97.856 217.588 98.896C217.524 99.904 217.46 100.44 217.396 100.504C217.348 100.6 217.324 100.856 217.324 101.272C217.34 101.608 217.3 101.928 217.204 102.232C217.108 102.52 217.02 103.048 216.94 103.816C216.86 104.568 216.764 105.272 216.652 105.928C216.508 106.936 216.396 107.848 216.316 108.664C216.236 109.48 216.18 110.208 216.148 110.848C216.132 111.536 216.1 111.96 216.052 112.12C216.036 112.216 216.004 112.296 215.956 112.36C215.908 112.424 215.852 112.48 215.788 112.528C215.66 112.624 215.564 112.672 215.5 112.672C215.436 112.672 215.332 112.616 215.188 112.504H215.164C214.956 112.36 214.82 112.176 214.756 111.952C214.708 111.728 214.7 111.384 214.732 110.92C214.748 110.84 214.764 110.688 214.78 110.464C214.796 110.256 214.82 109.984 214.852 109.648C214.884 109.312 214.916 108.904 214.948 108.424C214.964 108.2 214.98 107.992 214.996 107.8C215.028 107.592 215.052 107.424 215.068 107.296C215.084 107.152 215.1 107.024 215.116 106.912C215.132 106.8 215.14 106.72 215.14 106.672C215.156 106.608 215.172 106.568 215.188 106.552C215.268 106.408 215.396 105.336 215.572 103.336C215.588 103.128 215.612 102.928 215.644 102.736C215.676 102.528 215.708 102.344 215.74 102.184C215.772 102.008 215.812 101.848 215.86 101.704C215.94 101.416 216.004 101.008 216.052 100.48C216.116 99.936 216.148 99.472 216.148 99.088C216.148 98.88 216.14 98.728 216.124 98.632C216.108 98.504 216.076 98.424 216.028 98.392L216.004 98.368C215.956 98.368 215.892 98.392 215.812 98.44C215.732 98.472 215.636 98.528 215.524 98.608C215.412 98.688 215.268 98.792 215.092 98.92C214.932 99.016 214.788 99.104 214.66 99.184C213.956 99.52 213.468 99.448 213.196 98.968C213.084 98.76 213.068 98.6 213.148 98.488C213.244 98.36 213.508 98.16 213.94 97.888C214.5 97.616 214.876 97.384 215.068 97.192C215.324 96.984 215.644 96.736 216.028 96.448ZM220.35 100.024C221.246 98.2 222.086 97.096 222.87 96.712C223.238 96.52 223.742 96.424 224.382 96.424C224.59 96.424 224.782 96.44 224.958 96.472C225.134 96.488 225.286 96.52 225.414 96.568C225.542 96.6 225.654 96.648 225.75 96.712C225.814 96.744 225.878 96.784 225.942 96.832C226.006 96.88 226.07 96.936 226.134 97C226.214 97.064 226.286 97.136 226.35 97.216C226.43 97.296 226.51 97.384 226.59 97.48C226.67 97.576 226.75 97.68 226.83 97.792C227.022 98.08 227.182 98.344 227.31 98.584C227.454 98.808 227.55 99.016 227.598 99.208C227.63 99.304 227.758 99.688 227.982 100.36C228.11 100.744 228.174 101.52 228.174 102.688C228.174 103.84 228.11 104.584 227.982 104.92C227.822 105.272 227.742 105.568 227.742 105.808C227.742 106.144 227.622 106.744 227.382 107.608C227.254 108.04 227.126 108.432 226.998 108.784C226.87 109.12 226.734 109.424 226.59 109.696C226.366 110.144 226.102 110.552 225.798 110.92C225.51 111.288 225.182 111.616 224.814 111.904C224.094 112.48 223.43 112.736 222.822 112.672C222.182 112.592 221.566 112.352 220.974 111.952C220.398 111.552 219.966 111.064 219.678 110.488C219.55 110.232 219.438 109.992 219.342 109.768C219.246 109.544 219.166 109.344 219.102 109.168C218.99 108.784 218.91 108.344 218.862 107.848C218.814 107.352 218.79 106.712 218.79 105.928C218.79 104.584 218.862 103.624 219.006 103.048C219.166 102.472 219.614 101.464 220.35 100.024ZM225.966 98.992C225.662 98.464 225.318 98.104 224.934 97.912C224.502 97.656 224.118 97.72 223.782 98.104C223.606 98.328 223.438 98.44 223.278 98.44C223.246 98.44 223.206 98.448 223.158 98.464C223.11 98.464 223.062 98.48 223.014 98.512C222.982 98.528 222.942 98.552 222.894 98.584C222.846 98.6 222.798 98.632 222.75 98.68C222.718 98.712 222.678 98.752 222.63 98.8C222.438 99.04 222.062 99.688 221.502 100.744C220.942 101.816 220.63 102.544 220.566 102.928C220.534 102.992 220.502 103.072 220.47 103.168C220.454 103.248 220.43 103.36 220.398 103.504C220.334 103.776 220.278 103.96 220.23 104.056C220.102 104.52 220.07 105.32 220.134 106.456C220.214 107.576 220.358 108.416 220.566 108.976C220.822 109.808 221.222 110.424 221.766 110.824C222.31 111.208 222.886 111.304 223.494 111.112C223.91 110.968 224.382 110.536 224.91 109.816C225.454 109.096 225.742 108.512 225.774 108.064C225.774 107.856 225.838 107.648 225.966 107.44C226.094 107.216 226.158 106.936 226.158 106.6C226.158 106.296 226.246 105.968 226.422 105.616C226.566 105.28 226.662 104.52 226.71 103.336C226.758 102.136 226.718 101.272 226.59 100.744C226.478 100.104 226.27 99.52 225.966 98.992Z" fill="black"/>
<rect x="201" y="81" width="40" height="40" stroke="#7A7A7A"/>
<rect x="241" y="81" width="40" height="40" stroke="#7A7A7A"/>
<rect x="281" y="81" width="40" height="40" stroke="#7A7A7A"/>
<path d="M332.064 97.984C332.336 97.552 332.688 97.16 333.12 96.808C333.552 96.44 334.056 96.12 334.632 95.848C335.48 95.432 336.192 95.272 336.768 95.368C337.344 95.448 337.912 95.8 338.472 96.424C338.712 96.696 338.904 96.952 339.048 97.192C339.208 97.432 339.32 97.656 339.384 97.864C339.528 98.28 339.6 99.024 339.6 100.096C339.6 100.976 339.576 101.552 339.528 101.824C339.496 102.096 339.416 102.36 339.288 102.616C339.096 102.984 338.84 103.384 338.52 103.816C338.44 103.928 338.36 104.032 338.28 104.128C338.2 104.224 338.12 104.312 338.04 104.392C337.976 104.472 337.912 104.544 337.848 104.608C337.784 104.672 337.72 104.728 337.656 104.776C337.272 105.112 336.608 105.584 335.664 106.192C335.2 106.496 334.816 106.736 334.512 106.912C334.208 107.088 333.984 107.2 333.84 107.248C333.728 107.296 333.624 107.344 333.528 107.392C333.432 107.424 333.344 107.456 333.264 107.488C333.2 107.52 333.144 107.552 333.096 107.584C333.064 107.6 332.992 107.624 332.88 107.656C332.784 107.672 332.656 107.696 332.496 107.728C332.144 107.808 331.912 107.96 331.8 108.184C331.768 108.264 331.736 108.368 331.704 108.496C331.688 108.608 331.672 108.752 331.656 108.928C331.656 109.088 331.656 109.272 331.656 109.48C331.656 110.2 331.688 110.616 331.752 110.728C331.816 110.84 332.192 110.856 332.88 110.776C333.616 110.68 335.096 110.632 337.32 110.632L340.776 110.584L340.92 110.872C340.968 110.952 340.992 111.04 340.992 111.136C340.992 111.232 340.976 111.328 340.944 111.424C340.928 111.488 340.896 111.544 340.848 111.592C340.816 111.656 340.768 111.704 340.704 111.736C340.656 111.784 340.6 111.824 340.536 111.856C340.408 111.92 339.032 111.984 336.408 112.048C334.504 112.064 333.288 112.104 332.76 112.168C332.504 112.2 332.256 112.24 332.016 112.288C331.792 112.352 331.576 112.44 331.368 112.552C330.984 112.744 330.704 112.72 330.528 112.48C330.48 112.432 330.44 112.184 330.408 111.736C330.392 111.288 330.376 110.656 330.36 109.84C330.36 109.28 330.36 108.808 330.36 108.424C330.36 108.024 330.368 107.704 330.384 107.464C330.416 107.224 330.44 107.072 330.456 107.008C330.552 106.72 330.672 106.536 330.816 106.456C330.96 106.376 331.2 106.352 331.536 106.384C332.16 106.464 333.056 106.184 334.224 105.544C336.112 104.456 337.328 103.376 337.872 102.304C338.048 101.952 338.16 101.664 338.208 101.44C338.224 101.392 338.232 101.328 338.232 101.248C338.248 101.168 338.256 101.072 338.256 100.96C338.272 100.848 338.28 100.72 338.28 100.576C338.28 100.432 338.28 100.272 338.28 100.096C338.28 99.168 338.168 98.496 337.944 98.08C337.8 97.712 337.6 97.392 337.344 97.12C337.264 97.04 337.184 96.968 337.104 96.904C337.024 96.84 336.944 96.784 336.864 96.736C336.784 96.688 336.712 96.656 336.648 96.64C336.504 96.608 336.32 96.616 336.096 96.664C335.872 96.712 335.608 96.808 335.304 96.952C334.696 97.24 334.2 97.584 333.816 97.984C333.48 98.304 333.264 98.56 333.168 98.752C333.088 98.944 333.08 99.144 333.144 99.352C333.192 99.48 333.224 99.6 333.24 99.712C333.256 99.824 333.248 99.928 333.216 100.024C333.2 100.104 333.16 100.176 333.096 100.24C332.808 100.528 332.456 100.472 332.04 100.072C331.512 99.544 331.52 98.848 332.064 97.984ZM343.264 100.024C344.16 98.2 345 97.096 345.784 96.712C346.152 96.52 346.656 96.424 347.296 96.424C347.504 96.424 347.696 96.44 347.872 96.472C348.048 96.488 348.2 96.52 348.328 96.568C348.456 96.6 348.568 96.648 348.664 96.712C348.728 96.744 348.792 96.784 348.856 96.832C348.92 96.88 348.984 96.936 349.048 97C349.128 97.064 349.2 97.136 349.264 97.216C349.344 97.296 349.424 97.384 349.504 97.48C349.584 97.576 349.664 97.68 349.744 97.792C349.936 98.08 350.096 98.344 350.224 98.584C350.368 98.808 350.464 99.016 350.512 99.208C350.544 99.304 350.672 99.688 350.896 100.36C351.024 100.744 351.088 101.52 351.088 102.688C351.088 103.84 351.024 104.584 350.896 104.92C350.736 105.272 350.656 105.568 350.656 105.808C350.656 106.144 350.536 106.744 350.296 107.608C350.168 108.04 350.04 108.432 349.912 108.784C349.784 109.12 349.648 109.424 349.504 109.696C349.28 110.144 349.016 110.552 348.712 110.92C348.424 111.288 348.096 111.616 347.728 111.904C347.008 112.48 346.344 112.736 345.736 112.672C345.096 112.592 344.48 112.352 343.888 111.952C343.312 111.552 342.88 111.064 342.592 110.488C342.464 110.232 342.352 109.992 342.256 109.768C342.16 109.544 342.08 109.344 342.016 109.168C341.904 108.784 341.824 108.344 341.776 107.848C341.728 107.352 341.704 106.712 341.704 105.928C341.704 104.584 341.776 103.624 341.92 103.048C342.08 102.472 342.528 101.464 343.264 100.024ZM348.88 98.992C348.576 98.464 348.232 98.104 347.848 97.912C347.416 97.656 347.032 97.72 346.696 98.104C346.52 98.328 346.352 98.44 346.192 98.44C346.16 98.44 346.12 98.448 346.072 98.464C346.024 98.464 345.976 98.48 345.928 98.512C345.896 98.528 345.856 98.552 345.808 98.584C345.76 98.6 345.712 98.632 345.664 98.68C345.632 98.712 345.592 98.752 345.544 98.8C345.352 99.04 344.976 99.688 344.416 100.744C343.856 101.816 343.544 102.544 343.48 102.928C343.448 102.992 343.416 103.072 343.384 103.168C343.368 103.248 343.344 103.36 343.312 103.504C343.248 103.776 343.192 103.96 343.144 104.056C343.016 104.52 342.984 105.32 343.048 106.456C343.128 107.576 343.272 108.416 343.48 108.976C343.736 109.808 344.136 110.424 344.68 110.824C345.224 111.208 345.8 111.304 346.408 111.112C346.824 110.968 347.296 110.536 347.824 109.816C348.368 109.096 348.656 108.512 348.688 108.064C348.688 107.856 348.752 107.648 348.88 107.44C349.008 107.216 349.072 106.936 349.072 106.6C349.072 106.296 349.16 105.968 349.336 105.616C349.48 105.28 349.576 104.52 349.624 103.336C349.672 102.136 349.632 101.272 349.504 100.744C349.392 100.104 349.184 99.52 348.88 98.992Z" fill="black"/>
<rect x="321" y="81" width="40" height="40" stroke="#7A7A7A"/>
<rect x="361" y="81" width="40" height="40" stroke="#7A7A7A"/>
<rect x="401" y="81" width="40" height="40" stroke="#7A7A7A"/>
</svg>
