<svg width="442" height="239" viewBox="0 0 442 239" fill="none" xmlns="http://www.w3.org/2000/svg">
<path d="M16.028 53.448C16.46 53.144 16.772 53.008 16.964 53.04H16.988C17.036 53.04 17.092 53.056 17.156 53.088C17.236 53.12 17.308 53.176 17.372 53.256C17.436 53.32 17.508 53.408 17.588 53.52C17.796 53.824 17.868 54.032 17.804 54.144V54.168C17.756 54.28 17.684 54.856 17.588 55.896C17.524 56.904 17.46 57.44 17.396 57.504C17.348 57.6 17.324 57.856 17.324 58.272C17.34 58.608 17.3 58.928 17.204 59.232C17.108 59.52 17.02 60.048 16.94 60.816C16.86 61.568 16.764 62.272 16.652 62.928C16.508 63.936 16.396 64.848 16.316 65.664C16.236 66.48 16.18 67.208 16.148 67.848C16.132 68.536 16.1 68.96 16.052 69.12C16.036 69.216 16.004 69.296 15.956 69.36C15.908 69.424 15.852 69.48 15.788 69.528C15.66 69.624 15.564 69.672 15.5 69.672C15.436 69.672 15.332 69.616 15.188 69.504H15.164C14.956 69.36 14.82 69.176 14.756 68.952C14.708 68.728 14.7 68.384 14.732 67.92C14.748 67.84 14.764 67.688 14.78 67.464C14.796 67.256 14.82 66.984 14.852 66.648C14.884 66.312 14.916 65.904 14.948 65.424C14.964 65.2 14.98 64.992 14.996 64.8C15.028 64.592 15.052 64.424 15.068 64.296C15.084 64.152 15.1 64.024 15.116 63.912C15.132 63.8 15.14 63.72 15.14 63.672C15.156 63.608 15.172 63.568 15.188 63.552C15.268 63.408 15.396 62.336 15.572 60.336C15.588 60.128 15.612 59.928 15.644 59.736C15.676 59.528 15.708 59.344 15.74 59.184C15.772 59.008 15.812 58.848 15.86 58.704C15.94 58.416 16.004 58.008 16.052 57.48C16.116 56.936 16.148 56.472 16.148 56.088C16.148 55.88 16.14 55.728 16.124 55.632C16.108 55.504 16.076 55.424 16.028 55.392L16.004 55.368C15.956 55.368 15.892 55.392 15.812 55.44C15.732 55.472 15.636 55.528 15.524 55.608C15.412 55.688 15.268 55.792 15.092 55.92C14.932 56.016 14.788 56.104 14.66 56.184C13.956 56.52 13.468 56.448 13.196 55.968C13.084 55.76 13.068 55.6 13.148 55.488C13.244 55.36 13.508 55.16 13.94 54.888C14.5 54.616 14.876 54.384 15.068 54.192C15.324 53.984 15.644 53.736 16.028 53.448ZM20.3497 57.024C21.2457 55.2 22.0857 54.096 22.8697 53.712C23.2377 53.52 23.7417 53.424 24.3817 53.424C24.5897 53.424 24.7817 53.44 24.9577 53.472C25.1337 53.488 25.2857 53.52 25.4137 53.568C25.5417 53.6 25.6537 53.648 25.7497 53.712C25.8137 53.744 25.8777 53.784 25.9417 53.832C26.0057 53.88 26.0697 53.936 26.1337 54C26.2137 54.064 26.2857 54.136 26.3497 54.216C26.4297 54.296 26.5097 54.384 26.5897 54.48C26.6697 54.576 26.7497 54.68 26.8297 54.792C27.0217 55.08 27.1817 55.344 27.3097 55.584C27.4537 55.808 27.5497 56.016 27.5977 56.208C27.6297 56.304 27.7577 56.688 27.9817 57.36C28.1097 57.744 28.1737 58.52 28.1737 59.688C28.1737 60.84 28.1097 61.584 27.9817 61.92C27.8217 62.272 27.7417 62.568 27.7417 62.808C27.7417 63.144 27.6217 63.744 27.3817 64.608C27.2537 65.04 27.1257 65.432 26.9977 65.784C26.8697 66.12 26.7337 66.424 26.5897 66.696C26.3657 67.144 26.1017 67.552 25.7977 67.92C25.5097 68.288 25.1817 68.616 24.8137 68.904C24.0937 69.48 23.4297 69.736 22.8217 69.672C22.1817 69.592 21.5657 69.352 20.9737 68.952C20.3977 68.552 19.9657 68.064 19.6777 67.488C19.5497 67.232 19.4377 66.992 19.3417 66.768C19.2457 66.544 19.1657 66.344 19.1017 66.168C18.9897 65.784 18.9097 65.344 18.8617 64.848C18.8137 64.352 18.7897 63.712 18.7897 62.928C18.7897 61.584 18.8617 60.624 19.0057 60.048C19.1657 59.472 19.6137 58.464 20.3497 57.024ZM25.9657 55.992C25.6617 55.464 25.3177 55.104 24.9337 54.912C24.5017 54.656 24.1177 54.72 23.7817 55.104C23.6057 55.328 23.4377 55.44 23.2777 55.44C23.2457 55.44 23.2057 55.448 23.1577 55.464C23.1097 55.464 23.0617 55.48 23.0137 55.512C22.9817 55.528 22.9417 55.552 22.8937 55.584C22.8457 55.6 22.7977 55.632 22.7497 55.68C22.7177 55.712 22.6777 55.752 22.6297 55.8C22.4377 56.04 22.0617 56.688 21.5017 57.744C20.9417 58.816 20.6297 59.544 20.5657 59.928C20.5337 59.992 20.5017 60.072 20.4697 60.168C20.4537 60.248 20.4297 60.36 20.3977 60.504C20.3337 60.776 20.2777 60.96 20.2297 61.056C20.1017 61.52 20.0697 62.32 20.1337 63.456C20.2137 64.576 20.3577 65.416 20.5657 65.976C20.8217 66.808 21.2217 67.424 21.7657 67.824C22.3097 68.208 22.8857 68.304 23.4937 68.112C23.9097 67.968 24.3817 67.536 24.9097 66.816C25.4537 66.096 25.7417 65.512 25.7737 65.064C25.7737 64.856 25.8377 64.648 25.9657 64.44C26.0937 64.216 26.1577 63.936 26.1577 63.6C26.1577 63.296 26.2457 62.968 26.4217 62.616C26.5657 62.28 26.6617 61.52 26.7097 60.336C26.7577 59.136 26.7177 58.272 26.5897 57.744C26.4777 57.104 26.2697 56.52 25.9657 55.992Z" fill="black"/>
<rect x="1" y="38" width="40" height="40" stroke="#7A7A7A"/>
<rect x="41" y="38" width="40" height="40" stroke="#7A7A7A"/>
<rect x="81" y="38" width="40" height="40" stroke="#7A7A7A"/>
<rect x="121" y="38" width="40" height="40" stroke="#7A7A7A"/>
<rect x="161" y="38" width="40" height="40" stroke="#7A7A7A"/>
<path d="M216.608 52.488C216.816 52.376 217.216 52.288 217.808 52.224C218.544 52.128 219.824 52.088 221.648 52.104H224.312L224.576 52.416C224.736 52.656 224.784 52.856 224.72 53.016C224.688 53.128 224.608 53.296 224.48 53.52C224.352 53.728 224.176 54 223.952 54.336C223.488 54.992 223.04 55.56 222.608 56.04C222.048 56.68 221.624 57.176 221.336 57.528C221.064 57.88 220.928 58.088 220.928 58.152C220.928 58.248 221.088 58.312 221.408 58.344C222.016 58.456 222.832 58.856 223.856 59.544C224.24 59.8 224.56 60.064 224.816 60.336C225.088 60.608 225.288 60.88 225.416 61.152C225.688 61.696 225.824 62.496 225.824 63.552C225.84 64.336 225.792 64.944 225.68 65.376C225.632 65.6 225.552 65.856 225.44 66.144C225.328 66.432 225.184 66.76 225.008 67.128C224.56 68.024 223.872 68.72 222.944 69.216C222.864 69.248 222.792 69.28 222.728 69.312C222.68 69.344 222.624 69.368 222.56 69.384C222.496 69.416 222.44 69.44 222.392 69.456C222.344 69.488 222.296 69.512 222.248 69.528C222.2 69.544 222.152 69.552 222.104 69.552C222.056 69.568 222.016 69.576 221.984 69.576C221.744 69.608 221.136 69.632 220.16 69.648C219.232 69.68 218.648 69.68 218.408 69.648C218.28 69.632 218.144 69.6 218 69.552C217.856 69.504 217.696 69.44 217.52 69.36C216.912 69.088 216.448 68.76 216.128 68.376C215.824 68.008 215.608 67.496 215.48 66.84C215.352 66.264 215.32 65.864 215.384 65.64C215.464 65.416 215.656 65.304 215.96 65.304C216.264 65.304 216.472 65.432 216.584 65.688C216.712 65.944 216.776 66.208 216.776 66.48C216.776 67.344 217.328 67.944 218.432 68.28C218.96 68.472 219.656 68.528 220.52 68.448C221.4 68.368 222.112 68.184 222.656 67.896C222.912 67.752 223.184 67.472 223.472 67.056C223.776 66.656 224.016 66.224 224.192 65.76C224.384 65.248 224.48 64.576 224.48 63.744C224.48 62.624 224.288 61.816 223.904 61.32C223.776 61.16 223.536 60.952 223.184 60.696C222.848 60.424 222.64 60.288 222.56 60.288C222.512 60.288 222.432 60.264 222.32 60.216C222.224 60.168 222.096 60.088 221.936 59.976C221.728 59.832 221.528 59.744 221.336 59.712C221.16 59.68 220.744 59.672 220.088 59.688C219.704 59.704 219.384 59.704 219.128 59.688C218.888 59.672 218.712 59.648 218.6 59.616C218.504 59.568 218.432 59.504 218.384 59.424C218.336 59.344 218.312 59.232 218.312 59.088C218.312 58.848 218.736 58.296 219.584 57.432C221.424 55.496 222.472 54.296 222.728 53.832C222.792 53.72 222.792 53.6 222.728 53.472C222.68 53.328 222.184 53.288 221.24 53.352C218.888 53.448 217.504 53.56 217.088 53.688C216.96 53.72 216.84 53.72 216.728 53.688C216.68 53.672 216.64 53.648 216.608 53.616C216.576 53.584 216.544 53.552 216.512 53.52C216.48 53.488 216.448 53.456 216.416 53.424C216.32 53.312 216.272 53.192 216.272 53.064C216.272 53.016 216.272 52.976 216.272 52.944C216.288 52.896 216.304 52.856 216.32 52.824C216.336 52.776 216.352 52.736 216.368 52.704C216.384 52.672 216.4 52.648 216.416 52.632C216.448 52.6 216.48 52.576 216.512 52.56C216.544 52.528 216.576 52.504 216.608 52.488Z" fill="black"/>
<rect x="201" y="38" width="40" height="40" stroke="#7A7A7A"/>
<rect x="241" y="38" width="40" height="40" stroke="#7A7A7A"/>
<rect x="281" y="38" width="40" height="40" stroke="#7A7A7A"/>
<rect x="321" y="38" width="40" height="40" stroke="#7A7A7A"/>
<rect x="361" y="38" width="40" height="40" stroke="#7A7A7A"/>
<path d="M416.028 53.448C416.46 53.144 416.772 53.008 416.964 53.04H416.988C417.036 53.04 417.092 53.056 417.156 53.088C417.236 53.12 417.308 53.176 417.372 53.256C417.436 53.32 417.508 53.408 417.588 53.52C417.796 53.824 417.868 54.032 417.804 54.144V54.168C417.756 54.28 417.684 54.856 417.588 55.896C417.524 56.904 417.46 57.44 417.396 57.504C417.348 57.6 417.324 57.856 417.324 58.272C417.34 58.608 417.3 58.928 417.204 59.232C417.108 59.52 417.02 60.048 416.94 60.816C416.86 61.568 416.764 62.272 416.652 62.928C416.508 63.936 416.396 64.848 416.316 65.664C416.236 66.48 416.18 67.208 416.148 67.848C416.132 68.536 416.1 68.96 416.052 69.12C416.036 69.216 416.004 69.296 415.956 69.36C415.908 69.424 415.852 69.48 415.788 69.528C415.66 69.624 415.564 69.672 415.5 69.672C415.436 69.672 415.332 69.616 415.188 69.504H415.164C414.956 69.36 414.82 69.176 414.756 68.952C414.708 68.728 414.7 68.384 414.732 67.92C414.748 67.84 414.764 67.688 414.78 67.464C414.796 67.256 414.82 66.984 414.852 66.648C414.884 66.312 414.916 65.904 414.948 65.424C414.964 65.2 414.98 64.992 414.996 64.8C415.028 64.592 415.052 64.424 415.068 64.296C415.084 64.152 415.1 64.024 415.116 63.912C415.132 63.8 415.14 63.72 415.14 63.672C415.156 63.608 415.172 63.568 415.188 63.552C415.268 63.408 415.396 62.336 415.572 60.336C415.588 60.128 415.612 59.928 415.644 59.736C415.676 59.528 415.708 59.344 415.74 59.184C415.772 59.008 415.812 58.848 415.86 58.704C415.94 58.416 416.004 58.008 416.052 57.48C416.116 56.936 416.148 56.472 416.148 56.088C416.148 55.88 416.14 55.728 416.124 55.632C416.108 55.504 416.076 55.424 416.028 55.392L416.004 55.368C415.956 55.368 415.892 55.392 415.812 55.44C415.732 55.472 415.636 55.528 415.524 55.608C415.412 55.688 415.268 55.792 415.092 55.92C414.932 56.016 414.788 56.104 414.66 56.184C413.956 56.52 413.468 56.448 413.196 55.968C413.084 55.76 413.068 55.6 413.148 55.488C413.244 55.36 413.508 55.16 413.94 54.888C414.5 54.616 414.876 54.384 415.068 54.192C415.324 53.984 415.644 53.736 416.028 53.448ZM423.038 59.76C423.262 59.68 423.766 59.64 424.55 59.64C425.35 59.64 425.862 59.68 426.086 59.76C426.262 59.808 426.502 59.864 426.806 59.928C427.062 59.96 427.382 60.152 427.766 60.504C428.15 60.84 428.438 61.192 428.63 61.56C428.678 61.672 428.718 61.784 428.75 61.896C428.798 61.992 428.822 62.088 428.822 62.184C428.838 62.392 428.83 62.792 428.798 63.384C428.782 64.28 428.718 64.96 428.606 65.424C428.51 65.76 428.334 66.2 428.078 66.744C427.822 67.304 427.574 67.768 427.334 68.136C427.158 68.376 426.886 68.64 426.518 68.928C426.326 69.056 426.134 69.168 425.942 69.264C425.766 69.376 425.598 69.464 425.438 69.528C425.31 69.592 425.182 69.632 425.054 69.648C424.942 69.664 424.822 69.672 424.694 69.672C424.486 69.656 423.966 69.568 423.134 69.408C422.766 69.328 422.278 69.008 421.67 68.448C421.078 67.888 420.598 67.304 420.23 66.696C419.766 65.912 419.358 64.936 419.006 63.768C418.846 63.32 418.774 62.32 418.79 60.768C418.806 59.712 418.83 59.008 418.862 58.656C418.894 58.288 418.966 57.88 419.078 57.432C419.558 55.656 420.206 54.2 421.022 53.064C421.23 52.76 421.638 52.312 422.246 51.72C422.854 51.128 423.222 50.832 423.35 50.832C423.446 50.832 423.534 50.784 423.614 50.688C423.726 50.56 424.078 50.496 424.67 50.496C425.262 50.496 425.702 50.552 425.99 50.664C426.374 50.824 426.694 50.984 426.95 51.144C427.222 51.304 427.446 51.464 427.622 51.624C428.118 52.152 428.302 52.864 428.174 53.76C428.11 54.144 428.078 54.408 428.078 54.552V54.576C428.062 54.736 427.958 54.856 427.766 54.936C427.654 54.984 427.542 55 427.43 54.984C427.334 54.952 427.23 54.888 427.118 54.792C426.974 54.664 426.886 54.528 426.854 54.384C426.822 54.256 426.806 53.984 426.806 53.568C426.806 53.264 426.79 53.024 426.758 52.848C426.726 52.656 426.686 52.528 426.638 52.464C426.51 52.336 426.278 52.2 425.942 52.056C425.606 51.912 425.278 51.816 424.958 51.768C424.638 51.72 424.294 51.792 423.926 51.984C423.59 52.192 423.238 52.48 422.87 52.848C422.518 53.216 422.158 53.68 421.79 54.24C421.71 54.336 421.638 54.432 421.574 54.528C421.526 54.624 421.486 54.696 421.454 54.744C421.422 54.792 421.406 54.824 421.406 54.84C421.39 54.904 421.334 55.04 421.238 55.248C420.79 56.272 420.502 57.064 420.374 57.624C420.246 58.168 420.166 58.928 420.134 59.904C420.086 60.672 420.07 61.168 420.086 61.392L420.134 61.656C420.214 61.656 420.35 61.512 420.542 61.224C420.942 60.6 421.502 60.184 422.222 59.976C422.286 59.96 422.358 59.944 422.438 59.928C422.518 59.912 422.606 59.888 422.702 59.856C422.814 59.824 422.926 59.792 423.038 59.76ZM427.55 62.832C427.486 62.16 427.166 61.64 426.59 61.272C426.542 61.24 426.47 61.216 426.374 61.2C426.278 61.168 426.15 61.144 425.99 61.128C425.846 61.112 425.67 61.096 425.462 61.08C425.254 61.064 425.022 61.056 424.766 61.056C424.142 61.04 423.686 61.04 423.398 61.056C423.238 61.056 423.094 61.072 422.966 61.104C422.854 61.12 422.75 61.144 422.654 61.176C422.574 61.208 422.486 61.248 422.39 61.296C422.294 61.344 422.206 61.408 422.126 61.488C421.662 61.84 421.358 62.296 421.214 62.856C421.102 63.192 420.926 63.456 420.686 63.648C420.654 63.696 420.614 63.736 420.566 63.768C420.534 63.8 420.51 63.832 420.494 63.864C420.478 63.88 420.47 63.896 420.47 63.912C420.454 63.928 420.446 63.976 420.446 64.056C420.462 64.12 420.486 64.2 420.518 64.296C420.55 64.424 420.598 64.568 420.662 64.728C420.726 64.872 420.806 65.032 420.902 65.208C421.078 65.576 421.278 65.928 421.502 66.264C421.742 66.616 421.966 66.92 422.174 67.176C422.574 67.592 422.942 67.888 423.278 68.064C423.39 68.112 423.51 68.152 423.638 68.184C423.766 68.232 423.902 68.264 424.046 68.28C424.19 68.312 424.342 68.328 424.502 68.328C424.934 68.36 425.278 68.28 425.534 68.088C425.646 68.008 425.774 67.88 425.918 67.704C426.062 67.544 426.222 67.344 426.398 67.104C426.75 66.608 426.966 66.208 427.046 65.904C427.462 64.528 427.63 63.504 427.55 62.832Z" fill="black"/>
<rect x="401" y="38" width="40" height="40" stroke="#7A7A7A"/>
<rect x="1" y="78" width="40" height="40" stroke="#7A7A7A"/>
<path d="M59.204 92.608C59.348 92.608 59.436 92.56 59.468 92.464C59.516 92.384 59.764 92.344 60.212 92.344C60.404 92.344 60.556 92.352 60.668 92.368C60.7 92.384 60.732 92.4 60.764 92.416C60.796 92.416 60.828 92.424 60.86 92.44C60.892 92.44 60.916 92.448 60.932 92.464C61.012 92.512 61.108 92.592 61.22 92.704C61.46 92.944 61.732 93.12 62.036 93.232C62.116 93.248 62.268 93.288 62.492 93.352C62.572 93.368 62.644 93.384 62.708 93.4C62.772 93.416 62.82 93.432 62.852 93.448C62.9 93.464 62.94 93.472 62.972 93.472C63.084 93.52 63.196 93.576 63.308 93.64C63.42 93.688 63.532 93.76 63.644 93.856C63.756 93.936 63.876 94.032 64.004 94.144C64.356 94.464 64.596 94.784 64.724 95.104C64.98 95.712 65.02 96.4 64.844 97.168C64.684 97.92 64.34 98.584 63.812 99.16C63.396 99.592 63.188 99.856 63.188 99.952C63.188 100 63.22 100.048 63.284 100.096C63.348 100.144 63.436 100.192 63.548 100.24C63.692 100.304 63.836 100.376 63.98 100.456C64.124 100.536 64.268 100.624 64.412 100.72C64.476 100.752 64.532 100.792 64.58 100.84C64.628 100.872 64.676 100.904 64.724 100.936C64.772 100.968 64.82 101 64.868 101.032C64.916 101.064 64.964 101.104 65.012 101.152C65.06 101.184 65.1 101.216 65.132 101.248C65.18 101.28 65.228 101.32 65.276 101.368C65.356 101.432 65.428 101.496 65.492 101.56C65.556 101.624 65.612 101.688 65.66 101.752C65.708 101.8 65.748 101.84 65.78 101.872C66.292 102.784 66.468 103.768 66.308 104.824C66.164 105.88 65.684 106.896 64.868 107.872C64.74 108.048 64.612 108.192 64.484 108.304C64.372 108.432 64.26 108.536 64.148 108.616C63.924 108.776 63.588 108.968 63.14 109.192C62.612 109.432 62.244 109.568 62.036 109.6C61.956 109.616 61.852 109.624 61.724 109.624C61.596 109.64 61.436 109.648 61.244 109.648C61.068 109.664 60.852 109.672 60.596 109.672C58.628 109.672 57.068 109.16 55.916 108.136C55.756 108.008 55.612 107.872 55.484 107.728C55.372 107.6 55.276 107.472 55.196 107.344C55.116 107.216 55.052 107.096 55.004 106.984C54.876 106.632 54.836 106.104 54.884 105.4C54.884 105.144 54.892 104.92 54.908 104.728C54.94 104.52 54.972 104.352 55.004 104.224C55.052 104.096 55.116 103.936 55.196 103.744C55.276 103.536 55.38 103.296 55.508 103.024C55.572 102.864 55.644 102.712 55.724 102.568C55.804 102.408 55.884 102.264 55.964 102.136C56.06 101.992 56.148 101.864 56.228 101.752C56.324 101.624 56.412 101.504 56.492 101.392C56.588 101.28 56.684 101.176 56.78 101.08C56.876 100.984 56.972 100.896 57.068 100.816C57.18 100.72 57.284 100.632 57.38 100.552C57.492 100.472 57.604 100.4 57.716 100.336C57.956 100.208 58.124 100.104 58.22 100.024C58.332 99.944 58.38 99.88 58.364 99.832C58.348 99.72 58.14 99.568 57.74 99.376C57.324 99.152 56.988 98.912 56.732 98.656C56.492 98.4 56.324 98.128 56.228 97.84C56.132 97.536 56.108 97.072 56.156 96.448C56.236 95.376 56.604 94.528 57.26 93.904C57.436 93.76 57.66 93.576 57.932 93.352C58.22 93.128 58.492 92.944 58.748 92.8C58.86 92.736 58.956 92.688 59.036 92.656C59.116 92.624 59.172 92.608 59.204 92.608ZM61.052 94.48C60.396 94.48 60.044 94.448 59.996 94.384C59.804 94.128 59.548 94.04 59.228 94.12C59.068 94.168 58.9 94.248 58.724 94.36C58.564 94.472 58.396 94.632 58.22 94.84C58.044 95.032 57.9 95.24 57.788 95.464C57.676 95.672 57.588 95.888 57.524 96.112C57.444 96.496 57.404 96.752 57.404 96.88C57.404 96.944 57.412 97.024 57.428 97.12C57.46 97.2 57.508 97.296 57.572 97.408C57.604 97.504 57.652 97.6 57.716 97.696C57.78 97.776 57.852 97.848 57.932 97.912C58.076 98.04 58.356 98.192 58.772 98.368C59.38 98.688 59.772 98.848 59.948 98.848C60.14 98.848 60.364 98.904 60.62 99.016C60.764 99.064 60.916 99.088 61.076 99.088C61.236 99.088 61.42 99.064 61.628 99.016C62.028 98.936 62.34 98.784 62.564 98.56C62.612 98.528 62.652 98.488 62.684 98.44C62.732 98.392 62.772 98.344 62.804 98.296C62.852 98.248 62.892 98.2 62.924 98.152C62.972 98.088 63.012 98.032 63.044 97.984C63.092 97.92 63.14 97.856 63.188 97.792C63.38 97.472 63.476 97.232 63.476 97.072C63.476 96.864 63.524 96.696 63.62 96.568C63.7 96.408 63.684 96.184 63.572 95.896C63.492 95.64 63.38 95.424 63.236 95.248C63.108 95.056 62.948 94.904 62.756 94.792C62.564 94.68 62.324 94.6 62.036 94.552C61.748 94.504 61.42 94.48 61.052 94.48ZM61.484 100.936C61.356 101 61.18 100.984 60.956 100.888C60.396 100.632 59.7 100.744 58.868 101.224C58.484 101.432 58.172 101.64 57.932 101.848C57.692 102.04 57.484 102.256 57.308 102.496C57.132 102.736 56.956 103.04 56.78 103.408C56.62 103.728 56.492 104.064 56.396 104.416C56.316 104.752 56.268 105.096 56.252 105.448L56.156 106.528L56.804 107.152C57.028 107.36 57.22 107.52 57.38 107.632C57.54 107.76 57.668 107.832 57.764 107.848C57.796 107.848 57.828 107.848 57.86 107.848C57.892 107.864 57.932 107.872 57.98 107.872C58.076 107.904 58.172 107.936 58.268 107.968C58.316 107.984 58.372 108 58.436 108.016C58.516 108.032 58.596 108.056 58.676 108.088C58.836 108.12 58.972 108.152 59.084 108.184C59.484 108.296 59.852 108.368 60.188 108.4C60.54 108.432 60.852 108.432 61.124 108.4C61.668 108.336 62.364 108.096 63.212 107.68C63.292 107.632 63.428 107.496 63.62 107.272C63.812 107.064 64.004 106.824 64.196 106.552C64.388 106.28 64.54 106.048 64.652 105.856C64.812 105.552 64.9 105.024 64.916 104.272C64.916 103.856 64.892 103.512 64.844 103.24C64.796 102.968 64.716 102.76 64.604 102.616C64.54 102.52 64.42 102.408 64.244 102.28C64.084 102.152 63.868 102.008 63.596 101.848C63.34 101.688 63.036 101.512 62.684 101.32C62.028 100.968 61.628 100.84 61.484 100.936Z" fill="black"/>
<rect x="41" y="78" width="40" height="40" stroke="#7A7A7A"/>
<rect x="81" y="78" width="40" height="40" stroke="#7A7A7A"/>
<rect x="121" y="78" width="40" height="40" stroke="#7A7A7A"/>
<rect x="161" y="78" width="40" height="40" stroke="#7A7A7A"/>
<rect x="201" y="78" width="40" height="40" stroke="#7A7A7A"/>
<path d="M251.564 94.984C251.836 94.552 252.188 94.16 252.62 93.808C253.052 93.44 253.556 93.12 254.132 92.848C254.98 92.432 255.692 92.272 256.268 92.368C256.844 92.448 257.412 92.8 257.972 93.424C258.212 93.696 258.404 93.952 258.548 94.192C258.708 94.432 258.82 94.656 258.884 94.864C259.028 95.28 259.1 96.024 259.1 97.096C259.1 97.976 259.076 98.552 259.028 98.824C258.996 99.096 258.916 99.36 258.788 99.616C258.596 99.984 258.34 100.384 258.02 100.816C257.94 100.928 257.86 101.032 257.78 101.128C257.7 101.224 257.62 101.312 257.54 101.392C257.476 101.472 257.412 101.544 257.348 101.608C257.284 101.672 257.22 101.728 257.156 101.776C256.772 102.112 256.108 102.584 255.164 103.192C254.7 103.496 254.316 103.736 254.012 103.912C253.708 104.088 253.484 104.2 253.34 104.248C253.228 104.296 253.124 104.344 253.028 104.392C252.932 104.424 252.844 104.456 252.764 104.488C252.7 104.52 252.644 104.552 252.596 104.584C252.564 104.6 252.492 104.624 252.38 104.656C252.284 104.672 252.156 104.696 251.996 104.728C251.644 104.808 251.412 104.96 251.3 105.184C251.268 105.264 251.236 105.368 251.204 105.496C251.188 105.608 251.172 105.752 251.156 105.928C251.156 106.088 251.156 106.272 251.156 106.48C251.156 107.2 251.188 107.616 251.252 107.728C251.316 107.84 251.692 107.856 252.38 107.776C253.116 107.68 254.596 107.632 256.82 107.632L260.276 107.584L260.42 107.872C260.468 107.952 260.492 108.04 260.492 108.136C260.492 108.232 260.476 108.328 260.444 108.424C260.428 108.488 260.396 108.544 260.348 108.592C260.316 108.656 260.268 108.704 260.204 108.736C260.156 108.784 260.1 108.824 260.036 108.856C259.908 108.92 258.532 108.984 255.908 109.048C254.004 109.064 252.788 109.104 252.26 109.168C252.004 109.2 251.756 109.24 251.516 109.288C251.292 109.352 251.076 109.44 250.868 109.552C250.484 109.744 250.204 109.72 250.028 109.48C249.98 109.432 249.94 109.184 249.908 108.736C249.892 108.288 249.876 107.656 249.86 106.84C249.86 106.28 249.86 105.808 249.86 105.424C249.86 105.024 249.868 104.704 249.884 104.464C249.916 104.224 249.94 104.072 249.956 104.008C250.052 103.72 250.172 103.536 250.316 103.456C250.46 103.376 250.7 103.352 251.036 103.384C251.66 103.464 252.556 103.184 253.724 102.544C255.612 101.456 256.828 100.376 257.372 99.304C257.548 98.952 257.66 98.664 257.708 98.44C257.724 98.392 257.732 98.328 257.732 98.248C257.748 98.168 257.756 98.072 257.756 97.96C257.772 97.848 257.78 97.72 257.78 97.576C257.78 97.432 257.78 97.272 257.78 97.096C257.78 96.168 257.668 95.496 257.444 95.08C257.3 94.712 257.1 94.392 256.844 94.12C256.764 94.04 256.684 93.968 256.604 93.904C256.524 93.84 256.444 93.784 256.364 93.736C256.284 93.688 256.212 93.656 256.148 93.64C256.004 93.608 255.82 93.616 255.596 93.664C255.372 93.712 255.108 93.808 254.804 93.952C254.196 94.24 253.7 94.584 253.316 94.984C252.98 95.304 252.764 95.56 252.668 95.752C252.588 95.944 252.58 96.144 252.644 96.352C252.692 96.48 252.724 96.6 252.74 96.712C252.756 96.824 252.748 96.928 252.716 97.024C252.7 97.104 252.66 97.176 252.596 97.24C252.308 97.528 251.956 97.472 251.54 97.072C251.012 96.544 251.02 95.848 251.564 94.984ZM262.908 94.984C263.18 94.552 263.532 94.16 263.964 93.808C264.396 93.44 264.9 93.12 265.476 92.848C266.324 92.432 267.036 92.272 267.612 92.368C268.188 92.448 268.756 92.8 269.316 93.424C269.556 93.696 269.748 93.952 269.892 94.192C270.052 94.432 270.164 94.656 270.228 94.864C270.372 95.28 270.444 96.024 270.444 97.096C270.444 97.976 270.42 98.552 270.372 98.824C270.34 99.096 270.26 99.36 270.132 99.616C269.94 99.984 269.684 100.384 269.364 100.816C269.284 100.928 269.204 101.032 269.124 101.128C269.044 101.224 268.964 101.312 268.884 101.392C268.82 101.472 268.756 101.544 268.692 101.608C268.628 101.672 268.564 101.728 268.5 101.776C268.116 102.112 267.452 102.584 266.508 103.192C266.044 103.496 265.66 103.736 265.356 103.912C265.052 104.088 264.828 104.2 264.684 104.248C264.572 104.296 264.468 104.344 264.372 104.392C264.276 104.424 264.188 104.456 264.108 104.488C264.044 104.52 263.988 104.552 263.94 104.584C263.908 104.6 263.836 104.624 263.724 104.656C263.628 104.672 263.5 104.696 263.34 104.728C262.988 104.808 262.756 104.96 262.644 105.184C262.612 105.264 262.58 105.368 262.548 105.496C262.532 105.608 262.516 105.752 262.5 105.928C262.5 106.088 262.5 106.272 262.5 106.48C262.5 107.2 262.532 107.616 262.596 107.728C262.66 107.84 263.036 107.856 263.724 107.776C264.46 107.68 265.94 107.632 268.164 107.632L271.62 107.584L271.764 107.872C271.812 107.952 271.836 108.04 271.836 108.136C271.836 108.232 271.82 108.328 271.788 108.424C271.772 108.488 271.74 108.544 271.692 108.592C271.66 108.656 271.612 108.704 271.548 108.736C271.5 108.784 271.444 108.824 271.38 108.856C271.252 108.92 269.876 108.984 267.252 109.048C265.348 109.064 264.132 109.104 263.604 109.168C263.348 109.2 263.1 109.24 262.86 109.288C262.636 109.352 262.42 109.44 262.212 109.552C261.828 109.744 261.548 109.72 261.372 109.48C261.324 109.432 261.284 109.184 261.252 108.736C261.236 108.288 261.22 107.656 261.204 106.84C261.204 106.28 261.204 105.808 261.204 105.424C261.204 105.024 261.212 104.704 261.228 104.464C261.26 104.224 261.284 104.072 261.3 104.008C261.396 103.72 261.516 103.536 261.66 103.456C261.804 103.376 262.044 103.352 262.38 103.384C263.004 103.464 263.9 103.184 265.068 102.544C266.956 101.456 268.172 100.376 268.716 99.304C268.892 98.952 269.004 98.664 269.052 98.44C269.068 98.392 269.076 98.328 269.076 98.248C269.092 98.168 269.1 98.072 269.1 97.96C269.116 97.848 269.124 97.72 269.124 97.576C269.124 97.432 269.124 97.272 269.124 97.096C269.124 96.168 269.012 95.496 268.788 95.08C268.644 94.712 268.444 94.392 268.188 94.12C268.108 94.04 268.028 93.968 267.948 93.904C267.868 93.84 267.788 93.784 267.708 93.736C267.628 93.688 267.556 93.656 267.492 93.64C267.348 93.608 267.164 93.616 266.94 93.664C266.716 93.712 266.452 93.808 266.148 93.952C265.54 94.24 265.044 94.584 264.66 94.984C264.324 95.304 264.108 95.56 264.012 95.752C263.932 95.944 263.924 96.144 263.988 96.352C264.036 96.48 264.068 96.6 264.084 96.712C264.1 96.824 264.092 96.928 264.06 97.024C264.044 97.104 264.004 97.176 263.94 97.24C263.652 97.528 263.3 97.472 262.884 97.072C262.356 96.544 262.364 95.848 262.908 94.984Z" fill="black"/>
<rect x="241" y="78" width="40" height="40" stroke="#7A7A7A"/>
<rect x="281" y="78" width="40" height="40" stroke="#7A7A7A"/>
<rect x="321" y="78" width="40" height="40" stroke="#7A7A7A"/>
<rect x="361" y="78" width="40" height="40" stroke="#7A7A7A"/>
<rect x="401" y="78" width="40" height="40" stroke="#7A7A7A"/>
<rect x="1" y="118" width="40" height="40" stroke="#7A7A7A"/>
<rect x="41" y="118" width="40" height="40" stroke="#7A7A7A"/>
<path d="M100.108 139.76C100.332 139.68 100.836 139.64 101.62 139.64C102.42 139.64 102.932 139.68 103.156 139.76C103.332 139.808 103.572 139.864 103.876 139.928C104.132 139.96 104.452 140.152 104.836 140.504C105.22 140.84 105.508 141.192 105.7 141.56C105.748 141.672 105.788 141.784 105.82 141.896C105.868 141.992 105.892 142.088 105.892 142.184C105.908 142.392 105.9 142.792 105.868 143.384C105.852 144.28 105.788 144.96 105.676 145.424C105.58 145.76 105.404 146.2 105.148 146.744C104.892 147.304 104.644 147.768 104.404 148.136C104.228 148.376 103.956 148.64 103.588 148.928C103.396 149.056 103.204 149.168 103.012 149.264C102.836 149.376 102.668 149.464 102.508 149.528C102.38 149.592 102.252 149.632 102.124 149.648C102.012 149.664 101.892 149.672 101.764 149.672C101.556 149.656 101.036 149.568 100.204 149.408C99.836 149.328 99.348 149.008 98.74 148.448C98.148 147.888 97.668 147.304 97.3 146.696C96.836 145.912 96.428 144.936 96.076 143.768C95.916 143.32 95.844 142.32 95.86 140.768C95.876 139.712 95.9 139.008 95.932 138.656C95.964 138.288 96.036 137.88 96.148 137.432C96.628 135.656 97.276 134.2 98.092 133.064C98.3 132.76 98.708 132.312 99.316 131.72C99.924 131.128 100.292 130.832 100.42 130.832C100.516 130.832 100.604 130.784 100.684 130.688C100.796 130.56 101.148 130.496 101.74 130.496C102.332 130.496 102.772 130.552 103.06 130.664C103.444 130.824 103.764 130.984 104.02 131.144C104.292 131.304 104.516 131.464 104.692 131.624C105.188 132.152 105.372 132.864 105.244 133.76C105.18 134.144 105.148 134.408 105.148 134.552V134.576C105.132 134.736 105.028 134.856 104.836 134.936C104.724 134.984 104.612 135 104.5 134.984C104.404 134.952 104.3 134.888 104.188 134.792C104.044 134.664 103.956 134.528 103.924 134.384C103.892 134.256 103.876 133.984 103.876 133.568C103.876 133.264 103.86 133.024 103.828 132.848C103.796 132.656 103.756 132.528 103.708 132.464C103.58 132.336 103.348 132.2 103.012 132.056C102.676 131.912 102.348 131.816 102.028 131.768C101.708 131.72 101.364 131.792 100.996 131.984C100.66 132.192 100.308 132.48 99.94 132.848C99.588 133.216 99.228 133.68 98.86 134.24C98.78 134.336 98.708 134.432 98.644 134.528C98.596 134.624 98.556 134.696 98.524 134.744C98.492 134.792 98.476 134.824 98.476 134.84C98.46 134.904 98.404 135.04 98.308 135.248C97.86 136.272 97.572 137.064 97.444 137.624C97.316 138.168 97.236 138.928 97.204 139.904C97.156 140.672 97.14 141.168 97.156 141.392L97.204 141.656C97.284 141.656 97.42 141.512 97.612 141.224C98.012 140.6 98.572 140.184 99.292 139.976C99.356 139.96 99.428 139.944 99.508 139.928C99.588 139.912 99.676 139.888 99.772 139.856C99.884 139.824 99.996 139.792 100.108 139.76ZM104.62 142.832C104.556 142.16 104.236 141.64 103.66 141.272C103.612 141.24 103.54 141.216 103.444 141.2C103.348 141.168 103.22 141.144 103.06 141.128C102.916 141.112 102.74 141.096 102.532 141.08C102.324 141.064 102.092 141.056 101.836 141.056C101.212 141.04 100.756 141.04 100.468 141.056C100.308 141.056 100.164 141.072 100.036 141.104C99.924 141.12 99.82 141.144 99.724 141.176C99.644 141.208 99.556 141.248 99.46 141.296C99.364 141.344 99.276 141.408 99.196 141.488C98.732 141.84 98.428 142.296 98.284 142.856C98.172 143.192 97.996 143.456 97.756 143.648C97.724 143.696 97.684 143.736 97.636 143.768C97.604 143.8 97.58 143.832 97.564 143.864C97.548 143.88 97.54 143.896 97.54 143.912C97.524 143.928 97.516 143.976 97.516 144.056C97.532 144.12 97.556 144.2 97.588 144.296C97.62 144.424 97.668 144.568 97.732 144.728C97.796 144.872 97.876 145.032 97.972 145.208C98.148 145.576 98.348 145.928 98.572 146.264C98.812 146.616 99.036 146.92 99.244 147.176C99.644 147.592 100.012 147.888 100.348 148.064C100.46 148.112 100.58 148.152 100.708 148.184C100.836 148.232 100.972 148.264 101.116 148.28C101.26 148.312 101.412 148.328 101.572 148.328C102.004 148.36 102.348 148.28 102.604 148.088C102.716 148.008 102.844 147.88 102.988 147.704C103.132 147.544 103.292 147.344 103.468 147.104C103.82 146.608 104.036 146.208 104.116 145.904C104.532 144.528 104.7 143.504 104.62 142.832Z" fill="black"/>
<rect x="81" y="118" width="40" height="40" stroke="#7A7A7A"/>
<rect x="121" y="118" width="40" height="40" stroke="#7A7A7A"/>
<rect x="161" y="118" width="40" height="40" stroke="#7A7A7A"/>
<rect x="201" y="118" width="40" height="40" stroke="#7A7A7A"/>
<rect x="241" y="118" width="40" height="40" stroke="#7A7A7A"/>
<path d="M301.528 133.448C301.96 133.144 302.272 133.008 302.464 133.04H302.488C302.536 133.04 302.592 133.056 302.656 133.088C302.736 133.12 302.808 133.176 302.872 133.256C302.936 133.32 303.008 133.408 303.088 133.52C303.296 133.824 303.368 134.032 303.304 134.144V134.168C303.256 134.28 303.184 134.856 303.088 135.896C303.024 136.904 302.96 137.44 302.896 137.504C302.848 137.6 302.824 137.856 302.824 138.272C302.84 138.608 302.8 138.928 302.704 139.232C302.608 139.52 302.52 140.048 302.44 140.816C302.36 141.568 302.264 142.272 302.152 142.928C302.008 143.936 301.896 144.848 301.816 145.664C301.736 146.48 301.68 147.208 301.648 147.848C301.632 148.536 301.6 148.96 301.552 149.12C301.536 149.216 301.504 149.296 301.456 149.36C301.408 149.424 301.352 149.48 301.288 149.528C301.16 149.624 301.064 149.672 301 149.672C300.936 149.672 300.832 149.616 300.688 149.504H300.664C300.456 149.36 300.32 149.176 300.256 148.952C300.208 148.728 300.2 148.384 300.232 147.92C300.248 147.84 300.264 147.688 300.28 147.464C300.296 147.256 300.32 146.984 300.352 146.648C300.384 146.312 300.416 145.904 300.448 145.424C300.464 145.2 300.48 144.992 300.496 144.8C300.528 144.592 300.552 144.424 300.568 144.296C300.584 144.152 300.6 144.024 300.616 143.912C300.632 143.8 300.64 143.72 300.64 143.672C300.656 143.608 300.672 143.568 300.688 143.552C300.768 143.408 300.896 142.336 301.072 140.336C301.088 140.128 301.112 139.928 301.144 139.736C301.176 139.528 301.208 139.344 301.24 139.184C301.272 139.008 301.312 138.848 301.36 138.704C301.44 138.416 301.504 138.008 301.552 137.48C301.616 136.936 301.648 136.472 301.648 136.088C301.648 135.88 301.64 135.728 301.624 135.632C301.608 135.504 301.576 135.424 301.528 135.392L301.504 135.368C301.456 135.368 301.392 135.392 301.312 135.44C301.232 135.472 301.136 135.528 301.024 135.608C300.912 135.688 300.768 135.792 300.592 135.92C300.432 136.016 300.288 136.104 300.16 136.184C299.456 136.52 298.968 136.448 298.696 135.968C298.584 135.76 298.568 135.6 298.648 135.488C298.744 135.36 299.008 135.16 299.44 134.888C300 134.616 300.376 134.384 300.568 134.192C300.824 133.984 301.144 133.736 301.528 133.448Z" fill="black"/>
<rect x="281" y="118" width="40" height="40" stroke="#7A7A7A"/>
<rect x="321" y="118" width="40" height="40" stroke="#7A7A7A"/>
<rect x="361" y="118" width="40" height="40" stroke="#7A7A7A"/>
<rect x="401" y="118" width="40" height="40" stroke="#7A7A7A"/>
<rect x="1" y="158" width="40" height="40" stroke="#7A7A7A"/>
<rect x="41" y="158" width="40" height="40" stroke="#7A7A7A"/>
<rect x="81" y="158" width="40" height="40" stroke="#7A7A7A"/>
<path d="M132.064 174.984C132.336 174.552 132.688 174.16 133.12 173.808C133.552 173.44 134.056 173.12 134.632 172.848C135.48 172.432 136.192 172.272 136.768 172.368C137.344 172.448 137.912 172.8 138.472 173.424C138.712 173.696 138.904 173.952 139.048 174.192C139.208 174.432 139.32 174.656 139.384 174.864C139.528 175.28 139.6 176.024 139.6 177.096C139.6 177.976 139.576 178.552 139.528 178.824C139.496 179.096 139.416 179.36 139.288 179.616C139.096 179.984 138.84 180.384 138.52 180.816C138.44 180.928 138.36 181.032 138.28 181.128C138.2 181.224 138.12 181.312 138.04 181.392C137.976 181.472 137.912 181.544 137.848 181.608C137.784 181.672 137.72 181.728 137.656 181.776C137.272 182.112 136.608 182.584 135.664 183.192C135.2 183.496 134.816 183.736 134.512 183.912C134.208 184.088 133.984 184.2 133.84 184.248C133.728 184.296 133.624 184.344 133.528 184.392C133.432 184.424 133.344 184.456 133.264 184.488C133.2 184.52 133.144 184.552 133.096 184.584C133.064 184.6 132.992 184.624 132.88 184.656C132.784 184.672 132.656 184.696 132.496 184.728C132.144 184.808 131.912 184.96 131.8 185.184C131.768 185.264 131.736 185.368 131.704 185.496C131.688 185.608 131.672 185.752 131.656 185.928C131.656 186.088 131.656 186.272 131.656 186.48C131.656 187.2 131.688 187.616 131.752 187.728C131.816 187.84 132.192 187.856 132.88 187.776C133.616 187.68 135.096 187.632 137.32 187.632L140.776 187.584L140.92 187.872C140.968 187.952 140.992 188.04 140.992 188.136C140.992 188.232 140.976 188.328 140.944 188.424C140.928 188.488 140.896 188.544 140.848 188.592C140.816 188.656 140.768 188.704 140.704 188.736C140.656 188.784 140.6 188.824 140.536 188.856C140.408 188.92 139.032 188.984 136.408 189.048C134.504 189.064 133.288 189.104 132.76 189.168C132.504 189.2 132.256 189.24 132.016 189.288C131.792 189.352 131.576 189.44 131.368 189.552C130.984 189.744 130.704 189.72 130.528 189.48C130.48 189.432 130.44 189.184 130.408 188.736C130.392 188.288 130.376 187.656 130.36 186.84C130.36 186.28 130.36 185.808 130.36 185.424C130.36 185.024 130.368 184.704 130.384 184.464C130.416 184.224 130.44 184.072 130.456 184.008C130.552 183.72 130.672 183.536 130.816 183.456C130.96 183.376 131.2 183.352 131.536 183.384C132.16 183.464 133.056 183.184 134.224 182.544C136.112 181.456 137.328 180.376 137.872 179.304C138.048 178.952 138.16 178.664 138.208 178.44C138.224 178.392 138.232 178.328 138.232 178.248C138.248 178.168 138.256 178.072 138.256 177.96C138.272 177.848 138.28 177.72 138.28 177.576C138.28 177.432 138.28 177.272 138.28 177.096C138.28 176.168 138.168 175.496 137.944 175.08C137.8 174.712 137.6 174.392 137.344 174.12C137.264 174.04 137.184 173.968 137.104 173.904C137.024 173.84 136.944 173.784 136.864 173.736C136.784 173.688 136.712 173.656 136.648 173.64C136.504 173.608 136.32 173.616 136.096 173.664C135.872 173.712 135.608 173.808 135.304 173.952C134.696 174.24 134.2 174.584 133.816 174.984C133.48 175.304 133.264 175.56 133.168 175.752C133.088 175.944 133.08 176.144 133.144 176.352C133.192 176.48 133.224 176.6 133.24 176.712C133.256 176.824 133.248 176.928 133.216 177.024C133.2 177.104 133.16 177.176 133.096 177.24C132.808 177.528 132.456 177.472 132.04 177.072C131.512 176.544 131.52 175.848 132.064 174.984ZM143.264 177.024C144.16 175.2 145 174.096 145.784 173.712C146.152 173.52 146.656 173.424 147.296 173.424C147.504 173.424 147.696 173.44 147.872 173.472C148.048 173.488 148.2 173.52 148.328 173.568C148.456 173.6 148.568 173.648 148.664 173.712C148.728 173.744 148.792 173.784 148.856 173.832C148.92 173.88 148.984 173.936 149.048 174C149.128 174.064 149.2 174.136 149.264 174.216C149.344 174.296 149.424 174.384 149.504 174.48C149.584 174.576 149.664 174.68 149.744 174.792C149.936 175.08 150.096 175.344 150.224 175.584C150.368 175.808 150.464 176.016 150.512 176.208C150.544 176.304 150.672 176.688 150.896 177.36C151.024 177.744 151.088 178.52 151.088 179.688C151.088 180.84 151.024 181.584 150.896 181.92C150.736 182.272 150.656 182.568 150.656 182.808C150.656 183.144 150.536 183.744 150.296 184.608C150.168 185.04 150.04 185.432 149.912 185.784C149.784 186.12 149.648 186.424 149.504 186.696C149.28 187.144 149.016 187.552 148.712 187.92C148.424 188.288 148.096 188.616 147.728 188.904C147.008 189.48 146.344 189.736 145.736 189.672C145.096 189.592 144.48 189.352 143.888 188.952C143.312 188.552 142.88 188.064 142.592 187.488C142.464 187.232 142.352 186.992 142.256 186.768C142.16 186.544 142.08 186.344 142.016 186.168C141.904 185.784 141.824 185.344 141.776 184.848C141.728 184.352 141.704 183.712 141.704 182.928C141.704 181.584 141.776 180.624 141.92 180.048C142.08 179.472 142.528 178.464 143.264 177.024ZM148.88 175.992C148.576 175.464 148.232 175.104 147.848 174.912C147.416 174.656 147.032 174.72 146.696 175.104C146.52 175.328 146.352 175.44 146.192 175.44C146.16 175.44 146.12 175.448 146.072 175.464C146.024 175.464 145.976 175.48 145.928 175.512C145.896 175.528 145.856 175.552 145.808 175.584C145.76 175.6 145.712 175.632 145.664 175.68C145.632 175.712 145.592 175.752 145.544 175.8C145.352 176.04 144.976 176.688 144.416 177.744C143.856 178.816 143.544 179.544 143.48 179.928C143.448 179.992 143.416 180.072 143.384 180.168C143.368 180.248 143.344 180.36 143.312 180.504C143.248 180.776 143.192 180.96 143.144 181.056C143.016 181.52 142.984 182.32 143.048 183.456C143.128 184.576 143.272 185.416 143.48 185.976C143.736 186.808 144.136 187.424 144.68 187.824C145.224 188.208 145.8 188.304 146.408 188.112C146.824 187.968 147.296 187.536 147.824 186.816C148.368 186.096 148.656 185.512 148.688 185.064C148.688 184.856 148.752 184.648 148.88 184.44C149.008 184.216 149.072 183.936 149.072 183.6C149.072 183.296 149.16 182.968 149.336 182.616C149.48 182.28 149.576 181.52 149.624 180.336C149.672 179.136 149.632 178.272 149.504 177.744C149.392 177.104 149.184 176.52 148.88 175.992Z" fill="black"/>
<rect x="121" y="158" width="40" height="40" stroke="#7A7A7A"/>
<rect x="161" y="158" width="40" height="40" stroke="#7A7A7A"/>
<rect x="201" y="158" width="40" height="40" stroke="#7A7A7A"/>
<rect x="241" y="158" width="40" height="40" stroke="#7A7A7A"/>
<rect x="281" y="158" width="40" height="40" stroke="#7A7A7A"/>
<path d="M337.42 177.024C338.316 175.2 339.156 174.096 339.94 173.712C340.308 173.52 340.812 173.424 341.452 173.424C341.66 173.424 341.852 173.44 342.028 173.472C342.204 173.488 342.356 173.52 342.484 173.568C342.612 173.6 342.724 173.648 342.82 173.712C342.884 173.744 342.948 173.784 343.012 173.832C343.076 173.88 343.14 173.936 343.204 174C343.284 174.064 343.356 174.136 343.42 174.216C343.5 174.296 343.58 174.384 343.66 174.48C343.74 174.576 343.82 174.68 343.9 174.792C344.092 175.08 344.252 175.344 344.38 175.584C344.524 175.808 344.62 176.016 344.668 176.208C344.7 176.304 344.828 176.688 345.052 177.36C345.18 177.744 345.244 178.52 345.244 179.688C345.244 180.84 345.18 181.584 345.052 181.92C344.892 182.272 344.812 182.568 344.812 182.808C344.812 183.144 344.692 183.744 344.452 184.608C344.324 185.04 344.196 185.432 344.068 185.784C343.94 186.12 343.804 186.424 343.66 186.696C343.436 187.144 343.172 187.552 342.868 187.92C342.58 188.288 342.252 188.616 341.884 188.904C341.164 189.48 340.5 189.736 339.892 189.672C339.252 189.592 338.636 189.352 338.044 188.952C337.468 188.552 337.036 188.064 336.748 187.488C336.62 187.232 336.508 186.992 336.412 186.768C336.316 186.544 336.236 186.344 336.172 186.168C336.06 185.784 335.98 185.344 335.932 184.848C335.884 184.352 335.86 183.712 335.86 182.928C335.86 181.584 335.932 180.624 336.076 180.048C336.236 179.472 336.684 178.464 337.42 177.024ZM343.036 175.992C342.732 175.464 342.388 175.104 342.004 174.912C341.572 174.656 341.188 174.72 340.852 175.104C340.676 175.328 340.508 175.44 340.348 175.44C340.316 175.44 340.276 175.448 340.228 175.464C340.18 175.464 340.132 175.48 340.084 175.512C340.052 175.528 340.012 175.552 339.964 175.584C339.916 175.6 339.868 175.632 339.82 175.68C339.788 175.712 339.748 175.752 339.7 175.8C339.508 176.04 339.132 176.688 338.572 177.744C338.012 178.816 337.7 179.544 337.636 179.928C337.604 179.992 337.572 180.072 337.54 180.168C337.524 180.248 337.5 180.36 337.468 180.504C337.404 180.776 337.348 180.96 337.3 181.056C337.172 181.52 337.14 182.32 337.204 183.456C337.284 184.576 337.428 185.416 337.636 185.976C337.892 186.808 338.292 187.424 338.836 187.824C339.38 188.208 339.956 188.304 340.564 188.112C340.98 187.968 341.452 187.536 341.98 186.816C342.524 186.096 342.812 185.512 342.844 185.064C342.844 184.856 342.908 184.648 343.036 184.44C343.164 184.216 343.228 183.936 343.228 183.6C343.228 183.296 343.316 182.968 343.492 182.616C343.636 182.28 343.732 181.52 343.78 180.336C343.828 179.136 343.788 178.272 343.66 177.744C343.548 177.104 343.34 176.52 343.036 175.992Z" fill="black"/>
<rect x="321" y="158" width="40" height="40" stroke="#7A7A7A"/>
<rect x="361" y="158" width="40" height="40" stroke="#7A7A7A"/>
<rect x="401" y="158" width="40" height="40" stroke="#7A7A7A"/>
<rect x="1" y="198" width="40" height="40" stroke="#7A7A7A"/>
<rect x="41" y="198" width="40" height="40" stroke="#7A7A7A"/>
<rect x="81" y="198" width="40" height="40" stroke="#7A7A7A"/>
<rect x="121" y="198" width="40" height="40" stroke="#7A7A7A"/>
<path d="M173.84 222.64C173.792 222.624 173.744 222.6 173.696 222.568C173.648 222.52 173.6 222.456 173.552 222.376C173.36 222.152 173.312 221.928 173.408 221.704C173.44 221.64 173.488 221.568 173.552 221.488C173.632 221.408 173.72 221.328 173.816 221.248C173.928 221.152 174.056 221.048 174.2 220.936C176.568 219.336 178.376 217.536 179.624 215.536C179.832 215.2 180.048 214.896 180.272 214.624C180.544 214.32 180.896 213.84 181.328 213.184C181.792 212.464 182.096 212.032 182.24 211.888C182.368 211.712 182.544 211.64 182.768 211.672C183.008 211.688 183.192 211.792 183.32 211.984C183.4 212.128 183.432 212.248 183.416 212.344C183.416 212.424 183.32 212.6 183.128 212.872C182.52 213.784 181.968 214.56 181.472 215.2C181.088 215.728 180.784 216.152 180.56 216.472C180.304 216.856 180.008 217.256 179.672 217.672C179.352 218.088 178.992 218.52 178.592 218.968C178.384 219.208 178.192 219.416 178.016 219.592C177.856 219.768 177.704 219.928 177.56 220.072C177.416 220.2 177.288 220.312 177.176 220.408C177.08 220.488 176.992 220.552 176.912 220.6C176.704 220.696 176.592 220.776 176.576 220.84C176.656 220.92 177.832 220.952 180.104 220.936L183.632 220.912L183.656 216.688C183.672 214.672 183.696 213.448 183.728 213.016C183.744 212.6 183.816 212.336 183.944 212.224C184.088 212.08 184.256 212.032 184.448 212.08C184.656 212.112 184.808 212.2 184.904 212.344C184.968 212.488 185.008 213.928 185.024 216.664L185.096 220.72L185.384 220.96C185.48 221.04 185.6 221.096 185.744 221.128C185.888 221.16 186.064 221.184 186.272 221.2C186.48 221.2 186.656 221.192 186.8 221.176C186.96 221.144 187.08 221.096 187.16 221.032C187.176 221.016 187.192 221.008 187.208 221.008C187.24 220.992 187.28 220.976 187.328 220.96C187.392 220.944 187.448 220.928 187.496 220.912C187.56 220.896 187.616 220.88 187.664 220.864C187.728 220.848 187.768 220.84 187.784 220.84C187.928 220.84 188.048 220.872 188.144 220.936C188.256 221 188.336 221.096 188.384 221.224C188.48 221.384 188.528 221.504 188.528 221.584C188.528 221.664 188.48 221.76 188.384 221.872C188.112 222.32 187.416 222.488 186.296 222.376C185.704 222.312 185.344 222.328 185.216 222.424C185.104 222.52 185.048 223.528 185.048 225.448C185.048 226.28 185.064 226.992 185.096 227.584C185.096 227.872 185.104 228.096 185.12 228.256C185.136 228.432 185.152 228.536 185.168 228.568C185.328 228.84 185.272 229.12 185 229.408C184.872 229.552 184.744 229.632 184.616 229.648C184.488 229.68 184.36 229.656 184.232 229.576C184.168 229.544 184.112 229.504 184.064 229.456C184.016 229.408 183.976 229.352 183.944 229.288C183.896 229.16 183.848 228.936 183.8 228.616C183.768 228.296 183.744 227.904 183.728 227.44C183.728 226.976 183.728 226.312 183.728 225.448L183.68 222.328H180.536C178.232 222.328 176.176 222.432 174.368 222.64C174.288 222.656 174.216 222.664 174.152 222.664C174.088 222.664 174.024 222.664 173.96 222.664C173.912 222.664 173.872 222.656 173.84 222.64Z" fill="black"/>
<rect x="161" y="198" width="40" height="40" stroke="#7A7A7A"/>
<rect x="201" y="198" width="40" height="40" stroke="#7A7A7A"/>
<rect x="241" y="198" width="40" height="40" stroke="#7A7A7A"/>
<rect x="281" y="198" width="40" height="40" stroke="#7A7A7A"/>
<rect x="321" y="198" width="40" height="40" stroke="#7A7A7A"/>
<path d="M376.028 213.448C376.46 213.144 376.772 213.008 376.964 213.04H376.988C377.036 213.04 377.092 213.056 377.156 213.088C377.236 213.12 377.308 213.176 377.372 213.256C377.436 213.32 377.508 213.408 377.588 213.52C377.796 213.824 377.868 214.032 377.804 214.144V214.168C377.756 214.28 377.684 214.856 377.588 215.896C377.524 216.904 377.46 217.44 377.396 217.504C377.348 217.6 377.324 217.856 377.324 218.272C377.34 218.608 377.3 218.928 377.204 219.232C377.108 219.52 377.02 220.048 376.94 220.816C376.86 221.568 376.764 222.272 376.652 222.928C376.508 223.936 376.396 224.848 376.316 225.664C376.236 226.48 376.18 227.208 376.148 227.848C376.132 228.536 376.1 228.96 376.052 229.12C376.036 229.216 376.004 229.296 375.956 229.36C375.908 229.424 375.852 229.48 375.788 229.528C375.66 229.624 375.564 229.672 375.5 229.672C375.436 229.672 375.332 229.616 375.188 229.504H375.164C374.956 229.36 374.82 229.176 374.756 228.952C374.708 228.728 374.7 228.384 374.732 227.92C374.748 227.84 374.764 227.688 374.78 227.464C374.796 227.256 374.82 226.984 374.852 226.648C374.884 226.312 374.916 225.904 374.948 225.424C374.964 225.2 374.98 224.992 374.996 224.8C375.028 224.592 375.052 224.424 375.068 224.296C375.084 224.152 375.1 224.024 375.116 223.912C375.132 223.8 375.14 223.72 375.14 223.672C375.156 223.608 375.172 223.568 375.188 223.552C375.268 223.408 375.396 222.336 375.572 220.336C375.588 220.128 375.612 219.928 375.644 219.736C375.676 219.528 375.708 219.344 375.74 219.184C375.772 219.008 375.812 218.848 375.86 218.704C375.94 218.416 376.004 218.008 376.052 217.48C376.116 216.936 376.148 216.472 376.148 216.088C376.148 215.88 376.14 215.728 376.124 215.632C376.108 215.504 376.076 215.424 376.028 215.392L376.004 215.368C375.956 215.368 375.892 215.392 375.812 215.44C375.732 215.472 375.636 215.528 375.524 215.608C375.412 215.688 375.268 215.792 375.092 215.92C374.932 216.016 374.788 216.104 374.66 216.184C373.956 216.52 373.468 216.448 373.196 215.968C373.084 215.76 373.068 215.6 373.148 215.488C373.244 215.36 373.508 215.16 373.94 214.888C374.5 214.616 374.876 214.384 375.068 214.192C375.324 213.984 375.644 213.736 376.028 213.448ZM382.438 212.464C382.534 212.432 382.646 212.408 382.774 212.392C382.902 212.36 383.054 212.344 383.23 212.344C383.886 212.296 384.806 212.288 385.99 212.32H388.006L388.414 212.704C388.494 212.8 388.558 212.88 388.606 212.944C388.654 213.008 388.686 213.064 388.702 213.112C388.734 213.176 388.718 213.28 388.654 213.424C388.558 213.6 388.414 213.728 388.222 213.808C388.03 213.872 387.846 213.856 387.67 213.76C387.494 213.664 386.75 213.616 385.438 213.616H383.542L383.11 214.096C382.838 214.368 382.606 214.48 382.414 214.432C382.254 214.4 382.134 214.4 382.054 214.432C382.022 214.448 381.99 214.488 381.958 214.552C381.926 214.6 381.894 214.672 381.862 214.768C381.798 214.976 381.758 215.248 381.742 215.584C381.742 215.904 381.742 216.392 381.742 217.048C381.742 217.784 381.758 218.344 381.79 218.728C381.838 219.112 381.902 219.328 381.982 219.376C382.062 219.424 382.27 219.368 382.606 219.208C382.766 219.128 382.982 219.064 383.254 219.016C383.542 218.968 383.894 218.936 384.31 218.92C385.126 218.872 385.694 218.904 386.014 219.016C386.494 219.16 386.966 219.52 387.43 220.096C387.59 220.272 387.734 220.464 387.862 220.672C387.99 220.88 388.11 221.104 388.222 221.344C388.334 221.568 388.422 221.8 388.486 222.04C388.662 222.568 388.758 223.264 388.774 224.128C388.79 224.976 388.71 225.648 388.534 226.144C388.47 226.336 388.398 226.52 388.318 226.696C388.254 226.872 388.182 227.04 388.102 227.2C388.038 227.36 387.966 227.512 387.886 227.656C387.806 227.8 387.726 227.928 387.646 228.04C387.582 228.168 387.51 228.28 387.43 228.376C387.35 228.472 387.27 228.56 387.19 228.64C386.854 229.024 386.502 229.28 386.134 229.408C385.766 229.552 385.254 229.632 384.598 229.648C383.926 229.696 383.326 229.672 382.798 229.576C382.27 229.496 381.814 229.352 381.43 229.144C380.982 228.856 380.486 228.44 379.942 227.896C379.766 227.72 379.614 227.552 379.486 227.392C379.358 227.248 379.254 227.12 379.174 227.008C379.11 226.896 379.07 226.808 379.054 226.744V226.72L378.982 226.48C378.918 226.304 378.878 226.16 378.862 226.048C378.75 225.664 378.758 225.376 378.886 225.184C379.014 225.008 379.174 224.912 379.366 224.896C379.462 224.88 379.55 224.888 379.63 224.92C379.726 224.952 379.814 225.008 379.894 225.088C379.99 225.184 380.07 225.408 380.134 225.76C380.166 225.936 380.222 226.104 380.302 226.264C380.382 226.44 380.486 226.608 380.614 226.768C380.758 226.928 380.926 227.08 381.118 227.224C381.662 227.688 382.342 228.048 383.158 228.304C383.414 228.384 383.63 228.44 383.806 228.472C383.998 228.52 384.15 228.552 384.262 228.568C384.47 228.568 384.774 228.496 385.174 228.352C385.638 228.192 385.998 227.968 386.254 227.68C386.526 227.408 386.774 227 386.998 226.456C387.078 226.248 387.142 226.064 387.19 225.904C387.254 225.728 387.294 225.576 387.31 225.448C387.358 225.192 387.382 224.744 387.382 224.104C387.382 223.448 387.358 223.008 387.31 222.784C387.278 222.56 387.174 222.24 386.998 221.824C386.854 221.584 386.71 221.368 386.566 221.176C386.438 220.968 386.294 220.784 386.134 220.624C385.942 220.464 385.774 220.368 385.63 220.336C385.486 220.288 385.206 220.264 384.79 220.264C383.718 220.264 382.782 220.496 381.982 220.96C381.614 221.168 381.35 221.272 381.19 221.272C381.046 221.256 380.878 221.128 380.686 220.888L380.374 220.504V217.168C380.39 215.584 380.406 214.608 380.422 214.24C380.438 214.048 380.462 213.872 380.494 213.712C380.542 213.552 380.598 213.4 380.662 213.256C380.806 212.968 380.91 212.808 380.974 212.776C380.99 212.76 381.022 212.752 381.07 212.752C381.118 212.736 381.174 212.728 381.238 212.728C381.318 212.728 381.406 212.728 381.502 212.728C381.678 212.744 381.83 212.744 381.958 212.728C382.086 212.696 382.182 212.64 382.246 212.56C382.294 212.528 382.358 212.496 382.438 212.464Z" fill="black"/>
<rect x="361" y="198" width="40" height="40" stroke="#7A7A7A"/>
<rect x="401" y="198" width="40" height="40" stroke="#7A7A7A"/>
<path d="M5.704 14.272C5.96 14.192 6.512 14.144 7.36 14.128C7.52 14.128 7.656 14.128 7.768 14.128C7.896 14.128 8.008 14.136 8.104 14.152C8.216 14.152 8.304 14.16 8.368 14.176C8.448 14.176 8.512 14.176 8.56 14.176C8.656 14.208 8.776 14.256 8.92 14.32C9.064 14.368 9.224 14.432 9.4 14.512C10.28 14.944 10.872 15.576 11.176 16.408C11.336 16.824 11.408 17.232 11.392 17.632C11.376 18.032 11.272 18.432 11.08 18.832L10.744 19.432V22.504C10.744 24.552 10.704 25.736 10.624 26.056C10.56 26.28 10.488 26.624 10.408 27.088C10.344 27.488 10.224 27.896 10.048 28.312C9.872 28.728 9.648 29.144 9.376 29.56C9.104 29.992 8.784 30.432 8.416 30.88C8.336 30.96 8.256 31.04 8.176 31.12C8.096 31.2 8.008 31.272 7.912 31.336C7.816 31.416 7.712 31.488 7.6 31.552C7.504 31.616 7.392 31.672 7.264 31.72C7.152 31.784 7.032 31.848 6.904 31.912C6.264 32.168 5.792 32.224 5.488 32.08C5.28 31.984 5.088 31.936 4.912 31.936C4.512 31.92 4.024 31.64 3.448 31.096C3.16 30.824 2.896 30.52 2.656 30.184C2.416 29.864 2.2 29.52 2.008 29.152C1.752 28.64 1.592 28.28 1.528 28.072C1.48 27.864 1.448 27.504 1.432 26.992L1.36 25.912V25.888L1.792 25.456C1.888 25.36 1.976 25.28 2.056 25.216C2.136 25.168 2.208 25.128 2.272 25.096C2.336 25.08 2.392 25.072 2.44 25.072C2.504 25.072 2.56 25.08 2.608 25.096C2.672 25.112 2.728 25.136 2.776 25.168C2.824 25.216 2.872 25.272 2.92 25.336C3.032 25.512 3.088 25.632 3.088 25.696C3.088 25.76 3.032 25.872 2.92 26.032C2.568 26.656 2.64 27.488 3.136 28.528C3.6 29.488 4.176 30.152 4.864 30.52C5.568 30.904 6.216 30.904 6.808 30.52C6.888 30.488 6.96 30.44 7.024 30.376C7.104 30.328 7.176 30.272 7.24 30.208C7.304 30.144 7.368 30.072 7.432 29.992C7.512 29.928 7.592 29.848 7.672 29.752C7.752 29.672 7.824 29.584 7.888 29.488C8.064 29.248 8.224 29.008 8.368 28.768C8.512 28.544 8.632 28.312 8.728 28.072C9.048 27.272 9.224 26.712 9.256 26.392C9.304 26.088 9.352 25.144 9.4 23.56C9.4 22.968 9.392 22.472 9.376 22.072C9.376 21.672 9.368 21.36 9.352 21.136C9.352 20.896 9.336 20.76 9.304 20.728C9.288 20.712 9.256 20.704 9.208 20.704C9.176 20.688 9.128 20.688 9.064 20.704C9.016 20.72 8.952 20.744 8.872 20.776C8.792 20.792 8.696 20.824 8.584 20.872C8.52 20.904 8.472 20.928 8.44 20.944C8.28 21.008 8.128 21.064 7.984 21.112C7.856 21.16 7.744 21.192 7.648 21.208C7.6 21.208 7.528 21.216 7.432 21.232C7.352 21.232 7.256 21.232 7.144 21.232C7.032 21.232 6.896 21.232 6.736 21.232C6.592 21.232 6.432 21.224 6.256 21.208C5.904 21.192 5.616 21.176 5.392 21.16C5.168 21.144 4.992 21.128 4.864 21.112C4.752 21.08 4.624 21.04 4.48 20.992C4.336 20.928 4.176 20.848 4 20.752C3.296 20.416 2.792 20.04 2.488 19.624C2.344 19.416 2.232 19.184 2.152 18.928C2.088 18.656 2.056 18.36 2.056 18.04C2.056 17.384 2.24 16.776 2.608 16.216C2.704 16.056 2.832 15.896 2.992 15.736C3.152 15.576 3.344 15.416 3.568 15.256C4 14.952 4.432 14.72 4.864 14.56C4.912 14.528 5 14.496 5.128 14.464C5.272 14.416 5.392 14.384 5.488 14.368C5.584 14.336 5.656 14.304 5.704 14.272ZM6.328 15.592C6.248 15.624 6.152 15.648 6.04 15.664C5.928 15.68 5.8 15.688 5.656 15.688C5.352 15.704 4.984 15.856 4.552 16.144C4.136 16.432 3.824 16.736 3.616 17.056C2.992 18.144 3.304 18.984 4.552 19.576C4.824 19.704 5.072 19.784 5.296 19.816C5.408 19.832 5.56 19.848 5.752 19.864C5.96 19.864 6.216 19.864 6.52 19.864C6.68 19.864 6.824 19.864 6.952 19.864C7.08 19.864 7.184 19.864 7.264 19.864C7.36 19.864 7.44 19.856 7.504 19.84C7.584 19.84 7.656 19.832 7.72 19.816C7.8 19.8 7.872 19.784 7.936 19.768C8.064 19.72 8.248 19.616 8.488 19.456H8.512C8.608 19.408 8.688 19.368 8.752 19.336C8.816 19.288 8.864 19.248 8.896 19.216C8.976 19.168 9.056 19.088 9.136 18.976C9.168 18.912 9.192 18.864 9.208 18.832C9.24 18.784 9.256 18.744 9.256 18.712C9.272 18.664 9.272 18.52 9.256 18.28C9.24 18.04 9.216 17.832 9.184 17.656C9.168 17.464 9.12 17.152 9.04 16.72C9.008 16.512 8.976 16.344 8.944 16.216C8.912 16.072 8.88 15.976 8.848 15.928C8.832 15.864 8.8 15.808 8.752 15.76C8.72 15.712 8.664 15.672 8.584 15.64C8.536 15.608 8.456 15.584 8.344 15.568C8.248 15.552 8.128 15.536 7.984 15.52C7.84 15.504 7.672 15.496 7.48 15.496C6.904 15.48 6.52 15.512 6.328 15.592ZM13.9418 16.408C14.3098 15.976 14.8218 15.6 15.4778 15.28L16.4618 14.8H18.4538H20.3978L20.9258 15.328C21.3578 15.68 21.6378 16.064 21.7658 16.48C21.8938 16.88 21.9818 17.608 22.0298 18.664C22.0458 19.224 22.0538 19.64 22.0538 19.912C22.0698 20.168 22.1018 20.384 22.1498 20.56C22.1658 20.64 22.1898 20.728 22.2218 20.824C22.2538 20.904 22.2938 20.984 22.3418 21.064C22.4858 21.352 22.8218 21.752 23.3498 22.264C23.5258 22.44 23.6778 22.584 23.8058 22.696C23.9338 22.824 24.0378 22.912 24.1178 22.96C24.2138 23.024 24.2858 23.056 24.3338 23.056C24.3818 23.056 24.4298 23.072 24.4778 23.104C24.5418 23.136 24.5978 23.176 24.6458 23.224C24.7098 23.288 24.7738 23.336 24.8378 23.368C24.9178 23.4 25.0058 23.416 25.1018 23.416C25.1498 23.416 25.1978 23.424 25.2458 23.44C25.2938 23.456 25.3418 23.48 25.3898 23.512C25.4538 23.544 25.5098 23.584 25.5578 23.632C25.6218 23.68 25.6778 23.736 25.7258 23.8C25.8218 23.88 25.8858 23.944 25.9178 23.992C25.9658 24.056 25.9978 24.104 26.0138 24.136C26.0138 24.2 25.9658 24.32 25.8698 24.496C25.6298 24.832 25.1658 24.872 24.4778 24.616C24.1418 24.488 23.7978 24.304 23.4458 24.064C23.1098 23.84 22.7658 23.552 22.4138 23.2L21.5978 22.408L20.9738 23.104C20.2698 23.872 19.7178 24.424 19.3178 24.76C18.9338 25.112 18.5578 25.352 18.1898 25.48C17.8218 25.608 17.3658 25.672 16.8218 25.672C16.0858 25.672 15.5178 25.6 15.1178 25.456C14.7338 25.328 14.2698 25.04 13.7258 24.592C13.2938 24.224 12.9178 23.808 12.5978 23.344L12.1178 22.648V21.232C12.1658 20.272 12.2378 19.672 12.3338 19.432C12.4938 19.176 12.5738 18.984 12.5738 18.856C12.5738 18.664 12.7338 18.28 13.0538 17.704C13.3738 17.128 13.6698 16.696 13.9418 16.408ZM20.6138 19.048C20.6618 18.088 20.6698 17.504 20.6378 17.296C20.6218 17.088 20.5418 16.888 20.3978 16.696L20.1098 16.24L18.3098 16.216C17.5098 16.216 16.9818 16.232 16.7258 16.264C16.4698 16.296 16.2138 16.376 15.9578 16.504C15.8778 16.536 15.7978 16.576 15.7178 16.624C15.6538 16.656 15.5818 16.696 15.5018 16.744C15.4218 16.792 15.3418 16.848 15.2618 16.912C15.1978 16.96 15.1338 17.016 15.0698 17.08C15.0058 17.144 14.9338 17.216 14.8538 17.296C14.6938 17.504 14.5178 17.784 14.3258 18.136C14.1338 18.472 13.9418 18.888 13.7498 19.384C13.5898 19.72 13.4938 20.272 13.4618 21.04L13.3898 22.264L13.9418 22.936C14.3418 23.416 14.7258 23.76 15.0938 23.968C15.4778 24.192 15.9418 24.328 16.4858 24.376C16.9018 24.408 17.1898 24.416 17.3498 24.4C17.4298 24.384 17.5178 24.36 17.6138 24.328C17.7258 24.296 17.8458 24.248 17.9738 24.184C18.1018 24.104 18.2458 24 18.4058 23.872C18.5658 23.76 18.7418 23.616 18.9338 23.44C19.2858 23.104 19.6058 22.744 19.8938 22.36C19.9898 22.232 20.0698 22.112 20.1338 22C20.2138 21.872 20.2778 21.76 20.3258 21.664C20.3738 21.568 20.4058 21.48 20.4218 21.4C20.5178 21.112 20.5818 20.328 20.6138 19.048ZM30.4388 15.52C30.7908 15.36 31.3588 15.28 32.1428 15.28C32.9268 15.264 33.4228 15.312 33.6308 15.424C33.7268 15.472 33.8228 15.536 33.9188 15.616C34.0148 15.68 34.1108 15.76 34.2068 15.856C34.4148 16.032 34.6068 16.224 34.7828 16.432C34.9588 16.64 35.1348 16.872 35.3108 17.128C35.4868 17.368 35.6308 17.608 35.7428 17.848C35.7588 17.88 35.7748 17.92 35.7908 17.968C35.8228 18.016 35.8468 18.064 35.8628 18.112C35.8788 18.16 35.8948 18.216 35.9108 18.28C35.9268 18.328 35.9428 18.384 35.9588 18.448C35.9748 18.512 35.9908 18.576 36.0068 18.64C36.0228 18.704 36.0308 18.768 36.0308 18.832C36.0468 18.896 36.0548 18.968 36.0548 19.048C36.0708 19.128 36.0788 19.2 36.0788 19.264C36.1428 19.888 36.1268 20.4 36.0308 20.8C35.6628 22.128 34.5908 23.272 32.8148 24.232C32.5588 24.376 32.2548 24.496 31.9028 24.592C31.5668 24.704 31.1828 24.8 30.7508 24.88C29.9028 25.024 29.2788 25.032 28.8788 24.904C28.5108 24.76 28.2868 24.792 28.2068 25C28.1268 25.32 28.0868 26.448 28.0868 28.384C28.0868 30.208 28.0468 31.296 27.9668 31.648C27.9348 31.824 27.8628 31.952 27.7508 32.032C27.6388 32.112 27.4948 32.152 27.3188 32.152C27.0148 32.152 26.8388 31.864 26.7908 31.288C26.7268 30.68 26.7268 28.976 26.7908 26.176C26.8228 24.928 26.8468 23.696 26.8628 22.48C26.8948 21.28 26.9188 20.096 26.9348 18.928C26.9348 17.472 26.9748 16.616 27.0548 16.36C27.1668 16.136 27.3268 16 27.5348 15.952C27.6468 15.936 27.7508 15.944 27.8468 15.976C27.9588 16.008 28.0628 16.072 28.1588 16.168L28.4948 16.48H28.5188L29.1908 16.12C29.7348 15.8 30.1508 15.6 30.4388 15.52ZM34.4948 18.4C34.4948 18.304 34.4148 18.144 34.2548 17.92C34.0948 17.68 33.8468 17.376 33.5108 17.008C33.3508 16.832 33.1988 16.72 33.0548 16.672C32.9268 16.624 32.6548 16.6 32.2388 16.6C32.1588 16.6 32.0708 16.6 31.9748 16.6C31.8948 16.6 31.8148 16.608 31.7348 16.624C31.6548 16.624 31.5748 16.632 31.4948 16.648C31.4148 16.664 31.3348 16.68 31.2548 16.696C31.1748 16.712 31.0948 16.728 31.0148 16.744C30.9348 16.76 30.8548 16.784 30.7748 16.816C30.6948 16.848 30.6148 16.88 30.5348 16.912C30.4228 16.944 30.3188 16.984 30.2228 17.032C30.1428 17.064 30.0628 17.104 29.9828 17.152C29.9028 17.2 29.8308 17.248 29.7668 17.296C29.7188 17.344 29.6708 17.392 29.6228 17.44C29.4468 17.648 29.3428 17.92 29.3108 18.256C29.2948 18.512 29.2228 18.688 29.0948 18.784C28.7268 19.008 28.5108 19.208 28.4468 19.384C28.4308 19.448 28.4148 19.552 28.3988 19.696C28.3828 19.824 28.3668 19.992 28.3508 20.2C28.3348 20.408 28.3268 20.664 28.3268 20.968C28.3268 21.88 28.3588 22.464 28.4228 22.72C28.5028 22.992 28.6948 23.208 28.9988 23.368C29.2228 23.48 29.5268 23.552 29.9108 23.584C30.1188 23.584 30.3028 23.576 30.4628 23.56C30.6228 23.544 30.7588 23.512 30.8708 23.464C30.9828 23.4 31.2468 23.304 31.6628 23.176C32.1908 23.016 32.6868 22.768 33.1508 22.432C33.3748 22.272 33.5748 22.104 33.7508 21.928C33.9428 21.736 34.1108 21.536 34.2548 21.328C34.4148 21.088 34.5268 20.904 34.5908 20.776C34.6548 20.632 34.6948 20.488 34.7108 20.344C34.7268 20.312 34.7348 20.272 34.7348 20.224C34.7348 20.176 34.7348 20.128 34.7348 20.08C34.7508 20.016 34.7588 19.952 34.7588 19.888C34.7588 19.808 34.7588 19.728 34.7588 19.648C34.7588 19.056 34.7108 18.728 34.6148 18.664C34.5348 18.6 34.4948 18.512 34.4948 18.4ZM50.4237 13.024C50.5837 12.944 51.0157 12.904 51.7197 12.904C52.4237 12.904 52.8397 12.976 52.9677 13.12C53.0957 13.232 53.1677 13.392 53.1837 13.6C53.1997 13.792 53.1517 13.928 53.0397 14.008C52.9117 14.088 52.3037 14.176 51.2157 14.272C50.1277 14.368 48.9197 14.44 47.5917 14.488C46.7437 14.504 46.0957 14.504 45.6477 14.488C45.2157 14.472 44.9197 14.44 44.7597 14.392C44.6157 14.344 44.4797 14.256 44.3517 14.128C44.1917 13.984 44.1597 13.784 44.2557 13.528L44.3997 13.144H47.3037C49.2877 13.144 50.3277 13.104 50.4237 13.024ZM47.7597 18.496C47.9997 18.496 48.3517 18.488 48.8157 18.472C51.4397 18.424 52.9757 18.408 53.4237 18.424C53.8877 18.424 54.1837 18.488 54.3117 18.616C54.3277 18.632 54.3517 18.656 54.3837 18.688C54.5277 18.832 54.6157 19 54.6477 19.192C54.6957 19.384 54.6717 19.544 54.5757 19.672C54.5277 19.752 52.9677 19.792 49.8957 19.792C46.8237 19.792 45.1997 19.848 45.0237 19.96C44.6717 20.168 44.3677 20.04 44.1117 19.576C44.0477 19.464 44.0317 19.376 44.0637 19.312C44.0957 19.232 44.1917 19.104 44.3517 18.928L44.7357 18.568L47.7597 18.496ZM66.2268 8.464C66.3228 8.432 66.4348 8.408 66.5628 8.392C66.6908 8.36 66.8428 8.344 67.0188 8.344C67.6748 8.296 68.5948 8.288 69.7788 8.32H71.7948L72.2028 8.704C72.2828 8.8 72.3468 8.88 72.3948 8.944C72.4428 9.008 72.4748 9.064 72.4908 9.112C72.5228 9.176 72.5068 9.28 72.4428 9.424C72.3468 9.6 72.2028 9.728 72.0108 9.808C71.8188 9.872 71.6348 9.856 71.4588 9.76C71.2828 9.664 70.5388 9.616 69.2268 9.616H67.3308L66.8988 10.096C66.6268 10.368 66.3948 10.48 66.2028 10.432C66.0428 10.4 65.9228 10.4 65.8428 10.432C65.8108 10.448 65.7788 10.488 65.7467 10.552C65.7148 10.6 65.6828 10.672 65.6508 10.768C65.5868 10.976 65.5468 11.248 65.5308 11.584C65.5308 11.904 65.5308 12.392 65.5308 13.048C65.5308 13.784 65.5468 14.344 65.5788 14.728C65.6268 15.112 65.6908 15.328 65.7708 15.376C65.8508 15.424 66.0588 15.368 66.3948 15.208C66.5548 15.128 66.7708 15.064 67.0428 15.016C67.3308 14.968 67.6828 14.936 68.0988 14.92C68.9148 14.872 69.4828 14.904 69.8028 15.016C70.2828 15.16 70.7548 15.52 71.2188 16.096C71.3788 16.272 71.5228 16.464 71.6508 16.672C71.7788 16.88 71.8988 17.104 72.0108 17.344C72.1228 17.568 72.2108 17.8 72.2748 18.04C72.4508 18.568 72.5468 19.264 72.5628 20.128C72.5788 20.976 72.4988 21.648 72.3228 22.144C72.2588 22.336 72.1868 22.52 72.1068 22.696C72.0428 22.872 71.9708 23.04 71.8908 23.2C71.8268 23.36 71.7548 23.512 71.6748 23.656C71.5948 23.8 71.5148 23.928 71.4348 24.04C71.3708 24.168 71.2988 24.28 71.2188 24.376C71.1388 24.472 71.0588 24.56 70.9788 24.64C70.6428 25.024 70.2908 25.28 69.9228 25.408C69.5548 25.552 69.0428 25.632 68.3867 25.648C67.7148 25.696 67.1148 25.672 66.5868 25.576C66.0588 25.496 65.6028 25.352 65.2188 25.144C64.7708 24.856 64.2748 24.44 63.7308 23.896C63.5548 23.72 63.4028 23.552 63.2748 23.392C63.1468 23.248 63.0428 23.12 62.9628 23.008C62.8988 22.896 62.8588 22.808 62.8428 22.744V22.72L62.7708 22.48C62.7068 22.304 62.6668 22.16 62.6508 22.048C62.5388 21.664 62.5468 21.376 62.6748 21.184C62.8028 21.008 62.9628 20.912 63.1548 20.896C63.2508 20.88 63.3388 20.888 63.4188 20.92C63.5148 20.952 63.6028 21.008 63.6828 21.088C63.7788 21.184 63.8588 21.408 63.9228 21.76C63.9548 21.936 64.0108 22.104 64.0908 22.264C64.1708 22.44 64.2748 22.608 64.4028 22.768C64.5468 22.928 64.7148 23.08 64.9068 23.224C65.4508 23.688 66.1308 24.048 66.9468 24.304C67.2028 24.384 67.4188 24.44 67.5948 24.472C67.7868 24.52 67.9388 24.552 68.0508 24.568C68.2588 24.568 68.5628 24.496 68.9628 24.352C69.4268 24.192 69.7868 23.968 70.0428 23.68C70.3148 23.408 70.5628 23 70.7868 22.456C70.8668 22.248 70.9308 22.064 70.9788 21.904C71.0428 21.728 71.0828 21.576 71.0988 21.448C71.1468 21.192 71.1708 20.744 71.1708 20.104C71.1708 19.448 71.1468 19.008 71.0988 18.784C71.0668 18.56 70.9628 18.24 70.7868 17.824C70.6428 17.584 70.4988 17.368 70.3548 17.176C70.2268 16.968 70.0828 16.784 69.9228 16.624C69.7308 16.464 69.5628 16.368 69.4188 16.336C69.2748 16.288 68.9948 16.264 68.5788 16.264C67.5068 16.264 66.5708 16.496 65.7708 16.96C65.4028 17.168 65.1388 17.272 64.9788 17.272C64.8348 17.256 64.6668 17.128 64.4748 16.888L64.1628 16.504V13.168C64.1788 11.584 64.1948 10.608 64.2108 10.24C64.2268 10.048 64.2508 9.872 64.2828 9.712C64.3308 9.552 64.3868 9.4 64.4508 9.256C64.5948 8.968 64.6988 8.808 64.7628 8.776C64.7788 8.76 64.8108 8.752 64.8588 8.752C64.9068 8.736 64.9628 8.728 65.0268 8.728C65.1068 8.728 65.1948 8.728 65.2908 8.728C65.4668 8.744 65.6188 8.744 65.7467 8.728C65.8748 8.696 65.9708 8.64 66.0348 8.56C66.0828 8.528 66.1468 8.496 66.2268 8.464Z" fill="black"/>
</svg>
