<svg width="442" height="202" viewBox="0 0 442 202" fill="none" xmlns="http://www.w3.org/2000/svg">
<path d="M16.608 15.488C16.816 15.376 17.216 15.288 17.808 15.224C18.544 15.128 19.824 15.088 21.648 15.104H24.312L24.576 15.416C24.736 15.656 24.784 15.856 24.72 16.016C24.688 16.128 24.608 16.296 24.48 16.52C24.352 16.728 24.176 17 23.952 17.336C23.488 17.992 23.04 18.56 22.608 19.04C22.048 19.68 21.624 20.176 21.336 20.528C21.064 20.88 20.928 21.088 20.928 21.152C20.928 21.248 21.088 21.312 21.408 21.344C22.016 21.456 22.832 21.856 23.856 22.544C24.24 22.8 24.56 23.064 24.816 23.336C25.088 23.608 25.288 23.88 25.416 24.152C25.688 24.696 25.824 25.496 25.824 26.552C25.84 27.336 25.792 27.944 25.68 28.376C25.632 28.6 25.552 28.856 25.44 29.144C25.328 29.432 25.184 29.76 25.008 30.128C24.56 31.024 23.872 31.72 22.944 32.216C22.864 32.248 22.792 32.28 22.728 32.312C22.68 32.344 22.624 32.368 22.56 32.384C22.496 32.416 22.44 32.44 22.392 32.456C22.344 32.488 22.296 32.512 22.248 32.528C22.2 32.544 22.152 32.552 22.104 32.552C22.056 32.568 22.016 32.576 21.984 32.576C21.744 32.608 21.136 32.632 20.16 32.648C19.232 32.68 18.648 32.68 18.408 32.648C18.28 32.632 18.144 32.6 18 32.552C17.856 32.504 17.696 32.44 17.52 32.36C16.912 32.088 16.448 31.76 16.128 31.376C15.824 31.008 15.608 30.496 15.48 29.84C15.352 29.264 15.32 28.864 15.384 28.64C15.464 28.416 15.656 28.304 15.96 28.304C16.264 28.304 16.472 28.432 16.584 28.688C16.712 28.944 16.776 29.208 16.776 29.48C16.776 30.344 17.328 30.944 18.432 31.28C18.96 31.472 19.656 31.528 20.52 31.448C21.4 31.368 22.112 31.184 22.656 30.896C22.912 30.752 23.184 30.472 23.472 30.056C23.776 29.656 24.016 29.224 24.192 28.76C24.384 28.248 24.48 27.576 24.48 26.744C24.48 25.624 24.288 24.816 23.904 24.32C23.776 24.16 23.536 23.952 23.184 23.696C22.848 23.424 22.64 23.288 22.56 23.288C22.512 23.288 22.432 23.264 22.32 23.216C22.224 23.168 22.096 23.088 21.936 22.976C21.728 22.832 21.528 22.744 21.336 22.712C21.16 22.68 20.744 22.672 20.088 22.688C19.704 22.704 19.384 22.704 19.128 22.688C18.888 22.672 18.712 22.648 18.6 22.616C18.504 22.568 18.432 22.504 18.384 22.424C18.336 22.344 18.312 22.232 18.312 22.088C18.312 21.848 18.736 21.296 19.584 20.432C21.424 18.496 22.472 17.296 22.728 16.832C22.792 16.72 22.792 16.6 22.728 16.472C22.68 16.328 22.184 16.288 21.24 16.352C18.888 16.448 17.504 16.56 17.088 16.688C16.96 16.72 16.84 16.72 16.728 16.688C16.68 16.672 16.64 16.648 16.608 16.616C16.576 16.584 16.544 16.552 16.512 16.52C16.48 16.488 16.448 16.456 16.416 16.424C16.32 16.312 16.272 16.192 16.272 16.064C16.272 16.016 16.272 15.976 16.272 15.944C16.288 15.896 16.304 15.856 16.32 15.824C16.336 15.776 16.352 15.736 16.368 15.704C16.384 15.672 16.4 15.648 16.416 15.632C16.448 15.6 16.48 15.576 16.512 15.56C16.544 15.528 16.576 15.504 16.608 15.488Z" fill="black"/>
<rect x="1" y="1" width="40" height="40" stroke="#7A7A7A"/>
<rect x="41" y="1" width="40" height="40" stroke="#7A7A7A"/>
<rect x="81" y="1" width="40" height="40" stroke="#7A7A7A"/>
<rect x="121" y="1" width="40" height="40" stroke="#7A7A7A"/>
<rect x="161" y="1" width="40" height="40" stroke="#7A7A7A"/>
<path d="M216.028 16.448C216.46 16.144 216.772 16.008 216.964 16.04H216.988C217.036 16.04 217.092 16.056 217.156 16.088C217.236 16.12 217.308 16.176 217.372 16.256C217.436 16.32 217.508 16.408 217.588 16.52C217.796 16.824 217.868 17.032 217.804 17.144V17.168C217.756 17.28 217.684 17.856 217.588 18.896C217.524 19.904 217.46 20.44 217.396 20.504C217.348 20.6 217.324 20.856 217.324 21.272C217.34 21.608 217.3 21.928 217.204 22.232C217.108 22.52 217.02 23.048 216.94 23.816C216.86 24.568 216.764 25.272 216.652 25.928C216.508 26.936 216.396 27.848 216.316 28.664C216.236 29.48 216.18 30.208 216.148 30.848C216.132 31.536 216.1 31.96 216.052 32.12C216.036 32.216 216.004 32.296 215.956 32.36C215.908 32.424 215.852 32.48 215.788 32.528C215.66 32.624 215.564 32.672 215.5 32.672C215.436 32.672 215.332 32.616 215.188 32.504H215.164C214.956 32.36 214.82 32.176 214.756 31.952C214.708 31.728 214.7 31.384 214.732 30.92C214.748 30.84 214.764 30.688 214.78 30.464C214.796 30.256 214.82 29.984 214.852 29.648C214.884 29.312 214.916 28.904 214.948 28.424C214.964 28.2 214.98 27.992 214.996 27.8C215.028 27.592 215.052 27.424 215.068 27.296C215.084 27.152 215.1 27.024 215.116 26.912C215.132 26.8 215.14 26.72 215.14 26.672C215.156 26.608 215.172 26.568 215.188 26.552C215.268 26.408 215.396 25.336 215.572 23.336C215.588 23.128 215.612 22.928 215.644 22.736C215.676 22.528 215.708 22.344 215.74 22.184C215.772 22.008 215.812 21.848 215.86 21.704C215.94 21.416 216.004 21.008 216.052 20.48C216.116 19.936 216.148 19.472 216.148 19.088C216.148 18.88 216.14 18.728 216.124 18.632C216.108 18.504 216.076 18.424 216.028 18.392L216.004 18.368C215.956 18.368 215.892 18.392 215.812 18.44C215.732 18.472 215.636 18.528 215.524 18.608C215.412 18.688 215.268 18.792 215.092 18.92C214.932 19.016 214.788 19.104 214.66 19.184C213.956 19.52 213.468 19.448 213.196 18.968C213.084 18.76 213.068 18.6 213.148 18.488C213.244 18.36 213.508 18.16 213.94 17.888C214.5 17.616 214.876 17.384 215.068 17.192C215.324 16.984 215.644 16.736 216.028 16.448ZM220.35 20.024C221.246 18.2 222.086 17.096 222.87 16.712C223.238 16.52 223.742 16.424 224.382 16.424C224.59 16.424 224.782 16.44 224.958 16.472C225.134 16.488 225.286 16.52 225.414 16.568C225.542 16.6 225.654 16.648 225.75 16.712C225.814 16.744 225.878 16.784 225.942 16.832C226.006 16.88 226.07 16.936 226.134 17C226.214 17.064 226.286 17.136 226.35 17.216C226.43 17.296 226.51 17.384 226.59 17.48C226.67 17.576 226.75 17.68 226.83 17.792C227.022 18.08 227.182 18.344 227.31 18.584C227.454 18.808 227.55 19.016 227.598 19.208C227.63 19.304 227.758 19.688 227.982 20.36C228.11 20.744 228.174 21.52 228.174 22.688C228.174 23.84 228.11 24.584 227.982 24.92C227.822 25.272 227.742 25.568 227.742 25.808C227.742 26.144 227.622 26.744 227.382 27.608C227.254 28.04 227.126 28.432 226.998 28.784C226.87 29.12 226.734 29.424 226.59 29.696C226.366 30.144 226.102 30.552 225.798 30.92C225.51 31.288 225.182 31.616 224.814 31.904C224.094 32.48 223.43 32.736 222.822 32.672C222.182 32.592 221.566 32.352 220.974 31.952C220.398 31.552 219.966 31.064 219.678 30.488C219.55 30.232 219.438 29.992 219.342 29.768C219.246 29.544 219.166 29.344 219.102 29.168C218.99 28.784 218.91 28.344 218.862 27.848C218.814 27.352 218.79 26.712 218.79 25.928C218.79 24.584 218.862 23.624 219.006 23.048C219.166 22.472 219.614 21.464 220.35 20.024ZM225.966 18.992C225.662 18.464 225.318 18.104 224.934 17.912C224.502 17.656 224.118 17.72 223.782 18.104C223.606 18.328 223.438 18.44 223.278 18.44C223.246 18.44 223.206 18.448 223.158 18.464C223.11 18.464 223.062 18.48 223.014 18.512C222.982 18.528 222.942 18.552 222.894 18.584C222.846 18.6 222.798 18.632 222.75 18.68C222.718 18.712 222.678 18.752 222.63 18.8C222.438 19.04 222.062 19.688 221.502 20.744C220.942 21.816 220.63 22.544 220.566 22.928C220.534 22.992 220.502 23.072 220.47 23.168C220.454 23.248 220.43 23.36 220.398 23.504C220.334 23.776 220.278 23.96 220.23 24.056C220.102 24.52 220.07 25.32 220.134 26.456C220.214 27.576 220.358 28.416 220.566 28.976C220.822 29.808 221.222 30.424 221.766 30.824C222.31 31.208 222.886 31.304 223.494 31.112C223.91 30.968 224.382 30.536 224.91 29.816C225.454 29.096 225.742 28.512 225.774 28.064C225.774 27.856 225.838 27.648 225.966 27.44C226.094 27.216 226.158 26.936 226.158 26.6C226.158 26.296 226.246 25.968 226.422 25.616C226.566 25.28 226.662 24.52 226.71 23.336C226.758 22.136 226.718 21.272 226.59 20.744C226.478 20.104 226.27 19.52 225.966 18.992Z" fill="black"/>
<rect x="201" y="1" width="40" height="40" stroke="#7A7A7A"/>
<rect x="241" y="1" width="40" height="40" stroke="#7A7A7A"/>
<rect x="281" y="1" width="40" height="40" stroke="#7A7A7A"/>
<rect x="321" y="1" width="40" height="40" stroke="#7A7A7A"/>
<rect x="361" y="1" width="40" height="40" stroke="#7A7A7A"/>
<path d="M416.028 16.448C416.46 16.144 416.772 16.008 416.964 16.04H416.988C417.036 16.04 417.092 16.056 417.156 16.088C417.236 16.12 417.308 16.176 417.372 16.256C417.436 16.32 417.508 16.408 417.588 16.52C417.796 16.824 417.868 17.032 417.804 17.144V17.168C417.756 17.28 417.684 17.856 417.588 18.896C417.524 19.904 417.46 20.44 417.396 20.504C417.348 20.6 417.324 20.856 417.324 21.272C417.34 21.608 417.3 21.928 417.204 22.232C417.108 22.52 417.02 23.048 416.94 23.816C416.86 24.568 416.764 25.272 416.652 25.928C416.508 26.936 416.396 27.848 416.316 28.664C416.236 29.48 416.18 30.208 416.148 30.848C416.132 31.536 416.1 31.96 416.052 32.12C416.036 32.216 416.004 32.296 415.956 32.36C415.908 32.424 415.852 32.48 415.788 32.528C415.66 32.624 415.564 32.672 415.5 32.672C415.436 32.672 415.332 32.616 415.188 32.504H415.164C414.956 32.36 414.82 32.176 414.756 31.952C414.708 31.728 414.7 31.384 414.732 30.92C414.748 30.84 414.764 30.688 414.78 30.464C414.796 30.256 414.82 29.984 414.852 29.648C414.884 29.312 414.916 28.904 414.948 28.424C414.964 28.2 414.98 27.992 414.996 27.8C415.028 27.592 415.052 27.424 415.068 27.296C415.084 27.152 415.1 27.024 415.116 26.912C415.132 26.8 415.14 26.72 415.14 26.672C415.156 26.608 415.172 26.568 415.188 26.552C415.268 26.408 415.396 25.336 415.572 23.336C415.588 23.128 415.612 22.928 415.644 22.736C415.676 22.528 415.708 22.344 415.74 22.184C415.772 22.008 415.812 21.848 415.86 21.704C415.94 21.416 416.004 21.008 416.052 20.48C416.116 19.936 416.148 19.472 416.148 19.088C416.148 18.88 416.14 18.728 416.124 18.632C416.108 18.504 416.076 18.424 416.028 18.392L416.004 18.368C415.956 18.368 415.892 18.392 415.812 18.44C415.732 18.472 415.636 18.528 415.524 18.608C415.412 18.688 415.268 18.792 415.092 18.92C414.932 19.016 414.788 19.104 414.66 19.184C413.956 19.52 413.468 19.448 413.196 18.968C413.084 18.76 413.068 18.6 413.148 18.488C413.244 18.36 413.508 18.16 413.94 17.888C414.5 17.616 414.876 17.384 415.068 17.192C415.324 16.984 415.644 16.736 416.028 16.448ZM423.038 22.76C423.262 22.68 423.766 22.64 424.55 22.64C425.35 22.64 425.862 22.68 426.086 22.76C426.262 22.808 426.502 22.864 426.806 22.928C427.062 22.96 427.382 23.152 427.766 23.504C428.15 23.84 428.438 24.192 428.63 24.56C428.678 24.672 428.718 24.784 428.75 24.896C428.798 24.992 428.822 25.088 428.822 25.184C428.838 25.392 428.83 25.792 428.798 26.384C428.782 27.28 428.718 27.96 428.606 28.424C428.51 28.76 428.334 29.2 428.078 29.744C427.822 30.304 427.574 30.768 427.334 31.136C427.158 31.376 426.886 31.64 426.518 31.928C426.326 32.056 426.134 32.168 425.942 32.264C425.766 32.376 425.598 32.464 425.438 32.528C425.31 32.592 425.182 32.632 425.054 32.648C424.942 32.664 424.822 32.672 424.694 32.672C424.486 32.656 423.966 32.568 423.134 32.408C422.766 32.328 422.278 32.008 421.67 31.448C421.078 30.888 420.598 30.304 420.23 29.696C419.766 28.912 419.358 27.936 419.006 26.768C418.846 26.32 418.774 25.32 418.79 23.768C418.806 22.712 418.83 22.008 418.862 21.656C418.894 21.288 418.966 20.88 419.078 20.432C419.558 18.656 420.206 17.2 421.022 16.064C421.23 15.76 421.638 15.312 422.246 14.72C422.854 14.128 423.222 13.832 423.35 13.832C423.446 13.832 423.534 13.784 423.614 13.688C423.726 13.56 424.078 13.496 424.67 13.496C425.262 13.496 425.702 13.552 425.99 13.664C426.374 13.824 426.694 13.984 426.95 14.144C427.222 14.304 427.446 14.464 427.622 14.624C428.118 15.152 428.302 15.864 428.174 16.76C428.11 17.144 428.078 17.408 428.078 17.552V17.576C428.062 17.736 427.958 17.856 427.766 17.936C427.654 17.984 427.542 18 427.43 17.984C427.334 17.952 427.23 17.888 427.118 17.792C426.974 17.664 426.886 17.528 426.854 17.384C426.822 17.256 426.806 16.984 426.806 16.568C426.806 16.264 426.79 16.024 426.758 15.848C426.726 15.656 426.686 15.528 426.638 15.464C426.51 15.336 426.278 15.2 425.942 15.056C425.606 14.912 425.278 14.816 424.958 14.768C424.638 14.72 424.294 14.792 423.926 14.984C423.59 15.192 423.238 15.48 422.87 15.848C422.518 16.216 422.158 16.68 421.79 17.24C421.71 17.336 421.638 17.432 421.574 17.528C421.526 17.624 421.486 17.696 421.454 17.744C421.422 17.792 421.406 17.824 421.406 17.84C421.39 17.904 421.334 18.04 421.238 18.248C420.79 19.272 420.502 20.064 420.374 20.624C420.246 21.168 420.166 21.928 420.134 22.904C420.086 23.672 420.07 24.168 420.086 24.392L420.134 24.656C420.214 24.656 420.35 24.512 420.542 24.224C420.942 23.6 421.502 23.184 422.222 22.976C422.286 22.96 422.358 22.944 422.438 22.928C422.518 22.912 422.606 22.888 422.702 22.856C422.814 22.824 422.926 22.792 423.038 22.76ZM427.55 25.832C427.486 25.16 427.166 24.64 426.59 24.272C426.542 24.24 426.47 24.216 426.374 24.2C426.278 24.168 426.15 24.144 425.99 24.128C425.846 24.112 425.67 24.096 425.462 24.08C425.254 24.064 425.022 24.056 424.766 24.056C424.142 24.04 423.686 24.04 423.398 24.056C423.238 24.056 423.094 24.072 422.966 24.104C422.854 24.12 422.75 24.144 422.654 24.176C422.574 24.208 422.486 24.248 422.39 24.296C422.294 24.344 422.206 24.408 422.126 24.488C421.662 24.84 421.358 25.296 421.214 25.856C421.102 26.192 420.926 26.456 420.686 26.648C420.654 26.696 420.614 26.736 420.566 26.768C420.534 26.8 420.51 26.832 420.494 26.864C420.478 26.88 420.47 26.896 420.47 26.912C420.454 26.928 420.446 26.976 420.446 27.056C420.462 27.12 420.486 27.2 420.518 27.296C420.55 27.424 420.598 27.568 420.662 27.728C420.726 27.872 420.806 28.032 420.902 28.208C421.078 28.576 421.278 28.928 421.502 29.264C421.742 29.616 421.966 29.92 422.174 30.176C422.574 30.592 422.942 30.888 423.278 31.064C423.39 31.112 423.51 31.152 423.638 31.184C423.766 31.232 423.902 31.264 424.046 31.28C424.19 31.312 424.342 31.328 424.502 31.328C424.934 31.36 425.278 31.28 425.534 31.088C425.646 31.008 425.774 30.88 425.918 30.704C426.062 30.544 426.222 30.344 426.398 30.104C426.75 29.608 426.966 29.208 427.046 28.904C427.462 27.528 427.63 26.504 427.55 25.832Z" fill="black"/>
<rect x="401" y="1" width="40" height="40" stroke="#7A7A7A"/>
<rect x="1" y="41" width="40" height="40" stroke="#7A7A7A"/>
<path d="M59.204 55.608C59.348 55.608 59.436 55.56 59.468 55.464C59.516 55.384 59.764 55.344 60.212 55.344C60.404 55.344 60.556 55.352 60.668 55.368C60.7 55.384 60.732 55.4 60.764 55.416C60.796 55.416 60.828 55.424 60.86 55.44C60.892 55.44 60.916 55.448 60.932 55.464C61.012 55.512 61.108 55.592 61.22 55.704C61.46 55.944 61.732 56.12 62.036 56.232C62.116 56.248 62.268 56.288 62.492 56.352C62.572 56.368 62.644 56.384 62.708 56.4C62.772 56.416 62.82 56.432 62.852 56.448C62.9 56.464 62.94 56.472 62.972 56.472C63.084 56.52 63.196 56.576 63.308 56.64C63.42 56.688 63.532 56.76 63.644 56.856C63.756 56.936 63.876 57.032 64.004 57.144C64.356 57.464 64.596 57.784 64.724 58.104C64.98 58.712 65.02 59.4 64.844 60.168C64.684 60.92 64.34 61.584 63.812 62.16C63.396 62.592 63.188 62.856 63.188 62.952C63.188 63 63.22 63.048 63.284 63.096C63.348 63.144 63.436 63.192 63.548 63.24C63.692 63.304 63.836 63.376 63.98 63.456C64.124 63.536 64.268 63.624 64.412 63.72C64.476 63.752 64.532 63.792 64.58 63.84C64.628 63.872 64.676 63.904 64.724 63.936C64.772 63.968 64.82 64 64.868 64.032C64.916 64.064 64.964 64.104 65.012 64.152C65.06 64.184 65.1 64.216 65.132 64.248C65.18 64.28 65.228 64.32 65.276 64.368C65.356 64.432 65.428 64.496 65.492 64.56C65.556 64.624 65.612 64.688 65.66 64.752C65.708 64.8 65.748 64.84 65.78 64.872C66.292 65.784 66.468 66.768 66.308 67.824C66.164 68.88 65.684 69.896 64.868 70.872C64.74 71.048 64.612 71.192 64.484 71.304C64.372 71.432 64.26 71.536 64.148 71.616C63.924 71.776 63.588 71.968 63.14 72.192C62.612 72.432 62.244 72.568 62.036 72.6C61.956 72.616 61.852 72.624 61.724 72.624C61.596 72.64 61.436 72.648 61.244 72.648C61.068 72.664 60.852 72.672 60.596 72.672C58.628 72.672 57.068 72.16 55.916 71.136C55.756 71.008 55.612 70.872 55.484 70.728C55.372 70.6 55.276 70.472 55.196 70.344C55.116 70.216 55.052 70.096 55.004 69.984C54.876 69.632 54.836 69.104 54.884 68.4C54.884 68.144 54.892 67.92 54.908 67.728C54.94 67.52 54.972 67.352 55.004 67.224C55.052 67.096 55.116 66.936 55.196 66.744C55.276 66.536 55.38 66.296 55.508 66.024C55.572 65.864 55.644 65.712 55.724 65.568C55.804 65.408 55.884 65.264 55.964 65.136C56.06 64.992 56.148 64.864 56.228 64.752C56.324 64.624 56.412 64.504 56.492 64.392C56.588 64.28 56.684 64.176 56.78 64.08C56.876 63.984 56.972 63.896 57.068 63.816C57.18 63.72 57.284 63.632 57.38 63.552C57.492 63.472 57.604 63.4 57.716 63.336C57.956 63.208 58.124 63.104 58.22 63.024C58.332 62.944 58.38 62.88 58.364 62.832C58.348 62.72 58.14 62.568 57.74 62.376C57.324 62.152 56.988 61.912 56.732 61.656C56.492 61.4 56.324 61.128 56.228 60.84C56.132 60.536 56.108 60.072 56.156 59.448C56.236 58.376 56.604 57.528 57.26 56.904C57.436 56.76 57.66 56.576 57.932 56.352C58.22 56.128 58.492 55.944 58.748 55.8C58.86 55.736 58.956 55.688 59.036 55.656C59.116 55.624 59.172 55.608 59.204 55.608ZM61.052 57.48C60.396 57.48 60.044 57.448 59.996 57.384C59.804 57.128 59.548 57.04 59.228 57.12C59.068 57.168 58.9 57.248 58.724 57.36C58.564 57.472 58.396 57.632 58.22 57.84C58.044 58.032 57.9 58.24 57.788 58.464C57.676 58.672 57.588 58.888 57.524 59.112C57.444 59.496 57.404 59.752 57.404 59.88C57.404 59.944 57.412 60.024 57.428 60.12C57.46 60.2 57.508 60.296 57.572 60.408C57.604 60.504 57.652 60.6 57.716 60.696C57.78 60.776 57.852 60.848 57.932 60.912C58.076 61.04 58.356 61.192 58.772 61.368C59.38 61.688 59.772 61.848 59.948 61.848C60.14 61.848 60.364 61.904 60.62 62.016C60.764 62.064 60.916 62.088 61.076 62.088C61.236 62.088 61.42 62.064 61.628 62.016C62.028 61.936 62.34 61.784 62.564 61.56C62.612 61.528 62.652 61.488 62.684 61.44C62.732 61.392 62.772 61.344 62.804 61.296C62.852 61.248 62.892 61.2 62.924 61.152C62.972 61.088 63.012 61.032 63.044 60.984C63.092 60.92 63.14 60.856 63.188 60.792C63.38 60.472 63.476 60.232 63.476 60.072C63.476 59.864 63.524 59.696 63.62 59.568C63.7 59.408 63.684 59.184 63.572 58.896C63.492 58.64 63.38 58.424 63.236 58.248C63.108 58.056 62.948 57.904 62.756 57.792C62.564 57.68 62.324 57.6 62.036 57.552C61.748 57.504 61.42 57.48 61.052 57.48ZM61.484 63.936C61.356 64 61.18 63.984 60.956 63.888C60.396 63.632 59.7 63.744 58.868 64.224C58.484 64.432 58.172 64.64 57.932 64.848C57.692 65.04 57.484 65.256 57.308 65.496C57.132 65.736 56.956 66.04 56.78 66.408C56.62 66.728 56.492 67.064 56.396 67.416C56.316 67.752 56.268 68.096 56.252 68.448L56.156 69.528L56.804 70.152C57.028 70.36 57.22 70.52 57.38 70.632C57.54 70.76 57.668 70.832 57.764 70.848C57.796 70.848 57.828 70.848 57.86 70.848C57.892 70.864 57.932 70.872 57.98 70.872C58.076 70.904 58.172 70.936 58.268 70.968C58.316 70.984 58.372 71 58.436 71.016C58.516 71.032 58.596 71.056 58.676 71.088C58.836 71.12 58.972 71.152 59.084 71.184C59.484 71.296 59.852 71.368 60.188 71.4C60.54 71.432 60.852 71.432 61.124 71.4C61.668 71.336 62.364 71.096 63.212 70.68C63.292 70.632 63.428 70.496 63.62 70.272C63.812 70.064 64.004 69.824 64.196 69.552C64.388 69.28 64.54 69.048 64.652 68.856C64.812 68.552 64.9 68.024 64.916 67.272C64.916 66.856 64.892 66.512 64.844 66.24C64.796 65.968 64.716 65.76 64.604 65.616C64.54 65.52 64.42 65.408 64.244 65.28C64.084 65.152 63.868 65.008 63.596 64.848C63.34 64.688 63.036 64.512 62.684 64.32C62.028 63.968 61.628 63.84 61.484 63.936Z" fill="black"/>
<rect x="41" y="41" width="40" height="40" stroke="#7A7A7A"/>
<rect x="81" y="41" width="40" height="40" stroke="#7A7A7A"/>
<rect x="121" y="41" width="40" height="40" stroke="#7A7A7A"/>
<rect x="161" y="41" width="40" height="40" stroke="#7A7A7A"/>
<rect x="201" y="41" width="40" height="40" stroke="#7A7A7A"/>
<path d="M251.564 57.984C251.836 57.552 252.188 57.16 252.62 56.808C253.052 56.44 253.556 56.12 254.132 55.848C254.98 55.432 255.692 55.272 256.268 55.368C256.844 55.448 257.412 55.8 257.972 56.424C258.212 56.696 258.404 56.952 258.548 57.192C258.708 57.432 258.82 57.656 258.884 57.864C259.028 58.28 259.1 59.024 259.1 60.096C259.1 60.976 259.076 61.552 259.028 61.824C258.996 62.096 258.916 62.36 258.788 62.616C258.596 62.984 258.34 63.384 258.02 63.816C257.94 63.928 257.86 64.032 257.78 64.128C257.7 64.224 257.62 64.312 257.54 64.392C257.476 64.472 257.412 64.544 257.348 64.608C257.284 64.672 257.22 64.728 257.156 64.776C256.772 65.112 256.108 65.584 255.164 66.192C254.7 66.496 254.316 66.736 254.012 66.912C253.708 67.088 253.484 67.2 253.34 67.248C253.228 67.296 253.124 67.344 253.028 67.392C252.932 67.424 252.844 67.456 252.764 67.488C252.7 67.52 252.644 67.552 252.596 67.584C252.564 67.6 252.492 67.624 252.38 67.656C252.284 67.672 252.156 67.696 251.996 67.728C251.644 67.808 251.412 67.96 251.3 68.184C251.268 68.264 251.236 68.368 251.204 68.496C251.188 68.608 251.172 68.752 251.156 68.928C251.156 69.088 251.156 69.272 251.156 69.48C251.156 70.2 251.188 70.616 251.252 70.728C251.316 70.84 251.692 70.856 252.38 70.776C253.116 70.68 254.596 70.632 256.82 70.632L260.276 70.584L260.42 70.872C260.468 70.952 260.492 71.04 260.492 71.136C260.492 71.232 260.476 71.328 260.444 71.424C260.428 71.488 260.396 71.544 260.348 71.592C260.316 71.656 260.268 71.704 260.204 71.736C260.156 71.784 260.1 71.824 260.036 71.856C259.908 71.92 258.532 71.984 255.908 72.048C254.004 72.064 252.788 72.104 252.26 72.168C252.004 72.2 251.756 72.24 251.516 72.288C251.292 72.352 251.076 72.44 250.868 72.552C250.484 72.744 250.204 72.72 250.028 72.48C249.98 72.432 249.94 72.184 249.908 71.736C249.892 71.288 249.876 70.656 249.86 69.84C249.86 69.28 249.86 68.808 249.86 68.424C249.86 68.024 249.868 67.704 249.884 67.464C249.916 67.224 249.94 67.072 249.956 67.008C250.052 66.72 250.172 66.536 250.316 66.456C250.46 66.376 250.7 66.352 251.036 66.384C251.66 66.464 252.556 66.184 253.724 65.544C255.612 64.456 256.828 63.376 257.372 62.304C257.548 61.952 257.66 61.664 257.708 61.44C257.724 61.392 257.732 61.328 257.732 61.248C257.748 61.168 257.756 61.072 257.756 60.96C257.772 60.848 257.78 60.72 257.78 60.576C257.78 60.432 257.78 60.272 257.78 60.096C257.78 59.168 257.668 58.496 257.444 58.08C257.3 57.712 257.1 57.392 256.844 57.12C256.764 57.04 256.684 56.968 256.604 56.904C256.524 56.84 256.444 56.784 256.364 56.736C256.284 56.688 256.212 56.656 256.148 56.64C256.004 56.608 255.82 56.616 255.596 56.664C255.372 56.712 255.108 56.808 254.804 56.952C254.196 57.24 253.7 57.584 253.316 57.984C252.98 58.304 252.764 58.56 252.668 58.752C252.588 58.944 252.58 59.144 252.644 59.352C252.692 59.48 252.724 59.6 252.74 59.712C252.756 59.824 252.748 59.928 252.716 60.024C252.7 60.104 252.66 60.176 252.596 60.24C252.308 60.528 251.956 60.472 251.54 60.072C251.012 59.544 251.02 58.848 251.564 57.984ZM262.908 57.984C263.18 57.552 263.532 57.16 263.964 56.808C264.396 56.44 264.9 56.12 265.476 55.848C266.324 55.432 267.036 55.272 267.612 55.368C268.188 55.448 268.756 55.8 269.316 56.424C269.556 56.696 269.748 56.952 269.892 57.192C270.052 57.432 270.164 57.656 270.228 57.864C270.372 58.28 270.444 59.024 270.444 60.096C270.444 60.976 270.42 61.552 270.372 61.824C270.34 62.096 270.26 62.36 270.132 62.616C269.94 62.984 269.684 63.384 269.364 63.816C269.284 63.928 269.204 64.032 269.124 64.128C269.044 64.224 268.964 64.312 268.884 64.392C268.82 64.472 268.756 64.544 268.692 64.608C268.628 64.672 268.564 64.728 268.5 64.776C268.116 65.112 267.452 65.584 266.508 66.192C266.044 66.496 265.66 66.736 265.356 66.912C265.052 67.088 264.828 67.2 264.684 67.248C264.572 67.296 264.468 67.344 264.372 67.392C264.276 67.424 264.188 67.456 264.108 67.488C264.044 67.52 263.988 67.552 263.94 67.584C263.908 67.6 263.836 67.624 263.724 67.656C263.628 67.672 263.5 67.696 263.34 67.728C262.988 67.808 262.756 67.96 262.644 68.184C262.612 68.264 262.58 68.368 262.548 68.496C262.532 68.608 262.516 68.752 262.5 68.928C262.5 69.088 262.5 69.272 262.5 69.48C262.5 70.2 262.532 70.616 262.596 70.728C262.66 70.84 263.036 70.856 263.724 70.776C264.46 70.68 265.94 70.632 268.164 70.632L271.62 70.584L271.764 70.872C271.812 70.952 271.836 71.04 271.836 71.136C271.836 71.232 271.82 71.328 271.788 71.424C271.772 71.488 271.74 71.544 271.692 71.592C271.66 71.656 271.612 71.704 271.548 71.736C271.5 71.784 271.444 71.824 271.38 71.856C271.252 71.92 269.876 71.984 267.252 72.048C265.348 72.064 264.132 72.104 263.604 72.168C263.348 72.2 263.1 72.24 262.86 72.288C262.636 72.352 262.42 72.44 262.212 72.552C261.828 72.744 261.548 72.72 261.372 72.48C261.324 72.432 261.284 72.184 261.252 71.736C261.236 71.288 261.22 70.656 261.204 69.84C261.204 69.28 261.204 68.808 261.204 68.424C261.204 68.024 261.212 67.704 261.228 67.464C261.26 67.224 261.284 67.072 261.3 67.008C261.396 66.72 261.516 66.536 261.66 66.456C261.804 66.376 262.044 66.352 262.38 66.384C263.004 66.464 263.9 66.184 265.068 65.544C266.956 64.456 268.172 63.376 268.716 62.304C268.892 61.952 269.004 61.664 269.052 61.44C269.068 61.392 269.076 61.328 269.076 61.248C269.092 61.168 269.1 61.072 269.1 60.96C269.116 60.848 269.124 60.72 269.124 60.576C269.124 60.432 269.124 60.272 269.124 60.096C269.124 59.168 269.012 58.496 268.788 58.08C268.644 57.712 268.444 57.392 268.188 57.12C268.108 57.04 268.028 56.968 267.948 56.904C267.868 56.84 267.788 56.784 267.708 56.736C267.628 56.688 267.556 56.656 267.492 56.64C267.348 56.608 267.164 56.616 266.94 56.664C266.716 56.712 266.452 56.808 266.148 56.952C265.54 57.24 265.044 57.584 264.66 57.984C264.324 58.304 264.108 58.56 264.012 58.752C263.932 58.944 263.924 59.144 263.988 59.352C264.036 59.48 264.068 59.6 264.084 59.712C264.1 59.824 264.092 59.928 264.06 60.024C264.044 60.104 264.004 60.176 263.94 60.24C263.652 60.528 263.3 60.472 262.884 60.072C262.356 59.544 262.364 58.848 262.908 57.984Z" fill="black"/>
<rect x="241" y="41" width="40" height="40" stroke="#7A7A7A"/>
<rect x="281" y="41" width="40" height="40" stroke="#7A7A7A"/>
<rect x="321" y="41" width="40" height="40" stroke="#7A7A7A"/>
<rect x="361" y="41" width="40" height="40" stroke="#7A7A7A"/>
<rect x="401" y="41" width="40" height="40" stroke="#7A7A7A"/>
<rect x="1" y="81" width="40" height="40" stroke="#7A7A7A"/>
<rect x="41" y="81" width="40" height="40" stroke="#7A7A7A"/>
<path d="M101.528 96.448C101.96 96.144 102.272 96.008 102.464 96.04H102.488C102.536 96.04 102.592 96.056 102.656 96.088C102.736 96.12 102.808 96.176 102.872 96.256C102.936 96.32 103.008 96.408 103.088 96.52C103.296 96.824 103.368 97.032 103.304 97.144V97.168C103.256 97.28 103.184 97.856 103.088 98.896C103.024 99.904 102.96 100.44 102.896 100.504C102.848 100.6 102.824 100.856 102.824 101.272C102.84 101.608 102.8 101.928 102.704 102.232C102.608 102.52 102.52 103.048 102.44 103.816C102.36 104.568 102.264 105.272 102.152 105.928C102.008 106.936 101.896 107.848 101.816 108.664C101.736 109.48 101.68 110.208 101.648 110.848C101.632 111.536 101.6 111.96 101.552 112.12C101.536 112.216 101.504 112.296 101.456 112.36C101.408 112.424 101.352 112.48 101.288 112.528C101.16 112.624 101.064 112.672 101 112.672C100.936 112.672 100.832 112.616 100.688 112.504H100.664C100.456 112.36 100.32 112.176 100.256 111.952C100.208 111.728 100.2 111.384 100.232 110.92C100.248 110.84 100.264 110.688 100.28 110.464C100.296 110.256 100.32 109.984 100.352 109.648C100.384 109.312 100.416 108.904 100.448 108.424C100.464 108.2 100.48 107.992 100.496 107.8C100.528 107.592 100.552 107.424 100.568 107.296C100.584 107.152 100.6 107.024 100.616 106.912C100.632 106.8 100.64 106.72 100.64 106.672C100.656 106.608 100.672 106.568 100.688 106.552C100.768 106.408 100.896 105.336 101.072 103.336C101.088 103.128 101.112 102.928 101.144 102.736C101.176 102.528 101.208 102.344 101.24 102.184C101.272 102.008 101.312 101.848 101.36 101.704C101.44 101.416 101.504 101.008 101.552 100.48C101.616 99.936 101.648 99.472 101.648 99.088C101.648 98.88 101.64 98.728 101.624 98.632C101.608 98.504 101.576 98.424 101.528 98.392L101.504 98.368C101.456 98.368 101.392 98.392 101.312 98.44C101.232 98.472 101.136 98.528 101.024 98.608C100.912 98.688 100.768 98.792 100.592 98.92C100.432 99.016 100.288 99.104 100.16 99.184C99.456 99.52 98.968 99.448 98.696 98.968C98.584 98.76 98.568 98.6 98.648 98.488C98.744 98.36 99.008 98.16 99.44 97.888C100 97.616 100.376 97.384 100.568 97.192C100.824 96.984 101.144 96.736 101.528 96.448Z" fill="black"/>
<rect x="81" y="81" width="40" height="40" stroke="#7A7A7A"/>
<rect x="121" y="81" width="40" height="40" stroke="#7A7A7A"/>
<rect x="161" y="81" width="40" height="40" stroke="#7A7A7A"/>
<rect x="201" y="81" width="40" height="40" stroke="#7A7A7A"/>
<rect x="241" y="81" width="40" height="40" stroke="#7A7A7A"/>
<path d="M300.108 102.76C300.332 102.68 300.836 102.64 301.62 102.64C302.42 102.64 302.932 102.68 303.156 102.76C303.332 102.808 303.572 102.864 303.876 102.928C304.132 102.96 304.452 103.152 304.836 103.504C305.22 103.84 305.508 104.192 305.7 104.56C305.748 104.672 305.788 104.784 305.82 104.896C305.868 104.992 305.892 105.088 305.892 105.184C305.908 105.392 305.9 105.792 305.868 106.384C305.852 107.28 305.788 107.96 305.676 108.424C305.58 108.76 305.404 109.2 305.148 109.744C304.892 110.304 304.644 110.768 304.404 111.136C304.228 111.376 303.956 111.64 303.588 111.928C303.396 112.056 303.204 112.168 303.012 112.264C302.836 112.376 302.668 112.464 302.508 112.528C302.38 112.592 302.252 112.632 302.124 112.648C302.012 112.664 301.892 112.672 301.764 112.672C301.556 112.656 301.036 112.568 300.204 112.408C299.836 112.328 299.348 112.008 298.74 111.448C298.148 110.888 297.668 110.304 297.3 109.696C296.836 108.912 296.428 107.936 296.076 106.768C295.916 106.32 295.844 105.32 295.86 103.768C295.876 102.712 295.9 102.008 295.932 101.656C295.964 101.288 296.036 100.88 296.148 100.432C296.628 98.656 297.276 97.2 298.092 96.064C298.3 95.76 298.708 95.312 299.316 94.72C299.924 94.128 300.292 93.832 300.42 93.832C300.516 93.832 300.604 93.784 300.684 93.688C300.796 93.56 301.148 93.496 301.74 93.496C302.332 93.496 302.772 93.552 303.06 93.664C303.444 93.824 303.764 93.984 304.02 94.144C304.292 94.304 304.516 94.464 304.692 94.624C305.188 95.152 305.372 95.864 305.244 96.76C305.18 97.144 305.148 97.408 305.148 97.552V97.576C305.132 97.736 305.028 97.856 304.836 97.936C304.724 97.984 304.612 98 304.5 97.984C304.404 97.952 304.3 97.888 304.188 97.792C304.044 97.664 303.956 97.528 303.924 97.384C303.892 97.256 303.876 96.984 303.876 96.568C303.876 96.264 303.86 96.024 303.828 95.848C303.796 95.656 303.756 95.528 303.708 95.464C303.58 95.336 303.348 95.2 303.012 95.056C302.676 94.912 302.348 94.816 302.028 94.768C301.708 94.72 301.364 94.792 300.996 94.984C300.66 95.192 300.308 95.48 299.94 95.848C299.588 96.216 299.228 96.68 298.86 97.24C298.78 97.336 298.708 97.432 298.644 97.528C298.596 97.624 298.556 97.696 298.524 97.744C298.492 97.792 298.476 97.824 298.476 97.84C298.46 97.904 298.404 98.04 298.308 98.248C297.86 99.272 297.572 100.064 297.444 100.624C297.316 101.168 297.236 101.928 297.204 102.904C297.156 103.672 297.14 104.168 297.156 104.392L297.204 104.656C297.284 104.656 297.42 104.512 297.612 104.224C298.012 103.6 298.572 103.184 299.292 102.976C299.356 102.96 299.428 102.944 299.508 102.928C299.588 102.912 299.676 102.888 299.772 102.856C299.884 102.824 299.996 102.792 300.108 102.76ZM304.62 105.832C304.556 105.16 304.236 104.64 303.66 104.272C303.612 104.24 303.54 104.216 303.444 104.2C303.348 104.168 303.22 104.144 303.06 104.128C302.916 104.112 302.74 104.096 302.532 104.08C302.324 104.064 302.092 104.056 301.836 104.056C301.212 104.04 300.756 104.04 300.468 104.056C300.308 104.056 300.164 104.072 300.036 104.104C299.924 104.12 299.82 104.144 299.724 104.176C299.644 104.208 299.556 104.248 299.46 104.296C299.364 104.344 299.276 104.408 299.196 104.488C298.732 104.84 298.428 105.296 298.284 105.856C298.172 106.192 297.996 106.456 297.756 106.648C297.724 106.696 297.684 106.736 297.636 106.768C297.604 106.8 297.58 106.832 297.564 106.864C297.548 106.88 297.54 106.896 297.54 106.912C297.524 106.928 297.516 106.976 297.516 107.056C297.532 107.12 297.556 107.2 297.588 107.296C297.62 107.424 297.668 107.568 297.732 107.728C297.796 107.872 297.876 108.032 297.972 108.208C298.148 108.576 298.348 108.928 298.572 109.264C298.812 109.616 299.036 109.92 299.244 110.176C299.644 110.592 300.012 110.888 300.348 111.064C300.46 111.112 300.58 111.152 300.708 111.184C300.836 111.232 300.972 111.264 301.116 111.28C301.26 111.312 301.412 111.328 301.572 111.328C302.004 111.36 302.348 111.28 302.604 111.088C302.716 111.008 302.844 110.88 302.988 110.704C303.132 110.544 303.292 110.344 303.468 110.104C303.82 109.608 304.036 109.208 304.116 108.904C304.532 107.528 304.7 106.504 304.62 105.832Z" fill="black"/>
<rect x="281" y="81" width="40" height="40" stroke="#7A7A7A"/>
<rect x="321" y="81" width="40" height="40" stroke="#7A7A7A"/>
<rect x="361" y="81" width="40" height="40" stroke="#7A7A7A"/>
<rect x="401" y="81" width="40" height="40" stroke="#7A7A7A"/>
<rect x="1" y="121" width="40" height="40" stroke="#7A7A7A"/>
<rect x="41" y="121" width="40" height="40" stroke="#7A7A7A"/>
<rect x="81" y="121" width="40" height="40" stroke="#7A7A7A"/>
<path d="M137.42 140.024C138.316 138.2 139.156 137.096 139.94 136.712C140.308 136.52 140.812 136.424 141.452 136.424C141.66 136.424 141.852 136.44 142.028 136.472C142.204 136.488 142.356 136.52 142.484 136.568C142.612 136.6 142.724 136.648 142.82 136.712C142.884 136.744 142.948 136.784 143.012 136.832C143.076 136.88 143.14 136.936 143.204 137C143.284 137.064 143.356 137.136 143.42 137.216C143.5 137.296 143.58 137.384 143.66 137.48C143.74 137.576 143.82 137.68 143.9 137.792C144.092 138.08 144.252 138.344 144.38 138.584C144.524 138.808 144.62 139.016 144.668 139.208C144.7 139.304 144.828 139.688 145.052 140.36C145.18 140.744 145.244 141.52 145.244 142.688C145.244 143.84 145.18 144.584 145.052 144.92C144.892 145.272 144.812 145.568 144.812 145.808C144.812 146.144 144.692 146.744 144.452 147.608C144.324 148.04 144.196 148.432 144.068 148.784C143.94 149.12 143.804 149.424 143.66 149.696C143.436 150.144 143.172 150.552 142.868 150.92C142.58 151.288 142.252 151.616 141.884 151.904C141.164 152.48 140.5 152.736 139.892 152.672C139.252 152.592 138.636 152.352 138.044 151.952C137.468 151.552 137.036 151.064 136.748 150.488C136.62 150.232 136.508 149.992 136.412 149.768C136.316 149.544 136.236 149.344 136.172 149.168C136.06 148.784 135.98 148.344 135.932 147.848C135.884 147.352 135.86 146.712 135.86 145.928C135.86 144.584 135.932 143.624 136.076 143.048C136.236 142.472 136.684 141.464 137.42 140.024ZM143.036 138.992C142.732 138.464 142.388 138.104 142.004 137.912C141.572 137.656 141.188 137.72 140.852 138.104C140.676 138.328 140.508 138.44 140.348 138.44C140.316 138.44 140.276 138.448 140.228 138.464C140.18 138.464 140.132 138.48 140.084 138.512C140.052 138.528 140.012 138.552 139.964 138.584C139.916 138.6 139.868 138.632 139.82 138.68C139.788 138.712 139.748 138.752 139.7 138.8C139.508 139.04 139.132 139.688 138.572 140.744C138.012 141.816 137.7 142.544 137.636 142.928C137.604 142.992 137.572 143.072 137.54 143.168C137.524 143.248 137.5 143.36 137.468 143.504C137.404 143.776 137.348 143.96 137.3 144.056C137.172 144.52 137.14 145.32 137.204 146.456C137.284 147.576 137.428 148.416 137.636 148.976C137.892 149.808 138.292 150.424 138.836 150.824C139.38 151.208 139.956 151.304 140.564 151.112C140.98 150.968 141.452 150.536 141.98 149.816C142.524 149.096 142.812 148.512 142.844 148.064C142.844 147.856 142.908 147.648 143.036 147.44C143.164 147.216 143.228 146.936 143.228 146.6C143.228 146.296 143.316 145.968 143.492 145.616C143.636 145.28 143.732 144.52 143.78 143.336C143.828 142.136 143.788 141.272 143.66 140.744C143.548 140.104 143.34 139.52 143.036 138.992Z" fill="black"/>
<rect x="121" y="121" width="40" height="40" stroke="#7A7A7A"/>
<rect x="161" y="121" width="40" height="40" stroke="#7A7A7A"/>
<rect x="201" y="121" width="40" height="40" stroke="#7A7A7A"/>
<rect x="241" y="121" width="40" height="40" stroke="#7A7A7A"/>
<rect x="281" y="121" width="40" height="40" stroke="#7A7A7A"/>
<path d="M332.064 137.984C332.336 137.552 332.688 137.16 333.12 136.808C333.552 136.44 334.056 136.12 334.632 135.848C335.48 135.432 336.192 135.272 336.768 135.368C337.344 135.448 337.912 135.8 338.472 136.424C338.712 136.696 338.904 136.952 339.048 137.192C339.208 137.432 339.32 137.656 339.384 137.864C339.528 138.28 339.6 139.024 339.6 140.096C339.6 140.976 339.576 141.552 339.528 141.824C339.496 142.096 339.416 142.36 339.288 142.616C339.096 142.984 338.84 143.384 338.52 143.816C338.44 143.928 338.36 144.032 338.28 144.128C338.2 144.224 338.12 144.312 338.04 144.392C337.976 144.472 337.912 144.544 337.848 144.608C337.784 144.672 337.72 144.728 337.656 144.776C337.272 145.112 336.608 145.584 335.664 146.192C335.2 146.496 334.816 146.736 334.512 146.912C334.208 147.088 333.984 147.2 333.84 147.248C333.728 147.296 333.624 147.344 333.528 147.392C333.432 147.424 333.344 147.456 333.264 147.488C333.2 147.52 333.144 147.552 333.096 147.584C333.064 147.6 332.992 147.624 332.88 147.656C332.784 147.672 332.656 147.696 332.496 147.728C332.144 147.808 331.912 147.96 331.8 148.184C331.768 148.264 331.736 148.368 331.704 148.496C331.688 148.608 331.672 148.752 331.656 148.928C331.656 149.088 331.656 149.272 331.656 149.48C331.656 150.2 331.688 150.616 331.752 150.728C331.816 150.84 332.192 150.856 332.88 150.776C333.616 150.68 335.096 150.632 337.32 150.632L340.776 150.584L340.92 150.872C340.968 150.952 340.992 151.04 340.992 151.136C340.992 151.232 340.976 151.328 340.944 151.424C340.928 151.488 340.896 151.544 340.848 151.592C340.816 151.656 340.768 151.704 340.704 151.736C340.656 151.784 340.6 151.824 340.536 151.856C340.408 151.92 339.032 151.984 336.408 152.048C334.504 152.064 333.288 152.104 332.76 152.168C332.504 152.2 332.256 152.24 332.016 152.288C331.792 152.352 331.576 152.44 331.368 152.552C330.984 152.744 330.704 152.72 330.528 152.48C330.48 152.432 330.44 152.184 330.408 151.736C330.392 151.288 330.376 150.656 330.36 149.84C330.36 149.28 330.36 148.808 330.36 148.424C330.36 148.024 330.368 147.704 330.384 147.464C330.416 147.224 330.44 147.072 330.456 147.008C330.552 146.72 330.672 146.536 330.816 146.456C330.96 146.376 331.2 146.352 331.536 146.384C332.16 146.464 333.056 146.184 334.224 145.544C336.112 144.456 337.328 143.376 337.872 142.304C338.048 141.952 338.16 141.664 338.208 141.44C338.224 141.392 338.232 141.328 338.232 141.248C338.248 141.168 338.256 141.072 338.256 140.96C338.272 140.848 338.28 140.72 338.28 140.576C338.28 140.432 338.28 140.272 338.28 140.096C338.28 139.168 338.168 138.496 337.944 138.08C337.8 137.712 337.6 137.392 337.344 137.12C337.264 137.04 337.184 136.968 337.104 136.904C337.024 136.84 336.944 136.784 336.864 136.736C336.784 136.688 336.712 136.656 336.648 136.64C336.504 136.608 336.32 136.616 336.096 136.664C335.872 136.712 335.608 136.808 335.304 136.952C334.696 137.24 334.2 137.584 333.816 137.984C333.48 138.304 333.264 138.56 333.168 138.752C333.088 138.944 333.08 139.144 333.144 139.352C333.192 139.48 333.224 139.6 333.24 139.712C333.256 139.824 333.248 139.928 333.216 140.024C333.2 140.104 333.16 140.176 333.096 140.24C332.808 140.528 332.456 140.472 332.04 140.072C331.512 139.544 331.52 138.848 332.064 137.984ZM343.264 140.024C344.16 138.2 345 137.096 345.784 136.712C346.152 136.52 346.656 136.424 347.296 136.424C347.504 136.424 347.696 136.44 347.872 136.472C348.048 136.488 348.2 136.52 348.328 136.568C348.456 136.6 348.568 136.648 348.664 136.712C348.728 136.744 348.792 136.784 348.856 136.832C348.92 136.88 348.984 136.936 349.048 137C349.128 137.064 349.2 137.136 349.264 137.216C349.344 137.296 349.424 137.384 349.504 137.48C349.584 137.576 349.664 137.68 349.744 137.792C349.936 138.08 350.096 138.344 350.224 138.584C350.368 138.808 350.464 139.016 350.512 139.208C350.544 139.304 350.672 139.688 350.896 140.36C351.024 140.744 351.088 141.52 351.088 142.688C351.088 143.84 351.024 144.584 350.896 144.92C350.736 145.272 350.656 145.568 350.656 145.808C350.656 146.144 350.536 146.744 350.296 147.608C350.168 148.04 350.04 148.432 349.912 148.784C349.784 149.12 349.648 149.424 349.504 149.696C349.28 150.144 349.016 150.552 348.712 150.92C348.424 151.288 348.096 151.616 347.728 151.904C347.008 152.48 346.344 152.736 345.736 152.672C345.096 152.592 344.48 152.352 343.888 151.952C343.312 151.552 342.88 151.064 342.592 150.488C342.464 150.232 342.352 149.992 342.256 149.768C342.16 149.544 342.08 149.344 342.016 149.168C341.904 148.784 341.824 148.344 341.776 147.848C341.728 147.352 341.704 146.712 341.704 145.928C341.704 144.584 341.776 143.624 341.92 143.048C342.08 142.472 342.528 141.464 343.264 140.024ZM348.88 138.992C348.576 138.464 348.232 138.104 347.848 137.912C347.416 137.656 347.032 137.72 346.696 138.104C346.52 138.328 346.352 138.44 346.192 138.44C346.16 138.44 346.12 138.448 346.072 138.464C346.024 138.464 345.976 138.48 345.928 138.512C345.896 138.528 345.856 138.552 345.808 138.584C345.76 138.6 345.712 138.632 345.664 138.68C345.632 138.712 345.592 138.752 345.544 138.8C345.352 139.04 344.976 139.688 344.416 140.744C343.856 141.816 343.544 142.544 343.48 142.928C343.448 142.992 343.416 143.072 343.384 143.168C343.368 143.248 343.344 143.36 343.312 143.504C343.248 143.776 343.192 143.96 343.144 144.056C343.016 144.52 342.984 145.32 343.048 146.456C343.128 147.576 343.272 148.416 343.48 148.976C343.736 149.808 344.136 150.424 344.68 150.824C345.224 151.208 345.8 151.304 346.408 151.112C346.824 150.968 347.296 150.536 347.824 149.816C348.368 149.096 348.656 148.512 348.688 148.064C348.688 147.856 348.752 147.648 348.88 147.44C349.008 147.216 349.072 146.936 349.072 146.6C349.072 146.296 349.16 145.968 349.336 145.616C349.48 145.28 349.576 144.52 349.624 143.336C349.672 142.136 349.632 141.272 349.504 140.744C349.392 140.104 349.184 139.52 348.88 138.992Z" fill="black"/>
<rect x="321" y="121" width="40" height="40" stroke="#7A7A7A"/>
<rect x="361" y="121" width="40" height="40" stroke="#7A7A7A"/>
<rect x="401" y="121" width="40" height="40" stroke="#7A7A7A"/>
<rect x="1" y="161" width="40" height="40" stroke="#7A7A7A"/>
<rect x="41" y="161" width="40" height="40" stroke="#7A7A7A"/>
<rect x="81" y="161" width="40" height="40" stroke="#7A7A7A"/>
<rect x="121" y="161" width="40" height="40" stroke="#7A7A7A"/>
<path d="M173.84 185.64C173.792 185.624 173.744 185.6 173.696 185.568C173.648 185.52 173.6 185.456 173.552 185.376C173.36 185.152 173.312 184.928 173.408 184.704C173.44 184.64 173.488 184.568 173.552 184.488C173.632 184.408 173.72 184.328 173.816 184.248C173.928 184.152 174.056 184.048 174.2 183.936C176.568 182.336 178.376 180.536 179.624 178.536C179.832 178.2 180.048 177.896 180.272 177.624C180.544 177.32 180.896 176.84 181.328 176.184C181.792 175.464 182.096 175.032 182.24 174.888C182.368 174.712 182.544 174.64 182.768 174.672C183.008 174.688 183.192 174.792 183.32 174.984C183.4 175.128 183.432 175.248 183.416 175.344C183.416 175.424 183.32 175.6 183.128 175.872C182.52 176.784 181.968 177.56 181.472 178.2C181.088 178.728 180.784 179.152 180.56 179.472C180.304 179.856 180.008 180.256 179.672 180.672C179.352 181.088 178.992 181.52 178.592 181.968C178.384 182.208 178.192 182.416 178.016 182.592C177.856 182.768 177.704 182.928 177.56 183.072C177.416 183.2 177.288 183.312 177.176 183.408C177.08 183.488 176.992 183.552 176.912 183.6C176.704 183.696 176.592 183.776 176.576 183.84C176.656 183.92 177.832 183.952 180.104 183.936L183.632 183.912L183.656 179.688C183.672 177.672 183.696 176.448 183.728 176.016C183.744 175.6 183.816 175.336 183.944 175.224C184.088 175.08 184.256 175.032 184.448 175.08C184.656 175.112 184.808 175.2 184.904 175.344C184.968 175.488 185.008 176.928 185.024 179.664L185.096 183.72L185.384 183.96C185.48 184.04 185.6 184.096 185.744 184.128C185.888 184.16 186.064 184.184 186.272 184.2C186.48 184.2 186.656 184.192 186.8 184.176C186.96 184.144 187.08 184.096 187.16 184.032C187.176 184.016 187.192 184.008 187.208 184.008C187.24 183.992 187.28 183.976 187.328 183.96C187.392 183.944 187.448 183.928 187.496 183.912C187.56 183.896 187.616 183.88 187.664 183.864C187.728 183.848 187.768 183.84 187.784 183.84C187.928 183.84 188.048 183.872 188.144 183.936C188.256 184 188.336 184.096 188.384 184.224C188.48 184.384 188.528 184.504 188.528 184.584C188.528 184.664 188.48 184.76 188.384 184.872C188.112 185.32 187.416 185.488 186.296 185.376C185.704 185.312 185.344 185.328 185.216 185.424C185.104 185.52 185.048 186.528 185.048 188.448C185.048 189.28 185.064 189.992 185.096 190.584C185.096 190.872 185.104 191.096 185.12 191.256C185.136 191.432 185.152 191.536 185.168 191.568C185.328 191.84 185.272 192.12 185 192.408C184.872 192.552 184.744 192.632 184.616 192.648C184.488 192.68 184.36 192.656 184.232 192.576C184.168 192.544 184.112 192.504 184.064 192.456C184.016 192.408 183.976 192.352 183.944 192.288C183.896 192.16 183.848 191.936 183.8 191.616C183.768 191.296 183.744 190.904 183.728 190.44C183.728 189.976 183.728 189.312 183.728 188.448L183.68 185.328H180.536C178.232 185.328 176.176 185.432 174.368 185.64C174.288 185.656 174.216 185.664 174.152 185.664C174.088 185.664 174.024 185.664 173.96 185.664C173.912 185.664 173.872 185.656 173.84 185.64Z" fill="black"/>
<rect x="161" y="161" width="40" height="40" stroke="#7A7A7A"/>
<rect x="201" y="161" width="40" height="40" stroke="#7A7A7A"/>
<rect x="241" y="161" width="40" height="40" stroke="#7A7A7A"/>
<rect x="281" y="161" width="40" height="40" stroke="#7A7A7A"/>
<rect x="321" y="161" width="40" height="40" stroke="#7A7A7A"/>
<path d="M376.028 176.448C376.46 176.144 376.772 176.008 376.964 176.04H376.988C377.036 176.04 377.092 176.056 377.156 176.088C377.236 176.12 377.308 176.176 377.372 176.256C377.436 176.32 377.508 176.408 377.588 176.52C377.796 176.824 377.868 177.032 377.804 177.144V177.168C377.756 177.28 377.684 177.856 377.588 178.896C377.524 179.904 377.46 180.44 377.396 180.504C377.348 180.6 377.324 180.856 377.324 181.272C377.34 181.608 377.3 181.928 377.204 182.232C377.108 182.52 377.02 183.048 376.94 183.816C376.86 184.568 376.764 185.272 376.652 185.928C376.508 186.936 376.396 187.848 376.316 188.664C376.236 189.48 376.18 190.208 376.148 190.848C376.132 191.536 376.1 191.96 376.052 192.12C376.036 192.216 376.004 192.296 375.956 192.36C375.908 192.424 375.852 192.48 375.788 192.528C375.66 192.624 375.564 192.672 375.5 192.672C375.436 192.672 375.332 192.616 375.188 192.504H375.164C374.956 192.36 374.82 192.176 374.756 191.952C374.708 191.728 374.7 191.384 374.732 190.92C374.748 190.84 374.764 190.688 374.78 190.464C374.796 190.256 374.82 189.984 374.852 189.648C374.884 189.312 374.916 188.904 374.948 188.424C374.964 188.2 374.98 187.992 374.996 187.8C375.028 187.592 375.052 187.424 375.068 187.296C375.084 187.152 375.1 187.024 375.116 186.912C375.132 186.8 375.14 186.72 375.14 186.672C375.156 186.608 375.172 186.568 375.188 186.552C375.268 186.408 375.396 185.336 375.572 183.336C375.588 183.128 375.612 182.928 375.644 182.736C375.676 182.528 375.708 182.344 375.74 182.184C375.772 182.008 375.812 181.848 375.86 181.704C375.94 181.416 376.004 181.008 376.052 180.48C376.116 179.936 376.148 179.472 376.148 179.088C376.148 178.88 376.14 178.728 376.124 178.632C376.108 178.504 376.076 178.424 376.028 178.392L376.004 178.368C375.956 178.368 375.892 178.392 375.812 178.44C375.732 178.472 375.636 178.528 375.524 178.608C375.412 178.688 375.268 178.792 375.092 178.92C374.932 179.016 374.788 179.104 374.66 179.184C373.956 179.52 373.468 179.448 373.196 178.968C373.084 178.76 373.068 178.6 373.148 178.488C373.244 178.36 373.508 178.16 373.94 177.888C374.5 177.616 374.876 177.384 375.068 177.192C375.324 176.984 375.644 176.736 376.028 176.448ZM382.438 175.464C382.534 175.432 382.646 175.408 382.774 175.392C382.902 175.36 383.054 175.344 383.23 175.344C383.886 175.296 384.806 175.288 385.99 175.32H388.006L388.414 175.704C388.494 175.8 388.558 175.88 388.606 175.944C388.654 176.008 388.686 176.064 388.702 176.112C388.734 176.176 388.718 176.28 388.654 176.424C388.558 176.6 388.414 176.728 388.222 176.808C388.03 176.872 387.846 176.856 387.67 176.76C387.494 176.664 386.75 176.616 385.438 176.616H383.542L383.11 177.096C382.838 177.368 382.606 177.48 382.414 177.432C382.254 177.4 382.134 177.4 382.054 177.432C382.022 177.448 381.99 177.488 381.958 177.552C381.926 177.6 381.894 177.672 381.862 177.768C381.798 177.976 381.758 178.248 381.742 178.584C381.742 178.904 381.742 179.392 381.742 180.048C381.742 180.784 381.758 181.344 381.79 181.728C381.838 182.112 381.902 182.328 381.982 182.376C382.062 182.424 382.27 182.368 382.606 182.208C382.766 182.128 382.982 182.064 383.254 182.016C383.542 181.968 383.894 181.936 384.31 181.92C385.126 181.872 385.694 181.904 386.014 182.016C386.494 182.16 386.966 182.52 387.43 183.096C387.59 183.272 387.734 183.464 387.862 183.672C387.99 183.88 388.11 184.104 388.222 184.344C388.334 184.568 388.422 184.8 388.486 185.04C388.662 185.568 388.758 186.264 388.774 187.128C388.79 187.976 388.71 188.648 388.534 189.144C388.47 189.336 388.398 189.52 388.318 189.696C388.254 189.872 388.182 190.04 388.102 190.2C388.038 190.36 387.966 190.512 387.886 190.656C387.806 190.8 387.726 190.928 387.646 191.04C387.582 191.168 387.51 191.28 387.43 191.376C387.35 191.472 387.27 191.56 387.19 191.64C386.854 192.024 386.502 192.28 386.134 192.408C385.766 192.552 385.254 192.632 384.598 192.648C383.926 192.696 383.326 192.672 382.798 192.576C382.27 192.496 381.814 192.352 381.43 192.144C380.982 191.856 380.486 191.44 379.942 190.896C379.766 190.72 379.614 190.552 379.486 190.392C379.358 190.248 379.254 190.12 379.174 190.008C379.11 189.896 379.07 189.808 379.054 189.744V189.72L378.982 189.48C378.918 189.304 378.878 189.16 378.862 189.048C378.75 188.664 378.758 188.376 378.886 188.184C379.014 188.008 379.174 187.912 379.366 187.896C379.462 187.88 379.55 187.888 379.63 187.92C379.726 187.952 379.814 188.008 379.894 188.088C379.99 188.184 380.07 188.408 380.134 188.76C380.166 188.936 380.222 189.104 380.302 189.264C380.382 189.44 380.486 189.608 380.614 189.768C380.758 189.928 380.926 190.08 381.118 190.224C381.662 190.688 382.342 191.048 383.158 191.304C383.414 191.384 383.63 191.44 383.806 191.472C383.998 191.52 384.15 191.552 384.262 191.568C384.47 191.568 384.774 191.496 385.174 191.352C385.638 191.192 385.998 190.968 386.254 190.68C386.526 190.408 386.774 190 386.998 189.456C387.078 189.248 387.142 189.064 387.19 188.904C387.254 188.728 387.294 188.576 387.31 188.448C387.358 188.192 387.382 187.744 387.382 187.104C387.382 186.448 387.358 186.008 387.31 185.784C387.278 185.56 387.174 185.24 386.998 184.824C386.854 184.584 386.71 184.368 386.566 184.176C386.438 183.968 386.294 183.784 386.134 183.624C385.942 183.464 385.774 183.368 385.63 183.336C385.486 183.288 385.206 183.264 384.79 183.264C383.718 183.264 382.782 183.496 381.982 183.96C381.614 184.168 381.35 184.272 381.19 184.272C381.046 184.256 380.878 184.128 380.686 183.888L380.374 183.504V180.168C380.39 178.584 380.406 177.608 380.422 177.24C380.438 177.048 380.462 176.872 380.494 176.712C380.542 176.552 380.598 176.4 380.662 176.256C380.806 175.968 380.91 175.808 380.974 175.776C380.99 175.76 381.022 175.752 381.07 175.752C381.118 175.736 381.174 175.728 381.238 175.728C381.318 175.728 381.406 175.728 381.502 175.728C381.678 175.744 381.83 175.744 381.958 175.728C382.086 175.696 382.182 175.64 382.246 175.56C382.294 175.528 382.358 175.496 382.438 175.464Z" fill="black"/>
<rect x="361" y="161" width="40" height="40" stroke="#7A7A7A"/>
<rect x="401" y="161" width="40" height="40" stroke="#7A7A7A"/>
</svg>
