<svg width="442" height="42" viewBox="0 0 442 42" fill="none" xmlns="http://www.w3.org/2000/svg">
<path d="M16.028 16.448C16.46 16.144 16.772 16.008 16.964 16.04H16.988C17.036 16.04 17.092 16.056 17.156 16.088C17.236 16.12 17.308 16.176 17.372 16.256C17.436 16.32 17.508 16.408 17.588 16.52C17.796 16.824 17.868 17.032 17.804 17.144V17.168C17.756 17.28 17.684 17.856 17.588 18.896C17.524 19.904 17.46 20.44 17.396 20.504C17.348 20.6 17.324 20.856 17.324 21.272C17.34 21.608 17.3 21.928 17.204 22.232C17.108 22.52 17.02 23.048 16.94 23.816C16.86 24.568 16.764 25.272 16.652 25.928C16.508 26.936 16.396 27.848 16.316 28.664C16.236 29.48 16.18 30.208 16.148 30.848C16.132 31.536 16.1 31.96 16.052 32.12C16.036 32.216 16.004 32.296 15.956 32.36C15.908 32.424 15.852 32.48 15.788 32.528C15.66 32.624 15.564 32.672 15.5 32.672C15.436 32.672 15.332 32.616 15.188 32.504H15.164C14.956 32.36 14.82 32.176 14.756 31.952C14.708 31.728 14.7 31.384 14.732 30.92C14.748 30.84 14.764 30.688 14.78 30.464C14.796 30.256 14.82 29.984 14.852 29.648C14.884 29.312 14.916 28.904 14.948 28.424C14.964 28.2 14.98 27.992 14.996 27.8C15.028 27.592 15.052 27.424 15.068 27.296C15.084 27.152 15.1 27.024 15.116 26.912C15.132 26.8 15.14 26.72 15.14 26.672C15.156 26.608 15.172 26.568 15.188 26.552C15.268 26.408 15.396 25.336 15.572 23.336C15.588 23.128 15.612 22.928 15.644 22.736C15.676 22.528 15.708 22.344 15.74 22.184C15.772 22.008 15.812 21.848 15.86 21.704C15.94 21.416 16.004 21.008 16.052 20.48C16.116 19.936 16.148 19.472 16.148 19.088C16.148 18.88 16.14 18.728 16.124 18.632C16.108 18.504 16.076 18.424 16.028 18.392L16.004 18.368C15.956 18.368 15.892 18.392 15.812 18.44C15.732 18.472 15.636 18.528 15.524 18.608C15.412 18.688 15.268 18.792 15.092 18.92C14.932 19.016 14.788 19.104 14.66 19.184C13.956 19.52 13.468 19.448 13.196 18.968C13.084 18.76 13.068 18.6 13.148 18.488C13.244 18.36 13.508 18.16 13.94 17.888C14.5 17.616 14.876 17.384 15.068 17.192C15.324 16.984 15.644 16.736 16.028 16.448ZM20.3497 20.024C21.2457 18.2 22.0857 17.096 22.8697 16.712C23.2377 16.52 23.7417 16.424 24.3817 16.424C24.5897 16.424 24.7817 16.44 24.9577 16.472C25.1337 16.488 25.2857 16.52 25.4137 16.568C25.5417 16.6 25.6537 16.648 25.7497 16.712C25.8137 16.744 25.8777 16.784 25.9417 16.832C26.0057 16.88 26.0697 16.936 26.1337 17C26.2137 17.064 26.2857 17.136 26.3497 17.216C26.4297 17.296 26.5097 17.384 26.5897 17.48C26.6697 17.576 26.7497 17.68 26.8297 17.792C27.0217 18.08 27.1817 18.344 27.3097 18.584C27.4537 18.808 27.5497 19.016 27.5977 19.208C27.6297 19.304 27.7577 19.688 27.9817 20.36C28.1097 20.744 28.1737 21.52 28.1737 22.688C28.1737 23.84 28.1097 24.584 27.9817 24.92C27.8217 25.272 27.7417 25.568 27.7417 25.808C27.7417 26.144 27.6217 26.744 27.3817 27.608C27.2537 28.04 27.1257 28.432 26.9977 28.784C26.8697 29.12 26.7337 29.424 26.5897 29.696C26.3657 30.144 26.1017 30.552 25.7977 30.92C25.5097 31.288 25.1817 31.616 24.8137 31.904C24.0937 32.48 23.4297 32.736 22.8217 32.672C22.1817 32.592 21.5657 32.352 20.9737 31.952C20.3977 31.552 19.9657 31.064 19.6777 30.488C19.5497 30.232 19.4377 29.992 19.3417 29.768C19.2457 29.544 19.1657 29.344 19.1017 29.168C18.9897 28.784 18.9097 28.344 18.8617 27.848C18.8137 27.352 18.7897 26.712 18.7897 25.928C18.7897 24.584 18.8617 23.624 19.0057 23.048C19.1657 22.472 19.6137 21.464 20.3497 20.024ZM25.9657 18.992C25.6617 18.464 25.3177 18.104 24.9337 17.912C24.5017 17.656 24.1177 17.72 23.7817 18.104C23.6057 18.328 23.4377 18.44 23.2777 18.44C23.2457 18.44 23.2057 18.448 23.1577 18.464C23.1097 18.464 23.0617 18.48 23.0137 18.512C22.9817 18.528 22.9417 18.552 22.8937 18.584C22.8457 18.6 22.7977 18.632 22.7497 18.68C22.7177 18.712 22.6777 18.752 22.6297 18.8C22.4377 19.04 22.0617 19.688 21.5017 20.744C20.9417 21.816 20.6297 22.544 20.5657 22.928C20.5337 22.992 20.5017 23.072 20.4697 23.168C20.4537 23.248 20.4297 23.36 20.3977 23.504C20.3337 23.776 20.2777 23.96 20.2297 24.056C20.1017 24.52 20.0697 25.32 20.1337 26.456C20.2137 27.576 20.3577 28.416 20.5657 28.976C20.8217 29.808 21.2217 30.424 21.7657 30.824C22.3097 31.208 22.8857 31.304 23.4937 31.112C23.9097 30.968 24.3817 30.536 24.9097 29.816C25.4537 29.096 25.7417 28.512 25.7737 28.064C25.7737 27.856 25.8377 27.648 25.9657 27.44C26.0937 27.216 26.1577 26.936 26.1577 26.6C26.1577 26.296 26.2457 25.968 26.4217 25.616C26.5657 25.28 26.6617 24.52 26.7097 23.336C26.7577 22.136 26.7177 21.272 26.5897 20.744C26.4777 20.104 26.2697 19.52 25.9657 18.992Z" fill="black"/>
<rect x="1" y="1" width="40" height="40" stroke="#7A7A7A"/>
<path d="M59.204 15.608C59.348 15.608 59.436 15.56 59.468 15.464C59.516 15.384 59.764 15.344 60.212 15.344C60.404 15.344 60.556 15.352 60.668 15.368C60.7 15.384 60.732 15.4 60.764 15.416C60.796 15.416 60.828 15.424 60.86 15.44C60.892 15.44 60.916 15.448 60.932 15.464C61.012 15.512 61.108 15.592 61.22 15.704C61.46 15.944 61.732 16.12 62.036 16.232C62.116 16.248 62.268 16.288 62.492 16.352C62.572 16.368 62.644 16.384 62.708 16.4C62.772 16.416 62.82 16.432 62.852 16.448C62.9 16.464 62.94 16.472 62.972 16.472C63.084 16.52 63.196 16.576 63.308 16.64C63.42 16.688 63.532 16.76 63.644 16.856C63.756 16.936 63.876 17.032 64.004 17.144C64.356 17.464 64.596 17.784 64.724 18.104C64.98 18.712 65.02 19.4 64.844 20.168C64.684 20.92 64.34 21.584 63.812 22.16C63.396 22.592 63.188 22.856 63.188 22.952C63.188 23 63.22 23.048 63.284 23.096C63.348 23.144 63.436 23.192 63.548 23.24C63.692 23.304 63.836 23.376 63.98 23.456C64.124 23.536 64.268 23.624 64.412 23.72C64.476 23.752 64.532 23.792 64.58 23.84C64.628 23.872 64.676 23.904 64.724 23.936C64.772 23.968 64.82 24 64.868 24.032C64.916 24.064 64.964 24.104 65.012 24.152C65.06 24.184 65.1 24.216 65.132 24.248C65.18 24.28 65.228 24.32 65.276 24.368C65.356 24.432 65.428 24.496 65.492 24.56C65.556 24.624 65.612 24.688 65.66 24.752C65.708 24.8 65.748 24.84 65.78 24.872C66.292 25.784 66.468 26.768 66.308 27.824C66.164 28.88 65.684 29.896 64.868 30.872C64.74 31.048 64.612 31.192 64.484 31.304C64.372 31.432 64.26 31.536 64.148 31.616C63.924 31.776 63.588 31.968 63.14 32.192C62.612 32.432 62.244 32.568 62.036 32.6C61.956 32.616 61.852 32.624 61.724 32.624C61.596 32.64 61.436 32.648 61.244 32.648C61.068 32.664 60.852 32.672 60.596 32.672C58.628 32.672 57.068 32.16 55.916 31.136C55.756 31.008 55.612 30.872 55.484 30.728C55.372 30.6 55.276 30.472 55.196 30.344C55.116 30.216 55.052 30.096 55.004 29.984C54.876 29.632 54.836 29.104 54.884 28.4C54.884 28.144 54.892 27.92 54.908 27.728C54.94 27.52 54.972 27.352 55.004 27.224C55.052 27.096 55.116 26.936 55.196 26.744C55.276 26.536 55.38 26.296 55.508 26.024C55.572 25.864 55.644 25.712 55.724 25.568C55.804 25.408 55.884 25.264 55.964 25.136C56.06 24.992 56.148 24.864 56.228 24.752C56.324 24.624 56.412 24.504 56.492 24.392C56.588 24.28 56.684 24.176 56.78 24.08C56.876 23.984 56.972 23.896 57.068 23.816C57.18 23.72 57.284 23.632 57.38 23.552C57.492 23.472 57.604 23.4 57.716 23.336C57.956 23.208 58.124 23.104 58.22 23.024C58.332 22.944 58.38 22.88 58.364 22.832C58.348 22.72 58.14 22.568 57.74 22.376C57.324 22.152 56.988 21.912 56.732 21.656C56.492 21.4 56.324 21.128 56.228 20.84C56.132 20.536 56.108 20.072 56.156 19.448C56.236 18.376 56.604 17.528 57.26 16.904C57.436 16.76 57.66 16.576 57.932 16.352C58.22 16.128 58.492 15.944 58.748 15.8C58.86 15.736 58.956 15.688 59.036 15.656C59.116 15.624 59.172 15.608 59.204 15.608ZM61.052 17.48C60.396 17.48 60.044 17.448 59.996 17.384C59.804 17.128 59.548 17.04 59.228 17.12C59.068 17.168 58.9 17.248 58.724 17.36C58.564 17.472 58.396 17.632 58.22 17.84C58.044 18.032 57.9 18.24 57.788 18.464C57.676 18.672 57.588 18.888 57.524 19.112C57.444 19.496 57.404 19.752 57.404 19.88C57.404 19.944 57.412 20.024 57.428 20.12C57.46 20.2 57.508 20.296 57.572 20.408C57.604 20.504 57.652 20.6 57.716 20.696C57.78 20.776 57.852 20.848 57.932 20.912C58.076 21.04 58.356 21.192 58.772 21.368C59.38 21.688 59.772 21.848 59.948 21.848C60.14 21.848 60.364 21.904 60.62 22.016C60.764 22.064 60.916 22.088 61.076 22.088C61.236 22.088 61.42 22.064 61.628 22.016C62.028 21.936 62.34 21.784 62.564 21.56C62.612 21.528 62.652 21.488 62.684 21.44C62.732 21.392 62.772 21.344 62.804 21.296C62.852 21.248 62.892 21.2 62.924 21.152C62.972 21.088 63.012 21.032 63.044 20.984C63.092 20.92 63.14 20.856 63.188 20.792C63.38 20.472 63.476 20.232 63.476 20.072C63.476 19.864 63.524 19.696 63.62 19.568C63.7 19.408 63.684 19.184 63.572 18.896C63.492 18.64 63.38 18.424 63.236 18.248C63.108 18.056 62.948 17.904 62.756 17.792C62.564 17.68 62.324 17.6 62.036 17.552C61.748 17.504 61.42 17.48 61.052 17.48ZM61.484 23.936C61.356 24 61.18 23.984 60.956 23.888C60.396 23.632 59.7 23.744 58.868 24.224C58.484 24.432 58.172 24.64 57.932 24.848C57.692 25.04 57.484 25.256 57.308 25.496C57.132 25.736 56.956 26.04 56.78 26.408C56.62 26.728 56.492 27.064 56.396 27.416C56.316 27.752 56.268 28.096 56.252 28.448L56.156 29.528L56.804 30.152C57.028 30.36 57.22 30.52 57.38 30.632C57.54 30.76 57.668 30.832 57.764 30.848C57.796 30.848 57.828 30.848 57.86 30.848C57.892 30.864 57.932 30.872 57.98 30.872C58.076 30.904 58.172 30.936 58.268 30.968C58.316 30.984 58.372 31 58.436 31.016C58.516 31.032 58.596 31.056 58.676 31.088C58.836 31.12 58.972 31.152 59.084 31.184C59.484 31.296 59.852 31.368 60.188 31.4C60.54 31.432 60.852 31.432 61.124 31.4C61.668 31.336 62.364 31.096 63.212 30.68C63.292 30.632 63.428 30.496 63.62 30.272C63.812 30.064 64.004 29.824 64.196 29.552C64.388 29.28 64.54 29.048 64.652 28.856C64.812 28.552 64.9 28.024 64.916 27.272C64.916 26.856 64.892 26.512 64.844 26.24C64.796 25.968 64.716 25.76 64.604 25.616C64.54 25.52 64.42 25.408 64.244 25.28C64.084 25.152 63.868 25.008 63.596 24.848C63.34 24.688 63.036 24.512 62.684 24.32C62.028 23.968 61.628 23.84 61.484 23.936Z" fill="black"/>
<rect x="41" y="1" width="40" height="40" stroke="#7A7A7A"/>
<path d="M100.108 22.76C100.332 22.68 100.836 22.64 101.62 22.64C102.42 22.64 102.932 22.68 103.156 22.76C103.332 22.808 103.572 22.864 103.876 22.928C104.132 22.96 104.452 23.152 104.836 23.504C105.22 23.84 105.508 24.192 105.7 24.56C105.748 24.672 105.788 24.784 105.82 24.896C105.868 24.992 105.892 25.088 105.892 25.184C105.908 25.392 105.9 25.792 105.868 26.384C105.852 27.28 105.788 27.96 105.676 28.424C105.58 28.76 105.404 29.2 105.148 29.744C104.892 30.304 104.644 30.768 104.404 31.136C104.228 31.376 103.956 31.64 103.588 31.928C103.396 32.056 103.204 32.168 103.012 32.264C102.836 32.376 102.668 32.464 102.508 32.528C102.38 32.592 102.252 32.632 102.124 32.648C102.012 32.664 101.892 32.672 101.764 32.672C101.556 32.656 101.036 32.568 100.204 32.408C99.836 32.328 99.348 32.008 98.74 31.448C98.148 30.888 97.668 30.304 97.3 29.696C96.836 28.912 96.428 27.936 96.076 26.768C95.916 26.32 95.844 25.32 95.86 23.768C95.876 22.712 95.9 22.008 95.932 21.656C95.964 21.288 96.036 20.88 96.148 20.432C96.628 18.656 97.276 17.2 98.092 16.064C98.3 15.76 98.708 15.312 99.316 14.72C99.924 14.128 100.292 13.832 100.42 13.832C100.516 13.832 100.604 13.784 100.684 13.688C100.796 13.56 101.148 13.496 101.74 13.496C102.332 13.496 102.772 13.552 103.06 13.664C103.444 13.824 103.764 13.984 104.02 14.144C104.292 14.304 104.516 14.464 104.692 14.624C105.188 15.152 105.372 15.864 105.244 16.76C105.18 17.144 105.148 17.408 105.148 17.552V17.576C105.132 17.736 105.028 17.856 104.836 17.936C104.724 17.984 104.612 18 104.5 17.984C104.404 17.952 104.3 17.888 104.188 17.792C104.044 17.664 103.956 17.528 103.924 17.384C103.892 17.256 103.876 16.984 103.876 16.568C103.876 16.264 103.86 16.024 103.828 15.848C103.796 15.656 103.756 15.528 103.708 15.464C103.58 15.336 103.348 15.2 103.012 15.056C102.676 14.912 102.348 14.816 102.028 14.768C101.708 14.72 101.364 14.792 100.996 14.984C100.66 15.192 100.308 15.48 99.94 15.848C99.588 16.216 99.228 16.68 98.86 17.24C98.78 17.336 98.708 17.432 98.644 17.528C98.596 17.624 98.556 17.696 98.524 17.744C98.492 17.792 98.476 17.824 98.476 17.84C98.46 17.904 98.404 18.04 98.308 18.248C97.86 19.272 97.572 20.064 97.444 20.624C97.316 21.168 97.236 21.928 97.204 22.904C97.156 23.672 97.14 24.168 97.156 24.392L97.204 24.656C97.284 24.656 97.42 24.512 97.612 24.224C98.012 23.6 98.572 23.184 99.292 22.976C99.356 22.96 99.428 22.944 99.508 22.928C99.588 22.912 99.676 22.888 99.772 22.856C99.884 22.824 99.996 22.792 100.108 22.76ZM104.62 25.832C104.556 25.16 104.236 24.64 103.66 24.272C103.612 24.24 103.54 24.216 103.444 24.2C103.348 24.168 103.22 24.144 103.06 24.128C102.916 24.112 102.74 24.096 102.532 24.08C102.324 24.064 102.092 24.056 101.836 24.056C101.212 24.04 100.756 24.04 100.468 24.056C100.308 24.056 100.164 24.072 100.036 24.104C99.924 24.12 99.82 24.144 99.724 24.176C99.644 24.208 99.556 24.248 99.46 24.296C99.364 24.344 99.276 24.408 99.196 24.488C98.732 24.84 98.428 25.296 98.284 25.856C98.172 26.192 97.996 26.456 97.756 26.648C97.724 26.696 97.684 26.736 97.636 26.768C97.604 26.8 97.58 26.832 97.564 26.864C97.548 26.88 97.54 26.896 97.54 26.912C97.524 26.928 97.516 26.976 97.516 27.056C97.532 27.12 97.556 27.2 97.588 27.296C97.62 27.424 97.668 27.568 97.732 27.728C97.796 27.872 97.876 28.032 97.972 28.208C98.148 28.576 98.348 28.928 98.572 29.264C98.812 29.616 99.036 29.92 99.244 30.176C99.644 30.592 100.012 30.888 100.348 31.064C100.46 31.112 100.58 31.152 100.708 31.184C100.836 31.232 100.972 31.264 101.116 31.28C101.26 31.312 101.412 31.328 101.572 31.328C102.004 31.36 102.348 31.28 102.604 31.088C102.716 31.008 102.844 30.88 102.988 30.704C103.132 30.544 103.292 30.344 103.468 30.104C103.82 29.608 104.036 29.208 104.116 28.904C104.532 27.528 104.7 26.504 104.62 25.832Z" fill="black"/>
<rect x="81" y="1" width="40" height="40" stroke="#7A7A7A"/>
<path d="M132.064 17.984C132.336 17.552 132.688 17.16 133.12 16.808C133.552 16.44 134.056 16.12 134.632 15.848C135.48 15.432 136.192 15.272 136.768 15.368C137.344 15.448 137.912 15.8 138.472 16.424C138.712 16.696 138.904 16.952 139.048 17.192C139.208 17.432 139.32 17.656 139.384 17.864C139.528 18.28 139.6 19.024 139.6 20.096C139.6 20.976 139.576 21.552 139.528 21.824C139.496 22.096 139.416 22.36 139.288 22.616C139.096 22.984 138.84 23.384 138.52 23.816C138.44 23.928 138.36 24.032 138.28 24.128C138.2 24.224 138.12 24.312 138.04 24.392C137.976 24.472 137.912 24.544 137.848 24.608C137.784 24.672 137.72 24.728 137.656 24.776C137.272 25.112 136.608 25.584 135.664 26.192C135.2 26.496 134.816 26.736 134.512 26.912C134.208 27.088 133.984 27.2 133.84 27.248C133.728 27.296 133.624 27.344 133.528 27.392C133.432 27.424 133.344 27.456 133.264 27.488C133.2 27.52 133.144 27.552 133.096 27.584C133.064 27.6 132.992 27.624 132.88 27.656C132.784 27.672 132.656 27.696 132.496 27.728C132.144 27.808 131.912 27.96 131.8 28.184C131.768 28.264 131.736 28.368 131.704 28.496C131.688 28.608 131.672 28.752 131.656 28.928C131.656 29.088 131.656 29.272 131.656 29.48C131.656 30.2 131.688 30.616 131.752 30.728C131.816 30.84 132.192 30.856 132.88 30.776C133.616 30.68 135.096 30.632 137.32 30.632L140.776 30.584L140.92 30.872C140.968 30.952 140.992 31.04 140.992 31.136C140.992 31.232 140.976 31.328 140.944 31.424C140.928 31.488 140.896 31.544 140.848 31.592C140.816 31.656 140.768 31.704 140.704 31.736C140.656 31.784 140.6 31.824 140.536 31.856C140.408 31.92 139.032 31.984 136.408 32.048C134.504 32.064 133.288 32.104 132.76 32.168C132.504 32.2 132.256 32.24 132.016 32.288C131.792 32.352 131.576 32.44 131.368 32.552C130.984 32.744 130.704 32.72 130.528 32.48C130.48 32.432 130.44 32.184 130.408 31.736C130.392 31.288 130.376 30.656 130.36 29.84C130.36 29.28 130.36 28.808 130.36 28.424C130.36 28.024 130.368 27.704 130.384 27.464C130.416 27.224 130.44 27.072 130.456 27.008C130.552 26.72 130.672 26.536 130.816 26.456C130.96 26.376 131.2 26.352 131.536 26.384C132.16 26.464 133.056 26.184 134.224 25.544C136.112 24.456 137.328 23.376 137.872 22.304C138.048 21.952 138.16 21.664 138.208 21.44C138.224 21.392 138.232 21.328 138.232 21.248C138.248 21.168 138.256 21.072 138.256 20.96C138.272 20.848 138.28 20.72 138.28 20.576C138.28 20.432 138.28 20.272 138.28 20.096C138.28 19.168 138.168 18.496 137.944 18.08C137.8 17.712 137.6 17.392 137.344 17.12C137.264 17.04 137.184 16.968 137.104 16.904C137.024 16.84 136.944 16.784 136.864 16.736C136.784 16.688 136.712 16.656 136.648 16.64C136.504 16.608 136.32 16.616 136.096 16.664C135.872 16.712 135.608 16.808 135.304 16.952C134.696 17.24 134.2 17.584 133.816 17.984C133.48 18.304 133.264 18.56 133.168 18.752C133.088 18.944 133.08 19.144 133.144 19.352C133.192 19.48 133.224 19.6 133.24 19.712C133.256 19.824 133.248 19.928 133.216 20.024C133.2 20.104 133.16 20.176 133.096 20.24C132.808 20.528 132.456 20.472 132.04 20.072C131.512 19.544 131.52 18.848 132.064 17.984ZM143.264 20.024C144.16 18.2 145 17.096 145.784 16.712C146.152 16.52 146.656 16.424 147.296 16.424C147.504 16.424 147.696 16.44 147.872 16.472C148.048 16.488 148.2 16.52 148.328 16.568C148.456 16.6 148.568 16.648 148.664 16.712C148.728 16.744 148.792 16.784 148.856 16.832C148.92 16.88 148.984 16.936 149.048 17C149.128 17.064 149.2 17.136 149.264 17.216C149.344 17.296 149.424 17.384 149.504 17.48C149.584 17.576 149.664 17.68 149.744 17.792C149.936 18.08 150.096 18.344 150.224 18.584C150.368 18.808 150.464 19.016 150.512 19.208C150.544 19.304 150.672 19.688 150.896 20.36C151.024 20.744 151.088 21.52 151.088 22.688C151.088 23.84 151.024 24.584 150.896 24.92C150.736 25.272 150.656 25.568 150.656 25.808C150.656 26.144 150.536 26.744 150.296 27.608C150.168 28.04 150.04 28.432 149.912 28.784C149.784 29.12 149.648 29.424 149.504 29.696C149.28 30.144 149.016 30.552 148.712 30.92C148.424 31.288 148.096 31.616 147.728 31.904C147.008 32.48 146.344 32.736 145.736 32.672C145.096 32.592 144.48 32.352 143.888 31.952C143.312 31.552 142.88 31.064 142.592 30.488C142.464 30.232 142.352 29.992 142.256 29.768C142.16 29.544 142.08 29.344 142.016 29.168C141.904 28.784 141.824 28.344 141.776 27.848C141.728 27.352 141.704 26.712 141.704 25.928C141.704 24.584 141.776 23.624 141.92 23.048C142.08 22.472 142.528 21.464 143.264 20.024ZM148.88 18.992C148.576 18.464 148.232 18.104 147.848 17.912C147.416 17.656 147.032 17.72 146.696 18.104C146.52 18.328 146.352 18.44 146.192 18.44C146.16 18.44 146.12 18.448 146.072 18.464C146.024 18.464 145.976 18.48 145.928 18.512C145.896 18.528 145.856 18.552 145.808 18.584C145.76 18.6 145.712 18.632 145.664 18.68C145.632 18.712 145.592 18.752 145.544 18.8C145.352 19.04 144.976 19.688 144.416 20.744C143.856 21.816 143.544 22.544 143.48 22.928C143.448 22.992 143.416 23.072 143.384 23.168C143.368 23.248 143.344 23.36 143.312 23.504C143.248 23.776 143.192 23.96 143.144 24.056C143.016 24.52 142.984 25.32 143.048 26.456C143.128 27.576 143.272 28.416 143.48 28.976C143.736 29.808 144.136 30.424 144.68 30.824C145.224 31.208 145.8 31.304 146.408 31.112C146.824 30.968 147.296 30.536 147.824 29.816C148.368 29.096 148.656 28.512 148.688 28.064C148.688 27.856 148.752 27.648 148.88 27.44C149.008 27.216 149.072 26.936 149.072 26.6C149.072 26.296 149.16 25.968 149.336 25.616C149.48 25.28 149.576 24.52 149.624 23.336C149.672 22.136 149.632 21.272 149.504 20.744C149.392 20.104 149.184 19.52 148.88 18.992Z" fill="black"/>
<rect x="121" y="1" width="40" height="40" stroke="#7A7A7A"/>
<path d="M173.84 25.64C173.792 25.624 173.744 25.6 173.696 25.568C173.648 25.52 173.6 25.456 173.552 25.376C173.36 25.152 173.312 24.928 173.408 24.704C173.44 24.64 173.488 24.568 173.552 24.488C173.632 24.408 173.72 24.328 173.816 24.248C173.928 24.152 174.056 24.048 174.2 23.936C176.568 22.336 178.376 20.536 179.624 18.536C179.832 18.2 180.048 17.896 180.272 17.624C180.544 17.32 180.896 16.84 181.328 16.184C181.792 15.464 182.096 15.032 182.24 14.888C182.368 14.712 182.544 14.64 182.768 14.672C183.008 14.688 183.192 14.792 183.32 14.984C183.4 15.128 183.432 15.248 183.416 15.344C183.416 15.424 183.32 15.6 183.128 15.872C182.52 16.784 181.968 17.56 181.472 18.2C181.088 18.728 180.784 19.152 180.56 19.472C180.304 19.856 180.008 20.256 179.672 20.672C179.352 21.088 178.992 21.52 178.592 21.968C178.384 22.208 178.192 22.416 178.016 22.592C177.856 22.768 177.704 22.928 177.56 23.072C177.416 23.2 177.288 23.312 177.176 23.408C177.08 23.488 176.992 23.552 176.912 23.6C176.704 23.696 176.592 23.776 176.576 23.84C176.656 23.92 177.832 23.952 180.104 23.936L183.632 23.912L183.656 19.688C183.672 17.672 183.696 16.448 183.728 16.016C183.744 15.6 183.816 15.336 183.944 15.224C184.088 15.08 184.256 15.032 184.448 15.08C184.656 15.112 184.808 15.2 184.904 15.344C184.968 15.488 185.008 16.928 185.024 19.664L185.096 23.72L185.384 23.96C185.48 24.04 185.6 24.096 185.744 24.128C185.888 24.16 186.064 24.184 186.272 24.2C186.48 24.2 186.656 24.192 186.8 24.176C186.96 24.144 187.08 24.096 187.16 24.032C187.176 24.016 187.192 24.008 187.208 24.008C187.24 23.992 187.28 23.976 187.328 23.96C187.392 23.944 187.448 23.928 187.496 23.912C187.56 23.896 187.616 23.88 187.664 23.864C187.728 23.848 187.768 23.84 187.784 23.84C187.928 23.84 188.048 23.872 188.144 23.936C188.256 24 188.336 24.096 188.384 24.224C188.48 24.384 188.528 24.504 188.528 24.584C188.528 24.664 188.48 24.76 188.384 24.872C188.112 25.32 187.416 25.488 186.296 25.376C185.704 25.312 185.344 25.328 185.216 25.424C185.104 25.52 185.048 26.528 185.048 28.448C185.048 29.28 185.064 29.992 185.096 30.584C185.096 30.872 185.104 31.096 185.12 31.256C185.136 31.432 185.152 31.536 185.168 31.568C185.328 31.84 185.272 32.12 185 32.408C184.872 32.552 184.744 32.632 184.616 32.648C184.488 32.68 184.36 32.656 184.232 32.576C184.168 32.544 184.112 32.504 184.064 32.456C184.016 32.408 183.976 32.352 183.944 32.288C183.896 32.16 183.848 31.936 183.8 31.616C183.768 31.296 183.744 30.904 183.728 30.44C183.728 29.976 183.728 29.312 183.728 28.448L183.68 25.328H180.536C178.232 25.328 176.176 25.432 174.368 25.64C174.288 25.656 174.216 25.664 174.152 25.664C174.088 25.664 174.024 25.664 173.96 25.664C173.912 25.664 173.872 25.656 173.84 25.64Z" fill="black"/>
<rect x="161" y="1" width="40" height="40" stroke="#7A7A7A"/>
<path d="M216.608 15.488C216.816 15.376 217.216 15.288 217.808 15.224C218.544 15.128 219.824 15.088 221.648 15.104H224.312L224.576 15.416C224.736 15.656 224.784 15.856 224.72 16.016C224.688 16.128 224.608 16.296 224.48 16.52C224.352 16.728 224.176 17 223.952 17.336C223.488 17.992 223.04 18.56 222.608 19.04C222.048 19.68 221.624 20.176 221.336 20.528C221.064 20.88 220.928 21.088 220.928 21.152C220.928 21.248 221.088 21.312 221.408 21.344C222.016 21.456 222.832 21.856 223.856 22.544C224.24 22.8 224.56 23.064 224.816 23.336C225.088 23.608 225.288 23.88 225.416 24.152C225.688 24.696 225.824 25.496 225.824 26.552C225.84 27.336 225.792 27.944 225.68 28.376C225.632 28.6 225.552 28.856 225.44 29.144C225.328 29.432 225.184 29.76 225.008 30.128C224.56 31.024 223.872 31.72 222.944 32.216C222.864 32.248 222.792 32.28 222.728 32.312C222.68 32.344 222.624 32.368 222.56 32.384C222.496 32.416 222.44 32.44 222.392 32.456C222.344 32.488 222.296 32.512 222.248 32.528C222.2 32.544 222.152 32.552 222.104 32.552C222.056 32.568 222.016 32.576 221.984 32.576C221.744 32.608 221.136 32.632 220.16 32.648C219.232 32.68 218.648 32.68 218.408 32.648C218.28 32.632 218.144 32.6 218 32.552C217.856 32.504 217.696 32.44 217.52 32.36C216.912 32.088 216.448 31.76 216.128 31.376C215.824 31.008 215.608 30.496 215.48 29.84C215.352 29.264 215.32 28.864 215.384 28.64C215.464 28.416 215.656 28.304 215.96 28.304C216.264 28.304 216.472 28.432 216.584 28.688C216.712 28.944 216.776 29.208 216.776 29.48C216.776 30.344 217.328 30.944 218.432 31.28C218.96 31.472 219.656 31.528 220.52 31.448C221.4 31.368 222.112 31.184 222.656 30.896C222.912 30.752 223.184 30.472 223.472 30.056C223.776 29.656 224.016 29.224 224.192 28.76C224.384 28.248 224.48 27.576 224.48 26.744C224.48 25.624 224.288 24.816 223.904 24.32C223.776 24.16 223.536 23.952 223.184 23.696C222.848 23.424 222.64 23.288 222.56 23.288C222.512 23.288 222.432 23.264 222.32 23.216C222.224 23.168 222.096 23.088 221.936 22.976C221.728 22.832 221.528 22.744 221.336 22.712C221.16 22.68 220.744 22.672 220.088 22.688C219.704 22.704 219.384 22.704 219.128 22.688C218.888 22.672 218.712 22.648 218.6 22.616C218.504 22.568 218.432 22.504 218.384 22.424C218.336 22.344 218.312 22.232 218.312 22.088C218.312 21.848 218.736 21.296 219.584 20.432C221.424 18.496 222.472 17.296 222.728 16.832C222.792 16.72 222.792 16.6 222.728 16.472C222.68 16.328 222.184 16.288 221.24 16.352C218.888 16.448 217.504 16.56 217.088 16.688C216.96 16.72 216.84 16.72 216.728 16.688C216.68 16.672 216.64 16.648 216.608 16.616C216.576 16.584 216.544 16.552 216.512 16.52C216.48 16.488 216.448 16.456 216.416 16.424C216.32 16.312 216.272 16.192 216.272 16.064C216.272 16.016 216.272 15.976 216.272 15.944C216.288 15.896 216.304 15.856 216.32 15.824C216.336 15.776 216.352 15.736 216.368 15.704C216.384 15.672 216.4 15.648 216.416 15.632C216.448 15.6 216.48 15.576 216.512 15.56C216.544 15.528 216.576 15.504 216.608 15.488Z" fill="black"/>
<rect x="201" y="1" width="40" height="40" stroke="#7A7A7A"/>
<path d="M251.564 17.984C251.836 17.552 252.188 17.16 252.62 16.808C253.052 16.44 253.556 16.12 254.132 15.848C254.98 15.432 255.692 15.272 256.268 15.368C256.844 15.448 257.412 15.8 257.972 16.424C258.212 16.696 258.404 16.952 258.548 17.192C258.708 17.432 258.82 17.656 258.884 17.864C259.028 18.28 259.1 19.024 259.1 20.096C259.1 20.976 259.076 21.552 259.028 21.824C258.996 22.096 258.916 22.36 258.788 22.616C258.596 22.984 258.34 23.384 258.02 23.816C257.94 23.928 257.86 24.032 257.78 24.128C257.7 24.224 257.62 24.312 257.54 24.392C257.476 24.472 257.412 24.544 257.348 24.608C257.284 24.672 257.22 24.728 257.156 24.776C256.772 25.112 256.108 25.584 255.164 26.192C254.7 26.496 254.316 26.736 254.012 26.912C253.708 27.088 253.484 27.2 253.34 27.248C253.228 27.296 253.124 27.344 253.028 27.392C252.932 27.424 252.844 27.456 252.764 27.488C252.7 27.52 252.644 27.552 252.596 27.584C252.564 27.6 252.492 27.624 252.38 27.656C252.284 27.672 252.156 27.696 251.996 27.728C251.644 27.808 251.412 27.96 251.3 28.184C251.268 28.264 251.236 28.368 251.204 28.496C251.188 28.608 251.172 28.752 251.156 28.928C251.156 29.088 251.156 29.272 251.156 29.48C251.156 30.2 251.188 30.616 251.252 30.728C251.316 30.84 251.692 30.856 252.38 30.776C253.116 30.68 254.596 30.632 256.82 30.632L260.276 30.584L260.42 30.872C260.468 30.952 260.492 31.04 260.492 31.136C260.492 31.232 260.476 31.328 260.444 31.424C260.428 31.488 260.396 31.544 260.348 31.592C260.316 31.656 260.268 31.704 260.204 31.736C260.156 31.784 260.1 31.824 260.036 31.856C259.908 31.92 258.532 31.984 255.908 32.048C254.004 32.064 252.788 32.104 252.26 32.168C252.004 32.2 251.756 32.24 251.516 32.288C251.292 32.352 251.076 32.44 250.868 32.552C250.484 32.744 250.204 32.72 250.028 32.48C249.98 32.432 249.94 32.184 249.908 31.736C249.892 31.288 249.876 30.656 249.86 29.84C249.86 29.28 249.86 28.808 249.86 28.424C249.86 28.024 249.868 27.704 249.884 27.464C249.916 27.224 249.94 27.072 249.956 27.008C250.052 26.72 250.172 26.536 250.316 26.456C250.46 26.376 250.7 26.352 251.036 26.384C251.66 26.464 252.556 26.184 253.724 25.544C255.612 24.456 256.828 23.376 257.372 22.304C257.548 21.952 257.66 21.664 257.708 21.44C257.724 21.392 257.732 21.328 257.732 21.248C257.748 21.168 257.756 21.072 257.756 20.96C257.772 20.848 257.78 20.72 257.78 20.576C257.78 20.432 257.78 20.272 257.78 20.096C257.78 19.168 257.668 18.496 257.444 18.08C257.3 17.712 257.1 17.392 256.844 17.12C256.764 17.04 256.684 16.968 256.604 16.904C256.524 16.84 256.444 16.784 256.364 16.736C256.284 16.688 256.212 16.656 256.148 16.64C256.004 16.608 255.82 16.616 255.596 16.664C255.372 16.712 255.108 16.808 254.804 16.952C254.196 17.24 253.7 17.584 253.316 17.984C252.98 18.304 252.764 18.56 252.668 18.752C252.588 18.944 252.58 19.144 252.644 19.352C252.692 19.48 252.724 19.6 252.74 19.712C252.756 19.824 252.748 19.928 252.716 20.024C252.7 20.104 252.66 20.176 252.596 20.24C252.308 20.528 251.956 20.472 251.54 20.072C251.012 19.544 251.02 18.848 251.564 17.984ZM262.908 17.984C263.18 17.552 263.532 17.16 263.964 16.808C264.396 16.44 264.9 16.12 265.476 15.848C266.324 15.432 267.036 15.272 267.612 15.368C268.188 15.448 268.756 15.8 269.316 16.424C269.556 16.696 269.748 16.952 269.892 17.192C270.052 17.432 270.164 17.656 270.228 17.864C270.372 18.28 270.444 19.024 270.444 20.096C270.444 20.976 270.42 21.552 270.372 21.824C270.34 22.096 270.26 22.36 270.132 22.616C269.94 22.984 269.684 23.384 269.364 23.816C269.284 23.928 269.204 24.032 269.124 24.128C269.044 24.224 268.964 24.312 268.884 24.392C268.82 24.472 268.756 24.544 268.692 24.608C268.628 24.672 268.564 24.728 268.5 24.776C268.116 25.112 267.452 25.584 266.508 26.192C266.044 26.496 265.66 26.736 265.356 26.912C265.052 27.088 264.828 27.2 264.684 27.248C264.572 27.296 264.468 27.344 264.372 27.392C264.276 27.424 264.188 27.456 264.108 27.488C264.044 27.52 263.988 27.552 263.94 27.584C263.908 27.6 263.836 27.624 263.724 27.656C263.628 27.672 263.5 27.696 263.34 27.728C262.988 27.808 262.756 27.96 262.644 28.184C262.612 28.264 262.58 28.368 262.548 28.496C262.532 28.608 262.516 28.752 262.5 28.928C262.5 29.088 262.5 29.272 262.5 29.48C262.5 30.2 262.532 30.616 262.596 30.728C262.66 30.84 263.036 30.856 263.724 30.776C264.46 30.68 265.94 30.632 268.164 30.632L271.62 30.584L271.764 30.872C271.812 30.952 271.836 31.04 271.836 31.136C271.836 31.232 271.82 31.328 271.788 31.424C271.772 31.488 271.74 31.544 271.692 31.592C271.66 31.656 271.612 31.704 271.548 31.736C271.5 31.784 271.444 31.824 271.38 31.856C271.252 31.92 269.876 31.984 267.252 32.048C265.348 32.064 264.132 32.104 263.604 32.168C263.348 32.2 263.1 32.24 262.86 32.288C262.636 32.352 262.42 32.44 262.212 32.552C261.828 32.744 261.548 32.72 261.372 32.48C261.324 32.432 261.284 32.184 261.252 31.736C261.236 31.288 261.22 30.656 261.204 29.84C261.204 29.28 261.204 28.808 261.204 28.424C261.204 28.024 261.212 27.704 261.228 27.464C261.26 27.224 261.284 27.072 261.3 27.008C261.396 26.72 261.516 26.536 261.66 26.456C261.804 26.376 262.044 26.352 262.38 26.384C263.004 26.464 263.9 26.184 265.068 25.544C266.956 24.456 268.172 23.376 268.716 22.304C268.892 21.952 269.004 21.664 269.052 21.44C269.068 21.392 269.076 21.328 269.076 21.248C269.092 21.168 269.1 21.072 269.1 20.96C269.116 20.848 269.124 20.72 269.124 20.576C269.124 20.432 269.124 20.272 269.124 20.096C269.124 19.168 269.012 18.496 268.788 18.08C268.644 17.712 268.444 17.392 268.188 17.12C268.108 17.04 268.028 16.968 267.948 16.904C267.868 16.84 267.788 16.784 267.708 16.736C267.628 16.688 267.556 16.656 267.492 16.64C267.348 16.608 267.164 16.616 266.94 16.664C266.716 16.712 266.452 16.808 266.148 16.952C265.54 17.24 265.044 17.584 264.66 17.984C264.324 18.304 264.108 18.56 264.012 18.752C263.932 18.944 263.924 19.144 263.988 19.352C264.036 19.48 264.068 19.6 264.084 19.712C264.1 19.824 264.092 19.928 264.06 20.024C264.044 20.104 264.004 20.176 263.94 20.24C263.652 20.528 263.3 20.472 262.884 20.072C262.356 19.544 262.364 18.848 262.908 17.984Z" fill="black"/>
<rect x="241" y="1" width="40" height="40" stroke="#7A7A7A"/>
<path d="M301.528 16.448C301.96 16.144 302.272 16.008 302.464 16.04H302.488C302.536 16.04 302.592 16.056 302.656 16.088C302.736 16.12 302.808 16.176 302.872 16.256C302.936 16.32 303.008 16.408 303.088 16.52C303.296 16.824 303.368 17.032 303.304 17.144V17.168C303.256 17.28 303.184 17.856 303.088 18.896C303.024 19.904 302.96 20.44 302.896 20.504C302.848 20.6 302.824 20.856 302.824 21.272C302.84 21.608 302.8 21.928 302.704 22.232C302.608 22.52 302.52 23.048 302.44 23.816C302.36 24.568 302.264 25.272 302.152 25.928C302.008 26.936 301.896 27.848 301.816 28.664C301.736 29.48 301.68 30.208 301.648 30.848C301.632 31.536 301.6 31.96 301.552 32.12C301.536 32.216 301.504 32.296 301.456 32.36C301.408 32.424 301.352 32.48 301.288 32.528C301.16 32.624 301.064 32.672 301 32.672C300.936 32.672 300.832 32.616 300.688 32.504H300.664C300.456 32.36 300.32 32.176 300.256 31.952C300.208 31.728 300.2 31.384 300.232 30.92C300.248 30.84 300.264 30.688 300.28 30.464C300.296 30.256 300.32 29.984 300.352 29.648C300.384 29.312 300.416 28.904 300.448 28.424C300.464 28.2 300.48 27.992 300.496 27.8C300.528 27.592 300.552 27.424 300.568 27.296C300.584 27.152 300.6 27.024 300.616 26.912C300.632 26.8 300.64 26.72 300.64 26.672C300.656 26.608 300.672 26.568 300.688 26.552C300.768 26.408 300.896 25.336 301.072 23.336C301.088 23.128 301.112 22.928 301.144 22.736C301.176 22.528 301.208 22.344 301.24 22.184C301.272 22.008 301.312 21.848 301.36 21.704C301.44 21.416 301.504 21.008 301.552 20.48C301.616 19.936 301.648 19.472 301.648 19.088C301.648 18.88 301.64 18.728 301.624 18.632C301.608 18.504 301.576 18.424 301.528 18.392L301.504 18.368C301.456 18.368 301.392 18.392 301.312 18.44C301.232 18.472 301.136 18.528 301.024 18.608C300.912 18.688 300.768 18.792 300.592 18.92C300.432 19.016 300.288 19.104 300.16 19.184C299.456 19.52 298.968 19.448 298.696 18.968C298.584 18.76 298.568 18.6 298.648 18.488C298.744 18.36 299.008 18.16 299.44 17.888C300 17.616 300.376 17.384 300.568 17.192C300.824 16.984 301.144 16.736 301.528 16.448Z" fill="black"/>
<rect x="281" y="1" width="40" height="40" stroke="#7A7A7A"/>
<path d="M337.42 20.024C338.316 18.2 339.156 17.096 339.94 16.712C340.308 16.52 340.812 16.424 341.452 16.424C341.66 16.424 341.852 16.44 342.028 16.472C342.204 16.488 342.356 16.52 342.484 16.568C342.612 16.6 342.724 16.648 342.82 16.712C342.884 16.744 342.948 16.784 343.012 16.832C343.076 16.88 343.14 16.936 343.204 17C343.284 17.064 343.356 17.136 343.42 17.216C343.5 17.296 343.58 17.384 343.66 17.48C343.74 17.576 343.82 17.68 343.9 17.792C344.092 18.08 344.252 18.344 344.38 18.584C344.524 18.808 344.62 19.016 344.668 19.208C344.7 19.304 344.828 19.688 345.052 20.36C345.18 20.744 345.244 21.52 345.244 22.688C345.244 23.84 345.18 24.584 345.052 24.92C344.892 25.272 344.812 25.568 344.812 25.808C344.812 26.144 344.692 26.744 344.452 27.608C344.324 28.04 344.196 28.432 344.068 28.784C343.94 29.12 343.804 29.424 343.66 29.696C343.436 30.144 343.172 30.552 342.868 30.92C342.58 31.288 342.252 31.616 341.884 31.904C341.164 32.48 340.5 32.736 339.892 32.672C339.252 32.592 338.636 32.352 338.044 31.952C337.468 31.552 337.036 31.064 336.748 30.488C336.62 30.232 336.508 29.992 336.412 29.768C336.316 29.544 336.236 29.344 336.172 29.168C336.06 28.784 335.98 28.344 335.932 27.848C335.884 27.352 335.86 26.712 335.86 25.928C335.86 24.584 335.932 23.624 336.076 23.048C336.236 22.472 336.684 21.464 337.42 20.024ZM343.036 18.992C342.732 18.464 342.388 18.104 342.004 17.912C341.572 17.656 341.188 17.72 340.852 18.104C340.676 18.328 340.508 18.44 340.348 18.44C340.316 18.44 340.276 18.448 340.228 18.464C340.18 18.464 340.132 18.48 340.084 18.512C340.052 18.528 340.012 18.552 339.964 18.584C339.916 18.6 339.868 18.632 339.82 18.68C339.788 18.712 339.748 18.752 339.7 18.8C339.508 19.04 339.132 19.688 338.572 20.744C338.012 21.816 337.7 22.544 337.636 22.928C337.604 22.992 337.572 23.072 337.54 23.168C337.524 23.248 337.5 23.36 337.468 23.504C337.404 23.776 337.348 23.96 337.3 24.056C337.172 24.52 337.14 25.32 337.204 26.456C337.284 27.576 337.428 28.416 337.636 28.976C337.892 29.808 338.292 30.424 338.836 30.824C339.38 31.208 339.956 31.304 340.564 31.112C340.98 30.968 341.452 30.536 341.98 29.816C342.524 29.096 342.812 28.512 342.844 28.064C342.844 27.856 342.908 27.648 343.036 27.44C343.164 27.216 343.228 26.936 343.228 26.6C343.228 26.296 343.316 25.968 343.492 25.616C343.636 25.28 343.732 24.52 343.78 23.336C343.828 22.136 343.788 21.272 343.66 20.744C343.548 20.104 343.34 19.52 343.036 18.992Z" fill="black"/>
<rect x="321" y="1" width="40" height="40" stroke="#7A7A7A"/>
<path d="M376.028 16.448C376.46 16.144 376.772 16.008 376.964 16.04H376.988C377.036 16.04 377.092 16.056 377.156 16.088C377.236 16.12 377.308 16.176 377.372 16.256C377.436 16.32 377.508 16.408 377.588 16.52C377.796 16.824 377.868 17.032 377.804 17.144V17.168C377.756 17.28 377.684 17.856 377.588 18.896C377.524 19.904 377.46 20.44 377.396 20.504C377.348 20.6 377.324 20.856 377.324 21.272C377.34 21.608 377.3 21.928 377.204 22.232C377.108 22.52 377.02 23.048 376.94 23.816C376.86 24.568 376.764 25.272 376.652 25.928C376.508 26.936 376.396 27.848 376.316 28.664C376.236 29.48 376.18 30.208 376.148 30.848C376.132 31.536 376.1 31.96 376.052 32.12C376.036 32.216 376.004 32.296 375.956 32.36C375.908 32.424 375.852 32.48 375.788 32.528C375.66 32.624 375.564 32.672 375.5 32.672C375.436 32.672 375.332 32.616 375.188 32.504H375.164C374.956 32.36 374.82 32.176 374.756 31.952C374.708 31.728 374.7 31.384 374.732 30.92C374.748 30.84 374.764 30.688 374.78 30.464C374.796 30.256 374.82 29.984 374.852 29.648C374.884 29.312 374.916 28.904 374.948 28.424C374.964 28.2 374.98 27.992 374.996 27.8C375.028 27.592 375.052 27.424 375.068 27.296C375.084 27.152 375.1 27.024 375.116 26.912C375.132 26.8 375.14 26.72 375.14 26.672C375.156 26.608 375.172 26.568 375.188 26.552C375.268 26.408 375.396 25.336 375.572 23.336C375.588 23.128 375.612 22.928 375.644 22.736C375.676 22.528 375.708 22.344 375.74 22.184C375.772 22.008 375.812 21.848 375.86 21.704C375.94 21.416 376.004 21.008 376.052 20.48C376.116 19.936 376.148 19.472 376.148 19.088C376.148 18.88 376.14 18.728 376.124 18.632C376.108 18.504 376.076 18.424 376.028 18.392L376.004 18.368C375.956 18.368 375.892 18.392 375.812 18.44C375.732 18.472 375.636 18.528 375.524 18.608C375.412 18.688 375.268 18.792 375.092 18.92C374.932 19.016 374.788 19.104 374.66 19.184C373.956 19.52 373.468 19.448 373.196 18.968C373.084 18.76 373.068 18.6 373.148 18.488C373.244 18.36 373.508 18.16 373.94 17.888C374.5 17.616 374.876 17.384 375.068 17.192C375.324 16.984 375.644 16.736 376.028 16.448ZM382.438 15.464C382.534 15.432 382.646 15.408 382.774 15.392C382.902 15.36 383.054 15.344 383.23 15.344C383.886 15.296 384.806 15.288 385.99 15.32H388.006L388.414 15.704C388.494 15.8 388.558 15.88 388.606 15.944C388.654 16.008 388.686 16.064 388.702 16.112C388.734 16.176 388.718 16.28 388.654 16.424C388.558 16.6 388.414 16.728 388.222 16.808C388.03 16.872 387.846 16.856 387.67 16.76C387.494 16.664 386.75 16.616 385.438 16.616H383.542L383.11 17.096C382.838 17.368 382.606 17.48 382.414 17.432C382.254 17.4 382.134 17.4 382.054 17.432C382.022 17.448 381.99 17.488 381.958 17.552C381.926 17.6 381.894 17.672 381.862 17.768C381.798 17.976 381.758 18.248 381.742 18.584C381.742 18.904 381.742 19.392 381.742 20.048C381.742 20.784 381.758 21.344 381.79 21.728C381.838 22.112 381.902 22.328 381.982 22.376C382.062 22.424 382.27 22.368 382.606 22.208C382.766 22.128 382.982 22.064 383.254 22.016C383.542 21.968 383.894 21.936 384.31 21.92C385.126 21.872 385.694 21.904 386.014 22.016C386.494 22.16 386.966 22.52 387.43 23.096C387.59 23.272 387.734 23.464 387.862 23.672C387.99 23.88 388.11 24.104 388.222 24.344C388.334 24.568 388.422 24.8 388.486 25.04C388.662 25.568 388.758 26.264 388.774 27.128C388.79 27.976 388.71 28.648 388.534 29.144C388.47 29.336 388.398 29.52 388.318 29.696C388.254 29.872 388.182 30.04 388.102 30.2C388.038 30.36 387.966 30.512 387.886 30.656C387.806 30.8 387.726 30.928 387.646 31.04C387.582 31.168 387.51 31.28 387.43 31.376C387.35 31.472 387.27 31.56 387.19 31.64C386.854 32.024 386.502 32.28 386.134 32.408C385.766 32.552 385.254 32.632 384.598 32.648C383.926 32.696 383.326 32.672 382.798 32.576C382.27 32.496 381.814 32.352 381.43 32.144C380.982 31.856 380.486 31.44 379.942 30.896C379.766 30.72 379.614 30.552 379.486 30.392C379.358 30.248 379.254 30.12 379.174 30.008C379.11 29.896 379.07 29.808 379.054 29.744V29.72L378.982 29.48C378.918 29.304 378.878 29.16 378.862 29.048C378.75 28.664 378.758 28.376 378.886 28.184C379.014 28.008 379.174 27.912 379.366 27.896C379.462 27.88 379.55 27.888 379.63 27.92C379.726 27.952 379.814 28.008 379.894 28.088C379.99 28.184 380.07 28.408 380.134 28.76C380.166 28.936 380.222 29.104 380.302 29.264C380.382 29.44 380.486 29.608 380.614 29.768C380.758 29.928 380.926 30.08 381.118 30.224C381.662 30.688 382.342 31.048 383.158 31.304C383.414 31.384 383.63 31.44 383.806 31.472C383.998 31.52 384.15 31.552 384.262 31.568C384.47 31.568 384.774 31.496 385.174 31.352C385.638 31.192 385.998 30.968 386.254 30.68C386.526 30.408 386.774 30 386.998 29.456C387.078 29.248 387.142 29.064 387.19 28.904C387.254 28.728 387.294 28.576 387.31 28.448C387.358 28.192 387.382 27.744 387.382 27.104C387.382 26.448 387.358 26.008 387.31 25.784C387.278 25.56 387.174 25.24 386.998 24.824C386.854 24.584 386.71 24.368 386.566 24.176C386.438 23.968 386.294 23.784 386.134 23.624C385.942 23.464 385.774 23.368 385.63 23.336C385.486 23.288 385.206 23.264 384.79 23.264C383.718 23.264 382.782 23.496 381.982 23.96C381.614 24.168 381.35 24.272 381.19 24.272C381.046 24.256 380.878 24.128 380.686 23.888L380.374 23.504V20.168C380.39 18.584 380.406 17.608 380.422 17.24C380.438 17.048 380.462 16.872 380.494 16.712C380.542 16.552 380.598 16.4 380.662 16.256C380.806 15.968 380.91 15.808 380.974 15.776C380.99 15.76 381.022 15.752 381.07 15.752C381.118 15.736 381.174 15.728 381.238 15.728C381.318 15.728 381.406 15.728 381.502 15.728C381.678 15.744 381.83 15.744 381.958 15.728C382.086 15.696 382.182 15.64 382.246 15.56C382.294 15.528 382.358 15.496 382.438 15.464Z" fill="black"/>
<rect x="361" y="1" width="40" height="40" stroke="#7A7A7A"/>
<path d="M416.028 16.448C416.46 16.144 416.772 16.008 416.964 16.04H416.988C417.036 16.04 417.092 16.056 417.156 16.088C417.236 16.12 417.308 16.176 417.372 16.256C417.436 16.32 417.508 16.408 417.588 16.52C417.796 16.824 417.868 17.032 417.804 17.144V17.168C417.756 17.28 417.684 17.856 417.588 18.896C417.524 19.904 417.46 20.44 417.396 20.504C417.348 20.6 417.324 20.856 417.324 21.272C417.34 21.608 417.3 21.928 417.204 22.232C417.108 22.52 417.02 23.048 416.94 23.816C416.86 24.568 416.764 25.272 416.652 25.928C416.508 26.936 416.396 27.848 416.316 28.664C416.236 29.48 416.18 30.208 416.148 30.848C416.132 31.536 416.1 31.96 416.052 32.12C416.036 32.216 416.004 32.296 415.956 32.36C415.908 32.424 415.852 32.48 415.788 32.528C415.66 32.624 415.564 32.672 415.5 32.672C415.436 32.672 415.332 32.616 415.188 32.504H415.164C414.956 32.36 414.82 32.176 414.756 31.952C414.708 31.728 414.7 31.384 414.732 30.92C414.748 30.84 414.764 30.688 414.78 30.464C414.796 30.256 414.82 29.984 414.852 29.648C414.884 29.312 414.916 28.904 414.948 28.424C414.964 28.2 414.98 27.992 414.996 27.8C415.028 27.592 415.052 27.424 415.068 27.296C415.084 27.152 415.1 27.024 415.116 26.912C415.132 26.8 415.14 26.72 415.14 26.672C415.156 26.608 415.172 26.568 415.188 26.552C415.268 26.408 415.396 25.336 415.572 23.336C415.588 23.128 415.612 22.928 415.644 22.736C415.676 22.528 415.708 22.344 415.74 22.184C415.772 22.008 415.812 21.848 415.86 21.704C415.94 21.416 416.004 21.008 416.052 20.48C416.116 19.936 416.148 19.472 416.148 19.088C416.148 18.88 416.14 18.728 416.124 18.632C416.108 18.504 416.076 18.424 416.028 18.392L416.004 18.368C415.956 18.368 415.892 18.392 415.812 18.44C415.732 18.472 415.636 18.528 415.524 18.608C415.412 18.688 415.268 18.792 415.092 18.92C414.932 19.016 414.788 19.104 414.66 19.184C413.956 19.52 413.468 19.448 413.196 18.968C413.084 18.76 413.068 18.6 413.148 18.488C413.244 18.36 413.508 18.16 413.94 17.888C414.5 17.616 414.876 17.384 415.068 17.192C415.324 16.984 415.644 16.736 416.028 16.448ZM423.038 22.76C423.262 22.68 423.766 22.64 424.55 22.64C425.35 22.64 425.862 22.68 426.086 22.76C426.262 22.808 426.502 22.864 426.806 22.928C427.062 22.96 427.382 23.152 427.766 23.504C428.15 23.84 428.438 24.192 428.63 24.56C428.678 24.672 428.718 24.784 428.75 24.896C428.798 24.992 428.822 25.088 428.822 25.184C428.838 25.392 428.83 25.792 428.798 26.384C428.782 27.28 428.718 27.96 428.606 28.424C428.51 28.76 428.334 29.2 428.078 29.744C427.822 30.304 427.574 30.768 427.334 31.136C427.158 31.376 426.886 31.64 426.518 31.928C426.326 32.056 426.134 32.168 425.942 32.264C425.766 32.376 425.598 32.464 425.438 32.528C425.31 32.592 425.182 32.632 425.054 32.648C424.942 32.664 424.822 32.672 424.694 32.672C424.486 32.656 423.966 32.568 423.134 32.408C422.766 32.328 422.278 32.008 421.67 31.448C421.078 30.888 420.598 30.304 420.23 29.696C419.766 28.912 419.358 27.936 419.006 26.768C418.846 26.32 418.774 25.32 418.79 23.768C418.806 22.712 418.83 22.008 418.862 21.656C418.894 21.288 418.966 20.88 419.078 20.432C419.558 18.656 420.206 17.2 421.022 16.064C421.23 15.76 421.638 15.312 422.246 14.72C422.854 14.128 423.222 13.832 423.35 13.832C423.446 13.832 423.534 13.784 423.614 13.688C423.726 13.56 424.078 13.496 424.67 13.496C425.262 13.496 425.702 13.552 425.99 13.664C426.374 13.824 426.694 13.984 426.95 14.144C427.222 14.304 427.446 14.464 427.622 14.624C428.118 15.152 428.302 15.864 428.174 16.76C428.11 17.144 428.078 17.408 428.078 17.552V17.576C428.062 17.736 427.958 17.856 427.766 17.936C427.654 17.984 427.542 18 427.43 17.984C427.334 17.952 427.23 17.888 427.118 17.792C426.974 17.664 426.886 17.528 426.854 17.384C426.822 17.256 426.806 16.984 426.806 16.568C426.806 16.264 426.79 16.024 426.758 15.848C426.726 15.656 426.686 15.528 426.638 15.464C426.51 15.336 426.278 15.2 425.942 15.056C425.606 14.912 425.278 14.816 424.958 14.768C424.638 14.72 424.294 14.792 423.926 14.984C423.59 15.192 423.238 15.48 422.87 15.848C422.518 16.216 422.158 16.68 421.79 17.24C421.71 17.336 421.638 17.432 421.574 17.528C421.526 17.624 421.486 17.696 421.454 17.744C421.422 17.792 421.406 17.824 421.406 17.84C421.39 17.904 421.334 18.04 421.238 18.248C420.79 19.272 420.502 20.064 420.374 20.624C420.246 21.168 420.166 21.928 420.134 22.904C420.086 23.672 420.07 24.168 420.086 24.392L420.134 24.656C420.214 24.656 420.35 24.512 420.542 24.224C420.942 23.6 421.502 23.184 422.222 22.976C422.286 22.96 422.358 22.944 422.438 22.928C422.518 22.912 422.606 22.888 422.702 22.856C422.814 22.824 422.926 22.792 423.038 22.76ZM427.55 25.832C427.486 25.16 427.166 24.64 426.59 24.272C426.542 24.24 426.47 24.216 426.374 24.2C426.278 24.168 426.15 24.144 425.99 24.128C425.846 24.112 425.67 24.096 425.462 24.08C425.254 24.064 425.022 24.056 424.766 24.056C424.142 24.04 423.686 24.04 423.398 24.056C423.238 24.056 423.094 24.072 422.966 24.104C422.854 24.12 422.75 24.144 422.654 24.176C422.574 24.208 422.486 24.248 422.39 24.296C422.294 24.344 422.206 24.408 422.126 24.488C421.662 24.84 421.358 25.296 421.214 25.856C421.102 26.192 420.926 26.456 420.686 26.648C420.654 26.696 420.614 26.736 420.566 26.768C420.534 26.8 420.51 26.832 420.494 26.864C420.478 26.88 420.47 26.896 420.47 26.912C420.454 26.928 420.446 26.976 420.446 27.056C420.462 27.12 420.486 27.2 420.518 27.296C420.55 27.424 420.598 27.568 420.662 27.728C420.726 27.872 420.806 28.032 420.902 28.208C421.078 28.576 421.278 28.928 421.502 29.264C421.742 29.616 421.966 29.92 422.174 30.176C422.574 30.592 422.942 30.888 423.278 31.064C423.39 31.112 423.51 31.152 423.638 31.184C423.766 31.232 423.902 31.264 424.046 31.28C424.19 31.312 424.342 31.328 424.502 31.328C424.934 31.36 425.278 31.28 425.534 31.088C425.646 31.008 425.774 30.88 425.918 30.704C426.062 30.544 426.222 30.344 426.398 30.104C426.75 29.608 426.966 29.208 427.046 28.904C427.462 27.528 427.63 26.504 427.55 25.832Z" fill="black"/>
<rect x="401" y="1" width="40" height="40" stroke="#7A7A7A"/>
</svg>
