<svg width="16" height="17" viewBox="0 0 16 17" fill="none" xmlns="http://www.w3.org/2000/svg">
<g clip-path="url(#clip0)">
<path fill-rule="evenodd" clip-rule="evenodd" d="M7.99926 0.96669C3.58218 0.96669 0 4.54838 0 8.96694C0 12.5015 2.29203 15.4997 5.47101 16.5576C5.87127 16.6313 6.01713 16.3842 6.01713 16.1721C6.01713 15.982 6.01025 15.4791 6.00632 14.8117C3.78109 15.2949 3.31158 13.7391 3.31158 13.7391C2.94767 12.8148 2.42316 12.5688 2.42316 12.5688C1.6968 12.0727 2.47816 12.0826 2.47816 12.0826C3.28113 12.139 3.70349 12.9071 3.70349 12.9071C4.41708 14.1295 5.57611 13.7764 6.03186 13.5716C6.10455 13.055 6.31131 12.7023 6.53967 12.5025C4.76331 12.3006 2.89561 11.614 2.89561 8.54851C2.89561 7.67531 3.20746 6.96074 3.71921 6.40185C3.6367 6.19951 3.36217 5.38573 3.79778 4.28466C3.79778 4.28466 4.46914 4.06955 5.99748 5.10482C6.63544 4.92703 7.32005 4.83863 8.00025 4.83519C8.67995 4.83863 9.36407 4.92703 10.003 5.10482C11.5304 4.06955 12.2007 4.28466 12.2007 4.28466C12.6373 5.38573 12.3628 6.19951 12.2808 6.40185C12.7935 6.96074 13.1029 7.67531 13.1029 8.54851C13.1029 11.6219 11.2323 12.2982 9.45051 12.4961C9.73732 12.7431 9.99319 13.2313 9.99319 13.9773C9.99319 15.0469 9.98336 15.9098 9.98336 16.1721C9.98336 16.3862 10.1278 16.6352 10.5334 16.5571C13.7099 15.4968 16 12.5005 16 8.96694C16 4.54838 12.4178 0.96669 7.99926 0.96669Z" fill="#FFFFFE"/>
</g>
<defs>
<clipPath id="clip0">
<rect width="16" height="16" fill="white" transform="translate(0 0.96669)"/>
</clipPath>
</defs>
</svg>
